<svg width="24" height="24" viewBox="0 0 24 24" fill="none" xmlns="http://www.w3.org/2000/svg">
<path d="M12 0.23999C5.67121 0.23999 0.542419 5.50559 0.542419 12C0.542419 18.4944 5.67361 23.76 12 23.76C18.3288 23.76 23.4576 18.4944 23.4576 12C23.4576 5.50559 18.3288 0.23999 12 0.23999ZM15.4392 22.5624C14.8872 22.6728 14.6928 22.3248 14.6928 22.0272C14.6928 21.6624 14.7048 20.4624 14.7048 18.9744C14.7048 17.9352 14.3568 17.256 13.968 16.9104C16.3872 16.6368 18.924 15.6936 18.924 11.4192C18.924 10.2048 18.504 9.20879 17.808 8.43119C17.9184 8.15039 18.2928 7.01999 17.7 5.48639C17.7 5.48639 16.7904 5.18639 14.7168 6.62879C13.8504 6.38159 12.9216 6.25679 12 6.25199C11.076 6.25679 10.1472 6.37919 9.28321 6.62879C7.20961 5.18879 6.29761 5.48639 6.29761 5.48639C5.70721 7.01999 6.07921 8.15039 6.19201 8.43119C5.49841 9.20879 5.07601 10.2024 5.07601 11.4192C5.07601 15.684 7.61041 16.6392 10.02 16.92C9.71041 17.1984 9.42961 17.688 9.33121 18.408C8.71201 18.6912 7.14001 19.1832 6.17281 17.4816C6.17281 17.4816 5.59921 16.4136 4.50962 16.3344C4.50962 16.3344 3.44882 16.32 4.43522 17.0112C4.43522 17.0112 5.14802 17.352 5.64001 18.6384C5.64001 18.6384 6.27841 20.8032 9.29761 20.1312C9.30241 21.06 9.31201 21.7608 9.31201 22.0248C9.31201 22.32 9.11521 22.6632 8.57041 22.56C4.25522 21.0888 1.14722 16.9176 1.14722 12C1.14482 5.85599 6.00481 0.87359 12 0.87359C17.9952 0.87359 22.8552 5.85599 22.8552 12.0048C22.8552 16.92 19.7472 21.0888 15.4392 22.5624Z" fill="black"/>
</svg>
