<svg width="132" height="48" viewBox="0 0 132 48" fill="none" xmlns="http://www.w3.org/2000/svg">
<g clip-path="url(#clip0_13_4538)">
<path d="M68.1491 15.8987L74.4291 15.5012C74.5724 16.5066 74.835 17.2547 75.2648 17.7925C75.9573 18.6342 76.9125 19.055 78.178 19.055C79.1093 19.055 79.8495 18.8446 80.3509 18.4004C80.8285 18.0497 81.1151 17.4886 81.1151 16.904C81.1151 16.3429 80.8524 15.8052 80.3987 15.4545C79.9211 15.0336 78.7989 14.6128 77.0318 14.2387C74.1426 13.6074 72.0651 12.7657 70.8473 11.6902C69.6295 10.6849 68.937 9.21188 68.9848 7.6454C68.9848 6.5699 69.3191 5.4944 69.9399 4.60594C70.6563 3.60058 71.6353 2.80565 72.8054 2.36142C74.0709 1.82367 75.8379 1.54311 78.0586 1.54311C80.7808 1.54311 82.8582 2.03409 84.2909 3.03945C85.7236 4.02143 86.5832 5.6113 86.8459 7.78568L80.6375 8.13638C80.4703 7.20117 80.136 6.52314 79.5868 6.07891C79.0376 5.63468 78.3213 5.42426 77.39 5.42426C76.6259 5.42426 76.0528 5.58792 75.6708 5.89186C75.3126 6.17243 75.0738 6.59328 75.0977 7.06089C75.0977 7.41159 75.2887 7.73892 75.5753 7.94934C75.8857 8.22991 76.6259 8.48709 77.796 8.7209C80.6852 9.32879 82.7388 9.93668 84.0043 10.5679C85.2699 11.1992 86.1773 11.9708 86.7265 12.8826C87.2996 13.8178 87.5861 14.8933 87.5622 15.9922C87.5622 17.3015 87.1802 18.6108 86.4161 19.7097C85.6281 20.8553 84.5297 21.7438 83.2402 22.2815C81.8792 22.8661 80.1599 23.17 78.1064 23.17C74.4769 23.17 71.9696 22.492 70.5608 21.1125C69.152 19.7331 68.3162 18.0029 68.1491 15.8987ZM1.50434 22.8193V1.91719H12.5123C14.542 1.91719 16.1179 2.08086 17.1925 2.43156C18.2431 2.75889 19.1744 3.43692 19.7952 4.34876C20.4877 5.35411 20.822 6.52314 20.7981 7.73892C20.8698 9.79639 19.7952 11.7604 17.9566 12.7891C17.2402 13.1866 16.4522 13.4671 15.6404 13.6074C16.2373 13.7711 16.8343 14.0516 17.3596 14.379C17.7656 14.7063 18.0999 15.0804 18.4103 15.4778C18.7685 15.8753 19.0789 16.3195 19.3415 16.7871L22.5412 22.8427H15.0434L11.5094 16.4131C11.0557 15.5947 10.6737 15.057 10.3155 14.7998C9.83792 14.4725 9.26483 14.3088 8.69175 14.3088H8.11867V22.7959H1.50434V22.8193ZM8.11867 10.3809H10.9124C11.5094 10.3341 12.0825 10.2406 12.6556 10.1003C13.0854 10.0302 13.4674 9.7964 13.7301 9.44569C14.3748 8.60399 14.2793 7.41159 13.4913 6.6868C13.0615 6.33609 12.2258 6.14905 11.0318 6.14905H8.11867V10.3809ZM0 40.7287L6.28003 40.3312C6.4233 41.3366 6.68596 42.0848 7.11577 42.6225C7.78437 43.4642 8.76339 43.9084 10.0289 43.9084C10.9602 43.9084 11.7004 43.698 12.2019 43.2538C12.6795 42.8797 12.966 42.3419 12.966 41.7574C12.966 41.1963 12.7033 40.6585 12.2496 40.3078C11.7721 39.887 10.6498 39.4661 8.8589 39.0921C5.96961 38.4608 3.89219 37.6191 2.67439 36.5436C1.45658 35.5382 0.76411 34.0653 0.811867 32.4988C0.811867 31.4233 1.14617 30.3478 1.767 29.4593C2.48336 28.454 3.46237 27.659 4.63242 27.2148C5.89797 26.6771 7.66498 26.3965 9.88567 26.3965C12.6078 26.3965 14.6852 26.8875 16.1179 27.8928C17.5507 28.8982 18.3864 30.4647 18.6491 32.6391L12.4407 32.9898C12.2735 32.0546 11.9392 31.3765 11.39 30.9323C10.8647 30.4881 10.1245 30.2776 9.1932 30.301C8.42909 30.301 7.85601 30.4647 7.47395 30.792C7.0919 31.0726 6.87699 31.4934 6.90087 31.961C6.90087 32.3117 7.0919 32.6391 7.37844 32.8495C7.68886 33.1301 8.42909 33.3872 9.59913 33.621C12.4884 34.2289 14.542 34.8368 15.8075 35.4681C17.0731 36.0994 17.9805 36.8709 18.5297 37.7828C19.1028 38.718 19.3893 39.7935 19.3893 40.869C19.3893 42.1783 18.9834 43.4642 18.2431 44.5631C17.4551 45.7087 16.3567 46.5972 15.0673 47.1349C13.7062 47.7194 11.987 48.0234 9.93343 48.0234C6.30391 48.0234 3.79667 47.3454 2.38784 45.9659C0.979016 44.5631 0.191028 42.8329 0 40.7287H0Z" fill="white"/>
<path d="M31.7584 39.0921L37.5369 40.7988C37.2265 42.225 36.5818 43.5811 35.6983 44.7735C34.8864 45.8256 33.8119 46.6439 32.5941 47.1817C31.3524 47.7194 29.7764 48 27.8662 48C25.55 48 23.6397 47.6727 22.1831 47.018C20.7026 46.3634 19.4371 45.1943 18.3626 43.5343C17.288 41.8743 16.7627 39.7467 16.7627 37.1515C16.7627 33.6912 17.694 31.0258 19.5804 29.1788C21.4667 27.3317 24.1173 26.3965 27.5557 26.3965C30.254 26.3965 32.3553 26.9342 33.9074 27.9864C35.4356 29.0619 36.5818 30.6985 37.3459 32.8962L31.5196 34.1588C31.3763 33.6678 31.1614 33.1768 30.8749 32.756C30.5167 32.265 30.063 31.8909 29.5138 31.6103C28.9646 31.3298 28.3437 31.2129 27.7229 31.2129C26.2186 31.2129 25.0724 31.7974 24.2844 32.9898C23.6874 33.8548 23.377 35.2343 23.377 37.1047C23.377 39.4194 23.7352 41.0092 24.4516 41.8743C25.1679 42.7394 26.1708 43.1602 27.4841 43.1602C28.7497 43.1602 29.7048 42.8095 30.3495 42.1315C30.9942 41.4067 31.4718 40.4014 31.7584 39.0921ZM45.2497 26.7472H51.8401V34.0653H59.0514V26.7472H65.6896V47.6493H59.0514V39.1856H51.8401V47.6493H45.2497V26.7472Z" fill="white"/>
<path d="M64.7822 37.1982C64.7822 33.7847 65.7612 31.1193 67.6954 29.2255C69.6296 27.3317 72.3517 26.3731 75.8141 26.3731C79.372 26.3731 82.0941 27.3083 84.0282 29.1788C85.9624 31.0492 86.9175 33.6678 86.9175 37.0346C86.9175 39.4895 86.4877 41.4769 85.652 43.0433C84.8401 44.5865 83.5746 45.849 82.0225 46.6907C80.4226 47.5558 78.4407 48 76.0767 48C73.665 48 71.6831 47.6259 70.1071 46.8777C68.4834 46.0828 67.1462 44.8436 66.2627 43.3239C65.2837 41.6873 64.7822 39.6532 64.7822 37.1982ZM71.3727 37.2216C71.3727 39.3259 71.7786 40.8456 72.5666 41.7808C73.3546 42.6926 74.453 43.1602 75.8379 43.1602C77.2468 43.1602 78.3452 42.716 79.1332 41.8042C79.9212 40.8923 80.3032 39.2791 80.3032 36.9411C80.3032 34.9771 79.8973 33.5275 79.0854 32.6391C78.2735 31.7272 77.1751 31.283 75.7902 31.283C74.5724 31.2362 73.4023 31.7506 72.5905 32.6624C71.7786 33.5743 71.3727 35.094 71.3727 37.2216ZM93.6751 37.1982C93.6751 33.7847 94.6542 31.1193 96.5883 29.2255C98.5225 27.3317 101.245 26.3731 104.707 26.3731C108.265 26.3731 111.011 27.3083 112.921 29.1788C114.831 31.0492 115.81 33.6678 115.81 37.0346C115.81 39.4895 115.381 41.4769 114.545 43.0433C113.733 44.5865 112.467 45.849 110.915 46.6907C109.316 47.5558 107.334 48 104.97 48C102.558 48 100.576 47.6259 99 46.8777C97.3763 46.0828 96.0391 44.8436 95.1556 43.3239C94.1766 41.6873 93.6751 39.6532 93.6751 37.1982ZM100.266 37.2216C100.266 39.3259 100.672 40.8456 101.46 41.7808C102.247 42.6926 103.346 43.1602 104.731 43.1602C106.14 43.1602 107.238 42.716 108.026 41.8042C108.814 40.8923 109.196 39.2791 109.196 36.9411C109.196 34.9771 108.79 33.5275 107.978 32.6391C107.166 31.7272 106.068 31.283 104.683 31.283C103.465 31.2362 102.271 31.7506 101.483 32.6624C100.672 33.5743 100.266 35.094 100.266 37.2216Z" fill="white"/>
<path d="M115.118 26.7472H121.708V42.5056H132V47.6493H115.094V26.7472H115.118Z" fill="white"/>
<path d="M107.854 25.5409C114.489 20.6451 116.535 12.3458 112.424 7.004C108.313 1.66219 99.6009 1.30068 92.9657 6.19654C86.3305 11.0924 84.2845 19.3917 88.3957 24.7335C92.5069 30.0753 101.219 30.4368 107.854 25.5409Z" fill="black"/>
<path d="M71.4741 13.2194L105.762 -12.0803L129.488 18.7475L95.2002 44.0472L71.4741 13.2194Z" fill="black"/>
<path d="M107.854 25.5409C114.489 20.6451 116.535 12.3458 112.424 7.004C108.313 1.66219 99.6009 1.30068 92.9657 6.19654C86.3305 11.0924 84.2845 19.3917 88.3957 24.7335C92.5069 30.0753 101.219 30.4368 107.854 25.5409Z" fill="black"/>
<path d="M81.0221 15.2779L105.031 -2.4371L119.934 16.9262L95.9242 34.6412L81.0221 15.2779Z" fill="black"/>
<path d="M107.854 25.5409C114.489 20.6451 116.535 12.3458 112.424 7.004C108.313 1.66219 99.6009 1.30068 92.9657 6.19654C86.3305 11.0924 84.2845 19.3917 88.3957 24.7335C92.5069 30.0753 101.219 30.4368 107.854 25.5409Z" fill="black" stroke="white" stroke-width="4" stroke-miterlimit="10"/>
<path d="M81.0221 15.2779L105.031 -2.4371L119.934 16.9262L95.9242 34.6412L81.0221 15.2779Z" stroke="white" stroke-width="4" stroke-miterlimit="10"/>
<path d="M107.854 25.5409C114.489 20.6451 116.535 12.3458 112.424 7.004C108.313 1.66219 99.6009 1.30068 92.9657 6.19654C86.3305 11.0924 84.2845 19.3917 88.3957 24.7335C92.5069 30.0753 101.219 30.4368 107.854 25.5409Z" stroke="white" stroke-width="4" stroke-miterlimit="10"/>
<path d="M81.0221 15.2779L105.031 -2.4371L119.934 16.9262L95.9242 34.6412L81.0221 15.2779Z" fill="black"/>
<path d="M107.854 25.5409C114.489 20.6451 116.535 12.3458 112.424 7.004C108.313 1.66219 99.6009 1.30068 92.9657 6.19654C86.3305 11.0924 84.2845 19.3917 88.3957 24.7335C92.5069 30.0753 101.219 30.4368 107.854 25.5409Z" fill="black" stroke="white" stroke-width="4" stroke-miterlimit="10"/>
<path d="M81.0221 15.2779L105.031 -2.4371L119.934 16.9262L95.9242 34.6412L81.0221 15.2779Z" stroke="white" stroke-width="4" stroke-miterlimit="10"/>
<path d="M71.4741 13.2194L105.762 -12.0803L129.488 18.7475L95.2002 44.0472L71.4741 13.2194Z" stroke="white" stroke-width="4" stroke-miterlimit="10"/>
<path d="M107.854 25.5409C114.489 20.6451 116.535 12.3458 112.424 7.004C108.313 1.66219 99.6009 1.30068 92.9657 6.19654C86.3305 11.0924 84.2845 19.3917 88.3957 24.7335C92.5069 30.0753 101.219 30.4368 107.854 25.5409Z" stroke="white" stroke-width="4" stroke-miterlimit="10"/>
<path d="M93.699 14.3322L96.0868 12.6956L99.0239 16.7871C99.5253 17.4418 99.9074 18.1432 100.194 18.9148C100.361 19.4993 100.313 20.1305 100.075 20.6917C99.7641 21.3931 99.2627 21.9776 98.5941 22.3984C97.8061 22.9362 97.1375 23.2401 96.5644 23.3337C96.0152 23.4272 95.4421 23.3337 94.9168 23.0999C94.3437 22.8193 93.8423 22.4218 93.4602 21.9075L95.5138 20.037C95.6809 20.2942 95.8958 20.528 96.1346 20.7151C96.3017 20.832 96.4928 20.9021 96.7077 20.9021C96.8748 20.9021 97.042 20.832 97.1614 20.7384C97.4001 20.5981 97.5673 20.3176 97.5434 20.037C97.4718 19.6396 97.3046 19.2421 97.042 18.9381L93.699 14.3322ZM100.863 16.9274L103.035 15.244C103.274 15.5246 103.585 15.735 103.919 15.8519C104.397 15.9922 104.898 15.8987 105.304 15.5947C105.59 15.4077 105.829 15.1505 105.925 14.8232C106.068 14.4023 105.829 13.9347 105.399 13.7944C105.328 13.7711 105.256 13.7477 105.185 13.7477C104.898 13.7243 104.397 13.8412 103.656 14.1452C102.438 14.6361 101.483 14.8232 100.767 14.753C100.075 14.6829 99.4298 14.3322 99.0478 13.7477C98.7612 13.3502 98.6179 12.8826 98.5941 12.415C98.5941 11.8773 98.7373 11.3395 99.0478 10.8953C99.5014 10.264 100.051 9.72625 100.719 9.30541C101.722 8.62737 102.606 8.30005 103.37 8.30005C104.134 8.30005 104.85 8.65075 105.519 9.37555L103.37 11.0356C102.94 10.4978 102.128 10.3809 101.579 10.8018L101.507 10.8719C101.268 11.0122 101.101 11.2226 101.006 11.4798C100.934 11.6668 100.982 11.8773 101.101 12.0409C101.197 12.1578 101.34 12.2513 101.507 12.2513C101.698 12.2747 102.033 12.1812 102.51 11.9708C103.704 11.4798 104.611 11.1992 105.232 11.1057C105.758 11.0122 106.307 11.0589 106.808 11.2694C107.262 11.4564 107.644 11.7837 107.907 12.1812C108.241 12.6488 108.432 13.2099 108.456 13.7944C108.48 14.4023 108.313 14.9868 107.978 15.5012C107.548 16.1325 106.999 16.6702 106.355 17.0911C105.041 17.9795 103.967 18.3536 103.107 18.2133C102.176 18.0731 101.412 17.6055 100.863 16.9274Z" fill="white"/>
</g>
<defs>
<clipPath id="clip0_13_4538">
<rect width="132" height="48" fill="white"/>
</clipPath>
</defs>
</svg>
