<svg width="30" height="30" viewBox="0 0 30 30" fill="none" xmlns="http://www.w3.org/2000/svg">
<path d="M3.75 11.25V18.75H2.5V11.25H3.75ZM20 2.5L8.75 8.75V11.61L17.5 6.74875V23.2512L8.75 18.39V21.25L20 27.5V2.5ZM6.25 8.75H0V21.25H6.25V8.75ZM22.51 11.3663C23.4375 12.295 24.01 13.5788 24.0075 14.995C24.005 16.4113 23.43 17.6925 22.5012 18.62L24.025 20.1488C25.3462 18.8325 26.165 17.01 26.1687 14.9975C26.1712 12.9838 25.3587 11.1625 24.0413 9.84125L22.51 11.3663ZM25.1875 8.6975C26.7975 10.3125 27.79 12.5387 27.7863 14.9987C27.7825 17.4587 26.7812 19.6863 25.1662 21.2975L26.7287 22.865C28.7437 20.855 29.995 18.0725 29.9988 15.0013C30.005 11.93 28.7662 9.15 26.755 7.135L25.1875 8.6975Z" fill="black"/>
</svg>
