<svg width="23" height="23" viewBox="0 0 23 23" fill="none" xmlns="http://www.w3.org/2000/svg">
<path d="M5.89852 4.55604C3.32896 7.12997 2.31075 8.17026 2.24037 8.31562C2.16539 8.47432 2.14331 8.58886 2.14331 8.88855C2.14331 9.22343 2.15642 9.28967 2.27556 9.50127C2.37262 9.67768 3.82691 11.1497 8.38873 15.6938C14.0566 21.3309 14.3917 21.657 14.7089 21.8244L15.0484 22.0009H18.5126C21.849 22.0009 21.9813 21.9965 22.1487 21.9171C22.3691 21.807 22.5763 21.5997 22.6865 21.3794C22.7614 21.2294 22.7702 21.1105 22.7702 20.3922C22.7658 19.449 22.7039 19.1318 22.3824 18.5191C22.1223 18.0212 21.5362 17.4393 21.0514 17.1881C20.3197 16.8134 20.2802 16.8047 18.5481 16.787C17.1113 16.7739 17.0055 16.7782 16.9217 16.8532C16.7895 16.9721 16.7499 17.1088 16.8028 17.2631C16.8909 17.5142 16.9659 17.5276 18.4379 17.5276C19.9189 17.5276 20.1215 17.554 20.6284 17.8052C20.981 17.977 21.4394 18.4002 21.6464 18.7441C21.8095 19.0129 21.9946 19.5109 21.999 19.6739V19.7754H18.9002H15.8062L9.79012 13.7588L3.77401 7.74269L6.59473 4.92197C8.14608 3.37062 9.42419 2.11896 9.43753 2.13644C9.45524 2.15415 9.55207 2.40532 9.6535 2.69626C10.3191 4.55167 11.2182 5.95329 12.1481 6.58349C12.7387 6.98024 13.6157 7.34157 14.4223 7.51775C14.7926 7.5971 15.771 7.74247 15.9429 7.74247C15.9958 7.74247 16.0045 7.9628 16.0045 9.24091V10.7396H15.5813C15.1627 10.7396 15.1581 10.7396 14.9775 10.5853C14.691 10.3385 14.3253 10.3208 14.0387 10.5411C13.8404 10.6911 13.7477 10.885 13.7477 11.1361C13.7477 11.8192 14.5675 12.141 15.0392 11.6387C15.1319 11.5416 15.1671 11.5329 15.5726 11.5329H16.0045V12.6569V13.7807H15.5903C15.176 13.7807 15.176 13.7807 15.0261 13.6307C14.5456 13.1502 13.748 13.4589 13.748 14.1289C13.748 14.8163 14.5677 15.1469 15.0304 14.6445C15.1319 14.5344 15.1583 14.53 15.5726 14.53H16.0045V14.7283C16.0045 14.8428 16.0309 14.9838 16.0661 15.05C16.163 15.2308 16.9388 15.9755 17.071 16.0064C17.3134 16.068 17.5471 15.8346 17.5073 15.5657C17.5029 15.5172 17.3265 15.3056 17.1239 15.0986L16.7536 14.7195V10.991C16.7536 8.94145 16.7405 7.2314 16.7272 7.19184C16.6786 7.07293 16.4627 6.99358 16.1717 6.99358C15.806 6.99358 15.0523 6.88778 14.5675 6.77324C13.3112 6.47792 12.5004 6.04161 11.9098 5.34081C11.2223 4.52108 10.5657 3.19007 10.1204 1.71784C9.94859 1.14054 9.84716 0.999554 9.60037 0.999554C9.47272 0.999325 9.12473 1.33443 5.89852 4.55604ZM9.38463 14.4198L15.5109 20.524H18.7769H22.0427V20.7708C22.0427 20.9824 22.025 21.0309 21.9148 21.1455L21.7826 21.2734L18.4857 21.2646C15.2816 21.2515 15.1845 21.2469 15.0304 21.1632C14.863 21.0707 3.0203 9.30278 2.92784 9.13971C2.89702 9.08681 2.87494 8.95893 2.87057 8.85773C2.87057 8.7034 2.89702 8.63739 3.02927 8.49203C3.11736 8.39497 3.20568 8.31562 3.22316 8.31562C3.24524 8.31562 6.01743 11.0614 9.38463 14.4198Z" fill="white"/>
<path d="M8.67949 4.02289C8.55621 4.0889 8.4856 4.25197 8.50768 4.41504C8.51205 4.46357 8.60911 4.67057 8.71928 4.8778C9.39341 6.13406 10.5041 7.3151 11.7074 8.0511C12.1086 8.29789 12.8004 8.62403 13.2721 8.79147C13.7482 8.95454 14.5679 9.1528 14.8368 9.16177C15.0176 9.17051 15.0615 9.1574 15.1496 9.0516C15.2819 8.89727 15.2862 8.70338 15.1584 8.56239C15.0746 8.47867 14.9601 8.43451 14.5721 8.35976C12.2847 7.91471 10.3323 6.42937 9.2699 4.32257C9.09372 3.97435 8.92628 3.88627 8.67949 4.02289Z" fill="white"/>
<path d="M12.4964 10.0344C12.2539 10.1315 12.2583 10.0786 12.2583 12.6438V15.0105L12.3641 15.1294C12.5097 15.3012 12.7565 15.3012 12.9018 15.1294L13.0076 15.0105V12.6348V10.2594L12.9106 10.1492C12.796 10.0213 12.633 9.97716 12.4964 10.0344Z" fill="white"/>
<path d="M1.08554 13.891C0.944553 14.0276 0.944553 14.2215 1.08117 14.3846L1.18697 14.5081H2.83975H4.49253L4.60707 14.4023C4.75703 14.2613 4.76577 14.0145 4.62041 13.8779C4.51898 13.7809 4.5015 13.7809 2.85309 13.7809H1.19134L1.08554 13.891Z" fill="white"/>
<path d="M0.336276 16.1388C0.195286 16.2754 0.195286 16.4693 0.331906 16.6324L0.437706 16.7559L3.54064 16.769C5.8634 16.7778 6.66979 16.7647 6.76684 16.7249C6.90784 16.6676 7.03134 16.4339 6.98281 16.3063C6.9697 16.2621 6.9168 16.1827 6.86827 16.1255L6.78018 16.0284H3.61101H0.442076L0.336276 16.1388Z" fill="white"/>
<path d="M1.89653 18.3337C1.6939 18.4881 1.67619 18.7215 1.85237 18.8979L1.98025 19.0256H5.49304H9.00583L9.13371 18.8977C9.29241 18.739 9.29678 18.5893 9.14682 18.4129L9.03228 18.2762H5.50178C2.79123 18.2808 1.94943 18.2896 1.89653 18.3337Z" fill="white"/>
</svg>
