<svg width="50" height="50" viewBox="0 0 50 50" fill="none" xmlns="http://www.w3.org/2000/svg">
<path fill-rule="evenodd" clip-rule="evenodd" d="M31.25 47.9166L11.8562 35.4166H0V14.5833H11.8562L31.25 2.08331V47.9166ZM12.5 16.6479V33.3521L29.1667 44.0958V5.90415L12.5 16.6479ZM42.1417 7.85831C46.9896 12.0021 50 18.1541 50 25.0021C50 31.8521 46.9896 38.0041 42.1458 42.1458L40.6708 40.6708C45.1208 36.9396 47.9167 31.2937 47.9167 25C47.9167 18.7062 45.1208 13.0604 40.6708 9.32915L42.1417 7.85831ZM36.0396 13.9604C39.2083 16.5791 41.1979 20.5583 41.1979 25C41.1979 29.4416 39.2083 33.4208 36.0396 36.0396L34.5687 34.5687C37.3417 32.3541 39.1146 28.8833 39.1146 25.0041C39.1146 21.1229 37.3417 17.6521 34.5646 15.4354L36.0396 13.9604ZM10.4167 16.6666H2.08333V33.3333H10.4167V16.6666Z" fill="black"/>
</svg>
