<svg width="80" height="80" viewBox="0 0 80 80" fill="none" xmlns="http://www.w3.org/2000/svg">
<path fill-rule="evenodd" clip-rule="evenodd" d="M50 76.6666L18.97 56.6666H0V23.3333H18.97L50 3.33331V76.6666ZM20 26.6366V53.3633L46.6667 70.5533V9.44665L20 26.6366ZM67.4267 12.5733C75.1833 19.2033 80 29.0466 80 40.0033C80 50.9633 75.1833 60.8066 67.4333 67.4333L65.0733 65.0733C72.1933 59.1033 76.6667 50.07 76.6667 40C76.6667 29.93 72.1933 20.8966 65.0733 14.9266L67.4267 12.5733ZM57.6633 22.3366C62.7333 26.5266 65.9167 32.8933 65.9167 40C65.9167 47.1066 62.7333 53.4733 57.6633 57.6633L55.31 55.31C59.7467 51.7666 62.5833 46.2133 62.5833 40.0066C62.5833 33.7966 59.7467 28.2433 55.3033 24.6966L57.6633 22.3366ZM16.6667 26.6666H3.33333V53.3333H16.6667V26.6666Z" fill="white"/>
</svg>
