<svg width="132" height="48" viewBox="0 0 132 48" fill="none" xmlns="http://www.w3.org/2000/svg">
<g clip-path="url(#clip0_382_265)">
<path d="M68.1491 15.8985L74.4291 15.5011C74.5724 16.5064 74.835 17.2546 75.2648 17.7924C75.9573 18.6341 76.9125 19.0549 78.178 19.0549C79.1093 19.0549 79.8495 18.8445 80.3509 18.4003C80.8285 18.0495 81.1151 17.4884 81.1151 16.9039C81.1151 16.3428 80.8524 15.805 80.3987 15.4543C79.9211 15.0335 78.7989 14.6126 77.0318 14.2385C74.1426 13.6073 72.0651 12.7656 70.8473 11.6901C69.6295 10.6847 68.937 9.21175 68.9848 7.64526C68.9848 6.56976 69.3191 5.49426 69.9399 4.6058C70.6563 3.60045 71.6353 2.80551 72.8054 2.36128C74.0709 1.82353 75.8379 1.54297 78.0586 1.54297C80.7808 1.54297 82.8582 2.03396 84.2909 3.03932C85.7236 4.02129 86.5832 5.61116 86.8459 7.78554L80.6375 8.13625C80.4703 7.20103 80.136 6.523 79.5868 6.07877C79.0376 5.63454 78.3213 5.42412 77.39 5.42412C76.6259 5.42412 76.0528 5.58778 75.6708 5.89173C75.3126 6.17229 75.0738 6.59314 75.0977 7.06075C75.0977 7.41145 75.2887 7.73878 75.5753 7.9492C75.8857 8.22977 76.6259 8.48695 77.796 8.72076C80.6852 9.32865 82.7388 9.93654 84.0043 10.5678C85.2699 11.1991 86.1773 11.9706 86.7265 12.8825C87.2996 13.8177 87.5861 14.8932 87.5622 15.9921C87.5622 17.3014 87.1802 18.6107 86.4161 19.7096C85.6281 20.8552 84.5297 21.7437 83.2402 22.2814C81.8792 22.8659 80.1599 23.1699 78.1064 23.1699C74.4769 23.1699 71.9696 22.4918 70.5608 21.1124C69.152 19.7329 68.3162 18.0028 68.1491 15.8985ZM1.50434 22.8192V1.91706H12.5123C14.542 1.91706 16.1179 2.08072 17.1925 2.43142C18.2431 2.75875 19.1744 3.43678 19.7952 4.34862C20.4877 5.35398 20.822 6.523 20.7981 7.73878C20.8698 9.79626 19.7952 11.7602 17.9566 12.789C17.2402 13.1864 16.4522 13.467 15.6404 13.6073C16.2373 13.7709 16.8343 14.0515 17.3596 14.3788C17.7656 14.7061 18.0999 15.0802 18.4103 15.4777C18.7685 15.8752 19.0789 16.3194 19.3415 16.787L22.5412 22.8425H15.0434L11.5094 16.4129C11.0557 15.5946 10.6737 15.0569 10.3155 14.7997C9.83792 14.4723 9.26483 14.3087 8.69175 14.3087H8.11867V22.7958H1.50434V22.8192ZM8.11867 10.3808H10.9124C11.5094 10.334 12.0825 10.2405 12.6556 10.1002C13.0854 10.0301 13.4674 9.79626 13.7301 9.44555C14.3748 8.60386 14.2793 7.41145 13.4913 6.68666C13.0615 6.33596 12.2258 6.14891 11.0318 6.14891H8.11867V10.3808ZM0 40.7286L6.28003 40.3311C6.4233 41.3364 6.68596 42.0846 7.11577 42.6224C7.78437 43.4641 8.76339 43.9083 10.0289 43.9083C10.9602 43.9083 11.7004 43.6979 12.2019 43.2536C12.6795 42.8796 12.966 42.3418 12.966 41.7573C12.966 41.1962 12.7033 40.6584 12.2496 40.3077C11.7721 39.8869 10.6498 39.466 8.8589 39.0919C5.96961 38.4607 3.89219 37.619 2.67439 36.5435C1.45658 35.5381 0.76411 34.0651 0.811867 32.4986C0.811867 31.4231 1.14617 30.3476 1.767 29.4592C2.48336 28.4538 3.46237 27.6589 4.63242 27.2147C5.89797 26.6769 7.66498 26.3964 9.88567 26.3964C12.6078 26.3964 14.6852 26.8873 16.1179 27.8927C17.5507 28.8981 18.3864 30.4646 18.6491 32.6389L12.4407 32.9896C12.2735 32.0544 11.9392 31.3764 11.39 30.9322C10.8647 30.4879 10.1245 30.2775 9.1932 30.3009C8.42909 30.3009 7.85601 30.4646 7.47395 30.7919C7.0919 31.0724 6.87699 31.4933 6.90087 31.9609C6.90087 32.3116 7.0919 32.6389 7.37844 32.8494C7.68886 33.1299 8.42909 33.3871 9.59913 33.6209C12.4884 34.2288 14.542 34.8367 15.8075 35.468C17.0731 36.0992 17.9805 36.8708 18.5297 37.7826C19.1028 38.7178 19.3893 39.7933 19.3893 40.8688C19.3893 42.1781 18.9834 43.4641 18.2431 44.5629C17.4551 45.7086 16.3567 46.597 15.0673 47.1348C13.7062 47.7193 11.987 48.0232 9.93343 48.0232C6.30391 48.0232 3.79667 47.3452 2.38784 45.9658C0.979016 44.5629 0.191028 42.8328 0 40.7286H0Z" fill="black"/>
<path d="M31.7584 39.0921L37.5369 40.7988C37.2265 42.225 36.5818 43.5811 35.6983 44.7735C34.8864 45.8256 33.8119 46.6439 32.5941 47.1817C31.3524 47.7194 29.7764 48 27.8662 48C25.55 48 23.6397 47.6727 22.1831 47.018C20.7026 46.3634 19.4371 45.1943 18.3626 43.5343C17.288 41.8743 16.7627 39.7467 16.7627 37.1515C16.7627 33.6912 17.694 31.0258 19.5804 29.1788C21.4667 27.3317 24.1173 26.3965 27.5557 26.3965C30.254 26.3965 32.3553 26.9342 33.9074 27.9864C35.4356 29.0619 36.5818 30.6985 37.3459 32.8962L31.5196 34.1588C31.3763 33.6678 31.1614 33.1768 30.8749 32.756C30.5167 32.265 30.063 31.8909 29.5138 31.6103C28.9646 31.3298 28.3437 31.2129 27.7229 31.2129C26.2186 31.2129 25.0724 31.7974 24.2844 32.9898C23.6874 33.8548 23.377 35.2343 23.377 37.1047C23.377 39.4194 23.7352 41.0092 24.4516 41.8743C25.1679 42.7394 26.1708 43.1602 27.4841 43.1602C28.7497 43.1602 29.7048 42.8095 30.3495 42.1315C30.9942 41.4067 31.4718 40.4014 31.7584 39.0921ZM45.2497 26.7472H51.8401V34.0653H59.0514V26.7472H65.6896V47.6493H59.0514V39.1856H51.8401V47.6493H45.2497V26.7472Z" fill="black"/>
<path d="M64.7822 37.1982C64.7822 33.7846 65.7612 31.1193 67.6954 29.2255C69.6296 27.3316 72.3517 26.373 75.8141 26.373C79.372 26.373 82.0941 27.3083 84.0282 29.1787C85.9624 31.0491 86.9175 33.6677 86.9175 37.0345C86.9175 39.4895 86.4877 41.4768 85.652 43.0433C84.8401 44.5864 83.5746 45.8489 82.0225 46.6906C80.4226 47.5557 78.4407 47.9999 76.0767 47.9999C73.665 47.9999 71.6831 47.6258 70.1071 46.8777C68.4834 46.0827 67.1462 44.8436 66.2627 43.3239C65.2837 41.6872 64.7822 39.6531 64.7822 37.1982ZM71.3727 37.2216C71.3727 39.3258 71.7786 40.8455 72.5666 41.7807C73.3546 42.6926 74.453 43.1602 75.8379 43.1602C77.2468 43.1602 78.3452 42.716 79.1332 41.8041C79.9212 40.8923 80.3032 39.279 80.3032 36.941C80.3032 34.977 79.8973 33.5275 79.0854 32.639C78.2735 31.7272 77.1751 31.2829 75.7902 31.2829C74.5724 31.2362 73.4023 31.7505 72.5905 32.6624C71.7786 33.5742 71.3727 35.0939 71.3727 37.2216ZM93.6751 37.1982C93.6751 33.7846 94.6542 31.1193 96.5883 29.2255C98.5225 27.3316 101.245 26.373 104.707 26.373C108.265 26.373 111.011 27.3083 112.921 29.1787C114.831 31.0491 115.81 33.6677 115.81 37.0345C115.81 39.4895 115.381 41.4768 114.545 43.0433C113.733 44.5864 112.467 45.8489 110.915 46.6906C109.316 47.5557 107.334 47.9999 104.97 47.9999C102.558 47.9999 100.576 47.6258 99 46.8777C97.3763 46.0827 96.0391 44.8436 95.1556 43.3239C94.1766 41.6872 93.6751 39.6531 93.6751 37.1982ZM100.266 37.2216C100.266 39.3258 100.672 40.8455 101.46 41.7807C102.247 42.6926 103.346 43.1602 104.731 43.1602C106.14 43.1602 107.238 42.716 108.026 41.8041C108.814 40.8923 109.196 39.279 109.196 36.941C109.196 34.977 108.79 33.5275 107.978 32.639C107.166 31.7272 106.068 31.2829 104.683 31.2829C103.465 31.2362 102.271 31.7505 101.483 32.6624C100.672 33.5742 100.266 35.0939 100.266 37.2216Z" fill="black"/>
<path d="M115.118 26.7471H121.708V42.5055H132V47.6492H115.094V26.7471H115.118Z" fill="black"/>
<path d="M107.854 25.5412C114.489 20.6453 116.535 12.346 112.424 7.00424C108.313 1.66244 99.6009 1.30093 92.9657 6.19679C86.3305 11.0926 84.2845 19.3919 88.3957 24.7337C92.5069 30.0755 101.219 30.437 107.854 25.5412Z" fill="white"/>
<path d="M71.4741 13.2197L105.762 -12.08L129.488 18.7478L95.2002 44.0475L71.4741 13.2197Z" fill="white"/>
<path d="M107.854 25.5412C114.489 20.6453 116.535 12.346 112.424 7.00424C108.313 1.66243 99.6009 1.30092 92.9657 6.19678C86.3305 11.0926 84.2845 19.3919 88.3957 24.7337C92.5069 30.0755 101.219 30.437 107.854 25.5412Z" fill="white"/>
<path d="M81.0221 15.2783L105.031 -2.43668L119.934 16.9266L95.9242 34.6416L81.0221 15.2783Z" fill="white"/>
<path d="M107.854 25.5412C114.489 20.6453 116.535 12.346 112.424 7.00424C108.313 1.66244 99.6009 1.30093 92.9657 6.19679C86.3305 11.0926 84.2845 19.3919 88.3957 24.7337C92.5069 30.0755 101.219 30.437 107.854 25.5412Z" fill="white" stroke="black" stroke-width="4" stroke-miterlimit="10"/>
<path d="M81.0221 15.2783L105.031 -2.43668L119.934 16.9266L95.9242 34.6416L81.0221 15.2783Z" stroke="black" stroke-width="4" stroke-miterlimit="10"/>
<path d="M107.854 25.5412C114.489 20.6453 116.535 12.346 112.424 7.00424C108.313 1.66243 99.6009 1.30092 92.9657 6.19678C86.3305 11.0926 84.2845 19.3919 88.3957 24.7337C92.5069 30.0755 101.219 30.437 107.854 25.5412Z" stroke="black" stroke-width="4" stroke-miterlimit="10"/>
<path d="M81.0221 15.2783L105.031 -2.43668L119.934 16.9266L95.9242 34.6416L81.0221 15.2783Z" fill="white"/>
<path d="M107.854 25.5412C114.489 20.6453 116.535 12.346 112.424 7.00424C108.313 1.66244 99.6009 1.30093 92.9657 6.19679C86.3305 11.0926 84.2845 19.3919 88.3957 24.7337C92.5069 30.0755 101.219 30.437 107.854 25.5412Z" fill="white" stroke="black" stroke-width="4" stroke-miterlimit="10"/>
<path d="M81.0221 15.2783L105.031 -2.43668L119.934 16.9266L95.9242 34.6416L81.0221 15.2783Z" stroke="black" stroke-width="4" stroke-miterlimit="10"/>
<path d="M71.4741 13.2197L105.762 -12.08L129.488 18.7478L95.2002 44.0475L71.4741 13.2197Z" stroke="black" stroke-width="4" stroke-miterlimit="10"/>
<path d="M107.854 25.5412C114.489 20.6453 116.535 12.346 112.424 7.00424C108.313 1.66243 99.6009 1.30092 92.9657 6.19678C86.3305 11.0926 84.2845 19.3919 88.3957 24.7337C92.5069 30.0755 101.219 30.437 107.854 25.5412Z" stroke="black" stroke-width="4" stroke-miterlimit="10"/>
<path d="M93.699 14.3324L96.0868 12.6958L99.0239 16.7874C99.5253 17.442 99.9074 18.1434 100.194 18.915C100.361 19.4995 100.313 20.1308 100.075 20.6919C99.7641 21.3933 99.2627 21.9778 98.5941 22.3987C97.8061 22.9364 97.1375 23.2404 96.5644 23.3339C96.0152 23.4274 95.4421 23.3339 94.9168 23.1001C94.3437 22.8195 93.8423 22.4221 93.4602 21.9077L95.5138 20.0373C95.6809 20.2944 95.8958 20.5283 96.1346 20.7153C96.3017 20.8322 96.4928 20.9023 96.7077 20.9023C96.8748 20.9023 97.042 20.8322 97.1614 20.7387C97.4001 20.5984 97.5673 20.3178 97.5434 20.0373C97.4718 19.6398 97.3046 19.2423 97.042 18.9384L93.699 14.3324ZM100.863 16.9277L103.035 15.2443C103.274 15.5248 103.585 15.7353 103.919 15.8522C104.397 15.9925 104.898 15.8989 105.304 15.595C105.59 15.4079 105.829 15.1508 105.925 14.8234C106.068 14.4026 105.829 13.935 105.399 13.7947C105.328 13.7713 105.256 13.7479 105.185 13.7479C104.898 13.7246 104.397 13.8415 103.656 14.1454C102.438 14.6364 101.483 14.8234 100.767 14.7533C100.075 14.6831 99.4298 14.3324 99.0478 13.7479C98.7612 13.3505 98.6179 12.8829 98.5941 12.4152C98.5941 11.8775 98.7373 11.3397 99.0478 10.8955C99.5014 10.2642 100.051 9.7265 100.719 9.30565C101.722 8.62762 102.606 8.30029 103.37 8.30029C104.134 8.30029 104.85 8.651 105.519 9.37579L103.37 11.0358C102.94 10.4981 102.128 10.3812 101.579 10.802L101.507 10.8721C101.268 11.0124 101.101 11.2228 101.006 11.48C100.934 11.6671 100.982 11.8775 101.101 12.0412C101.197 12.1581 101.34 12.2516 101.507 12.2516C101.698 12.275 102.033 12.1814 102.51 11.971C103.704 11.48 104.611 11.1995 105.232 11.1059C105.758 11.0124 106.307 11.0592 106.808 11.2696C107.262 11.4566 107.644 11.784 107.907 12.1814C108.241 12.6491 108.432 13.2102 108.456 13.7947C108.48 14.4026 108.313 14.9871 107.978 15.5015C107.548 16.1327 106.999 16.6705 106.355 17.0913C105.041 17.9798 103.967 18.3539 103.107 18.2136C102.176 18.0733 101.412 17.6057 100.863 16.9277Z" fill="black"/>
</g>
<defs>
<clipPath id="clip0_382_265">
<rect width="132" height="48" fill="white"/>
</clipPath>
</defs>
</svg>
