<svg width="230" height="509" viewBox="0 0 230 509" fill="none" xmlns="http://www.w3.org/2000/svg">
<path d="M35.1295 438.172C34.386 440.111 33.6422 442.037 32.8984 443.976C28.5848 441.072 24.8433 437.398 21.8613 433.138C22.9239 429.247 23.9599 425.541 24.9826 421.995C25.0918 424.121 25.5587 426.214 26.3639 428.184C26.7706 429.175 27.2592 430.13 27.8246 431.04C28.3744 431.971 29.0056 432.851 29.7108 433.67C31.2371 435.479 33.0717 437.003 35.1295 438.172Z" fill="black"/>
<path d="M59.5684 441.4C61.6533 440.988 63.7386 440.603 65.7973 440.138L59.9802 451.6C50.3574 452.133 40.8305 449.451 32.8989 443.976L35.3296 438.278C36.9714 439.214 38.7134 439.963 40.5225 440.51C42.5808 441.143 44.6924 441.587 46.8313 441.838C47.8938 441.984 48.9564 441.931 50.032 441.997C51.0945 442.011 52.1705 442.117 53.2331 442.024C55.3446 441.811 57.4698 441.719 59.5684 441.4Z" fill="black"/>
<path d="M151.901 447.257C152.18 450.551 152.432 453.858 152.698 457.152C143.454 457.563 135.392 457.205 135.392 457.205C135.392 456.368 134.688 452.623 133.52 446.991C137.384 447.509 141.283 447.722 145.181 447.629C147.425 447.602 149.67 447.469 151.901 447.257Z" fill="black"/>
<path d="M150.72 433.882C151.105 437.92 151.468 441.958 151.809 445.995C149.591 446.247 147.373 446.447 145.142 446.619C143.216 446.779 141.277 446.858 139.351 446.898C137.412 446.991 135.473 446.991 133.52 446.991C127.929 419.99 111.725 349.704 111.725 349.704L65.7976 440.138C63.6857 440.311 61.5874 440.55 59.5021 440.762C57.4035 440.948 55.3053 440.908 53.2067 441.001C52.1707 441.028 51.1214 440.868 50.0854 440.829C49.0497 440.749 48.0004 440.762 46.9777 440.59C44.924 440.318 42.8977 439.869 40.9213 439.248C39.151 438.716 37.4415 437.999 35.821 437.11L48.3591 407.651C53.5121 395.539 58.612 383.412 63.8718 371.353C69.0249 359.253 74.3021 347.207 79.7033 335.214C82.3995 329.21 85.1489 323.234 88.0175 317.323C89.4653 314.375 90.9128 311.413 92.467 308.531C93.2504 307.07 94.0474 305.649 94.9106 304.241C95.7282 302.818 96.6848 301.479 97.7663 300.243C96.6323 301.439 95.6181 302.742 94.7381 304.135C93.8347 305.516 92.9849 306.924 92.1616 308.358C90.5143 311.201 88.9738 314.123 87.4333 317.031C84.4316 322.888 81.5895 328.825 78.7737 334.775C73.1822 346.702 67.9092 358.762 62.6497 370.821C57.4966 382.934 52.3831 395.06 47.4158 407.253C43.4051 417.134 39.4649 427.047 35.5953 436.99C33.6901 435.931 31.9606 434.582 30.4685 432.992C27.623 429.929 25.719 426.111 24.9834 421.995V421.969C45.4236 350.541 56.2083 346.503 61.0031 322.424C63.9039 308.2 66.0364 293.831 67.3913 279.378C68.8624 280.554 70.7378 281.103 72.6108 280.905C72.6108 280.905 71.6147 286.311 76.8213 286.311H84.4449C84.4449 286.311 83.4488 290.521 88.6551 290.322C91.909 290.203 94.2199 288.675 96.9029 287.493C99.2335 286.469 101.213 284.785 102.599 282.649C103.984 280.513 104.714 278.019 104.699 275.473C104.684 274.372 104.613 273.273 104.487 272.179L108.126 271.476C112.761 271.887 117.489 272.113 122.218 272.06C123.691 287.647 125.956 303.149 129.004 318.506C130.519 326.209 132.365 333.872 134.556 341.43C135.579 345.215 137 348.947 138.062 352.679C139.285 356.385 140.108 360.223 141.037 364.022C144.234 379.372 146.654 394.873 148.289 410.467C149.219 418.263 149.989 426.073 150.72 433.882Z" fill="black"/>
<path d="M178.013 437.189C177.203 437.734 176.406 438.278 175.609 438.836C174.799 439.355 173.956 439.821 173.086 440.231C172.66 440.457 172.249 440.709 171.824 440.921L170.482 441.466C169.614 441.868 168.723 442.218 167.813 442.515C166.896 442.807 165.98 443.1 165.077 443.405L162.287 444.135C161.358 444.401 160.415 444.56 159.472 444.76C158.529 444.959 157.586 445.171 156.63 445.291C155.142 445.557 153.641 445.769 152.14 445.955C151.476 434.068 150.507 422.208 149.311 410.36C147.819 394.703 145.487 379.137 142.326 363.729C141.382 359.904 140.532 356.052 139.271 352.307C138.155 348.495 136.76 344.882 135.711 341.084C133.48 333.58 131.66 325.956 130 318.293C128.353 310.629 126.919 302.913 125.644 295.17C124.342 287.493 123.205 279.79 122.23 272.06C127.717 272.024 133.193 271.558 138.607 270.665C140.937 270.533 143.191 269.792 145.146 268.518C147.101 267.243 148.688 265.479 149.75 263.4C155.315 319.807 169.938 382.005 178.013 437.189Z" fill="black"/>
<path d="M152.699 457.151C152.553 453.844 152.389 450.533 152.208 447.217C153.761 447.057 155.315 446.871 156.856 446.606C160.733 445.988 164.529 444.937 168.172 443.471C171.825 442.028 175.166 439.895 178.013 437.189C178.558 440.815 179.063 444.414 179.527 447.987C180.391 454.508 165.436 456.567 152.699 457.151Z" fill="black"/>
<path d="M105.308 40.0031C105.308 40.0031 125.366 61.2646 128.576 61.2646C128.576 61.2646 123.361 67.282 123.361 70.4913C123.361 70.4913 102.901 52.0379 99.291 44.817L105.308 40.0031Z" fill="black"/>
<path d="M104.355 270.966C107.219 271.121 110.07 271.318 112.93 271.37C115.788 271.425 118.64 271.436 121.49 271.366C124.339 271.289 127.181 271.116 130.008 270.825C132.833 270.518 135.652 270.192 138.441 269.683L138.48 269.676L138.624 269.669C140.626 269.539 142.561 268.895 144.242 267.8C145.952 266.696 147.379 265.206 148.407 263.449C150.447 259.763 151.55 255.633 151.619 251.421C151.812 247.102 151.565 242.776 150.88 238.508C150.559 236.365 150.144 234.214 149.772 232.041L148.729 225.533C147.35 216.847 146.664 208.085 145.657 199.385C144.647 190.676 143.461 181.988 142.375 173.293C140.199 155.901 137.84 138.543 135.298 121.219C134.022 112.56 132.687 103.909 131.012 95.3291C130.207 91.0326 129.289 86.7589 128.167 82.5446C127.898 81.4864 127.608 80.4371 127.286 79.3967C126.996 78.3435 126.631 77.3216 126.268 76.2955C125.615 74.2273 124.601 72.291 123.273 70.5762L123.447 70.3954C124.962 72.0299 126.151 73.9382 126.951 76.0181C127.388 77.0328 127.829 78.0495 128.192 79.0902C128.583 80.1233 128.963 81.1606 129.284 82.2141C130.623 86.4142 131.756 90.6723 132.775 94.9507C134.749 103.523 136.388 112.16 137.824 120.825C140.676 138.159 142.648 155.608 144.407 173.064C145.288 181.793 145.938 190.544 146.674 199.283L147.827 212.385C148.239 216.74 148.863 221.076 149.653 225.378C150.404 229.705 151.485 233.9 152.381 238.248C153.3 242.606 153.748 247.051 153.717 251.506C153.766 256.105 152.587 260.634 150.302 264.626C149.08 266.672 147.371 268.385 145.328 269.612C143.285 270.839 140.971 271.543 138.59 271.661L138.773 271.648C135.916 272.112 133.038 272.43 130.15 272.601C127.265 272.768 124.377 272.815 121.496 272.765C118.616 272.724 115.742 272.564 112.876 272.286C110.012 272.034 107.161 271.658 104.326 271.215L104.355 270.966Z" fill="black"/>
<path d="M70.6508 264.384C68.1316 263.798 65.6329 263.126 63.1446 262.413C60.6539 261.697 58.1808 260.954 55.7256 260.064L55.1821 259.867L55.3417 259.215C55.8049 256.967 56.1235 254.693 56.2956 252.405L56.9283 245.411L58.0868 231.395C58.7729 222.04 59.6974 212.701 60.6757 203.364C62.7691 184.701 63.9439 165.965 64.9675 147.214C65.5188 137.842 66.177 128.476 66.9423 119.116C67.6907 109.754 68.4737 100.394 69.6628 91.0515C69.9565 88.7157 70.285 86.3787 70.6482 84.0403C70.9864 81.6566 71.5381 79.3081 72.2964 77.023C73.8523 72.4769 76.0706 68.1852 78.8798 64.2869C84.4883 56.6436 91.3692 50.0216 99.2217 44.7101L99.366 44.915C95.7263 47.8522 92.298 51.0421 89.1065 54.461C85.8995 57.8256 83.0026 61.4727 80.4512 65.3581C77.8778 69.1628 75.8792 73.3259 74.5199 77.7134C73.8726 79.9074 73.4116 82.1522 73.1418 84.4237C72.8169 86.7269 72.5244 89.041 72.2643 91.366C71.2368 100.663 70.3136 109.999 69.3895 119.332L66.6829 147.351C64.7159 166.023 63.0674 184.723 62.2325 203.486C61.7412 212.862 61.1816 222.236 60.2522 231.582L58.8326 245.602C58.5842 247.94 58.2681 250.271 57.9367 252.604C57.6528 254.987 57.2051 257.348 56.5969 259.67L56.2133 258.821C58.5807 259.775 60.997 260.698 63.4131 261.588C65.8362 262.467 68.2762 263.304 70.7199 264.143L70.6508 264.384Z" fill="black"/>
<path d="M96.0825 55.2471L104.508 64.7488C107.311 67.9109 110.105 71.0744 112.969 74.1687C115.803 77.2908 118.701 80.3515 121.694 83.312C124.652 86.3217 127.808 89.1294 131.143 91.716C127.415 89.6474 123.945 87.1466 120.804 84.2653C119.178 82.8856 117.683 81.3734 116.14 79.9074C114.658 78.3847 113.168 76.8669 111.738 75.2975C108.877 72.1572 106.119 68.9273 103.51 65.5805C100.883 62.2491 98.3899 58.8112 96.0825 55.2471Z" fill="black"/>
<path d="M84.4482 78.5145C86.6312 77.5183 88.9294 76.7969 91.2901 76.3669C93.6615 75.8908 96.0815 75.7002 98.4983 75.7993C100.947 75.882 103.363 76.3878 105.64 77.2943C107.904 78.2245 109.87 79.7563 111.326 81.7238C109.49 80.299 107.414 79.2142 105.196 78.5208C104.638 78.3841 104.085 78.2423 103.539 78.0856C102.982 77.9619 102.409 77.8938 101.848 77.7945C101.284 77.6924 100.714 77.6219 100.143 77.5832C99.5719 77.5147 98.9979 77.4764 98.4231 77.4683C96.1041 77.3666 93.7809 77.4286 91.4707 77.6537C89.1428 77.8647 86.8088 78.1536 84.4482 78.5145Z" fill="black"/>
<path d="M78.4312 234.967C81.0145 235.955 83.5891 236.876 86.1754 237.733C88.7688 238.565 91.3648 239.362 94.0035 239.957C96.6315 240.572 99.2987 241.006 101.986 241.256C104.7 241.446 107.427 241.356 110.123 240.985C107.517 242.01 104.744 242.544 101.943 242.559C99.1427 242.546 96.3525 242.219 93.6248 241.584C90.9168 240.936 88.2701 240.054 85.7146 238.948C83.1562 237.875 80.7155 236.541 78.4312 234.967Z" fill="black"/>
<path d="M131.785 140.343C132.11 140.332 132.418 140.195 132.644 139.961C132.87 139.727 132.996 139.415 132.996 139.09C132.996 138.765 132.87 138.452 132.644 138.218C132.418 137.984 132.11 137.847 131.785 137.836C131.46 137.847 131.152 137.984 130.926 138.218C130.7 138.452 130.574 138.765 130.574 139.09C130.574 139.415 130.7 139.727 130.926 139.961C131.152 140.195 131.46 140.332 131.785 140.343Z" fill="black"/>
<path d="M136.599 176.849C136.924 176.838 137.232 176.701 137.458 176.467C137.683 176.233 137.81 175.92 137.81 175.595C137.81 175.27 137.683 174.958 137.458 174.724C137.232 174.49 136.924 174.353 136.599 174.342C136.274 174.353 135.966 174.49 135.74 174.724C135.514 174.958 135.388 175.27 135.388 175.595C135.388 175.92 135.514 176.233 135.74 176.467C135.966 176.701 136.274 176.838 136.599 176.849Z" fill="black"/>
<path d="M141.012 204.93C141.337 204.919 141.645 204.782 141.871 204.548C142.097 204.314 142.223 204.002 142.223 203.677C142.223 203.351 142.097 203.039 141.871 202.805C141.645 202.571 141.337 202.434 141.012 202.423C140.687 202.434 140.379 202.571 140.153 202.805C139.928 203.039 139.801 203.351 139.801 203.677C139.801 204.002 139.928 204.314 140.153 204.548C140.379 204.782 140.687 204.919 141.012 204.93Z" fill="black"/>
<path d="M146.228 239.029C146.553 239.018 146.86 238.881 147.086 238.647C147.312 238.413 147.439 238.1 147.439 237.775C147.439 237.45 147.312 237.138 147.086 236.904C146.86 236.67 146.553 236.533 146.228 236.522C145.903 236.533 145.595 236.67 145.369 236.904C145.143 237.138 145.017 237.45 145.017 237.775C145.017 238.1 145.143 238.413 145.369 238.647C145.595 238.881 145.903 239.018 146.228 239.029Z" fill="black"/>
<path d="M106.388 252.813C106.751 254.34 107.029 255.887 107.221 257.445C107.437 259.018 107.502 260.608 107.415 262.193C107.379 263.019 107.235 263.836 106.985 264.625C106.696 265.455 106.395 266.064 106.154 266.816C105.629 268.233 105.248 269.699 105.015 271.192L105.014 271.007C105.28 272.478 105.289 273.992 105.431 275.488C105.456 277.047 105.201 278.597 104.678 280.066C103.622 282.999 101.57 285.47 98.8803 287.047C98.2207 287.421 97.5369 287.751 96.8336 288.035L94.8219 288.913C93.4694 289.554 92.0496 290.043 90.5888 290.369C89.0998 290.719 87.5437 290.657 86.0871 290.19C85.3297 289.9 84.7179 289.322 84.3854 288.582C84.0806 287.842 84.0017 287.028 84.1585 286.243L84.4438 286.605C81.8332 286.603 79.2476 286.73 76.6165 286.757C75.8802 286.802 75.1443 286.665 74.4741 286.356C73.804 286.048 73.2205 285.579 72.7757 284.99C72.0025 283.734 71.7109 282.24 71.955 280.785L72.6273 281.571C71.6365 281.626 70.6429 281.547 69.6736 281.335C68.6424 281.115 67.6833 280.639 66.885 279.951C66.0869 279.224 65.5082 278.289 65.2144 277.251C64.9219 276.239 64.8435 275.178 64.9842 274.134L65.4819 275.041C64.5448 274.669 63.6366 274.228 62.765 273.721C61.7607 273.181 60.9311 272.366 60.3732 271.372C60.072 270.727 60.0294 269.992 60.2542 269.317C60.4731 268.726 60.831 268.196 61.2977 267.772C62.1596 266.989 63.2518 266.508 64.4106 266.399C66.1644 266.297 67.8453 265.662 69.2287 264.579C70.5268 263.451 71.3328 261.86 71.4748 260.146L71.479 260.224L71.3613 257.71C71.3873 256.869 71.4113 256.028 71.4661 255.19C71.6254 253.505 72.0086 251.849 72.6055 250.266C73.1955 248.678 74.0884 247.219 75.2346 245.971C76.3644 244.723 77.7928 243.783 79.3857 243.239L79.435 243.398C77.9736 244.082 76.6973 245.106 75.7128 246.384C74.7396 247.645 74.0007 249.07 73.5312 250.592C73.0742 252.116 72.8094 253.692 72.743 255.282C72.7232 256.079 72.7323 256.879 72.7378 257.675L72.9444 260.068L72.9492 260.125L72.9486 260.146C72.919 261.223 72.6729 262.282 72.2249 263.261C71.7768 264.24 71.1361 265.118 70.3409 265.844C68.7095 267.191 66.7044 268.006 64.5957 268.178C63.8239 268.248 63.0946 268.562 62.5143 269.076C62.2649 269.299 62.0691 269.575 61.9417 269.884C61.8991 270.007 61.8815 270.137 61.89 270.266C61.8985 270.396 61.9328 270.522 61.991 270.638C62.397 271.32 62.9766 271.881 63.6706 272.266C64.4526 272.741 65.2683 273.158 66.1113 273.515L66.7073 273.78L66.6093 274.422C66.4944 275.221 66.5401 276.036 66.7436 276.817C66.9382 277.58 67.3423 278.273 67.9103 278.817C69.2388 279.859 70.9092 280.367 72.5928 280.239L73.3938 280.232L73.2654 281.026C73.045 282.159 73.2103 283.333 73.7349 284.361C74.0592 284.829 74.4948 285.209 75.0026 285.467C75.5103 285.725 76.0744 285.853 76.6438 285.839C77.9181 285.898 79.2408 285.912 80.5368 285.951C81.839 285.991 83.1416 286.011 84.4438 286.017L84.7998 286.019L84.7298 286.378C84.5893 287.042 84.644 287.733 84.8874 288.366C85.019 288.674 85.21 288.952 85.4495 289.185C85.689 289.418 85.9723 289.601 86.283 289.725C87.6434 290.144 89.0944 290.172 90.4701 289.806C91.8712 289.447 93.2192 288.907 94.4795 288.197C95.7655 287.485 97.164 286.912 98.3106 286.141C100.633 284.549 102.375 282.245 103.276 279.577C103.718 278.264 103.951 276.888 103.964 275.502C103.858 274.072 103.891 272.631 103.666 271.2L103.65 271.1L103.665 271.015C103.947 269.427 104.389 267.872 104.986 266.374C105.263 265.651 105.687 264.871 105.943 264.239C106.204 263.551 106.373 262.831 106.446 262.099C106.603 260.57 106.647 259.031 106.579 257.496C106.524 255.946 106.39 254.393 106.223 252.843L106.388 252.813Z" fill="black"/>
<path d="M65.7944 273.863L69.3632 273.967C70.5229 274.086 71.6945 273.981 72.8146 273.658C73.9299 273.297 74.9464 272.683 75.7845 271.863L78.431 269.467L75.9291 272.014C75.1075 272.913 74.0889 273.611 72.953 274.052C71.8016 274.459 70.5834 274.643 69.3632 274.594L65.7944 274.699V273.863Z" fill="black"/>
<path d="M72.6138 280.482L76.3602 280.575C77.5776 280.538 78.7664 280.197 79.8178 279.583C80.86 278.912 81.7791 278.066 82.5347 277.084L85.0497 274.281L82.6939 277.219C81.9718 278.271 81.0737 279.19 80.039 279.937C78.9494 280.656 77.6968 281.091 76.3959 281.2L72.6138 281.318L72.6138 280.482Z" fill="black"/>
<path d="M84.3496 285.909C85.467 285.655 86.6703 285.467 87.717 285.158C88.7873 284.806 89.7617 284.211 90.5646 283.42C91.3383 282.572 91.9927 281.622 92.5094 280.597L94.276 277.59L92.6926 280.697C92.2247 281.78 91.6105 282.793 90.8674 283.708C90.0583 284.605 89.053 285.303 87.93 285.748C86.7678 286.163 85.6761 286.391 84.5457 286.722L84.3496 285.909Z" fill="black"/>
<path d="M94.8785 246.25C95.2035 246.238 95.5114 246.101 95.7373 245.868C95.9632 245.634 96.0895 245.321 96.0895 244.996C96.0895 244.671 95.9632 244.358 95.7373 244.125C95.5114 243.891 95.2035 243.754 94.8785 243.742C94.5535 243.754 94.2456 243.891 94.0197 244.125C93.7937 244.358 93.6675 244.671 93.6675 244.996C93.6675 245.321 93.7937 245.634 94.0197 245.868C94.2456 246.101 94.5535 246.238 94.8785 246.25Z" fill="black"/>
<path d="M116.485 198.38C118.87 197.88 121.221 197.226 123.522 196.421C124.627 196.012 125.691 195.501 126.701 194.894C127.625 194.414 128.323 193.589 128.642 192.598L129.893 185.999L130.129 192.729C130.302 197.699 129.788 202.678 129.884 207.646C129.926 212.615 130.414 217.579 130.523 222.553L130.644 230.018L130.622 231.887C130.631 232.542 130.602 233.196 130.537 233.847C130.338 235.25 129.737 236.564 128.808 237.633C127.876 238.68 126.657 239.431 125.303 239.793C124.053 240.096 122.778 240.283 121.494 240.349C120.204 240.438 118.909 240.334 117.65 240.04C117.012 239.9 116.41 239.63 115.88 239.248C115.35 238.867 114.903 238.381 114.567 237.82L114.708 237.73C115.49 238.645 116.602 239.213 117.801 239.312C118.992 239.453 120.198 239.419 121.379 239.21C122.567 239.026 123.74 238.763 124.892 238.423C125.922 238.063 126.831 237.422 127.516 236.572C128.201 235.723 128.634 234.699 128.768 233.617C128.827 233.117 128.825 232.474 128.839 231.856L128.869 229.999L129.023 222.558C129.099 217.593 129.476 212.621 129.381 207.653C129.337 202.685 128.655 197.727 128.628 192.761L130.114 192.892C129.909 193.579 129.565 194.217 129.103 194.765C128.641 195.314 128.072 195.762 127.43 196.081C126.307 196.698 125.113 197.178 123.875 197.508C121.47 198.159 118.993 198.508 116.502 198.547L116.485 198.38Z" fill="black"/>
<path d="M140.511 149.099C141.631 146.387 143.558 144.085 146.033 142.506C147.3 141.951 148.525 141.306 149.701 140.576C150.822 139.788 151.892 138.931 152.905 138.008C153.974 137.11 155.014 136.185 156.026 135.232C156.537 134.763 157.033 134.282 157.513 133.788L158.216 133.038C158.431 132.795 158.674 132.528 158.978 132.228C159.558 131.684 160.264 131.292 161.033 131.086C161.802 130.881 162.609 130.868 163.384 131.05C164.111 131.22 164.783 131.574 165.334 132.077C165.886 132.58 166.3 133.216 166.536 133.925C166.193 133.343 165.715 132.852 165.143 132.492C164.571 132.133 163.921 131.915 163.248 131.858C162.629 131.799 162.005 131.884 161.424 132.108C160.844 132.331 160.324 132.686 159.905 133.146C159.726 133.36 159.514 133.632 159.289 133.941C159.062 134.225 158.83 134.505 158.593 134.776C158.119 135.322 157.632 135.851 157.132 136.365C156.122 137.383 155.063 138.34 153.991 139.277C152.904 140.239 151.75 141.12 150.536 141.915C149.283 142.623 147.966 143.212 146.602 143.674C145.387 144.251 144.279 145.032 143.326 145.982C142.303 146.941 141.361 147.984 140.511 149.099Z" fill="black"/>
<path d="M161.568 131.504C161.855 134.169 162.247 136.809 162.701 139.427C163.148 142.034 163.731 144.615 164.45 147.159C165.131 149.664 166.146 152.065 167.468 154.298C168.038 155.384 168.837 156.332 169.81 157.078C170.783 157.824 171.906 158.35 173.103 158.618L173.146 158.625L173.208 158.641C173.7 158.784 174.217 158.82 174.724 158.747C175.23 158.674 175.716 158.493 176.147 158.216C176.959 157.471 177.477 156.46 177.607 155.366C177.769 154.167 177.798 152.955 177.691 151.75C177.623 150.52 177.377 149.306 177.216 148.066C177.637 149.244 177.976 150.451 178.231 151.676C178.519 152.923 178.633 154.205 178.57 155.483C178.53 156.888 177.945 158.223 176.939 159.204C176.37 159.678 175.687 159.993 174.958 160.118C174.242 160.243 173.508 160.221 172.8 160.056L172.905 160.078C171.431 159.9 170.036 159.317 168.874 158.392C167.764 157.49 166.813 156.406 166.062 155.188C164.648 152.819 163.612 150.245 162.988 147.557C162.342 144.93 161.909 142.255 161.692 139.559C161.458 136.88 161.416 134.188 161.568 131.504Z" fill="black"/>
<path d="M155.618 136.712C155.621 139.686 155.768 142.647 156.058 145.595C156.323 148.536 156.807 151.453 157.503 154.322C158.151 157.19 159.191 159.955 160.592 162.539C161.979 165.152 164.029 167.354 166.535 168.925C163.815 167.596 161.553 165.487 160.038 162.865C158.515 160.266 157.387 157.453 156.692 154.521C156.016 151.604 155.59 148.634 155.419 145.645C155.235 142.667 155.301 139.679 155.618 136.712Z" fill="black"/>
<path d="M160.368 149.921C160.693 149.91 161.001 149.773 161.227 149.539C161.452 149.305 161.579 148.993 161.579 148.667C161.579 148.342 161.452 148.03 161.227 147.796C161.001 147.562 160.693 147.425 160.368 147.414C160.043 147.425 159.735 147.562 159.509 147.796C159.283 148.03 159.157 148.342 159.157 148.667C159.157 148.993 159.283 149.305 159.509 149.539C159.735 149.773 160.043 149.91 160.368 149.921Z" fill="black"/>
<path d="M145.079 188.693C146.953 185.211 149.335 182.026 152.146 179.244C154.932 176.377 158.169 173.987 161.73 172.169C162.626 171.721 163.544 171.318 164.48 170.962L165.884 170.443L166.538 170.193L167.192 169.916C168.947 169.149 170.64 168.249 172.257 167.224C175.542 165.307 178.261 162.554 180.136 159.246L180.157 159.202C180.612 158.248 180.924 157.233 181.085 156.188C181.256 155.103 181.347 154.008 181.359 152.909C181.375 151.798 181.32 150.686 181.194 149.582C181.061 148.473 180.884 147.367 180.676 146.26L181.187 147.871C181.328 148.417 181.469 148.964 181.59 149.517C181.831 150.628 182 151.753 182.096 152.885C182.194 154.03 182.18 155.182 182.056 156.325C181.948 157.512 181.657 158.676 181.195 159.776L181.216 159.733C179.447 163.411 176.637 166.489 173.136 168.586C171.458 169.685 169.691 170.639 167.853 171.44L167.152 171.729L166.431 171.996L165.073 172.481C164.175 172.812 163.294 173.187 162.434 173.607C161.561 173.995 160.739 174.493 159.886 174.931C159.073 175.439 158.246 175.929 157.456 176.477C155.855 177.556 154.328 178.742 152.885 180.026C149.974 182.621 147.356 185.527 145.079 188.693Z" fill="black"/>
<path d="M162.065 139.066C162.39 137.949 162.878 136.886 163.512 135.91C164.147 134.908 164.993 134.056 165.991 133.415C167.026 132.763 168.244 132.464 169.463 132.562C170.664 132.655 171.834 132.985 172.907 133.532L172.912 133.534L172.969 133.571C173.117 133.668 173.287 133.729 173.464 133.746C173.528 133.75 173.593 133.738 173.651 133.71C173.709 133.683 173.759 133.641 173.796 133.589C174.025 133.229 174.152 132.815 174.166 132.389C174.216 131.367 174.177 130.343 174.05 129.327C173.873 127.196 173.867 125.053 174.035 122.921C174.112 121.819 174.306 120.728 174.615 119.668C174.71 119.37 174.837 119.082 174.995 118.812C175.102 118.606 175.255 118.427 175.442 118.289C175.628 118.15 175.844 118.056 176.072 118.013C176.332 117.988 176.594 118.04 176.824 118.162C176.972 118.233 177.114 118.316 177.249 118.409C177.506 118.583 177.743 118.784 177.957 119.009C179.448 120.757 180.289 122.968 180.336 125.265C180.377 127.399 180.409 129.487 180.648 131.489C180.677 131.713 180.721 131.935 180.78 132.153C180.783 132.217 180.889 132.347 180.745 132.178C180.714 132.148 180.678 132.124 180.638 132.106C180.566 132.064 180.485 132.04 180.402 132.034C180.272 132.023 180.141 132.055 180.03 132.123C179.917 132.207 179.941 132.199 179.941 132.199C180.154 131.773 180.345 131.335 180.512 130.888C180.874 129.928 181.184 128.949 181.441 127.955C182.002 126.017 182.202 123.993 182.029 121.983C181.842 120.885 181.823 119.766 181.972 118.662C182.088 117.527 182.444 116.429 183.018 115.443L183.303 115.068C183.426 114.95 183.561 114.838 183.694 114.729C183.859 114.632 184.034 114.553 184.215 114.491C184.415 114.463 184.617 114.458 184.818 114.476C185.444 114.675 185.977 115.093 186.321 115.652C186.944 116.548 187.456 117.516 187.845 118.534C188.226 119.557 188.46 120.628 188.538 121.716C188.579 122.256 188.579 122.797 188.578 123.326C188.561 123.872 188.496 124.415 188.385 124.949C188.016 127.026 187.417 129.101 187.158 131.108C187.156 131.154 187.157 131.201 187.16 131.247C187.138 131.232 187.213 131.243 187.034 131.125C186.965 131.106 187.007 131.109 186.989 131.111C187.087 131.081 187.181 131.042 187.271 130.992C187.488 130.871 187.694 130.732 187.888 130.578C188.287 130.262 188.653 129.906 188.978 129.514C189.623 128.718 190.121 127.814 190.449 126.843C190.948 124.824 191.168 122.745 191.102 120.666C191.082 118.544 191.181 116.422 191.399 114.31C191.493 113.161 191.994 112.083 192.811 111.27C193.233 110.842 193.749 110.519 194.319 110.327C194.888 110.135 195.495 110.079 196.089 110.165C196.716 110.304 197.275 110.658 197.667 111.167C198.023 111.637 198.286 112.17 198.444 112.739C198.741 113.792 198.92 114.875 198.976 115.968C199.108 118.1 199.09 120.239 198.924 122.369C198.842 123.432 198.742 124.492 198.589 125.559C198.517 126.12 198.406 126.675 198.257 127.22L198.214 127.403C198.217 127.389 198.215 127.374 198.209 127.361C198.2 127.362 198.2 127.333 198.168 127.243C198.099 127.126 197.991 127.038 197.863 126.994C197.688 126.963 197.751 126.994 197.81 126.953C197.889 126.917 197.965 126.877 198.038 126.831C198.791 126.285 199.41 125.575 199.849 124.755C200.277 123.901 200.523 122.967 200.569 122.013C200.764 119.982 200.762 117.88 200.773 115.778C200.786 114.712 200.763 113.693 200.851 112.539L200.88 112.302L200.895 112.184L200.951 111.975C201.004 111.804 201.076 111.64 201.167 111.486C201.287 111.253 201.426 110.996 201.58 110.746C201.906 110.179 202.351 109.688 202.883 109.308C203.222 109.087 203.609 108.954 204.011 108.919C204.413 108.884 204.818 108.949 205.189 109.108C205.815 109.381 206.358 109.815 206.763 110.364C207.424 111.359 207.848 112.491 208.002 113.675C208.331 115.811 208.474 117.97 208.43 120.13L208.427 121.707L208.441 122.44C208.466 122.662 208.506 122.883 208.562 123.1C208.807 124.199 208.912 125.324 208.877 126.45C208.837 127.621 208.562 128.773 208.068 129.836C207.562 130.915 206.778 131.841 205.798 132.519C203.972 133.802 202.145 134.787 200.299 135.839L189.217 141.931C185.52 143.945 181.82 145.953 178.188 148.074C176.379 149.145 174.565 150.206 172.793 151.336C171.93 151.927 171.035 152.487 170.205 153.122L168.964 154.086L167.856 155.187L167.722 155.085L168.795 153.9L169.997 152.859C170.803 152.171 171.668 151.564 172.509 150.92C174.235 149.7 175.979 148.506 177.765 147.379C181.333 145.121 184.957 142.962 188.593 140.826L199.524 134.494C201.319 133.431 203.164 132.334 204.78 131.187C205.532 130.634 206.141 129.909 206.557 129.073C206.973 128.237 207.184 127.314 207.171 126.38C207.196 125.397 207.097 124.415 206.878 123.457C206.802 123.164 206.749 122.866 206.719 122.564C206.702 122.253 206.698 121.986 206.697 121.718L206.692 120.135C206.725 118.081 206.581 116.027 206.264 113.998C206.14 113.088 205.834 112.213 205.363 111.424C205.145 111.12 204.855 110.874 204.519 110.71C204.408 110.652 204.284 110.625 204.16 110.633C204.036 110.64 203.916 110.681 203.813 110.751C203.491 110.992 203.221 111.295 203.02 111.643C202.895 111.84 202.78 112.045 202.656 112.278C202.603 112.371 202.477 112.606 202.547 112.505L202.548 112.486L202.539 112.564L202.519 112.719C202.433 113.664 202.433 114.755 202.41 115.795C202.371 117.904 202.351 120.022 202.117 122.184C202.036 123.338 201.716 124.463 201.178 125.488C200.607 126.528 199.79 127.412 198.799 128.063C198.647 128.153 198.488 128.231 198.323 128.295C198.066 128.407 197.78 128.435 197.507 128.374C197.377 128.346 197.255 128.288 197.151 128.205C197.047 128.122 196.964 128.017 196.907 127.897C196.85 127.806 196.817 127.703 196.811 127.596C196.802 127.516 196.798 127.436 196.799 127.356C196.802 127.242 196.821 127.129 196.856 127.021L196.926 126.772C197.063 126.303 197.169 125.826 197.244 125.344C197.418 124.33 197.545 123.294 197.653 122.26C197.872 120.193 197.946 118.113 197.875 116.035C197.851 115.022 197.716 114.014 197.47 113.03C197.408 112.592 197.229 112.179 196.951 111.834C196.673 111.489 196.306 111.227 195.891 111.074C195.439 111.008 194.979 111.047 194.545 111.188C194.11 111.328 193.714 111.565 193.386 111.882C192.676 112.552 192.233 113.456 192.138 114.427C191.852 116.499 191.707 118.588 191.705 120.68C191.749 122.816 191.496 124.949 190.956 127.016C190.597 128.043 190.058 128.997 189.365 129.834C189.021 130.257 188.635 130.644 188.213 130.988C187.997 131.165 187.768 131.323 187.526 131.462C187.387 131.543 187.237 131.604 187.081 131.643C187.002 131.659 186.92 131.655 186.842 131.632C186.599 131.482 186.669 131.419 186.625 131.344C186.613 131.259 186.609 131.174 186.612 131.088C186.86 128.912 187.422 126.915 187.757 124.839C187.855 124.341 187.908 123.835 187.918 123.327C187.919 122.81 187.892 122.294 187.837 121.78C187.728 120.767 187.475 119.775 187.084 118.833C186.686 117.896 186.176 117.01 185.565 116.196C185.272 115.855 184.922 115.469 184.643 115.449C184.417 115.403 184.126 115.615 183.893 116.013C183.446 116.876 183.183 117.822 183.12 118.792C183.019 119.784 183.072 120.786 183.274 121.763C183.572 123.95 183.413 126.176 182.808 128.299C182.55 129.348 182.235 130.382 181.864 131.397C181.672 131.94 181.442 132.47 181.177 132.982C181.088 133.128 180.969 133.254 180.828 133.352C180.664 133.459 180.468 133.509 180.273 133.494C180.158 133.482 180.046 133.449 179.942 133.397C179.877 133.359 179.815 133.314 179.758 133.263C179.573 133.077 179.44 132.844 179.374 132.589C179.29 132.301 179.226 132.006 179.183 131.708C178.943 129.587 178.844 127.451 178.889 125.316C178.877 123.363 178.202 121.472 176.975 119.952C176.829 119.792 176.666 119.648 176.488 119.524C176.408 119.466 176.322 119.414 176.233 119.37C176.134 119.315 176.204 119.363 176.23 119.342C176.334 119.312 176.218 119.338 176.125 119.508C176.017 119.693 175.929 119.888 175.862 120.091C175.573 121.053 175.386 122.041 175.303 123.042C175.109 125.109 175.056 127.187 175.146 129.261C175.242 130.341 175.244 131.427 175.15 132.508C175.104 133.138 174.87 133.739 174.477 134.234C174.342 134.381 174.175 134.496 173.989 134.569C173.803 134.642 173.603 134.672 173.404 134.656C173.054 134.62 172.72 134.49 172.438 134.279L172.499 134.317C171.996 134.104 171.506 133.835 170.99 133.661C170.477 133.488 169.945 133.371 169.406 133.315C168.326 133.167 167.227 133.378 166.278 133.913C165.312 134.468 164.478 135.226 163.835 136.135C163.163 137.048 162.621 138.051 162.225 139.113L162.065 139.066Z" fill="black"/>
<path d="M170.272 133.354L162.812 122.974L202.974 98.0606L217.337 109.796L207.632 116.19L207.171 115.493L215.926 109.723L202.908 99.0846L164.014 123.213L170.951 132.866L170.272 133.354Z" fill="black"/>
<path d="M172.641 117.369C173.17 115.646 173.874 113.981 174.741 112.401C175.589 110.789 176.611 109.274 177.788 107.884C178.417 107.148 179.149 106.508 179.962 105.982C180.447 105.674 181.003 105.494 181.577 105.461C181.915 105.453 182.25 105.526 182.553 105.674C182.817 105.815 183.051 106.005 183.244 106.234C183.623 106.586 183.923 107.016 184.122 107.494C184.321 107.972 184.415 108.487 184.398 109.005C184.319 109.489 184.114 109.944 183.804 110.324C183.494 110.704 183.09 110.996 182.632 111.171C182.941 110.899 183.186 110.563 183.349 110.185C183.513 109.808 183.591 109.399 183.578 108.987C183.411 108.249 182.97 107.602 182.344 107.178C182.258 107.083 182.15 107.01 182.03 106.966C181.91 106.922 181.781 106.907 181.654 106.924C181.342 106.987 181.05 107.124 180.802 107.324C180.145 107.8 179.553 108.36 179.041 108.989C177.91 110.257 176.891 111.684 175.841 113.093C174.803 114.516 173.768 115.955 172.641 117.369Z" fill="black"/>
<path d="M111.325 349.81C111.174 349.268 96.2635 295.528 93.8828 288.878L94.6701 288.596C97.0605 295.275 111.98 349.045 112.13 349.587L111.325 349.81Z" fill="black"/>
<path d="M22.9534 434.651C22.5782 436.311 22.0938 437.937 21.5811 439.553C21.0688 441.17 20.4709 442.757 19.8817 444.349C19.2302 445.916 18.5859 447.489 17.8132 449.009C17.4219 449.766 17.0124 450.515 16.5561 451.241C16.3191 451.599 16.0635 451.946 15.7905 452.278C15.544 452.64 15.1716 452.896 14.7461 452.998C15.5085 452.639 15.8161 451.755 16.1997 451.038C16.5743 450.289 16.9137 449.519 17.2296 448.739C17.8722 447.184 18.5175 445.626 19.1048 444.044L20.9793 439.336C21.6161 437.769 22.2517 436.2 22.9534 434.651Z" fill="black"/>
<path d="M43.1916 449.218C42.853 450.644 42.3888 452.037 41.8044 453.381C41.5181 454.048 41.2276 454.712 40.9166 455.366C40.6267 456.031 40.2555 456.653 40.0201 457.354C39.9749 456.605 40.0715 455.854 40.3048 455.14C40.5048 454.432 40.7484 453.737 41.0341 453.059C41.5896 451.693 42.3145 450.403 43.1916 449.218Z" fill="black"/>
<path d="M90.1288 498.218C88.738 495.513 86.353 493.452 83.4747 492.467C67.4438 486.65 48.4245 462.039 43.1917 457.351C37.6401 452.383 32.1946 461.428 24.9827 463.221C17.7842 465.028 18.6607 454.508 12.9363 453.287C7.22519 452.065 3.61258 475.267 3.61258 475.267L0 482.479C3.91806 485.494 14.7426 489.399 14.7426 489.399L18.8464 486.995C48.2254 506.559 82.7441 508.963 82.7441 508.963C91.882 506.426 91.8821 501.791 90.1288 498.218ZM15.1409 482.865C13.9681 482.454 12.8274 481.956 11.7278 481.377C9.5358 480.23 7.5151 478.781 5.72451 477.074C7.99728 477.979 10.2108 479.026 12.352 480.208L15.5394 481.908C16.5923 482.504 17.6998 482.998 18.8466 483.383C17.5876 483.512 16.3161 483.334 15.1409 482.865ZM59.2755 481.098C58.4921 481.55 57.7216 481.895 56.9648 482.267C56.2077 482.639 55.4638 483.011 54.7333 483.396C53.2459 484.14 51.8247 484.963 50.2443 485.787C50.6739 484.998 51.2458 484.295 51.9311 483.715C52.5939 483.122 53.3305 482.618 54.1224 482.214C55.6985 481.358 57.4865 480.971 59.2754 481.098H59.2755ZM54.7599 475.268C52.7302 475.972 50.7732 476.87 48.9161 477.95C47.0302 478.986 45.2106 480.115 43.1917 481.098C43.8657 480.205 44.6463 479.398 45.516 478.694C46.3764 477.977 47.3012 477.342 48.2786 476.795C49.2598 476.244 50.303 475.812 51.3863 475.507C52.4788 475.176 53.6316 475.094 54.7599 475.268ZM41.837 470.712C43.1557 470.125 44.5249 469.658 45.9278 469.318C47.3349 468.911 48.8253 468.888 50.2443 469.251C48.8585 469.409 47.5029 469.767 46.22 470.314C44.9317 470.818 43.6567 471.35 42.3817 471.934C39.8182 473.05 37.2948 474.258 34.5986 475.268C36.7767 473.405 39.2152 471.87 41.837 470.712V470.712ZM79.0918 502.096C77.8696 502.003 76.6345 501.95 75.426 501.778C73.0087 501.459 70.5784 501.167 68.1743 500.662C58.5209 498.854 49.1771 495.669 40.429 491.205C38.2377 490.103 36.0995 488.894 34.0009 487.633C31.9182 486.353 29.9095 484.956 27.9844 483.449C32.1297 485.999 36.4327 488.284 40.8675 490.289C49.7031 494.329 58.9226 497.47 68.3868 499.666C73.1018 500.821 77.9099 501.552 82.7443 502.309C81.522 502.256 80.3003 502.176 79.0918 502.096Z" fill="black"/>
<path d="M140.498 457.336C141.142 459.765 141.634 462.232 141.97 464.723C142.344 467.208 142.559 469.714 142.616 472.227C141.969 469.798 141.477 467.331 141.143 464.84C140.771 462.355 140.556 459.849 140.498 457.336Z" fill="black"/>
<path d="M163.628 456.234C164.182 458.489 164.55 460.75 164.957 462.999C165.149 464.125 165.358 465.245 165.593 466.355C165.709 466.906 165.854 467.452 166.027 467.988C166.106 468.254 166.214 468.511 166.35 468.753C166.405 468.878 166.493 468.986 166.606 469.063C166.718 469.141 166.85 469.185 166.987 469.192C166.837 469.229 166.679 469.219 166.535 469.165C166.39 469.111 166.265 469.015 166.176 468.889C165.974 468.665 165.799 468.419 165.653 468.155C165.376 467.635 165.146 467.09 164.964 466.529C164.608 465.422 164.33 464.291 164.134 463.145C163.723 460.865 163.554 458.549 163.628 456.234Z" fill="black"/>
<path d="M203.699 483.449C201.123 482.811 198.719 482.174 196.487 481.536C194.61 484.107 192.052 486.104 189.103 487.301C190.004 485.996 191.112 484.848 192.384 483.901C193.619 482.902 195.004 482.104 196.487 481.537C193.34 480.647 190.537 479.77 188.027 478.92C186.948 480.403 185.665 481.727 184.215 482.851C182.8 484.024 181.232 484.998 179.553 485.747C180.648 484.276 181.935 482.958 183.379 481.829C184.786 480.649 186.351 479.67 188.027 478.92C172.687 473.713 168.264 469.397 166.989 469.198C166.989 469.198 160.654 482.453 142.617 472.226C143.972 470.632 134.715 476.702 137.451 485.786C139.068 490.981 139.068 496.543 137.451 501.738H152.711C152.711 501.738 154.558 490.608 163.629 495.721L171.199 501.738C171.199 501.738 209.344 504.46 224.246 498.045C219.907 499.067 215.462 499.562 211.004 499.52C206.555 499.599 202.105 499.44 197.67 499.214C193.234 498.935 188.811 498.603 184.401 498.098C179.979 497.62 175.582 497.076 171.199 496.319C175.636 496.531 180.058 496.823 184.481 497.089L197.749 497.886C202.172 498.138 206.582 498.337 211.004 498.497C213.209 498.55 215.427 498.59 217.632 498.523C219.845 498.523 222.056 498.363 224.246 498.045C226.238 497.333 227.982 496.06 229.267 494.38C229.267 494.38 231.976 490.422 203.699 483.449ZM147.678 495.057C146.655 495.068 145.633 494.993 144.623 494.831C142.602 494.534 140.64 493.925 138.806 493.025C140.826 493.006 142.845 493.171 144.835 493.516C145.818 493.676 146.788 493.835 147.771 494.034C148.754 494.207 149.71 494.406 150.746 494.513C149.773 494.909 148.727 495.095 147.678 495.057ZM174.4 478.747C173.057 479.747 171.57 480.54 169.991 481.098C171.024 479.784 172.246 478.629 173.617 477.672C174.96 476.679 176.441 475.887 178.013 475.321C176.991 476.641 175.773 477.797 174.4 478.747V478.747Z" fill="black"/>
<path d="M105.308 40.003C105.76 38.6317 106.286 37.2863 106.885 35.9726L107.719 34.0172C108.008 33.3679 108.21 32.6826 108.317 31.9797C108.533 32.7049 108.542 33.4758 108.343 34.2057C108.177 34.9254 107.946 35.6283 107.652 36.3054C107.074 37.656 106.283 38.9046 105.308 40.003Z" fill="black"/>
<path d="M121.757 27.1659C121.757 27.1659 110.488 35.447 107.798 34.8167C107.798 34.8167 105.309 20.3461 108.35 14.7299C110.236 11.2477 113.733 -2.11881 133.992 0.288059C154.25 2.69493 155.654 22.352 155.654 22.352C153.808 22.642 151.867 22.8823 149.838 23.0541C144.226 23.5267 138.58 23.4258 132.989 22.7532C132.989 22.7532 128.376 15.9335 123.361 21.5497C122.314 23.2359 121.758 25.181 121.757 27.1659Z" fill="black"/>
<path d="M155.654 22.352C155.241 25.0407 154.732 27.7188 154.431 30.4004C154.324 31.0125 154.298 31.6363 154.355 32.2553C154.562 32.8531 154.844 33.4225 155.193 33.95C155.888 35.082 156.69 36.1737 157.439 37.3414C157.859 37.9524 158.203 38.6127 158.463 39.3074C158.547 39.558 158.581 39.8231 158.562 40.087C158.522 40.3811 158.408 40.6602 158.231 40.8988C157.92 41.2625 157.515 41.533 157.06 41.68C156.69 41.8161 156.345 41.9017 156.044 41.9949C155.766 42.0585 155.441 42.2539 155.565 42.1757C155.593 42.1328 155.612 42.0844 155.619 42.0337C155.617 41.9607 155.608 42.1052 155.6 42.1613L155.568 42.3819C155.519 42.5833 155.475 42.7639 155.422 42.9397C155.319 43.2848 155.208 43.6213 155.089 43.9493C154.125 46.5641 152.854 49.055 151.302 51.3694C149.761 53.7958 147.64 55.7996 145.13 57.1992C143.779 57.7959 142.305 58.0657 140.83 57.9867C139.355 57.9078 137.919 57.4824 136.639 56.745C136.019 56.3925 135.443 55.97 134.92 55.4858L133.347 54.1362L132.564 53.4627C132.257 53.2192 132.127 53.0499 131.912 52.9943C131.361 52.8784 130.786 52.986 130.315 53.2936C129.168 53.9416 128.163 54.8128 127.358 55.8556C126.51 56.908 125.785 58.0538 125.197 59.2707C125.624 57.9661 126.232 56.7276 127.002 55.5915C127.759 54.4014 128.749 53.3768 129.913 52.5795C130.239 52.3461 130.61 52.1827 131.003 52.0995C131.395 52.0164 131.801 52.0154 132.194 52.0965C132.416 52.1534 132.623 52.257 132.802 52.4005C133.004 52.5406 133.088 52.6147 133.236 52.7249L134.035 53.335L135.627 54.5529C136.839 55.5619 138.31 56.2104 139.872 56.4244C141.434 56.6385 143.025 56.4096 144.464 55.7637C146.685 54.4473 148.558 52.6164 149.924 50.4252C151.416 48.232 152.653 45.8753 153.609 43.401C153.73 43.0934 153.841 42.7879 153.942 42.4846L154.068 42.0608L154.075 42.03C154.081 42.0024 154.084 42.0629 154.098 41.9065C154.115 41.6853 154.195 41.4734 154.327 41.2953C154.514 41.0512 154.766 40.8643 155.053 40.7555C155.241 40.6792 155.433 40.6152 155.629 40.5641C155.98 40.4679 156.297 40.3964 156.567 40.305C156.765 40.252 156.948 40.1539 157.102 40.0185C157.127 39.9825 157.146 39.9425 157.158 39.9003C157.151 39.825 157.137 39.7504 157.119 39.6772C156.924 39.0909 156.663 38.5285 156.342 38.0007C155.688 36.841 154.942 35.6958 154.281 34.4727C153.914 33.8437 153.632 33.1692 153.442 32.4665C153.384 31.7308 153.446 30.9905 153.627 30.2748C154.206 27.5939 154.873 24.9634 155.654 22.352Z" fill="black"/>
<path d="M121.757 27.1659C121.944 28.3912 122.469 29.5399 123.273 30.4829C123.682 30.907 124.18 31.2351 124.73 31.4433C125.329 31.67 125.944 31.8494 126.571 31.9798C126.242 32.0584 125.909 32.116 125.573 32.1523C125.227 32.1657 124.881 32.1374 124.543 32.068C123.831 31.9355 123.178 31.5848 122.674 31.0646C122.198 30.5493 121.863 29.9193 121.702 29.2361C121.541 28.5529 121.56 27.8396 121.757 27.1659Z" fill="black"/>
<path d="M132.988 22.7531C134.805 23.1576 136.593 23.6493 138.378 24.1543C140.163 24.6572 141.925 25.2318 143.699 25.7672C145.453 26.3669 147.218 26.9322 148.961 27.5642C150.705 28.1968 152.444 28.8419 154.154 29.5757C152.337 29.1725 150.549 28.6804 148.764 28.176C146.98 27.6708 145.217 27.099 143.443 26.5617C141.69 25.9599 139.924 25.3973 138.181 24.7632C136.438 24.1311 134.699 23.4857 132.988 22.7531Z" fill="black"/>
<path d="M146.628 32.8323C146.953 32.821 147.261 32.684 147.487 32.4501C147.713 32.2162 147.839 31.9038 147.839 31.5786C147.839 31.2535 147.713 30.9411 147.487 30.7072C147.261 30.4733 146.953 30.3363 146.628 30.325C146.303 30.3363 145.996 30.4733 145.77 30.7072C145.544 30.9411 145.417 31.2535 145.417 31.5786C145.417 31.9038 145.544 32.2162 145.77 32.4501C145.996 32.684 146.303 32.821 146.628 32.8323Z" fill="black"/>
<path d="M152.249 26.81L149.035 37.6398L151.438 38.3532L154.653 27.5234L152.249 26.81Z" fill="black"/>
<path d="M129.228 48.0263C127.301 46.4984 125.978 44.3358 125.496 41.9238C125.239 40.7207 125.208 39.4802 125.406 38.266C125.591 37.0681 125.985 35.9121 126.571 34.851C126.299 35.9946 126.127 37.1594 126.055 38.3325C125.984 39.4794 126.072 40.6305 126.313 41.7537C126.54 42.8828 126.908 43.979 127.407 45.0167C127.911 46.0786 128.521 47.0869 129.228 48.0263Z" fill="black"/>
<path d="M125.309 25.3641C125.619 25.5098 125.886 25.7343 126.083 26.0152C126.186 26.2124 126.264 26.4061 126.082 26.5666C125.897 26.7268 125.475 26.8562 125.376 27.0274C125.264 27.1968 125.376 27.3951 125.586 27.606C125.78 27.7661 125.927 27.9756 126.011 28.2122C126.101 28.3851 126.13 28.583 126.094 28.7743C125.929 29.121 125.598 29.446 124.751 29.7046L124.502 29.6727C123.748 29.208 123.509 28.8095 123.438 28.4327C123.452 28.2384 123.53 28.0543 123.66 27.9097C123.802 27.7021 123.997 27.5367 124.225 27.4308C124.481 27.28 124.64 27.1164 124.574 26.9241C124.523 26.7336 124.146 26.5015 124.008 26.2998C123.873 26.0986 123.997 25.9306 124.146 25.766C124.408 25.544 124.723 25.3944 125.06 25.332L125.309 25.3641Z" fill="black"/>
<path d="M124.695 27.5646C123.243 31.1087 122.51 34.906 122.538 38.7357C122.567 42.5655 123.356 46.3515 124.859 49.8739C126.553 53.39 128.689 56.6846 130.64 60.044C131.633 61.7132 132.616 63.3867 133.696 64.9649C134.215 65.7443 134.774 66.4961 135.372 67.2171C135.648 67.5456 135.95 67.8528 136.273 68.1361C136.477 68.3246 136.725 68.4613 136.993 68.5345L136.478 68.7523C137.142 68.0523 137.682 67.244 138.075 66.3623C138.49 65.4209 138.79 64.4324 138.966 63.4187C139.164 62.3815 139.26 61.3274 139.253 60.2715C139.258 59.7384 139.23 59.2026 139.22 58.6622L139.081 57.0424L139.243 57.0056C139.596 58.0517 139.86 59.1256 140.033 60.2159C140.188 61.3275 140.233 62.4516 140.169 63.5721C140.082 64.7162 139.843 65.8435 139.458 66.9244C139.074 68.0765 138.448 69.1332 137.622 70.0236L137.416 70.2365L137.107 70.2415C136.402 70.2343 135.723 69.9814 135.185 69.5266C134.754 69.1905 134.363 68.807 134.018 68.3834C133.362 67.6072 132.769 66.7808 132.243 65.9117C131.204 64.2116 130.254 62.4906 129.376 60.7353C127.596 57.2372 126.209 53.5643 124.398 50.105C122.655 46.6251 121.018 42.8177 121.043 38.7411C121.03 36.7273 121.32 34.7231 121.903 32.7955C122.448 30.8714 123.348 29.066 124.556 27.4723L124.695 27.5646Z" fill="black"/>
<path d="M137.134 69.3883C137.739 76.3486 138.225 83.2804 138.477 90.2344C138.563 93.7132 138.578 97.2042 138.876 100.674C138.988 102.412 139.26 104.134 139.445 105.864C139.689 107.588 139.975 109.306 140.259 111.023C140.907 114.416 141.436 117.94 142.161 121.21C142.564 122.787 143.287 124.266 144.284 125.553C145.282 126.84 146.533 127.909 147.96 128.694C150.956 130.211 154.288 130.945 157.645 130.827C161.092 130.671 164.511 130.126 167.836 129.202L167.885 129.362C164.65 130.791 161.215 131.72 157.7 132.117C154.068 132.48 150.406 131.831 147.119 130.243C145.46 129.368 144.014 128.139 142.881 126.644C141.793 125.135 141.016 123.425 140.597 121.612C140.191 119.794 140.04 118.119 139.795 116.368C139.567 114.634 139.415 112.892 139.254 111.153C138.984 107.668 138.696 104.192 138.353 100.722C137.998 97.254 137.486 93.7954 137.127 90.3201C136.78 86.8443 136.662 83.3526 136.625 79.862C136.615 76.3703 136.663 72.8768 136.967 69.388L137.134 69.3883Z" fill="black"/>
<path d="M152.456 48.4544C150.723 48.5192 149.003 48.1358 147.462 47.3412C146.66 46.9476 145.959 46.3764 145.412 45.6712C144.859 44.9655 144.598 44.0745 144.683 43.1822C144.937 43.9453 145.351 44.6454 145.897 45.2353C146.444 45.8252 147.11 46.2914 147.852 46.6025C149.341 47.3276 150.879 47.9465 152.456 48.4544Z" fill="black"/>
<path d="M113.65 89.672C113.962 89.9838 114.198 90.3634 114.34 90.7813C114.516 91.1674 114.66 91.5667 114.773 91.9756C115.034 92.7787 115.248 93.5963 115.415 94.4242C115.828 96.0641 116.012 97.739 116.322 99.3978L116.941 104.411L117.385 109.44C117.682 112.794 117.785 116.156 117.994 119.516L118.341 129.6C118.434 136.324 118.538 143.051 118.458 149.774L118.387 159.86L118.125 169.941C118.023 173.301 117.97 176.663 117.827 180.021L117.374 190.094C117.095 196.81 116.725 203.522 116.343 210.232L114.24 250.499L114.23 250.682L114.073 250.754C110.738 252.279 107.172 253.238 103.521 253.59C99.8572 253.963 96.1554 253.61 92.6277 252.551C91.7357 252.324 90.8665 252.014 90.0314 251.626C89.1662 251.311 88.3293 250.922 87.5297 250.465L85.1377 249.08C84.3848 248.554 83.6734 247.967 82.9393 247.412L81.8459 246.567C81.4973 246.268 81.1899 245.925 80.8598 245.606L78.912 243.652C77.6886 242.286 76.6286 240.782 75.4791 239.35L75.3737 239.218L75.3653 238.999C74.8604 226.06 74.6202 213.119 74.4107 200.175C74.1983 187.232 74.2424 174.284 74.3689 161.338C74.5342 148.391 74.9961 135.45 75.7544 122.514C76.1656 116.05 76.6581 109.589 77.435 103.152C77.8365 99.9354 78.3352 96.7275 79.0012 93.5506C79.3234 91.9582 79.7297 90.3839 80.2184 88.8344C80.6484 87.2541 81.3833 85.7731 82.3819 84.475L82.5041 84.5888C81.5696 85.8935 80.8979 87.3676 80.5264 88.9288C80.091 90.4801 79.7382 92.0535 79.4694 93.6422C78.9022 96.8175 78.5287 100.026 78.2028 103.238C77.5384 109.663 77.1574 116.117 76.8572 122.573C76.2703 135.488 76.161 148.423 76.0566 161.354C75.9285 174.287 76.0494 187.221 76.1224 200.156C76.2086 213.091 76.445 226.028 76.6837 238.958L76.5699 238.608C77.662 240.009 78.6672 241.491 79.8296 242.833L81.6811 244.75C81.9946 245.064 82.2865 245.403 82.6182 245.697L83.6584 246.526C84.3568 247.071 85.0332 247.65 85.7505 248.17L88.0307 249.539C88.7927 249.993 89.5924 250.38 90.4208 250.696C91.219 251.084 92.0519 251.396 92.9084 251.629C96.3121 252.712 99.8957 253.115 103.455 252.814C107.025 252.541 110.522 251.66 113.795 250.209L113.628 250.464C114.396 237.048 115.17 223.631 115.597 210.199C115.834 203.484 116.056 196.769 116.196 190.052L116.679 169.906C116.991 156.477 117.217 143.047 117.105 129.62L116.962 119.552C116.821 116.201 116.786 112.841 116.557 109.495L116.262 104.472L115.815 99.4625C115.564 97.8097 115.437 96.1281 115.084 94.4938C114.947 93.6694 114.762 92.8536 114.531 92.0504C114.435 91.6457 114.306 91.2493 114.148 90.8648L113.909 90.2913C113.813 90.1244 113.702 89.9672 113.575 89.822L113.65 89.672Z" fill="black"/>
</svg>
