<svg width="416" height="342" viewBox="0 0 416 342" fill="none" xmlns="http://www.w3.org/2000/svg">
<path d="M240.646 85.678C240.491 85.9587 240.336 86.249 240.162 86.5297C240.085 86.6748 239.988 86.82 239.92 86.9555C239.872 87.0813 239.823 87.2264 239.785 87.362C239.61 87.9329 239.456 88.5523 239.31 89.1523L238.42 92.8008C238.139 94.0202 237.868 95.2396 237.617 96.459C237.462 97.272 237.307 98.0752 237.21 98.9268L267.134 69.8163C264.458 64.0773 262.698 57.9544 261.918 51.6705C257.272 53.877 251.33 56.6158 243.307 59.945C229.981 65.471 226.4 94.0783 226.4 94.0783C226.4 94.0783 232.546 95.4331 236.01 94.4267C236.067 93.7243 236.167 93.0262 236.31 92.3363C236.573 91.0236 236.982 89.7446 237.53 88.5233C237.807 87.8976 238.141 87.2983 238.527 86.7329C238.623 86.5878 238.74 86.4426 238.865 86.2878L239.127 85.8909C239.31 85.6296 239.475 85.3587 239.64 85.0877C240.994 82.9102 242.282 80.6553 243.549 78.4101L247.372 71.6454C246.327 74.0164 245.253 76.3745 244.149 78.7198C243.027 81.0521 241.904 83.3844 240.646 85.678ZM228.326 93.8073C227.95 93.7939 227.594 93.6351 227.333 93.3643C227.071 93.0935 226.925 92.7319 226.925 92.3556C226.925 91.9793 227.071 91.6177 227.333 91.3469C227.594 91.0762 227.95 90.9174 228.326 90.904C228.702 90.9174 229.059 91.0762 229.32 91.3469C229.581 91.6177 229.727 91.9793 229.727 92.3556C229.727 92.7319 229.581 93.0935 229.32 93.3643C229.059 93.6351 228.702 93.7939 228.326 93.8073ZM233.088 93.8073C232.712 93.7939 232.355 93.6351 232.094 93.3643C231.833 93.0935 231.687 92.7319 231.687 92.3556C231.687 91.9793 231.833 91.6177 232.094 91.3469C232.355 91.0762 232.712 90.9174 233.088 90.904C233.464 90.9174 233.82 91.0762 234.081 91.3469C234.343 91.6177 234.489 91.9793 234.489 92.3556C234.489 92.7319 234.343 93.0935 234.081 93.3643C233.82 93.6351 233.464 93.7939 233.088 93.8073Z" fill="#020202"/>
<path d="M237.13 100.25C238.742 100.954 240.454 101.402 242.204 101.578C243.042 101.65 243.887 101.619 244.718 101.484C245.579 101.379 246.417 101.111 247.368 100.9C246.739 101.646 245.932 102.222 245.022 102.575C244.096 102.958 243.091 103.113 242.092 103.025C241.1 102.95 240.137 102.661 239.267 102.179C238.405 101.724 237.671 101.061 237.13 100.25Z" fill="black"/>
<path d="M151.582 146.522C151.428 145.195 151.35 143.861 151.35 142.525L151.582 146.522Z" fill="black"/>
<path d="M151.65 147.702L151.582 146.522C151.826 149.168 152.617 151.736 153.905 154.061C151.456 150.47 151.65 147.702 151.65 147.702Z" fill="black"/>
<path d="M153.991 154.196C154.301 154.651 154.659 155.116 155.056 155.59C154.656 155.162 154.299 154.695 153.991 154.196Z" fill="black"/>
<path d="M358.076 171.916L0 169.487V163.632C29.7977 164.106 59.5954 164.464 89.3931 164.706C119.191 165.035 148.988 165.142 178.786 165.316C208.584 165.529 238.391 165.539 268.189 165.597L312.89 165.645L357.243 165.548L358.076 171.916Z" fill="black"/>
<path d="M415.116 130.476V136.486L358.075 171.916L357.969 165.423L372.234 156.751L386.537 148.012L415.116 130.476Z" fill="black"/>
<path d="M223.914 146.702L225.849 146.737" stroke="#020202" stroke-width="1.93554" stroke-miterlimit="10"/>
<path d="M229.831 146.809L275.616 147.634" stroke="#020202" stroke-width="1.93554" stroke-miterlimit="10" stroke-dasharray="3.98 3.98"/>
<path d="M277.606 147.67L279.542 147.705" stroke="#020202" stroke-width="1.93554" stroke-miterlimit="10"/>
<path d="M226.031 143.239L227.967 143.274" stroke="#020202" stroke-width="1.93554" stroke-miterlimit="10"/>
<path d="M231.948 143.346L277.733 144.171" stroke="#020202" stroke-width="1.93554" stroke-miterlimit="10" stroke-dasharray="3.98 3.98"/>
<path d="M279.724 144.207L281.659 144.242" stroke="#020202" stroke-width="1.93554" stroke-miterlimit="10"/>
<path d="M228.587 139.819L230.522 139.854" stroke="#020202" stroke-width="1.93554" stroke-miterlimit="10"/>
<path d="M234.503 139.926L280.288 140.751" stroke="#020202" stroke-width="1.93554" stroke-miterlimit="10" stroke-dasharray="3.98 3.98"/>
<path d="M282.279 140.787L284.214 140.822" stroke="#020202" stroke-width="1.93554" stroke-miterlimit="10"/>
<path d="M63.72 136.036C64.2175 150.074 64.5467 164.112 64.9661 178.15L65.9009 220.264C66.0718 227.283 66.2691 234.302 66.4927 241.321C66.6912 248.34 66.7016 255.359 66.5239 262.378L66.1579 272.906C65.9729 276.416 65.8491 279.925 65.5999 283.435C65.1665 290.454 64.6128 297.473 63.72 304.492C63.7103 304.568 63.6734 304.637 63.616 304.688C63.5587 304.738 63.4849 304.766 63.4085 304.766C63.332 304.766 63.2582 304.738 63.2009 304.688C63.1435 304.637 63.1066 304.568 63.097 304.492C62.2041 297.473 61.6504 290.454 61.2173 283.435C60.9678 279.925 60.844 276.416 60.659 272.906L60.293 262.378C60.1125 255.359 60.123 248.34 60.3242 241.321C60.5552 234.302 60.7524 227.283 60.916 220.264L61.8508 178.15C62.2703 164.112 62.5994 150.074 63.0969 136.036C63.0999 135.955 63.134 135.879 63.1921 135.823C63.2502 135.767 63.3277 135.735 63.4084 135.735C63.4891 135.735 63.5667 135.767 63.6248 135.823C63.6828 135.879 63.717 135.955 63.7199 136.036H63.72Z" fill="#020202"/>
<path d="M7.97588 171.808C8.47343 185.846 8.80254 199.884 9.22198 213.922L10.1568 256.036C10.3277 263.055 10.525 270.074 10.7486 277.093C10.9473 284.112 10.9577 291.131 10.7798 298.15L10.4138 308.678C10.2288 312.188 10.105 315.697 9.85573 319.207C9.42238 326.226 8.86891 333.245 7.97584 340.264C7.96626 340.34 7.92933 340.41 7.87198 340.46C7.81462 340.511 7.74078 340.539 7.66432 340.539C7.58786 340.539 7.51402 340.511 7.45666 340.46C7.39931 340.41 7.36238 340.34 7.3528 340.264C6.45998 333.245 5.90627 326.226 5.47317 319.207C5.22365 315.698 5.09987 312.188 4.91482 308.678L4.54883 298.15C4.36841 291.131 4.37882 284.112 4.58008 277.093C4.81104 270.074 5.0083 263.055 5.17187 256.036L6.10667 213.922C6.5261 199.884 6.85522 185.846 7.35277 171.808C7.35562 171.727 7.3897 171.651 7.44781 171.595C7.50592 171.539 7.58353 171.507 7.66429 171.507C7.74506 171.507 7.82267 171.539 7.88078 171.595C7.93889 171.651 7.97296 171.727 7.97581 171.808H7.97588Z" fill="#020202"/>
<path d="M407.86 136.036C408.357 150.074 408.686 164.112 409.106 178.15L410.04 220.264C410.211 227.283 410.409 234.302 410.632 241.321C410.831 248.34 410.841 255.359 410.664 262.378L410.298 272.906C410.113 276.416 409.989 279.925 409.739 283.435C409.306 290.454 408.752 297.473 407.86 304.492C407.85 304.568 407.813 304.637 407.756 304.688C407.698 304.738 407.625 304.766 407.548 304.766C407.472 304.766 407.398 304.738 407.341 304.688C407.283 304.637 407.246 304.568 407.237 304.492C406.344 297.473 405.79 290.454 405.357 283.435C405.107 279.925 404.984 276.416 404.799 272.906L404.433 262.378C404.252 255.359 404.263 248.34 404.464 241.321C404.695 234.302 404.892 227.283 405.056 220.264L405.99 178.15C406.41 164.112 406.739 150.074 407.237 136.036C407.24 135.955 407.274 135.879 407.332 135.823C407.39 135.767 407.467 135.735 407.548 135.735C407.629 135.735 407.706 135.767 407.764 135.823C407.822 135.879 407.857 135.955 407.86 136.036H407.86Z" fill="#020202"/>
<path d="M352.116 171.808C352.613 185.846 352.942 199.884 353.362 213.922L354.296 256.036C354.467 263.055 354.665 270.074 354.888 277.093C355.087 284.112 355.097 291.131 354.919 298.15L354.553 308.679C354.368 312.188 354.245 315.698 353.995 319.207C353.562 326.226 353.008 333.245 352.115 340.264C352.106 340.34 352.069 340.41 352.012 340.46C351.954 340.511 351.88 340.539 351.804 340.539C351.728 340.539 351.654 340.511 351.596 340.46C351.539 340.41 351.502 340.34 351.492 340.264C350.599 333.245 350.046 326.226 349.613 319.207C349.363 315.698 349.24 312.188 349.055 308.679L348.688 298.15C348.508 291.131 348.518 284.112 348.72 277.093C348.951 270.074 349.148 263.055 349.312 256.036L350.246 213.922C350.666 199.884 350.995 185.846 351.492 171.808C351.495 171.727 351.53 171.651 351.588 171.595C351.646 171.539 351.723 171.508 351.804 171.508C351.885 171.508 351.962 171.539 352.02 171.595C352.078 171.651 352.112 171.727 352.115 171.808H352.116Z" fill="#020202"/>
<path d="M273.853 44.129C272.22 44.0765 270.663 43.4325 269.47 42.3168C268.257 41.2739 267.186 40.0763 266.284 38.7546C265.375 37.4606 264.558 36.1042 263.839 34.6954C263.108 33.2922 262.458 31.8478 261.894 30.3695L263.439 30.7797C263.174 31.006 262.865 31.1747 262.531 31.2749C262.198 31.3752 261.847 31.4048 261.501 31.362C260.922 31.2728 260.374 31.0411 259.907 30.6877C259.094 30.0857 258.453 29.2822 258.045 28.3566C257.619 27.4603 257.425 26.4716 257.48 25.4809C257.537 24.4802 257.883 23.5176 258.477 22.7101C259.052 21.9535 259.789 21.3352 260.635 20.9005C261.074 20.665 261.553 20.5142 262.048 20.456C262.587 20.3943 263.131 20.5258 263.583 20.827C264.309 21.4446 264.811 22.285 265.009 23.2173C265.235 24.0626 265.374 24.9291 265.422 25.8028L265.156 25.4864C266.258 25.7141 267.404 25.5554 268.402 25.037C269.422 24.5107 270.341 23.8098 271.119 22.9663C272.678 21.232 274.005 19.3031 275.067 17.2277C276.168 15.1649 277.165 13.0417 278.091 10.8862C279.016 8.73821 279.871 6.52463 280.594 4.33069C280.668 4.10725 280.81 3.91265 281.001 3.77445C281.191 3.63625 281.42 3.56147 281.655 3.56068C281.891 3.55989 282.12 3.63313 282.312 3.77005C282.503 3.90697 282.646 4.10061 282.721 4.32355L282.737 4.36981C283.753 7.44189 284.875 10.527 286.106 13.5184C286.748 15.0024 287.42 16.4678 288.175 17.8657C288.841 19.2081 289.771 20.4023 290.91 21.3768L291.014 21.4518C291.103 21.5164 291.177 21.5992 291.231 21.6948C291.285 21.7903 291.319 21.8963 291.329 22.0057C291.517 24.096 291.567 26.1676 291.552 28.2545C291.541 29.3 291.473 30.3441 291.348 31.3822C291.262 32.4368 291.001 33.4698 290.577 34.4391C290.565 34.4636 290.544 34.4827 290.519 34.4928C290.494 34.5028 290.465 34.5031 290.44 34.4935C290.414 34.4838 290.393 34.4651 290.381 34.4408C290.368 34.4165 290.365 34.3885 290.373 34.3622L290.375 34.3534C290.605 33.3682 290.695 32.3557 290.644 31.3454C290.618 30.3282 290.531 29.3123 290.447 28.2962C290.263 26.2672 289.955 24.2312 289.623 22.2352L290.042 22.8638C288.543 21.8445 287.3 20.4925 286.41 18.9135C285.523 17.4706 284.73 15.9723 284.034 14.4279C282.653 11.3786 281.499 8.23111 280.582 5.01138L282.724 5.05049C281.877 7.34009 280.937 9.53 279.905 11.7097C278.88 13.8927 277.698 15.9985 276.368 18.0107C275.054 20.0532 273.499 21.9309 271.737 23.6036C270.834 24.4429 269.809 25.14 268.696 25.6708C267.55 26.2211 266.258 26.3887 265.009 26.1489C264.939 26.1344 264.875 26.0974 264.827 26.0436C264.78 25.9898 264.751 25.9219 264.745 25.8503L264.744 25.8323C264.691 25.0189 264.536 24.2155 264.282 23.4411C264.098 22.7152 263.671 22.0741 263.073 21.6236C261.989 21.0712 260.393 22.3846 259.692 23.5237C259.357 24.1401 259.186 24.8324 259.195 25.5341C259.205 26.2357 259.395 26.9231 259.748 27.5299C260.057 28.1414 260.501 28.6752 261.045 29.0915C261.253 29.2505 261.496 29.3582 261.754 29.4058C261.827 29.4204 261.903 29.4191 261.976 29.4019C262.049 29.3848 262.117 29.3523 262.176 29.3065L262.261 29.2471C262.471 29.101 262.73 29.044 262.982 29.0889C263.233 29.1337 263.457 29.2767 263.603 29.4863C263.652 29.5577 263.692 29.6352 263.721 29.7169C264.215 31.1168 264.827 32.533 265.441 33.9152C266.073 35.2956 266.76 36.6501 267.518 37.956C268.262 39.261 269.14 40.4846 270.138 41.6067C271.086 42.7713 272.399 43.5827 273.864 43.91C273.879 43.9122 273.892 43.9173 273.905 43.9248C273.917 43.9324 273.928 43.9423 273.936 43.954C273.945 43.9657 273.951 43.979 273.954 43.9931C273.958 44.0072 273.958 44.0218 273.956 44.0361C273.952 44.061 273.939 44.0837 273.921 44.1006C273.902 44.1174 273.878 44.1275 273.853 44.129Z" fill="#020202"/>
<path d="M268.442 40.3519C268.536 41.123 268.616 41.8942 268.687 42.6653C268.783 43.4672 268.777 44.2779 268.669 45.0783C268.421 46.7365 267.712 48.2914 266.622 49.5654C266.07 50.2092 265.43 50.7724 264.722 51.2386C264.372 51.4697 264.009 51.6803 263.635 51.8697L262.597 52.3871C261.209 53.0659 259.825 53.7561 258.412 54.3809C255.595 55.6559 252.671 56.6902 249.773 57.7705C248.318 58.2956 246.873 58.8438 245.444 59.4273C244.005 59.9275 242.63 60.5944 241.346 61.4144C238.934 63.2345 236.969 65.5798 235.598 68.2726C234.142 70.9217 232.905 73.686 231.901 76.5375C229.956 82.3069 228.407 88.2021 227.263 94.1821L226.59 93.2284C228.273 93.6616 229.982 93.9871 231.707 94.2028C232.568 94.313 233.436 94.3679 234.305 94.3671C235.172 94.3798 236.035 94.2481 236.858 93.9772C236.872 93.9719 236.886 93.9692 236.9 93.9694C236.915 93.9696 236.929 93.9727 236.942 93.9784C236.956 93.9841 236.968 93.9924 236.978 94.0028C236.988 94.0132 236.996 94.0254 237.001 94.0389C237.01 94.0626 237.011 94.0887 237.003 94.1128C236.995 94.137 236.98 94.1579 236.959 94.1721C236.165 94.6387 235.287 94.9452 234.375 95.0743C233.477 95.2374 232.566 95.3222 231.653 95.3279C230.745 95.347 229.837 95.3185 228.932 95.2426C228.024 95.1698 227.136 95.0794 226.216 94.921C226.013 94.886 225.83 94.7759 225.704 94.6125C225.578 94.4491 225.518 94.2443 225.536 94.0388L225.543 93.967C225.837 90.854 226.343 87.7647 227.059 84.7208C227.757 81.6679 228.696 78.6753 229.868 75.7711C230.997 72.8269 232.453 70.019 234.21 67.4005C235.987 64.7677 238.276 62.52 240.941 60.7915C242.3 60.0184 243.715 59.3483 245.173 58.7867C246.587 58.1741 247.975 57.5008 249.348 56.7948C252.104 55.4082 254.808 53.9157 257.594 52.6069C258.981 51.9401 260.392 51.3254 261.792 50.6854L262.845 50.2112C263.169 50.0734 263.485 49.9167 263.791 49.742C264.394 49.3925 264.95 48.968 265.446 48.4785C266.465 47.4741 267.211 46.2261 267.612 44.8527C267.817 44.1398 267.939 43.406 267.977 42.6653C268.048 41.8942 268.128 41.1231 268.223 40.352C268.226 40.3252 268.239 40.3005 268.259 40.2826C268.279 40.2648 268.305 40.2549 268.332 40.2549C268.359 40.2549 268.385 40.2648 268.405 40.2826C268.426 40.3005 268.439 40.3252 268.442 40.352L268.442 40.3519Z" fill="#020202"/>
<path d="M237.13 100.25C237.748 102.408 238.078 104.638 238.11 106.882C238.228 109.12 238.245 111.36 238.162 113.602C238.095 115.843 237.949 118.083 237.688 120.32C237.47 122.595 237.05 124.846 236.432 127.046L235.464 125.765L249.177 125.001L262.895 124.351L276.615 123.761C281.188 123.543 285.763 123.417 290.333 123.015C288.095 123.524 285.821 123.889 283.549 124.211C281.276 124.555 278.998 124.833 276.717 125.085C272.155 125.588 267.586 125.992 263.013 126.329C258.442 126.69 253.864 126.928 249.288 127.186C244.708 127.393 240.132 127.607 235.546 127.716L235.531 127.716C235.403 127.719 235.275 127.697 235.155 127.651C235.035 127.604 234.925 127.535 234.832 127.446C234.739 127.358 234.665 127.251 234.613 127.134C234.561 127.016 234.533 126.89 234.53 126.761C234.527 126.65 234.543 126.54 234.578 126.434C235.209 124.357 235.69 122.236 236.018 120.09C236.374 117.916 236.634 115.717 236.87 113.516C237.081 111.312 237.276 109.102 237.38 106.885C237.538 104.671 237.454 102.446 237.13 100.25Z" fill="#020202"/>
<path d="M292.693 127.189C288.784 127.852 271.441 127.495 262.47 127.261C262.47 127.261 281.659 111.195 281.719 105.167C281.719 105.167 288.407 122.38 290.332 123.015L292.693 127.189Z" fill="#020202"/>
<path d="M227.402 94.2679C227.202 95.9843 226.902 97.6717 226.569 99.3494C226.243 101.029 225.862 102.693 225.46 104.351C225.057 106.008 224.622 107.656 224.156 109.295C223.719 110.943 223.184 112.561 222.699 114.195L222.689 114.228C222.667 114.303 222.634 114.375 222.591 114.442C221.435 116.241 220.256 118.027 219.021 119.778C217.772 121.522 216.497 123.25 215.092 124.9C215.886 122.884 216.812 120.946 217.762 119.023C218.726 117.109 219.747 115.228 220.79 113.361L220.682 113.608C221.15 111.97 221.566 110.316 222.082 108.691C222.564 107.057 223.081 105.433 223.632 103.819C224.183 102.204 224.753 100.596 225.379 99.0033C225.998 97.4087 226.65 95.8239 227.402 94.2679Z" fill="#020202"/>
<path d="M236.324 121.798C236.624 122.402 236.791 123.063 236.815 123.737C236.839 124.411 236.719 125.082 236.464 125.706C236.385 125.936 236.259 126.148 236.094 126.326C235.929 126.504 235.728 126.645 235.504 126.74C235.595 126.335 235.638 125.921 235.632 125.505C235.637 125.102 235.668 124.7 235.701 124.293C235.764 123.432 235.975 122.588 236.324 121.798Z" fill="#020202"/>
<path d="M258.264 127.189C260.763 126.195 263.142 124.919 265.353 123.386C267.53 121.882 269.579 120.2 271.477 118.357C272.416 117.423 273.363 116.497 274.217 115.476C275.154 114.527 275.928 113.442 276.802 112.424C277.252 111.924 277.616 111.361 278.026 110.827L279.253 109.214C280.045 108.117 280.792 106.983 281.659 105.895C281.229 107.2 280.726 108.487 280.182 109.759C279.541 110.976 278.965 112.249 278.204 113.408C276.737 115.782 274.99 117.972 273.002 119.931C270.983 121.879 268.702 123.535 266.224 124.852C263.774 126.205 261.056 127.003 258.264 127.189Z" fill="#020202"/>
<path d="M247.261 57.6838C248.312 51.531 249.598 45.4454 250.907 39.3749L252.878 30.2892C253.214 28.7805 253.559 27.2761 253.806 25.7756C253.92 25.0353 253.969 24.3376 254.061 23.477C254.168 22.6842 254.319 21.898 254.513 21.122C255.283 18.0716 256.329 15.0977 257.638 12.2369C258.294 10.8049 259.05 9.42045 259.899 8.09361C260.739 6.73866 261.723 5.47806 262.833 4.33361C265.093 1.88789 268.175 0.360874 271.489 0.0445394C272.321 -0.0187268 273.157 -0.0145851 273.988 0.0569143C274.81 0.151035 275.624 0.303551 276.424 0.513305C278.004 0.93199 279.536 1.51734 280.993 2.25951L280.238 2.15951C281.956 1.80899 283.725 1.78136 285.453 2.07803C287.217 2.36884 288.882 3.0891 290.301 4.1753C291.007 4.72676 291.648 5.3575 292.21 6.05513C292.463 6.41737 292.689 6.79724 292.927 7.16887C293.179 7.52736 293.387 7.91434 293.549 8.32176C293.921 9.0982 294.209 9.91234 294.408 10.7502C294.635 11.5631 294.793 12.3939 294.879 13.2335C294.941 14.0642 295.079 14.8939 295.07 15.7203L295.001 18.1918C294.921 19.8101 294.748 21.3476 294.713 22.9387C294.657 24.5137 294.683 26.0906 294.791 27.6628C294.783 29.2206 295.213 30.7493 296.033 32.0738L296.043 32.0876C296.06 32.1089 296.068 32.1355 296.066 32.1622C296.064 32.189 296.052 32.2141 296.033 32.2327C296.013 32.2513 295.988 32.2621 295.961 32.263C295.934 32.264 295.908 32.255 295.887 32.2378C295.283 31.66 294.83 30.9423 294.57 30.1481C294.305 29.3748 294.093 28.5847 293.934 27.7831C293.636 26.189 293.448 24.5763 293.372 22.9565C293.265 21.3543 293.267 19.7002 293.259 18.1285L293.17 15.8107C293.122 15.0427 292.966 14.2935 292.874 13.5368C292.763 12.7922 292.587 12.0588 292.349 11.3449C292.144 10.6384 291.875 9.95226 291.544 9.29528C291.408 8.96163 291.227 8.64757 291.008 8.36128C290.807 8.0672 290.619 7.76169 290.412 7.47437C289.955 6.94378 289.441 6.46492 288.879 6.04637C287.756 5.177 286.433 4.60133 285.031 4.37138C283.611 4.09516 282.152 4.06971 280.723 4.29616L280.655 4.30772C280.42 4.34804 280.178 4.30876 279.968 4.19612C277.43 2.7046 274.542 1.91363 271.599 1.90405C268.639 2.02025 265.817 3.18143 263.632 5.18141C261.359 7.23963 259.528 9.73871 258.251 12.5267C256.913 15.3068 255.996 18.2707 255.532 21.3209C255.415 22.0692 255.339 22.8235 255.306 23.5803C255.293 24.2703 255.308 25.1308 255.254 25.9363C255.121 27.5237 254.941 29.0878 254.684 30.6325C254.195 33.729 253.482 36.7687 252.745 39.7977C251.253 45.8518 249.543 51.8456 247.474 57.7392C247.465 57.7652 247.446 57.7869 247.422 57.7999C247.397 57.8128 247.369 57.8162 247.342 57.8092C247.315 57.8022 247.292 57.7854 247.277 57.7622C247.262 57.7389 247.257 57.711 247.261 57.6837L247.261 57.6838Z" fill="#020202"/>
<path d="M208.283 128.754C208.599 128.036 209.03 127.375 209.559 126.796C210.098 126.198 210.723 125.682 211.413 125.266C212.824 124.444 214.41 123.969 216.04 123.881L215.96 123.888C217.075 123.766 218.201 123.782 219.312 123.935C220.411 124.085 221.487 124.37 222.516 124.785C223.545 125.204 224.501 125.785 225.348 126.505C226.182 127.208 226.863 128.076 227.348 129.054C226.51 128.462 225.622 127.945 224.694 127.508C223.807 127.098 222.88 126.781 221.928 126.56C220.055 126.113 218.13 125.929 216.207 126.013L216.126 126.019C214.75 126.019 213.383 126.235 212.073 126.657C211.404 126.882 210.758 127.168 210.142 127.514C209.496 127.885 208.874 128.299 208.283 128.754Z" fill="#020202"/>
<path d="M227.402 136.485C220.843 152.243 210.681 146.026 210.681 146.026C210.681 146.026 215.242 143.278 216.026 130.093C216.026 130.093 218.007 127.194 220.564 130.093C222.701 132.371 224.985 134.507 227.402 136.485Z" fill="white"/>
<path d="M227.495 136.461C227.27 137.271 226.988 138.208 226.648 139.171C226.27 140.072 225.839 140.879 225.404 141.732C225.16 142.139 224.878 142.525 224.605 142.917C224.345 143.322 224.053 143.705 223.733 144.063L222.726 145.115C222.363 145.446 221.981 145.755 221.582 146.041C219.971 147.218 218.014 147.825 216.019 147.767C214.098 147.703 212.217 147.194 210.526 146.279C210.484 146.256 210.448 146.224 210.422 146.184C210.395 146.144 210.38 146.099 210.376 146.051C210.372 146.004 210.38 145.956 210.4 145.912C210.42 145.869 210.45 145.831 210.488 145.802L210.528 145.773C211.571 144.869 212.359 143.708 212.813 142.404C213.323 141.102 213.711 139.755 213.969 138.381C214.134 137.704 214.225 137.004 214.368 136.322C214.467 135.627 214.577 134.936 214.66 134.239C214.722 133.538 214.802 132.841 214.851 132.139C214.878 131.434 214.942 130.734 214.994 130.032L214.999 129.971C215.011 129.804 215.071 129.643 215.173 129.51C215.645 128.828 216.312 128.306 217.088 128.013C217.503 127.858 217.945 127.792 218.387 127.817C218.829 127.842 219.261 127.959 219.656 128.16C220.309 128.519 220.88 129.01 221.331 129.602C221.711 130.06 222.098 130.521 222.497 130.977C223.297 131.885 224.124 132.786 224.958 133.686L226.208 135.045C226.639 135.522 227.017 135.896 227.495 136.461ZM227.307 136.509C226.776 136.221 226.265 135.9 225.776 135.546C225.26 135.199 224.751 134.841 224.257 134.466C223.26 133.724 222.29 132.943 221.36 132.104C220.889 131.69 220.432 131.255 219.991 130.797C219.662 130.434 219.267 130.137 218.827 129.923C218.67 129.847 218.498 129.806 218.324 129.805C218.15 129.803 217.977 129.84 217.819 129.913C217.451 130.092 217.13 130.353 216.879 130.676L217.058 130.154C216.995 130.882 216.944 131.612 216.856 132.337C216.763 133.063 216.638 133.787 216.53 134.511C216.401 135.233 216.245 135.952 216.098 136.67C215.903 137.382 215.746 138.099 215.499 138.798C215.037 140.204 214.427 141.558 213.681 142.837C212.966 144.16 211.999 145.33 210.833 146.28L210.835 145.774C211.613 146.199 212.455 146.491 213.329 146.641C213.765 146.712 214.207 146.743 214.65 146.735C215.086 146.743 215.522 146.709 215.952 146.632C217.626 146.323 219.207 145.637 220.576 144.624C221.978 143.591 223.224 142.362 224.275 140.973C224.764 140.241 225.334 139.504 225.816 138.785L227.307 136.509Z" fill="#020202"/>
<path d="M221.69 113.902C222.233 113.573 222.83 113.344 223.453 113.224C224.063 113.094 224.685 113.029 225.308 113.03C226.567 113.013 227.81 113.313 228.922 113.902C228.314 114.01 227.699 114.074 227.082 114.092C226.484 114.12 225.893 114.124 225.303 114.126C224.095 114.131 222.888 114.056 221.69 113.902Z" fill="#020202"/>
<path d="M173.27 170.699C172.304 170.942 171.394 171.37 170.59 171.96C169.772 172.533 169.004 173.175 168.296 173.881C166.873 175.297 165.562 176.821 164.375 178.44C162.011 181.702 159.824 185.088 157.825 188.585C153.769 195.557 150.231 202.824 146.742 210.104C143.278 217.399 140.008 224.789 136.858 232.23C133.699 239.664 130.558 247.12 127.616 254.635L127.449 253.721C130.175 256.805 133.074 259.795 136.056 262.664C139.031 265.544 142.163 268.257 145.437 270.792C148.642 273.383 152.219 275.478 156.047 277.005C157.921 277.755 159.961 277.987 161.955 277.678C162.923 277.468 163.831 277.04 164.609 276.427C165.387 275.813 166.015 275.031 166.445 274.138L166.449 274.131C166.473 274.085 166.508 274.044 166.551 274.014C166.593 273.983 166.643 273.963 166.695 273.955C168.597 273.7 170.526 273.725 172.421 274.028C174.32 274.31 176.157 274.916 177.85 275.821C178.698 276.274 179.503 276.805 180.254 277.405C180.991 278.024 181.669 278.71 182.277 279.455C182.897 280.19 183.447 280.98 183.922 281.815C184.415 282.638 184.751 283.54 185.171 284.401L184.869 284.151C188.981 284.531 193.127 284.132 197.092 282.977C201.072 281.864 204.89 280.234 208.448 278.13L211.064 276.473C211.945 275.936 212.731 275.254 213.568 274.652C215.221 273.415 216.805 272.089 218.314 270.679C219.112 270.024 219.797 269.244 220.526 268.513L222.689 266.294C224.042 264.732 225.348 263.127 226.681 261.548L226.491 262.233L222.128 229.591L219.981 213.265L217.92 196.928C217.898 196.758 217.916 196.585 217.972 196.422C218.027 196.26 218.119 196.112 218.24 195.99C218.361 195.868 218.508 195.775 218.67 195.718C218.832 195.662 219.005 195.643 219.176 195.663L219.191 195.665C226.975 196.574 234.804 197.06 242.641 197.119C250.479 197.249 258.316 196.778 266.082 195.709C273.796 194.554 281.528 192.778 288.458 189.179C291.941 187.428 295.076 185.059 297.711 182.187C300.324 179.258 302.159 175.72 303.05 171.897C303.056 171.869 303.073 171.845 303.098 171.83C303.122 171.814 303.151 171.809 303.179 171.815C303.207 171.821 303.232 171.837 303.248 171.861C303.264 171.885 303.27 171.914 303.264 171.943C302.509 175.871 300.78 179.547 298.235 182.633C295.656 185.703 292.517 188.255 288.986 190.152C285.483 192.064 281.788 193.6 277.961 194.732C274.154 195.886 270.273 196.777 266.344 197.4C258.5 198.615 250.575 199.225 242.638 199.227C238.674 199.263 234.712 199.15 230.756 198.924C226.795 198.697 222.862 198.389 218.892 197.905L220.162 196.642L222.281 212.971L224.314 229.311L228.312 262L228.318 262.046C228.332 262.161 228.321 262.277 228.288 262.387C228.254 262.497 228.198 262.599 228.122 262.686C226.734 264.281 225.372 265.898 223.962 267.471L221.711 269.708C220.981 270.473 220.211 271.2 219.405 271.885C217.823 273.291 216.165 274.61 214.44 275.837C213.565 276.433 212.745 277.107 211.827 277.638L209.103 279.27C205.403 281.335 201.453 282.915 197.349 283.972C193.236 285.058 188.959 285.384 184.729 284.936C184.67 284.929 184.614 284.907 184.566 284.873C184.517 284.838 184.478 284.793 184.452 284.739L184.427 284.687C184.028 283.861 183.714 282.987 183.248 282.197C182.802 281.397 182.283 280.639 181.697 279.934C181.124 279.221 180.486 278.563 179.789 277.969C179.079 277.392 178.317 276.881 177.513 276.443C175.895 275.563 174.138 274.967 172.318 274.683C170.499 274.4 168.647 274.39 166.825 274.655L167.074 274.472L166.204 275.843C165.825 276.235 165.48 276.666 165.065 277.021C164.212 277.724 163.202 278.21 162.121 278.438C159.987 278.802 157.795 278.583 155.775 277.805C151.833 276.302 148.126 274.247 144.762 271.702C141.381 269.229 138.14 266.569 135.056 263.735C131.963 260.909 128.982 257.993 126.112 254.911C126.002 254.793 125.928 254.646 125.897 254.488C125.866 254.33 125.88 254.166 125.937 254.015L125.945 253.996C128.845 246.419 131.861 238.906 135.074 231.465C138.309 224.036 141.665 216.657 145.216 209.369C148.763 202.079 152.599 194.921 156.827 187.987C158.928 184.505 161.25 181.161 163.779 177.976C165.049 176.379 166.442 174.883 167.944 173.502C168.697 172.806 169.515 172.184 170.386 171.644C171.25 171.077 172.216 170.683 173.23 170.484C173.258 170.479 173.287 170.486 173.311 170.502C173.334 170.519 173.35 170.544 173.355 170.572C173.361 170.6 173.355 170.629 173.339 170.653C173.323 170.677 173.298 170.693 173.27 170.699L173.27 170.699Z" fill="#020202"/>
<path d="M326.898 63.1965C328.507 62.6598 330.194 62.3956 331.89 62.4148C333.623 62.4079 335.342 62.7298 336.955 63.3634C338.589 64.0541 340.046 65.1066 341.214 66.4416C342.364 67.7848 343.266 69.322 343.876 70.9812C345.026 74.2514 345.575 77.7023 345.499 81.1678C345.429 84.5565 345.151 87.9378 344.664 91.2922C343.791 97.9465 342.737 104.584 341.316 111.15C339.989 117.74 338.107 124.206 335.689 130.478C336.537 127.235 337.263 123.971 337.865 120.687C338.51 117.41 339.079 114.121 339.634 110.831C340.704 104.243 341.656 97.6373 342.49 91.0139C342.991 87.7465 343.304 84.453 343.428 81.1498C343.581 77.9098 343.19 74.6671 342.271 71.5564C341.839 70.0297 341.106 68.6046 340.117 67.3645C339.127 66.1244 337.9 65.0941 336.507 64.334C333.512 62.9235 330.14 62.5243 326.898 63.1965Z" fill="#020202"/>
<path d="M219.946 203.504C226.912 204.928 233.867 206.244 240.843 207.399L251.318 209.037C254.809 209.597 258.318 210.061 261.843 210.428C265.37 210.746 268.914 210.846 272.455 210.728C275.986 210.584 279.504 210.201 282.984 209.583C286.438 208.984 289.842 208.125 293.168 207.016C296.465 205.953 299.617 204.485 302.552 202.645L302.593 202.622L302.735 202.552C304.083 201.857 305.346 201.009 306.501 200.026C307.707 199.013 308.852 197.929 309.93 196.78C312.078 194.417 313.992 191.851 315.644 189.119C317.332 186.368 318.849 183.516 320.188 180.58L322.084 176.092C322.653 174.568 323.208 173.036 323.807 171.511L323.809 171.506C323.819 171.48 323.839 171.459 323.864 171.447C323.889 171.435 323.917 171.433 323.944 171.441C323.97 171.449 323.993 171.467 324.006 171.491C324.02 171.515 324.025 171.543 324.019 171.57C323.659 173.166 323.256 174.756 322.865 176.354C322.404 177.929 321.895 179.494 321.374 181.057C320.276 184.179 318.927 187.207 317.338 190.111C315.752 193.055 313.838 195.81 311.633 198.324C311.058 198.939 310.487 199.559 309.89 200.156C309.255 200.717 308.663 201.32 307.984 201.838C306.655 202.982 305.173 203.934 303.58 204.666L303.763 204.574C297.451 208.181 290.417 210.343 283.168 210.902C276.057 211.464 268.918 211.611 261.79 211.34C258.227 211.272 254.664 211.091 251.103 210.798C247.547 210.476 244.016 209.936 240.513 209.271C233.494 207.996 226.593 206.137 219.883 203.714C219.856 203.704 219.834 203.683 219.822 203.657C219.809 203.63 219.808 203.6 219.818 203.573C219.828 203.548 219.846 203.528 219.87 203.515C219.893 203.503 219.92 203.499 219.946 203.504Z" fill="#020202"/>
<path d="M225.307 127.189C230.965 126.735 236.623 126.498 242.281 126.336C247.94 126.161 253.598 126.115 259.257 126.093C264.915 126.112 270.573 126.159 276.232 126.333C281.89 126.494 287.548 126.732 293.207 127.189C287.548 127.645 281.89 127.884 276.232 128.045C270.573 128.219 264.915 128.266 259.257 128.285C253.598 128.263 247.94 128.216 242.281 128.041C236.623 127.88 230.965 127.643 225.307 127.189Z" fill="#020202"/>
<path d="M317.023 130.476L314.177 130.428C311.949 132.354 309.189 133.559 306.261 133.883C304.343 134.047 302.412 133.798 300.599 133.152C298.786 132.506 297.133 131.478 295.751 130.137L227.349 129.054C228.925 131.033 229.869 133.44 230.059 135.963C230.059 135.963 228.926 140.396 220.149 129.586C220.149 129.586 216.655 128.202 215.919 130.312C215.194 132.431 215.842 149.164 205.109 146.977C205.109 146.977 203.31 135.054 208.284 128.753L199.426 128.613V129.941C199.426 130.742 199.268 131.534 198.962 132.274C198.656 133.013 198.207 133.685 197.641 134.251C197.075 134.817 196.403 135.266 195.664 135.572C194.924 135.878 194.132 136.036 193.331 136.036H150.978L151.35 142.525C151.35 142.099 151.369 141.857 151.369 141.857H168.712L155.056 155.59H133.804C131.933 155.588 130.138 154.85 128.807 153.536C127.475 152.221 126.715 150.435 126.691 148.564L126.536 136.036H84.6082C83.8078 136.036 83.0154 135.878 82.2759 135.572C81.5365 135.266 80.8647 134.817 80.2988 134.251C79.7328 133.685 79.2839 133.013 78.9777 132.274C78.6714 131.534 78.5138 130.742 78.5138 129.941V126.741H61.918L0 163.632C29.7977 163.371 59.5954 163.229 89.393 163.206C119.2 163.1 148.998 163.206 178.796 163.245C208.594 163.255 238.391 163.458 268.198 163.613L312.89 163.893L357.427 164.309L371.711 155.88L386.17 147.402L415.116 130.476L317.023 130.476ZM283.934 151.283L214.971 150.79L219.045 146.512L227.117 137.144H294.822L283.934 151.283Z" fill="black"/>
<path d="M150.982 135.886C155.254 135.738 159.526 135.637 163.798 135.538C168.07 135.437 172.342 135.32 176.614 135.27L189.429 135.073L192.633 135.024C192.893 135.017 193.184 135.021 193.417 135.006C193.64 134.999 193.861 134.975 194.081 134.937C194.517 134.866 194.943 134.738 195.346 134.555C196.146 134.187 196.836 133.619 197.349 132.904C197.863 132.189 198.181 131.353 198.274 130.478L198.143 104.967C198.102 96.4231 198.128 87.8793 198.22 79.3354L198.62 53.7037L198.832 40.8879C198.885 40.1548 198.792 39.4186 198.558 38.7218C198.324 38.025 197.954 37.3816 197.47 36.8287C196.986 36.2758 196.397 35.8245 195.737 35.501C195.077 35.1775 194.36 34.9881 193.626 34.9439C192.61 34.9014 191.504 34.913 190.448 34.9052C173.36 34.8201 156.272 34.9801 139.185 35.2293C122.097 35.5082 105.009 35.6984 87.9214 35.8L84.7175 35.8184C83.8816 35.8121 83.0583 36.0233 82.3286 36.4312C81.6135 36.8384 81.018 37.4265 80.6018 38.1364C80.1856 38.8463 79.9634 39.6532 79.9573 40.4761L80.0281 53.2778L80.0635 78.9095L79.9141 104.541L79.6609 130.13C79.6857 131.009 79.9407 131.866 80.4004 132.616C80.8601 133.366 81.5085 133.981 82.2808 134.402C83.0798 134.833 83.977 135.048 84.8845 135.028L88.0884 135.082L100.904 135.297C109.448 135.449 117.992 135.645 126.536 135.886C126.574 135.887 126.61 135.903 126.636 135.93C126.662 135.957 126.677 135.993 126.677 136.031C126.677 136.069 126.662 136.105 126.636 136.132C126.61 136.16 126.574 136.175 126.536 136.176C117.992 136.418 109.448 136.614 100.904 136.765L88.0884 136.981L84.8845 137.034C83.646 137.088 82.414 136.827 81.3035 136.276C80.1722 135.704 79.2136 134.841 78.5263 133.776C77.8389 132.71 77.4475 131.481 77.3923 130.215L77.1162 104.541L76.9668 78.9094L77.0022 53.2778L77.0791 40.448C77.1021 39.1243 77.473 37.8299 78.1546 36.6949C78.8362 35.5599 79.8045 34.6242 80.9622 33.9819C82.1133 33.3544 83.4066 33.0337 84.7175 33.0506L87.9214 33.069C105.009 33.1538 122.097 33.344 139.185 33.6397C156.272 33.8888 173.36 34.0488 190.448 33.9638C191.527 33.9703 192.559 33.9353 193.677 33.9574C194.84 34.0037 195.97 34.3592 196.95 34.9872C197.934 35.6181 198.734 36.4972 199.271 37.5358C199.539 38.0555 199.739 38.6075 199.866 39.1782C199.973 39.7417 200.026 40.3142 200.025 40.8878L200.237 53.7036L200.637 79.3353C200.723 87.8792 200.749 96.423 200.714 104.967L200.662 117.783L200.61 124.191L200.582 127.395L200.568 128.997L200.561 129.798C200.559 130.06 200.535 130.414 200.511 130.717C200.365 131.975 199.888 133.173 199.129 134.187C198.37 135.202 197.355 135.997 196.189 136.493C195.611 136.734 195.003 136.897 194.382 136.979C194.074 137.022 193.763 137.045 193.451 137.046C193.151 137.052 192.908 137.04 192.633 137.039L189.429 136.99L176.614 136.793C172.342 136.743 168.07 136.626 163.798 136.525C159.526 136.426 155.254 136.324 150.982 136.176C150.944 136.175 150.909 136.159 150.882 136.132C150.856 136.105 150.842 136.069 150.842 136.031C150.842 135.994 150.856 135.957 150.882 135.93C150.909 135.903 150.944 135.887 150.982 135.886V135.886Z" fill="#020202"/>
<path d="M149.444 83.2221C149.474 86.3752 148.412 89.4413 146.439 91.9008C145.378 93.1546 144.044 94.1495 142.54 94.8096C141.036 95.4697 139.401 95.7776 137.76 95.7098C134.53 95.4988 131.508 94.047 129.324 91.6582C127.124 89.3734 125.8 86.3864 125.585 83.2222C125.473 81.5908 125.706 79.9541 126.267 78.4184C126.829 76.8827 127.708 75.4824 128.846 74.3082C129.996 73.1074 131.371 72.1442 132.893 71.4734C134.425 70.8032 136.08 70.4639 137.752 70.4777C139.424 70.4915 141.074 70.8582 142.594 71.5537C144.09 72.239 145.41 73.2559 146.455 74.5273C148.433 76.9892 149.491 80.0642 149.444 83.2221ZM149.225 83.2221C149.213 81.7223 148.854 80.2456 148.177 78.9075C147.505 77.6097 146.571 76.4657 145.434 75.5479C143.267 73.7804 140.556 72.8157 137.76 72.817C134.992 72.8279 132.331 73.8812 130.305 75.7669C128.256 77.7357 127.004 80.3893 126.786 83.2221C126.689 84.6791 126.903 86.14 127.411 87.5087C127.935 88.8888 128.76 90.1346 129.827 91.1553C130.896 92.1233 132.15 92.8643 133.513 93.3333C134.877 93.8024 136.322 93.9898 137.76 93.8841C140.575 93.7424 143.271 92.7009 145.451 90.9127C146.589 89.992 147.523 88.8447 148.193 87.5437C148.87 86.2035 149.223 84.7235 149.225 83.2221Z" fill="#020202"/>
<path d="M190.651 127.186C187.3 127.572 183.949 127.767 180.599 127.895C177.25 128.034 173.9 128.061 170.551 128.066C167.201 128.034 163.852 127.979 160.504 127.81C157.155 127.654 153.807 127.429 150.459 127.012C153.81 126.623 157.16 126.427 160.51 126.3C163.86 126.161 167.21 126.134 170.559 126.131C173.908 126.165 177.257 126.221 180.606 126.39C183.955 126.547 187.303 126.771 190.651 127.186Z" fill="#020202"/>
<path d="M126.42 126.905C123.158 127.292 119.896 127.488 116.635 127.616C113.374 127.757 110.113 127.784 106.853 127.79C103.592 127.759 100.332 127.704 97.0715 127.537C93.8115 127.381 90.552 127.157 87.293 126.741C90.5554 126.351 93.8169 126.155 97.0779 126.026C100.339 125.886 103.6 125.859 106.861 125.856C110.121 125.889 113.382 125.944 116.641 126.112C119.901 126.268 123.161 126.491 126.42 126.905Z" fill="#020202"/>
<path d="M166.76 274.305C167.999 268.748 169.496 263.264 171.097 257.812C172.688 252.357 174.439 246.951 176.275 241.572C178.155 236.208 180.105 230.863 182.33 225.619C183.431 222.993 184.603 220.393 185.882 217.839C186.545 216.573 187.203 215.305 187.959 214.086C188.644 212.821 189.556 211.693 190.65 210.759C190.163 211.271 189.753 211.85 189.433 212.479C189.092 213.095 188.781 213.725 188.496 214.372C187.911 215.655 187.377 216.963 186.865 218.28C185.829 220.909 184.883 223.577 183.925 226.239L181.123 234.256L178.347 242.288C176.475 247.637 174.64 253.001 172.718 258.339C170.813 263.684 168.866 269.016 166.76 274.305Z" fill="#020202"/>
<path d="M184.799 284.544C184.151 279.823 183.718 275.093 183.361 270.36C182.991 265.628 182.749 260.89 182.532 256.152C182.356 251.412 182.207 246.67 182.186 241.923C182.152 237.177 182.194 232.428 182.455 227.67C183.107 232.39 183.541 237.12 183.896 241.853C184.266 246.585 184.508 251.323 184.722 256.062C184.896 260.802 185.045 265.543 185.065 270.29C185.099 275.036 185.057 279.786 184.799 284.544Z" fill="#020202"/>
<path d="M277.119 26.9595C277.546 26.9449 277.95 26.7652 278.246 26.4583C278.543 26.1514 278.709 25.7413 278.709 25.3145C278.709 24.8877 278.543 24.4775 278.246 24.1706C277.95 23.8637 277.546 23.684 277.119 23.6694C276.693 23.684 276.288 23.8637 275.992 24.1706C275.695 24.4775 275.529 24.8877 275.529 25.3145C275.529 25.7413 275.695 26.1514 275.992 26.4583C276.288 26.7652 276.693 26.9449 277.119 26.9595Z" fill="#020202"/>
<path d="M286.891 26.9595C287.317 26.9449 287.721 26.7652 288.018 26.4583C288.315 26.1514 288.48 25.7413 288.48 25.3145C288.48 24.8877 288.315 24.4775 288.018 24.1706C287.721 23.8637 287.317 23.684 286.891 23.6694C286.464 23.684 286.06 23.8637 285.763 24.1706C285.467 24.4775 285.301 24.8877 285.301 25.3145C285.301 25.7413 285.467 26.1514 285.763 26.4583C286.06 26.7652 286.464 26.9449 286.891 26.9595Z" fill="#020202"/>
<path d="M289.753 21.5639C289.247 21.6451 288.738 21.6993 288.226 21.7264C287.763 21.765 287.33 21.7656 286.896 21.7753C286.462 21.7811 286.029 21.7662 285.565 21.7417C285.049 21.7246 284.535 21.6651 284.028 21.5639C284.335 21.0877 284.776 20.713 285.295 20.4869C285.795 20.2544 286.339 20.1329 286.89 20.1308C287.441 20.1287 287.986 20.246 288.488 20.4747C289.015 20.693 289.459 21.0748 289.753 21.5639Z" fill="#020202"/>
<path d="M278.402 21.5638C277.975 21.6915 277.537 21.7814 277.094 21.8323C276.725 21.8817 276.353 21.9065 275.981 21.9066C275.611 21.906 275.242 21.8815 274.876 21.8332C274.431 21.7858 273.993 21.6955 273.565 21.5638C273.802 21.1279 274.174 20.7806 274.626 20.5742C275.047 20.361 275.514 20.2538 275.986 20.262C276.456 20.2586 276.92 20.3666 277.339 20.5773C277.792 20.7804 278.166 21.1271 278.402 21.5638Z" fill="#020202"/>
<path d="M285.311 28.8678C285.311 29.1297 285.257 29.3888 285.152 29.6288C285.048 29.8688 284.894 30.0846 284.702 30.2627C284.321 30.6353 283.842 30.893 283.321 31.0064C282.82 31.1123 282.303 31.1085 281.805 30.9954C281.318 30.8843 280.863 30.6629 280.475 30.3484C280.931 30.2494 281.394 30.1802 281.859 30.1414C282.287 30.0645 282.7 30.0448 283.08 29.9371C283.903 29.776 284.67 29.408 285.311 28.8678Z" fill="#020202"/>
<path d="M279.047 35.5325C279.149 35.2915 279.3 35.0742 279.491 34.8942C279.681 34.7143 279.906 34.5756 280.153 34.4868C280.65 34.2932 281.191 34.2433 281.715 34.3427C282.217 34.4409 282.692 34.6467 283.106 34.9458C283.511 35.2385 283.843 35.6201 284.077 36.0614C283.618 35.9739 283.165 35.8566 282.722 35.7103C282.298 35.6139 281.911 35.4705 281.519 35.4209C280.699 35.2475 279.848 35.2859 279.047 35.5325Z" fill="#020202"/>
<path d="M281.562 20.8306C281.989 20.816 282.393 20.6363 282.69 20.3294C282.986 20.0225 283.152 19.6124 283.152 19.1856C283.152 18.7588 282.986 18.3487 282.69 18.0418C282.393 17.7349 281.989 17.5551 281.562 17.5405C281.136 17.5551 280.732 17.7349 280.435 18.0418C280.138 18.3487 279.973 18.7588 279.973 19.1856C279.973 19.6124 280.138 20.0225 280.435 20.3294C280.732 20.6363 281.136 20.816 281.562 20.8306Z" fill="#B21919"/>
<path d="M254.896 210.331V289.999C254.896 289.999 271.476 296.563 281.659 289.999V210.331" fill="#020202"/>
<path d="M306.175 290.402C306.136 290.81 306.014 291.206 305.816 291.565C305.619 291.924 305.35 292.239 305.027 292.49C304.401 293.018 303.712 293.467 302.976 293.826C301.507 294.546 299.975 295.13 298.398 295.57C295.252 296.47 292.049 297.157 288.811 297.629C282.333 298.606 275.796 299.146 269.245 299.246C262.676 299.394 256.106 299.084 249.58 298.318C246.293 297.92 243.039 297.288 239.841 296.428C238.207 295.984 236.617 295.391 235.092 294.655C234.282 294.266 233.523 293.778 232.834 293.201C232.376 292.891 232.002 292.474 231.742 291.987C231.483 291.499 231.348 290.955 231.348 290.402C231.348 289.85 231.483 289.306 231.742 288.817C232.001 288.329 232.375 287.912 232.833 287.603C233.522 287.026 234.281 286.537 235.091 286.148C236.616 285.413 238.206 284.819 239.841 284.375C243.037 283.512 246.292 282.879 249.58 282.483C256.105 281.714 262.676 281.404 269.245 281.555C275.796 281.654 282.333 282.196 288.811 283.175C292.05 283.646 295.253 284.334 298.399 285.235C299.975 285.675 301.507 286.259 302.976 286.979C303.712 287.338 304.401 287.787 305.027 288.314C305.35 288.566 305.619 288.881 305.816 289.24C306.014 289.599 306.136 289.995 306.175 290.402ZM306.175 290.402C306.133 289.996 306.008 289.602 305.809 289.246C305.61 288.889 305.339 288.577 305.015 288.328C304.387 287.807 303.696 287.364 302.96 287.012C301.488 286.304 299.954 285.733 298.378 285.305C295.225 284.457 292.015 283.835 288.773 283.444C282.293 282.684 275.768 282.377 269.245 282.527C262.739 282.628 256.248 283.165 249.814 284.136C246.622 284.601 243.464 285.279 240.361 286.165C238.843 286.588 237.367 287.15 235.952 287.842C235.289 288.165 234.669 288.567 234.104 289.04C233.856 289.171 233.648 289.367 233.503 289.607C233.358 289.847 233.281 290.122 233.281 290.403C233.281 290.683 233.358 290.959 233.502 291.199C233.647 291.439 233.855 291.635 234.103 291.766C234.668 292.239 235.288 292.642 235.951 292.964C237.367 293.657 238.843 294.218 240.361 294.642C243.462 295.531 246.62 296.209 249.813 296.673C256.247 297.646 262.739 298.184 269.245 298.282C275.768 298.432 282.293 298.124 288.774 297.363C292.016 296.972 295.225 296.349 298.378 295.5C299.954 295.072 301.488 294.501 302.96 293.793C303.696 293.441 304.387 292.998 305.015 292.477C305.339 292.228 305.61 291.916 305.809 291.559C306.009 291.203 306.133 290.809 306.175 290.402Z" fill="#020202"/>
<path d="M316.442 50.5189L303.154 47.7607V53.848C303.157 61.7044 301.845 69.5059 299.273 76.9293L296.198 85.7972L306.497 104.614C306.497 104.614 327.977 106.262 329.923 106.098C329.923 106.098 333.823 52.9577 316.442 50.5189ZM304.209 92.9556C304.073 91.4266 303.967 89.8975 303.957 88.3587C303.914 86.8197 304.021 85.2801 304.277 83.7618C304.373 85.2909 304.567 86.8006 304.712 88.32L305.177 92.8589C305.448 95.8977 305.719 98.9365 305.757 102.014C305.001 99.0405 304.484 96.0114 304.209 92.9556ZM308.999 101.869C308.623 101.856 308.266 101.698 308.004 101.427C307.741 101.156 307.595 100.794 307.595 100.417C307.595 100.04 307.741 99.6782 308.004 99.4073C308.266 99.1364 308.623 98.978 308.999 98.9655C309.376 98.9778 309.733 99.1362 309.996 99.4071C310.258 99.678 310.404 100.04 310.404 100.417C310.404 100.794 310.258 101.156 309.996 101.427C309.733 101.698 309.376 101.857 308.999 101.869V101.869ZM315.029 102.672C314.653 102.659 314.296 102.5 314.035 102.229C313.774 101.958 313.628 101.597 313.628 101.22C313.628 100.844 313.774 100.482 314.035 100.212C314.296 99.9409 314.653 99.7821 315.029 99.7688C315.405 99.7821 315.761 99.9409 316.022 100.212C316.284 100.482 316.43 100.844 316.43 101.22C316.43 101.597 316.284 101.958 316.022 102.229C315.761 102.5 315.405 102.659 315.029 102.672V102.672ZM320.68 102.982C320.304 102.969 319.947 102.811 319.685 102.54C319.422 102.269 319.276 101.907 319.276 101.53C319.276 101.153 319.422 100.791 319.685 100.52C319.947 100.249 320.304 100.091 320.68 100.078C321.057 100.091 321.414 100.249 321.676 100.52C321.938 100.791 322.085 101.153 322.085 101.53C322.085 101.907 321.938 102.269 321.676 102.54C321.414 102.811 321.057 102.969 320.68 102.982V102.982ZM326.351 103.466C325.975 103.453 325.618 103.295 325.356 103.024C325.094 102.753 324.947 102.391 324.947 102.014C324.947 101.637 325.094 101.275 325.356 101.004C325.618 100.733 325.975 100.575 326.351 100.562C326.728 100.575 327.085 100.733 327.347 101.004C327.61 101.275 327.756 101.637 327.756 102.014C327.756 102.391 327.61 102.753 327.347 103.024C327.085 103.295 326.728 103.453 326.351 103.466Z" fill="#020202"/>
<path d="M294.466 44.4169C295.978 44.7974 297.459 45.2902 298.897 45.8911C300.329 46.4742 301.724 47.0615 303.157 47.7652C301.568 47.7505 299.997 47.4185 298.538 46.7889C297.064 46.2173 295.69 45.4168 294.466 44.4169Z" fill="#020202"/>
<path d="M267.135 69.8129C268.245 67.8308 269.512 65.941 270.924 64.1618C272.302 62.3558 273.825 60.6647 275.477 59.1052C274.369 61.0885 273.102 62.9784 271.687 64.7562C270.308 66.561 268.785 68.252 267.135 69.8129Z" fill="#020202"/>
<path d="M131.298 254.706C131.674 254.693 132.031 254.534 132.292 254.263C132.554 253.992 132.7 253.63 132.7 253.254C132.7 252.877 132.554 252.516 132.292 252.245C132.031 251.974 131.674 251.815 131.298 251.802C130.922 251.815 130.565 251.974 130.303 252.245C130.042 252.516 129.896 252.877 129.896 253.254C129.896 253.63 130.042 253.992 130.303 254.263C130.565 254.534 130.922 254.693 131.298 254.706Z" fill="#020202"/>
<path d="M136.002 259.757C136.378 259.744 136.735 259.586 136.997 259.315C137.258 259.044 137.404 258.682 137.404 258.306C137.404 257.929 137.258 257.567 136.997 257.296C136.735 257.026 136.378 256.867 136.002 256.854C135.626 256.867 135.269 257.026 135.007 257.296C134.746 257.567 134.6 257.929 134.6 258.306C134.6 258.682 134.746 259.044 135.007 259.315C135.269 259.586 135.626 259.744 136.002 259.757Z" fill="#020202"/>
<path d="M141.401 264.809C141.778 264.796 142.134 264.638 142.396 264.367C142.658 264.096 142.804 263.734 142.804 263.358C142.804 262.981 142.658 262.619 142.396 262.348C142.134 262.078 141.778 261.919 141.401 261.906C141.025 261.919 140.669 262.078 140.407 262.348C140.145 262.619 139.999 262.981 139.999 263.358C139.999 263.734 140.145 264.096 140.407 264.367C140.669 264.638 141.025 264.796 141.401 264.809Z" fill="#020202"/>
<path d="M147.324 269.687C147.7 269.674 148.057 269.515 148.319 269.244C148.58 268.973 148.726 268.612 148.726 268.235C148.726 267.858 148.58 267.497 148.319 267.226C148.057 266.955 147.7 266.796 147.324 266.783C146.948 266.796 146.591 266.955 146.33 267.226C146.068 267.497 145.922 267.858 145.922 268.235C145.922 268.612 146.068 268.973 146.33 269.244C146.591 269.515 146.948 269.674 147.324 269.687Z" fill="#020202"/>
<path d="M154.118 274.042C154.495 274.029 154.851 273.87 155.113 273.599C155.374 273.328 155.521 272.967 155.521 272.59C155.521 272.213 155.374 271.852 155.113 271.581C154.851 271.31 154.495 271.151 154.118 271.138C153.742 271.151 153.385 271.31 153.124 271.581C152.862 271.852 152.716 272.213 152.716 272.59C152.716 272.967 152.862 273.328 153.124 273.599C153.385 273.87 153.742 274.029 154.118 274.042Z" fill="#020202"/>
<path d="M161.609 275.261C161.986 275.248 162.342 275.089 162.604 274.819C162.866 274.548 163.012 274.186 163.012 273.809C163.012 273.433 162.866 273.071 162.604 272.8C162.342 272.529 161.986 272.371 161.609 272.358C161.233 272.371 160.877 272.529 160.615 272.8C160.353 273.071 160.207 273.433 160.207 273.809C160.207 274.186 160.353 274.548 160.615 274.819C160.877 275.089 161.233 275.248 161.609 275.261Z" fill="#020202"/>
<path d="M169.273 271.951C169.65 271.938 170.006 271.78 170.268 271.509C170.53 271.238 170.676 270.876 170.676 270.5C170.676 270.123 170.53 269.761 170.268 269.49C170.006 269.22 169.65 269.061 169.273 269.048C168.897 269.061 168.541 269.22 168.279 269.49C168.017 269.761 167.871 270.123 167.871 270.5C167.871 270.876 168.017 271.238 168.279 271.509C168.541 271.78 168.897 271.938 169.273 271.951Z" fill="#020202"/>
<path d="M175.894 273.519C176.27 273.506 176.626 273.347 176.888 273.076C177.15 272.806 177.296 272.444 177.296 272.067C177.296 271.691 177.15 271.329 176.888 271.058C176.626 270.787 176.27 270.629 175.894 270.616C175.517 270.629 175.161 270.787 174.899 271.058C174.637 271.329 174.491 271.691 174.491 272.067C174.491 272.444 174.637 272.806 174.899 273.076C175.161 273.347 175.517 273.506 175.894 273.519Z" fill="#020202"/>
<path d="M181.816 276.829C182.193 276.816 182.549 276.657 182.811 276.387C183.073 276.116 183.219 275.754 183.219 275.377C183.219 275.001 183.073 274.639 182.811 274.368C182.549 274.097 182.193 273.939 181.816 273.926C181.44 273.939 181.084 274.097 180.822 274.368C180.56 274.639 180.414 275.001 180.414 275.377C180.414 275.754 180.56 276.116 180.822 276.387C181.084 276.657 181.44 276.816 181.816 276.829Z" fill="#020202"/>
<path d="M187.391 282.926C187.767 282.913 188.124 282.754 188.385 282.483C188.647 282.213 188.793 281.851 188.793 281.474C188.793 281.098 188.647 280.736 188.385 280.465C188.124 280.194 187.767 280.036 187.391 280.023C187.014 280.036 186.658 280.194 186.396 280.465C186.135 280.736 185.988 281.098 185.988 281.474C185.988 281.851 186.135 282.213 186.396 282.483C186.658 282.754 187.014 282.913 187.391 282.926Z" fill="#020202"/>
<path d="M194.532 281.881C194.909 281.868 195.265 281.709 195.527 281.438C195.788 281.167 195.935 280.806 195.935 280.429C195.935 280.053 195.788 279.691 195.527 279.42C195.265 279.149 194.909 278.99 194.532 278.977C194.156 278.99 193.799 279.149 193.538 279.42C193.276 279.691 193.13 280.053 193.13 280.429C193.13 280.806 193.276 281.167 193.538 281.438C193.799 281.709 194.156 281.868 194.532 281.881Z" fill="#020202"/>
<path d="M201.675 279.964C202.051 279.951 202.408 279.793 202.669 279.522C202.931 279.251 203.077 278.889 203.077 278.513C203.077 278.136 202.931 277.774 202.669 277.504C202.408 277.233 202.051 277.074 201.675 277.061C201.299 277.074 200.942 277.233 200.68 277.504C200.419 277.774 200.272 278.136 200.272 278.513C200.272 278.889 200.419 279.251 200.68 279.522C200.942 279.793 201.299 279.951 201.675 279.964Z" fill="#020202"/>
<path d="M207.423 277.351C207.799 277.338 208.156 277.18 208.417 276.909C208.679 276.638 208.825 276.276 208.825 275.9C208.825 275.523 208.679 275.161 208.417 274.891C208.156 274.62 207.799 274.461 207.423 274.448C207.047 274.461 206.69 274.62 206.428 274.891C206.167 275.161 206.021 275.523 206.021 275.9C206.021 276.276 206.167 276.638 206.428 276.909C206.69 277.18 207.047 277.338 207.423 277.351Z" fill="#020202"/>
<path d="M213.694 272.996C214.071 272.983 214.427 272.825 214.689 272.554C214.95 272.283 215.096 271.921 215.096 271.545C215.096 271.168 214.95 270.806 214.689 270.536C214.427 270.265 214.071 270.106 213.694 270.093C213.318 270.106 212.961 270.265 212.7 270.536C212.438 270.806 212.292 271.168 212.292 271.545C212.292 271.921 212.438 272.283 212.7 272.554C212.961 272.825 213.318 272.983 213.694 272.996Z" fill="#020202"/>
<path d="M219.095 267.77C219.471 267.757 219.828 267.599 220.089 267.328C220.351 267.057 220.497 266.695 220.497 266.319C220.497 265.942 220.351 265.58 220.089 265.31C219.828 265.039 219.471 264.88 219.095 264.867C218.718 264.88 218.362 265.039 218.1 265.31C217.839 265.58 217.692 265.942 217.692 266.319C217.692 266.695 217.839 267.057 218.1 267.328C218.362 267.599 218.718 267.757 219.095 267.77Z" fill="#020202"/>
<path d="M223.449 262.545C223.826 262.532 224.182 262.373 224.444 262.102C224.705 261.831 224.852 261.469 224.852 261.093C224.852 260.716 224.705 260.354 224.444 260.084C224.182 259.813 223.826 259.654 223.449 259.641C223.073 259.654 222.716 259.813 222.455 260.084C222.193 260.354 222.047 260.716 222.047 261.093C222.047 261.469 222.193 261.831 222.455 262.102C222.716 262.373 223.073 262.532 223.449 262.545Z" fill="#020202"/>
<path d="M326.786 105.922C326.225 108.602 325.529 111.253 324.702 113.865C323.892 116.498 322.876 119.063 321.665 121.537C320.46 124.052 318.951 126.409 317.171 128.556C315.36 130.778 313.054 132.545 310.438 133.718C307.738 134.893 304.733 135.171 301.864 134.512C299.009 133.833 296.419 132.322 294.422 130.17L293.673 129.375L293.032 128.551C292.608 127.999 292.163 127.46 291.776 126.885L290.582 125.181L289.467 123.43C288.02 121.079 286.706 118.649 285.532 116.151C283.179 111.183 281.221 106.038 279.675 100.763C278.115 95.5098 276.892 90.1626 276.012 84.7538C275.148 79.3434 274.644 73.8815 274.504 68.4043C274.417 65.6539 274.5 62.9009 274.751 60.1607C274.907 58.7882 275.068 57.4125 275.359 56.0473C275.614 54.6315 276.04 53.252 276.627 51.9389L276.568 52.0695C276.902 51.1307 277.316 50.2219 277.804 49.3529C278.285 48.4843 278.842 47.6594 279.467 46.8877C280.101 46.1026 280.818 45.3885 281.605 44.7578C282.412 44.1194 283.297 43.587 284.239 43.1738L284.005 43.313C284.796 42.6144 285.528 41.852 286.194 41.0334C286.848 40.2429 287.398 39.3716 287.83 38.4409C288.024 38.0123 288.162 37.5602 288.24 37.096C288.284 36.511 288.358 35.9288 288.462 35.3516L288.635 34.8163C288.722 34.6179 288.826 34.4275 288.946 34.2472C289.103 34.0172 289.306 33.822 289.542 33.6737C289.779 33.5255 290.043 33.4274 290.318 33.3856C290.839 33.3231 291.365 33.447 291.804 33.7353C292.011 33.8658 292.197 34.0274 292.355 34.2145C292.61 34.4997 292.758 34.8648 292.773 35.2471L290.697 35.1891C290.725 34.7756 290.806 34.3673 290.938 33.9743C291.08 33.5228 291.319 33.1078 291.638 32.7583C292.044 32.3338 292.595 32.0792 293.181 32.0463C293.666 32.0275 294.149 32.1187 294.594 32.313L293.125 33.0976C293.183 32.7935 293.268 32.495 293.379 32.2056C293.505 31.8551 293.693 31.53 293.934 31.2454C294.124 31.0239 294.365 30.8523 294.637 30.7453C294.967 30.6162 295.33 30.5999 295.67 30.6992C296.1 30.8368 296.484 31.093 296.776 31.4383L295.357 31.2577C295.716 31.019 296.115 30.8465 296.535 30.7485C296.814 30.6863 297.102 30.678 297.384 30.7243C297.747 30.7841 298.084 30.9537 298.348 31.2103C298.723 31.6102 298.95 32.1273 298.989 32.6747C299.007 32.8711 299.016 33.0683 299.014 33.2656L298.995 33.7245C298.934 34.9285 298.808 36.1284 298.619 37.319C298.33 39.8298 297.45 42.2364 296.051 44.3413C295.605 44.9286 295.256 45.2734 294.861 45.7345L293.705 47.0408L291.395 49.6536L286.746 54.8538L287.013 53.8997C288.569 63.2345 291.213 72.3548 294.891 81.0744C296.736 85.4275 298.857 89.6913 301.048 93.9154L304.362 100.244L307.773 106.592C307.784 106.612 307.787 106.636 307.781 106.659C307.775 106.682 307.76 106.701 307.74 106.713C307.72 106.725 307.696 106.729 307.673 106.724C307.65 106.719 307.63 106.705 307.617 106.686L307.554 106.592C306.289 104.7 305.008 102.592 303.776 100.578C302.54 98.5378 301.3 96.4977 300.117 94.4237C297.746 90.2798 295.428 86.0967 293.379 81.747C291.37 77.3791 289.646 72.8862 288.216 68.2962C287.5 66.0016 286.85 63.6874 286.265 61.3536C285.704 59.0156 285.204 56.6643 284.764 54.2998C284.733 54.1339 284.74 53.963 284.784 53.8C284.828 53.637 284.909 53.4862 285.02 53.3588L285.031 53.3454L289.642 48.0924L291.961 45.4785L293.121 44.1716C293.485 43.7508 293.952 43.2627 294.201 42.9144C295.355 41.1075 296.097 39.0688 296.375 36.943C296.568 35.8373 296.701 34.722 296.774 33.602L296.797 33.1892C296.805 33.0758 296.787 33.0037 296.79 32.9084C296.78 32.7552 296.708 32.6506 296.808 32.7806C296.863 32.832 296.931 32.8678 297.005 32.8842C297.057 32.8842 297.027 32.8846 296.988 32.8879C296.841 32.9259 296.7 32.9848 296.569 33.0628L296.536 33.084C296.319 33.2211 296.06 33.2761 295.806 33.2391C295.552 33.202 295.319 33.0754 295.15 32.8821C295.073 32.7936 294.942 32.7134 295.089 32.7835C295.197 32.804 295.309 32.7958 295.413 32.7597C295.458 32.7423 295.5 32.7168 295.536 32.6843C295.468 32.7755 295.414 32.8761 295.375 32.9829C295.311 33.1468 295.259 33.3155 295.221 33.4874C295.188 33.6391 295.122 33.7819 295.029 33.9063C294.936 34.0308 294.818 34.1341 294.682 34.2095C294.546 34.2848 294.396 34.3304 294.241 34.3432C294.087 34.356 293.931 34.3358 293.784 34.2839L293.752 34.2721C293.612 34.2072 293.461 34.1695 293.308 34.161C293.225 34.1683 293.229 34.1566 293.155 34.218C293.046 34.3448 292.965 34.4926 292.916 34.6521C292.843 34.8638 292.795 35.083 292.771 35.3056L290.696 35.2476C290.706 35.5515 290.792 35.5442 290.763 35.5386C290.741 35.513 290.716 35.4908 290.687 35.4727C290.613 35.4203 290.551 35.4221 290.591 35.4205C290.634 35.4227 290.667 35.3603 290.605 35.4355C290.58 35.4699 290.55 35.5399 290.515 35.5963L290.428 35.8541C290.321 36.2754 290.328 36.672 290.219 37.4185C290.106 38.052 289.911 38.6679 289.638 39.2508C289.114 40.334 288.448 41.3423 287.657 42.2492C286.895 43.1406 286.059 43.9664 285.159 44.7179C285.098 44.7689 285.03 44.8111 284.958 44.8434L284.925 44.8572C284.124 45.1873 283.368 45.6176 282.676 46.1379C281.971 46.6743 281.326 47.2855 280.753 47.9608C280.172 48.6489 279.645 49.3804 279.175 50.1488C278.706 50.9143 278.301 51.717 277.964 52.5489C277.947 52.5926 277.926 52.6391 277.905 52.6799C277.348 53.8473 276.926 55.074 276.647 56.3366C276.334 57.6427 276.089 58.964 275.912 60.2953C275.575 62.9828 275.405 65.6885 275.401 68.397C275.413 73.8385 275.837 79.2712 276.668 84.6487C277.553 90.0179 278.888 95.303 280.661 100.448C282.402 105.587 284.539 110.584 287.052 115.393C288.3 117.793 289.647 120.13 291.096 122.404L292.199 124.093L293.361 125.736C293.738 126.292 294.167 126.804 294.576 127.333L295.195 128.122L295.851 128.814C297.57 130.713 299.815 132.057 302.3 132.677C304.789 133.273 307.402 133.075 309.773 132.11C312.173 131.074 314.316 129.521 316.049 127.562C317.833 125.567 319.366 123.36 320.613 120.992C321.883 118.602 323.005 116.136 323.974 113.609C324.948 111.073 325.783 108.48 326.574 105.868C326.578 105.854 326.585 105.841 326.594 105.83C326.603 105.819 326.614 105.81 326.627 105.803C326.639 105.796 326.653 105.791 326.668 105.79C326.682 105.788 326.696 105.79 326.71 105.794C326.736 105.802 326.759 105.819 326.773 105.843C326.787 105.867 326.792 105.895 326.786 105.922Z" fill="#020202"/>
<path d="M135.206 262.791C133.961 267.826 131.647 272.535 128.422 276.597C126.761 278.657 124.742 280.401 122.461 281.744C121.304 282.445 120.222 282.941 119.116 283.601L115.827 285.508C111.464 288.102 107.067 290.683 102.717 293.343C98.3483 295.972 94.0812 298.77 89.9086 301.696L90.0356 301.503C89.8243 302.933 90.0244 304.394 90.6125 305.715C91.2202 306.997 92.2581 308.026 93.5458 308.622C93.8601 308.785 94.1876 308.92 94.5249 309.027L95.559 309.305C96.2684 309.43 96.9842 309.517 97.703 309.564C98.4337 309.546 99.1578 309.583 99.8866 309.523L102.073 309.291L101.833 309.363C106.174 307.074 110.552 304.863 114.967 302.73C119.382 300.586 123.807 298.471 128.404 296.645C129.549 296.185 130.723 295.764 131.915 295.362L132.845 295.096C133.171 294.988 133.507 294.912 133.848 294.867L134.408 294.792L134.686 294.76L134.886 294.752C135.157 294.754 135.429 294.737 135.698 294.701C138.004 294.367 140.217 293.563 142.2 292.338C144.232 291.124 146.042 289.572 147.551 287.748C149.047 285.879 150.198 283.758 150.95 281.485L150.962 281.451L150.972 281.428C151.414 280.58 151.841 279.714 152.241 278.841C152.661 277.983 153.003 277.089 153.262 276.17L153.264 276.162C153.269 276.138 153.284 276.117 153.305 276.103C153.325 276.089 153.35 276.084 153.375 276.089C153.399 276.093 153.421 276.106 153.436 276.126C153.45 276.146 153.457 276.171 153.454 276.196C153.3 277.162 153.044 278.11 152.691 279.023C152.363 279.94 152.013 280.842 151.639 281.743L151.66 281.687C150.445 286.652 147.362 290.958 143.052 293.706C141.985 294.407 140.855 295.006 139.677 295.496C138.482 296.012 137.228 296.377 135.943 296.584C135.607 296.64 135.267 296.675 134.927 296.686L134.668 296.699L134.492 296.734L134.144 296.796C133.878 296.836 133.617 296.902 133.364 296.994L132.534 297.248C131.412 297.649 130.287 298.074 129.169 298.548C126.929 299.473 124.688 300.438 122.464 301.443C120.235 302.436 118.002 303.429 115.783 304.456L102.495 310.679L102.437 310.707C102.379 310.733 102.318 310.749 102.255 310.752L99.9405 310.877C99.1681 310.895 98.3856 310.814 97.6126 310.785C96.8347 310.69 96.0627 310.55 95.3006 310.367L94.1727 309.997C93.7999 309.857 93.4393 309.686 93.0946 309.486C91.667 308.732 90.547 307.504 89.9276 306.013C89.3355 304.546 89.1637 302.943 89.4315 301.383C89.4374 301.345 89.451 301.309 89.4716 301.277C89.4922 301.244 89.5193 301.216 89.5511 301.195L89.5585 301.19C93.7943 298.341 97.9948 295.441 102.16 292.491C106.353 289.577 110.538 286.637 114.945 284.021C117.102 282.679 119.466 281.495 121.655 280.302C123.807 279.1 125.739 277.54 127.367 275.688C129.033 273.813 130.498 271.768 131.738 269.587C133.019 267.398 134.117 265.107 135.02 262.738L135.023 262.732C135.031 262.709 135.049 262.69 135.071 262.679C135.093 262.668 135.119 262.667 135.142 262.674C135.166 262.682 135.186 262.698 135.198 262.72C135.21 262.741 135.213 262.767 135.206 262.791L135.206 262.791Z" fill="#020202"/>
<path d="M89.7336 301.443C89.7336 301.443 82.3359 312.995 97.9498 317.892C97.9498 317.892 107.141 320.328 121.932 305.504C121.932 305.504 128.687 299.054 130.504 299.291L128.297 305.279L136.236 308.014L145.87 303.569L150.673 283.456C149.227 286.664 147.008 289.465 144.216 291.606C141.424 293.748 138.145 295.165 134.671 295.73C122.422 297.974 112.868 305.434 102.164 310.021C102.164 310.021 88.3435 312.448 89.7336 301.443Z" fill="#020202"/>
<path d="M99.5684 294.807C99.5684 294.807 108.885 295.486 110.448 305.948L119.336 301.738C119.336 301.738 117.697 288.912 106.338 290.386C106.338 290.386 102.544 289.735 99.5684 294.807Z" fill="#020202"/>
<path d="M195.918 274.887C197.305 279.885 197.605 285.122 196.798 290.245C196.362 292.855 195.461 295.364 194.136 297.654C193.44 298.814 192.772 299.798 192.129 300.914L190.21 304.195C187.684 308.599 185.123 313.008 182.643 317.462C180.137 321.904 177.776 326.428 175.612 331.043L175.628 330.799C176.143 332.149 177.027 333.327 178.178 334.199C179.335 335.028 180.749 335.417 182.167 335.299C183.599 335.167 184.988 334.744 186.252 334.058C187.544 333.373 188.772 332.573 189.921 331.667L189.748 331.849C193.296 326.331 196.982 320.916 200.761 315.548C202.664 312.873 204.605 310.224 206.679 307.651C207.721 306.331 208.84 305.073 210.03 303.885C210.382 303.541 210.771 303.237 211.19 302.979C211.505 302.805 211.807 302.611 212.095 302.396C212.699 301.931 213.26 301.414 213.773 300.849C215.871 298.486 217.394 295.67 218.223 292.62C219.093 289.529 219.278 286.285 218.766 283.115C217.754 276.628 216.953 270.136 216.157 263.634C216.154 263.609 216.161 263.583 216.177 263.563C216.192 263.543 216.215 263.53 216.24 263.526C216.266 263.523 216.291 263.53 216.311 263.545C216.332 263.56 216.345 263.583 216.349 263.608C217.365 270.073 218.31 276.562 219.485 282.985C220.255 286.262 220.282 289.669 219.565 292.957C218.825 296.293 217.301 299.405 215.119 302.036C214.556 302.706 213.934 303.325 213.261 303.885C212.904 304.174 212.526 304.438 212.13 304.672C211.862 304.859 211.612 305.069 211.383 305.302C210.279 306.45 209.243 307.661 208.279 308.929C206.274 311.477 204.338 314.106 202.398 316.731C198.518 321.984 194.755 327.339 190.974 332.672L190.953 332.701C190.911 332.76 190.859 332.812 190.8 332.854C189.538 333.756 188.19 334.531 186.776 335.17C185.34 335.838 183.785 336.214 182.203 336.277C180.583 336.328 178.997 335.804 177.726 334.799C176.49 333.806 175.55 332.493 175.011 331.003C174.997 330.963 174.991 330.921 174.994 330.879C174.997 330.837 175.008 330.796 175.027 330.759C177.346 326.21 179.564 321.618 181.742 316.996C183.961 312.397 186.159 307.779 188.71 303.334C189.933 301.107 191.402 298.909 192.765 296.821C194.035 294.706 194.939 292.391 195.44 289.975C195.984 287.524 196.253 285.021 196.244 282.51C196.282 279.975 196.11 277.44 195.73 274.933L195.729 274.927C195.725 274.902 195.731 274.878 195.745 274.857C195.759 274.837 195.78 274.823 195.805 274.818C195.829 274.813 195.854 274.817 195.875 274.83C195.896 274.843 195.911 274.864 195.918 274.887L195.918 274.887Z" fill="#020202"/>
<path d="M175.319 330.901C175.319 330.901 174.556 344.596 190.56 341.186C190.56 341.186 199.762 338.789 205.355 318.609C205.355 318.609 208.067 309.671 209.765 308.984L210.787 315.284L219.045 313.763L225.249 305.156L219.545 285.281C219.863 288.785 219.308 292.314 217.929 295.552C216.55 298.79 214.391 301.635 211.644 303.835C202.08 311.811 197.427 323.004 190.361 332.26C190.361 332.26 179.518 341.167 175.319 330.901Z" fill="#020202"/>
<path d="M180.622 320.286C180.622 320.286 189.069 316.298 195.574 324.641L201.244 316.606C201.244 316.606 193.512 306.242 184.344 313.109C184.344 313.109 180.721 314.407 180.622 320.286Z" fill="#020202"/>
<path d="M154.006 154.02C154.032 154.048 154.056 154.079 154.077 154.111L154.083 154.118L154.092 154.128L155.242 155.434C155.272 155.468 155.291 155.509 155.298 155.553C155.306 155.598 155.3 155.643 155.283 155.684C155.266 155.726 155.237 155.761 155.201 155.787C155.164 155.813 155.121 155.828 155.077 155.831L155.056 155.832C149.598 156.155 144.14 156.352 138.682 156.456L134.589 156.526C133.851 156.56 133.112 156.522 132.381 156.413C131.23 156.218 130.136 155.772 129.176 155.106C128.217 154.441 127.415 153.572 126.829 152.562C126.062 151.227 125.693 149.7 125.768 148.162C125.848 142.702 126.052 137.241 126.104 131.783C126.128 126.324 126.012 120.867 125.756 115.412C125.7 114.698 125.713 113.981 125.795 113.27C125.889 112.533 126.091 111.814 126.394 111.136C127.001 109.752 127.995 108.571 129.256 107.738C130.535 106.892 132.03 106.431 133.563 106.408L137.656 106.332L141.75 106.279C144.105 106.252 146.379 107.139 148.093 108.755C149.807 110.371 150.827 112.589 150.938 114.942C151.577 125.839 151.974 136.75 152.129 147.675L152.129 147.712L152.128 147.736C152.097 148.265 152.126 148.796 152.216 149.319C152.305 149.865 152.433 150.404 152.601 150.932C152.955 152.001 153.423 153.029 153.995 153.999C154.003 154.011 154.008 154.025 154.01 154.039C154.012 154.054 154.012 154.068 154.008 154.082C154.005 154.096 153.999 154.109 153.99 154.121C153.982 154.133 153.971 154.143 153.959 154.15C153.935 154.164 153.908 154.169 153.881 154.164C153.854 154.159 153.831 154.144 153.814 154.123C153.461 153.665 153.133 153.19 152.83 152.698C152.53 152.199 152.262 151.681 152.028 151.147C151.794 150.607 151.6 150.05 151.447 149.481C151.282 148.891 151.189 148.282 151.171 147.669L151.17 147.73C150.067 136.86 149.212 125.975 148.604 115.076C148.55 113.898 148.211 112.751 147.617 111.734C147.013 110.719 146.159 109.877 145.136 109.287C144.105 108.693 142.939 108.373 141.75 108.356L137.656 108.303L133.563 108.227C132.339 108.184 131.128 108.487 130.069 109.102C129.01 109.717 128.146 110.619 127.577 111.703C127.282 112.253 127.072 112.845 126.955 113.459C126.844 114.099 126.796 114.749 126.812 115.399C126.684 120.859 126.701 126.317 126.862 131.773C127.049 137.229 127.389 142.683 127.604 148.139C127.589 149.345 127.903 150.532 128.513 151.573C129.123 152.588 130.002 153.414 131.053 153.958C131.576 154.231 132.137 154.425 132.717 154.533C133.336 154.633 133.962 154.674 134.589 154.653L138.682 154.724C144.14 154.828 149.598 155.025 155.056 155.348L154.87 155.745L153.891 154.265L153.906 154.282C153.868 154.223 153.833 154.161 153.803 154.102C153.791 154.079 153.788 154.053 153.794 154.028C153.8 154.004 153.815 153.982 153.836 153.968C153.857 153.953 153.883 153.947 153.908 153.95C153.933 153.953 153.957 153.965 153.974 153.984L154.006 154.02Z" fill="#020202"/>
<path d="M180.584 180.37C181.025 181.074 181.363 181.837 181.588 182.636C181.809 183.396 181.962 184.174 182.046 184.961C182.132 185.747 182.147 186.54 182.09 187.329C182.039 188.158 181.869 188.975 181.583 189.756C181.14 189.053 180.801 188.29 180.577 187.49C180.355 186.73 180.203 185.952 180.122 185.165C180.037 184.379 180.023 183.586 180.08 182.797C180.131 181.968 180.301 181.151 180.584 180.37Z" fill="white"/>
</svg>
