<svg width="409" height="318" viewBox="0 0 409 318" fill="none" xmlns="http://www.w3.org/2000/svg">
<path fill-rule="evenodd" clip-rule="evenodd" d="M237.713 117.674C236.439 115.041 234.154 115.325 231.363 109.755C228.688 104.131 230.32 102.51 229.046 99.8769C228.214 98.192 224.339 96.1596 215.735 98.6026C210.828 99.9927 203.657 102.404 203.868 104.889C204.12 107.985 207.069 107.638 210.597 109.449C214.167 111.303 215.356 112.44 217.368 116.578C218.663 119.243 219.2 120.875 219.211 122.76C220.116 125.951 222.538 132.722 226.108 130.1C229.457 127.625 235.133 121.854 237.976 118.916C237.978 118.488 237.888 118.064 237.713 117.674ZM223.75 109.491C223.115 109.801 222.402 109.915 221.702 109.82C221.002 109.725 220.346 109.425 219.817 108.957C219.288 108.489 218.91 107.875 218.729 107.192C218.549 106.509 218.576 105.788 218.805 105.12C219.035 104.452 219.457 103.867 220.019 103.439C220.581 103.011 221.257 102.759 221.962 102.715C222.667 102.671 223.369 102.837 223.98 103.193C224.59 103.548 225.082 104.076 225.392 104.71C225.807 105.563 225.866 106.544 225.558 107.44C225.25 108.336 224.6 109.074 223.75 109.491L223.75 109.491ZM226.845 119.917C226.527 120.073 226.169 120.132 225.818 120.085C225.466 120.038 225.136 119.888 224.87 119.653C224.603 119.419 224.413 119.11 224.322 118.767C224.231 118.424 224.244 118.062 224.36 117.726C224.475 117.391 224.687 117.097 224.97 116.882C225.252 116.667 225.592 116.541 225.946 116.52C226.3 116.498 226.653 116.583 226.959 116.762C227.266 116.941 227.512 117.207 227.667 117.526C227.87 117.953 227.898 118.442 227.745 118.889C227.591 119.336 227.268 119.705 226.846 119.917H226.845ZM231.616 121.559C231.298 121.712 230.942 121.767 230.593 121.718C230.244 121.668 229.917 121.517 229.654 121.282C229.391 121.047 229.203 120.739 229.115 120.398C229.026 120.057 229.041 119.697 229.157 119.364C229.273 119.031 229.485 118.739 229.766 118.527C230.047 118.314 230.385 118.189 230.737 118.169C231.089 118.148 231.44 118.232 231.744 118.41C232.048 118.588 232.293 118.852 232.448 119.169C232.551 119.38 232.612 119.61 232.627 119.845C232.641 120.08 232.608 120.316 232.531 120.538C232.454 120.76 232.333 120.965 232.176 121.14C232.019 121.316 231.828 121.458 231.616 121.559H231.616Z" fill="black"/>
<path d="M126.398 31.033C127.236 32.4518 127.958 33.9356 128.558 35.4701C129.173 37.0202 129.633 38.6276 129.93 40.2685C130.076 41.1215 130.13 41.9876 130.092 42.8521L130.057 43.4331C130.051 43.5971 130.058 43.7612 130.079 43.9239C130.115 44.2592 130.199 44.5877 130.327 44.8995C130.953 46.27 132.025 47.3885 133.367 48.073L133.418 48.0986C133.489 48.1344 133.545 48.1928 133.579 48.2645C133.613 48.3362 133.621 48.4171 133.604 48.4943C133.493 48.9448 133.323 49.3788 133.1 49.7854C132.884 50.1906 132.603 50.5575 132.268 50.8713C131.939 51.1964 131.541 51.4444 131.104 51.5974C130.674 51.7501 130.223 51.8325 129.767 51.8414L130.023 51.5447C130.372 53.775 130.607 56.0218 130.725 58.2763C130.775 59.4272 130.72 60.5803 130.563 61.7216C130.429 62.9511 130.016 64.1338 129.356 65.1798C128.562 66.2037 127.467 66.954 126.226 67.3258C125.111 67.7004 123.962 67.9601 122.794 68.1009C120.519 68.3575 118.222 68.3676 115.944 68.131L116.605 67.7385C116.345 68.2849 116.136 68.8542 115.981 69.4392C115.82 70.0279 115.742 70.6365 115.75 71.2469C115.77 71.8508 115.909 72.4449 116.158 72.9954C116.454 73.5515 116.867 74.037 117.368 74.4185L117.375 74.4246C117.391 74.4377 117.401 74.456 117.404 74.4761C117.407 74.4962 117.402 74.5167 117.391 74.5336C117.38 74.5506 117.363 74.5629 117.343 74.5681C117.324 74.5734 117.303 74.5713 117.285 74.5622C116.654 74.2769 116.104 73.8394 115.685 73.2892C115.267 72.71 114.992 72.0402 114.883 71.3345C114.779 70.6372 114.774 69.9287 114.868 69.2299C114.95 68.5258 115.121 67.8349 115.375 67.1732C115.42 67.0581 115.498 66.959 115.599 66.889C115.701 66.8189 115.821 66.7812 115.944 66.7806H116.036C118.217 66.7946 120.396 66.6514 122.556 66.3523C123.604 66.2081 124.639 65.9768 125.648 65.6608C126.576 65.4429 127.415 64.9456 128.052 64.236C128.604 63.3972 128.981 62.4554 129.159 61.4674C129.377 60.4051 129.528 59.3301 129.61 58.2489C129.802 56.0419 129.769 53.8211 129.511 51.6209C129.507 51.5863 129.509 51.5512 129.519 51.5177C129.528 51.4842 129.544 51.4528 129.565 51.4254C129.587 51.398 129.614 51.3751 129.644 51.358C129.674 51.3409 129.708 51.33 129.742 51.3258L129.76 51.3243L129.767 51.324C130.162 51.3301 130.554 51.2614 130.924 51.1217C131.289 50.9839 131.618 50.766 131.887 50.4841C132.153 50.1952 132.368 49.8634 132.523 49.5027C132.678 49.1463 132.777 48.7684 132.818 48.382L133.054 48.803C132.234 48.509 131.47 48.0774 130.794 47.5267C130.083 46.9697 129.493 46.2743 129.058 45.4825C128.843 45.0546 128.695 44.5963 128.618 44.1236C128.583 43.8829 128.568 43.6397 128.573 43.3965L128.603 42.7581C128.642 41.9949 128.612 41.2297 128.515 40.4717C127.992 37.2967 127.233 34.1649 126.247 31.102C126.243 31.0915 126.242 31.0805 126.243 31.0695C126.244 31.0586 126.247 31.0479 126.252 31.038C126.257 31.0282 126.263 31.0195 126.272 31.0123C126.28 31.0052 126.29 30.9997 126.3 30.9963C126.318 30.9909 126.338 30.9917 126.355 30.9983C126.373 31.0049 126.388 31.0171 126.398 31.033Z" fill="black"/>
<path d="M128.12 65.3574C124.824 68.0532 115.989 67.453 115.989 67.453C110.102 64.0726 108.596 57.6279 108.27 55.6271C107.753 56.5642 106.448 56.954 105.658 58.1754C103.415 61.619 98.571 64.3149 96.2227 64.0094C90.494 63.2723 87.5981 54.0159 87.9879 47.5395C88.588 37.6513 88.4404 32.2701 100.414 25.6779C102.395 24.562 104.517 23.7156 106.722 23.1611C105.595 27.7104 105.606 34.7659 106.006 41.1053H106.142C104.476 41.6088 103.052 42.708 102.144 44.1934C101.235 45.6789 100.905 47.4466 101.216 49.1598C101.527 50.8731 102.458 52.4119 103.831 53.4831C105.203 54.5543 106.922 55.0829 108.66 54.9682C110.397 54.8535 112.032 54.1035 113.252 52.8612C114.472 51.6189 115.192 49.971 115.275 48.2318C115.358 46.4926 114.799 44.7835 113.703 43.4304C112.607 42.0773 111.052 41.1747 109.333 40.8947C108.881 33.8496 109.081 26.1939 109.776 22.6345C110.218 22.5924 110.66 22.5712 111.092 22.5607C112.494 22.5228 113.896 22.6394 115.272 22.9083C119.995 23.928 124.248 26.4786 127.372 30.1639C127.372 30.1639 125.666 32.0488 123.181 34.513C120.418 37.3226 117.489 39.9636 114.409 42.4216C114.409 42.4216 118.158 53.9842 130.026 53.9842C130.31 57.3962 130.447 63.4619 128.12 65.3574Z" fill="black"/>
<path d="M46.9062 97.5548C46.9062 97.5548 64.4765 73.9948 78.2531 72.9965L128.184 74.9056C133.499 75.1088 138.635 76.8828 142.942 80.0035C147.248 83.1242 150.534 87.4515 152.382 92.4386L163.626 122.773C164.13 124.133 165.012 125.319 166.169 126.193C167.326 127.068 168.709 127.592 170.155 127.705C179.982 128.478 202.054 130 210.778 128.852C210.778 128.852 212.725 140.382 209.73 143.826L154.923 149.667C154.923 149.667 132.012 97.1056 126.471 95.7579C126.471 95.7579 61.9807 94.5599 46.9062 97.5548Z" fill="black"/>
<path d="M46.9071 97.638L33.118 97.9441C30.858 97.8321 28.6299 98.5135 26.8192 99.8705C25.0398 101.228 23.8108 103.182 23.3587 105.374C23.1879 106.494 23.0782 107.623 23.0299 108.755C22.9242 109.906 22.8049 111.054 22.6617 112.199C22.3768 114.488 22.0372 116.767 21.668 119.041C20.916 123.587 20.0658 128.113 19.1174 132.62C19.0974 132.716 19.0522 132.805 18.9862 132.878L18.9786 132.886L9.84112 142.912C9.82116 142.934 9.79969 142.954 9.77688 142.973L9.76968 142.979C8.36244 144.111 7.06207 145.369 5.88494 146.739C4.69612 148.073 3.69839 149.566 2.92037 151.174C1.42646 154.431 1.00541 158.078 1.71794 161.589L5.31731 183.422C6.52617 190.698 7.77702 197.966 9.06987 205.227C10.362 212.487 11.6575 219.748 13.0728 226.984C14.4882 234.219 15.9742 241.443 17.7273 248.599C18.6215 252.169 19.5452 255.741 20.7659 259.201C21.0809 260.06 21.3994 260.921 21.7796 261.746C22.1204 262.566 22.5765 263.334 23.134 264.025C23.2636 264.163 23.4145 264.278 23.5808 264.367C23.7706 264.436 23.9984 264.481 24.2048 264.54C24.6419 264.651 25.085 264.737 25.5319 264.796C26.4272 264.961 27.3504 265.035 28.2584 265.16C35.5833 265.91 42.955 266.346 50.3201 266.715C57.6877 267.081 65.0579 267.398 72.4308 267.666C87.1771 268.175 101.926 268.588 116.678 268.906L138.805 269.341L149.866 269.489L155.394 269.531C157.221 269.521 159.111 269.583 160.838 269.427C164.444 268.863 168.012 268.079 171.522 267.078C175.071 266.124 178.597 265.075 182.105 263.966C189.12 261.749 196.045 259.271 202.878 256.532C209.714 253.849 216.376 250.746 222.828 247.239C226.032 245.494 229.106 243.52 232.025 241.331C234.935 239.259 237.386 236.609 239.224 233.546L239.141 233.822C240.281 223.817 241.199 213.778 241.896 203.705C242.569 193.645 242.999 183.563 242.919 173.486C242.892 168.447 242.679 163.417 242.28 158.396C242.221 157.137 242.017 155.896 241.884 154.646C241.726 153.4 241.606 152.146 241.417 150.905L240.723 147.205C240.597 146.607 240.516 145.929 240.353 145.397C240.171 144.856 239.86 144.368 239.448 143.973C239.035 143.579 238.533 143.29 237.985 143.131C237.411 142.985 236.815 142.943 236.226 143.008L232.441 143.137L224.872 143.394L209.734 143.909C209.712 143.91 209.691 143.902 209.675 143.887C209.659 143.872 209.649 143.852 209.648 143.83C209.647 143.808 209.655 143.787 209.669 143.77C209.684 143.754 209.705 143.744 209.727 143.743L224.851 142.91L232.413 142.493L236.194 142.285C236.861 142.201 237.538 142.241 238.192 142.401C238.863 142.588 239.48 142.934 239.988 143.411C240.497 143.888 240.882 144.481 241.112 145.139C241.323 145.813 241.384 146.398 241.528 147.032L242.271 150.768C242.476 152.019 242.611 153.279 242.785 154.535C242.934 155.793 243.153 157.046 243.226 158.31C243.685 163.354 243.956 168.407 244.04 173.469C244.234 183.587 243.916 193.701 243.356 203.796C242.789 213.893 241.98 223.966 240.817 234.025L240.814 234.044C240.804 234.134 240.776 234.221 240.734 234.301C238.79 237.599 236.179 240.455 233.067 242.685C230.086 244.931 226.946 246.957 223.671 248.749C217.165 252.311 210.438 255.455 203.531 258.163C196.646 260.886 189.668 263.344 182.598 265.537C179.065 266.635 175.513 267.672 171.931 268.617C168.339 269.621 164.688 270.402 161 270.955C159.051 271.118 157.243 271.036 155.384 271.041L149.844 270.952L138.776 270.685L116.647 270.011C101.897 269.52 87.1496 268.944 72.4062 268.284C65.0338 267.973 57.6627 267.625 50.293 267.238C42.9254 266.803 35.5534 266.478 28.1948 265.746C27.275 265.626 26.3561 265.557 25.4352 265.394C24.9676 265.334 24.504 265.247 24.0466 265.133C23.8109 265.066 23.581 265.023 23.3404 264.936C23.0953 264.815 22.8735 264.653 22.6853 264.455C22.0737 263.717 21.5735 262.894 21.2006 262.011C20.8041 261.162 20.4766 260.293 20.1521 259.422C18.9019 255.928 17.9007 252.367 16.9592 248.794C15.0994 241.641 13.5049 234.429 11.9898 227.203C8.95098 212.751 6.33684 198.219 3.85895 183.667C2.61357 176.392 1.47438 169.1 0.334684 161.807C-0.399333 158.022 0.0809692 154.101 1.70706 150.605C2.5454 148.891 3.61752 147.302 4.89273 145.883C6.12946 144.46 7.49427 143.153 8.96999 141.979L8.89879 142.045L18.1298 132.105L17.9912 132.371C18.9918 127.898 19.8986 123.4 20.7116 118.878C21.109 116.618 21.4771 114.355 21.7901 112.086C21.9477 110.951 22.0808 109.815 22.2004 108.678L22.3459 106.972C22.3827 106.378 22.4651 105.788 22.5925 105.207C23.1296 102.859 24.4972 100.784 26.4432 99.3649C28.3791 97.9783 30.7369 97.3079 33.1128 97.4686L46.9055 97.4717C46.9275 97.4714 46.9488 97.48 46.9645 97.4954C46.9803 97.5108 46.9893 97.5319 46.9895 97.554C46.9898 97.576 46.9812 97.5973 46.9658 97.6131C46.9504 97.6288 46.9293 97.6378 46.9073 97.6381L46.9071 97.638Z" fill="black"/>
<path d="M29.1357 105.541L38.944 105.339L48.7522 105.223L68.3697 105.126L87.9862 105.221L97.7944 105.338L107.603 105.541L97.7944 105.745L87.9862 105.861L68.3697 105.957L48.7522 105.86L38.944 105.743L29.1357 105.541Z" fill="black"/>
<path d="M160.514 155.856L169.956 154.674L179.407 153.571L198.32 151.479L217.247 149.531L236.185 147.67C233.049 148.144 229.904 148.566 226.761 148.996L217.317 150.167C211.019 150.927 204.712 151.6 198.408 152.305C192.097 152.942 185.789 153.613 179.473 154.205L169.998 155.076L160.514 155.856Z" fill="black"/>
<path d="M114.592 107.738C116.572 110.983 118.473 114.271 120.362 117.567C122.252 120.862 124.077 124.193 125.937 127.504C127.739 130.847 129.572 134.173 131.344 137.533C133.116 140.893 134.876 144.259 136.555 147.67C134.573 144.425 132.673 141.136 130.784 137.841C128.895 134.545 127.068 131.216 125.209 127.904C123.409 124.56 121.574 121.235 119.803 117.874C118.031 114.514 116.272 111.148 114.592 107.738Z" fill="black"/>
<path d="M114.592 102.946C116.317 102.071 118.11 101.338 119.953 100.754C121.785 100.134 123.665 99.6647 125.573 99.3518C123.849 100.228 122.056 100.961 120.212 101.544C118.379 102.162 116.5 102.631 114.592 102.946Z" fill="black"/>
<path d="M18.5549 132.496C18.4446 133.959 18.2449 135.406 18.0315 136.849C17.8276 138.295 17.5595 139.728 17.2911 141.161C17.0031 142.59 16.7136 144.018 16.3609 145.435C16.0164 146.853 15.6593 148.269 15.2109 149.667C15.3199 148.203 15.52 146.756 15.7328 145.313C15.9375 143.867 16.2054 142.434 16.4748 141.002C16.7638 139.573 17.053 138.144 17.4063 136.728C17.7503 135.309 18.1078 133.894 18.5549 132.496Z" fill="black"/>
<path d="M2.01074 151.152C4.62773 150.379 7.31599 149.872 10.0347 149.639C11.4054 149.512 12.7872 149.586 14.1366 149.858C14.8285 150.001 15.4814 150.292 16.051 150.71C16.6237 151.158 17.0182 151.795 17.1637 152.507C18.3517 157.85 19.2446 163.209 20.2118 168.573C22.0868 179.302 23.7847 190.061 25.4321 200.827C27.0089 211.604 28.5399 222.389 29.8025 233.21C30.4247 238.621 31.006 244.038 31.4482 249.469C31.6559 252.185 31.8307 254.905 31.921 257.628C31.9513 258.99 32.0017 260.353 31.949 261.715C31.9367 262.397 31.9166 263.078 31.8377 263.756C31.7866 264.435 31.6759 265.109 31.5068 265.769C31.6591 265.106 31.7529 264.431 31.7871 263.751C31.8487 263.074 31.8518 262.394 31.8475 261.714C31.8662 260.355 31.7819 258.995 31.7176 257.637C31.5598 254.922 31.3176 252.211 31.0428 249.505C30.5175 244.089 29.8665 238.685 29.1675 233.288C27.7743 222.493 26.2553 211.713 24.6105 200.95C23.0324 190.178 21.3228 179.426 19.5838 168.679C18.6963 163.314 17.864 157.915 16.7724 152.61C16.6653 151.972 16.3303 151.395 15.8297 150.986C15.3072 150.585 14.7047 150.3 14.0629 150.152C12.7461 149.854 11.393 149.749 10.046 149.841C7.33037 150.007 4.63832 150.446 2.01074 151.152Z" fill="black"/>
<path d="M154.517 270.28C154.862 270.261 155.061 269.929 155.216 269.662C155.366 269.373 155.489 269.071 155.586 268.76C155.782 268.139 155.942 267.507 156.067 266.867C156.324 265.59 156.511 264.299 156.672 263.006C156.991 260.418 157.209 257.819 157.396 255.219C157.76 250.017 157.982 244.806 158.154 239.594C158.524 229.171 158.69 218.74 158.743 208.309C158.788 197.879 158.731 187.447 158.481 177.022C158.321 171.82 158.241 166.576 157.706 161.436C157.478 158.901 156.405 156.517 154.659 154.665C153.761 153.79 152.699 153.102 151.534 152.639C150.369 152.175 149.124 151.947 147.87 151.966C145.336 152.023 142.915 153.025 141.082 154.775C139.235 156.53 138.074 158.885 137.809 161.418C137.114 166.571 136.811 171.769 136.902 176.968C136.925 187.41 136.689 197.839 136.598 208.27C136.498 218.701 136.471 229.133 136.813 239.556C136.972 244.766 137.219 249.978 137.752 255.163C137.999 257.758 138.376 260.338 138.882 262.895C139.449 265.406 140.02 268.072 141.742 270.075C139.992 268.092 139.383 265.424 138.782 262.917C138.243 260.362 137.831 257.782 137.55 255.186C136.948 249.999 136.633 244.784 136.406 239.571C136.005 229.139 135.994 218.7 136.045 208.266C136.089 197.832 136.278 187.398 136.209 176.973C136.094 171.736 136.376 166.498 137.054 161.304C137.336 158.597 138.568 156.078 140.533 154.195C142.506 152.295 145.119 151.203 147.858 151.136C149.22 151.121 150.571 151.374 151.834 151.883C153.098 152.392 154.248 153.145 155.219 154.1C157.081 156.081 158.222 158.63 158.46 161.338C158.759 163.965 158.843 166.567 158.954 169.179C159.051 171.788 159.119 174.397 159.172 177.006C159.375 187.443 159.386 197.878 159.295 208.313C159.192 218.748 158.99 229.182 158.558 239.61C158.318 244.822 158.029 250.034 157.597 255.235C157.377 257.834 157.125 260.433 156.772 263.019C156.594 264.311 156.391 265.601 156.116 266.877C155.984 267.517 155.815 268.148 155.61 268.768C155.509 269.079 155.381 269.38 155.227 269.668C155.068 269.935 154.863 270.265 154.517 270.28Z" fill="black"/>
<path d="M138.951 270.281C139.8 274.171 140.594 278.068 141.477 281.947C142.311 285.835 143.169 289.716 144.099 293.578C145.045 297.434 145.963 301.297 147.066 305.096C147.617 306.994 148.181 308.888 148.85 310.727C149.183 311.646 149.544 312.552 149.952 313.413C150.15 313.832 150.373 314.24 150.618 314.634C150.809 314.972 151.06 315.273 151.358 315.522C151.41 315.556 151.447 315.568 151.474 315.588C151.48 315.574 151.49 315.602 151.471 315.586C151.44 315.614 151.499 315.57 151.595 315.488C151.833 315.173 152.021 314.823 152.152 314.45C152.463 313.544 152.714 312.618 152.902 311.679C153.385 309.777 153.702 307.827 154.038 305.885C154.703 301.994 155.051 298.046 155.396 294.098C155.716 290.147 155.902 286.18 155.996 282.209C156.14 278.238 156.142 274.262 156.122 270.281C156.519 274.244 156.679 278.227 156.811 282.211C156.883 286.197 156.837 290.185 156.673 294.177C156.523 298.175 156.163 302.164 155.595 306.125C155.484 307.121 155.262 308.104 155.098 309.094C154.939 310.086 154.716 311.068 154.486 312.049C154.288 313.061 154.022 314.059 153.689 315.036C153.493 315.604 153.198 316.133 152.82 316.6C152.681 316.743 152.529 316.873 152.365 316.987C152.156 317.118 151.921 317.202 151.676 317.233C151.431 317.264 151.182 317.24 150.947 317.165C150.756 317.093 150.574 316.999 150.406 316.885C149.925 316.511 149.523 316.046 149.221 315.518C148.943 315.066 148.691 314.598 148.468 314.117C148.029 313.178 147.66 312.23 147.322 311.277C146.65 309.371 146.07 307.451 145.552 305.518C144.53 301.649 143.622 297.764 142.854 293.852C142.074 289.943 141.349 286.026 140.681 282.1C140.066 278.165 139.43 274.235 138.951 270.281Z" fill="black"/>
<path d="M43.4942 265.769C43.0152 269.723 42.3797 273.653 41.7642 277.588C41.0945 281.514 40.3701 285.431 39.591 289.34C38.8233 293.252 37.9158 297.137 36.893 301.006C36.3749 302.939 35.7957 304.859 35.1235 306.765C34.7854 307.718 34.4159 308.666 33.9781 309.605C33.7545 310.086 33.5029 310.554 33.2248 311.006C32.9227 311.534 32.5202 311.999 32.0398 312.373C31.8712 312.488 31.6893 312.582 31.4981 312.653C31.2632 312.729 31.0145 312.752 30.7696 312.721C30.5246 312.69 30.2894 312.606 30.0805 312.475C29.9166 312.361 29.764 312.232 29.625 312.089C29.247 311.621 28.953 311.092 28.756 310.524C28.4233 309.548 28.1574 308.55 27.96 307.537C27.7294 306.556 27.5065 305.574 27.3471 304.583C27.1836 303.593 26.9612 302.609 26.8507 301.613C26.283 297.652 25.9231 293.664 25.7724 289.665C25.6056 285.675 25.5595 281.686 25.6343 277.699C25.7667 273.715 25.9267 269.733 26.3234 265.769C26.3036 269.75 26.3059 273.726 26.4501 277.697C26.5437 281.668 26.7296 285.635 27.0497 289.586C27.3944 293.534 27.7423 297.482 28.4079 301.374C28.7434 303.315 29.0607 305.265 29.543 307.167C29.7319 308.106 29.9826 309.032 30.2934 309.938C30.4244 310.311 30.6125 310.661 30.8511 310.977C30.9467 311.059 31.0053 311.102 30.9742 311.074C30.9557 311.09 30.9652 311.062 30.9722 311.076C30.9986 311.056 31.0352 311.044 31.0873 311.01C31.3853 310.761 31.6361 310.46 31.8275 310.123C32.0728 309.728 32.2951 309.321 32.4931 308.901C32.9017 308.04 33.2629 307.135 33.5956 306.215C34.2643 304.376 34.8286 302.482 35.3795 300.584C36.4825 296.785 37.4004 292.923 38.3469 289.066C39.2763 285.205 40.1343 281.323 40.968 277.435C41.8519 273.557 42.6458 269.659 43.4942 265.769Z" fill="black"/>
<path d="M226.744 245.963L228.686 254.348C229.314 257.144 229.957 259.936 230.658 262.709C231.38 265.474 232.051 268.256 232.926 270.946C233.307 272.258 233.82 273.527 234.457 274.735C234.527 274.845 234.605 274.949 234.69 275.048C234.758 275.133 234.824 275.144 234.724 275.11C234.646 275.092 234.565 275.098 234.489 275.125C234.435 275.136 234.401 275.181 234.412 275.164C234.463 275.093 234.506 275.017 234.542 274.937C234.77 274.335 234.929 273.709 235.016 273.071C235.252 271.712 235.367 270.3 235.481 268.872C235.602 267.448 235.711 266.023 235.807 264.597C236.043 261.748 236.149 258.893 236.31 256.038C236.444 253.183 236.501 250.325 236.481 247.464C236.508 244.602 236.423 241.741 236.186 238.88C237.193 244.551 237.663 250.304 237.589 256.063C237.617 258.942 237.517 261.819 237.379 264.693C237.318 266.131 237.206 267.565 237.101 269C236.999 270.43 236.9 271.882 236.655 273.351C236.54 274.134 236.33 274.9 236.031 275.632C235.919 275.88 235.769 276.108 235.585 276.308C235.442 276.457 235.268 276.575 235.076 276.653C234.832 276.747 234.566 276.76 234.314 276.692C233.99 276.594 233.702 276.404 233.485 276.144C233.335 275.972 233.199 275.788 233.078 275.594C232.371 274.267 231.816 272.864 231.426 271.411C230.619 268.617 229.96 265.815 229.415 262.988C228.861 260.165 228.353 257.336 227.89 254.503C227.48 251.659 227.042 248.822 226.744 245.963Z" fill="black"/>
<path d="M121.23 41.2504C122.139 40.6263 123.2 40.2615 124.301 40.195C124.86 40.1497 125.423 40.2027 125.965 40.3519C126.518 40.4909 127.012 40.8063 127.37 41.2504C126.878 41.0975 126.368 41.0104 125.854 40.9915C125.354 40.9706 124.854 40.9816 124.356 41.0246C123.345 41.0802 122.332 41.2305 121.23 41.2504Z" fill="black"/>
<path d="M125.873 45.6428C126.197 45.6316 126.503 45.4952 126.728 45.2624C126.953 45.0296 127.078 44.7186 127.078 44.395C127.078 44.0713 126.953 43.7604 126.728 43.5276C126.503 43.2948 126.197 43.1584 125.873 43.1471C125.55 43.1584 125.243 43.2948 125.018 43.5276C124.794 43.7604 124.668 44.0713 124.668 44.395C124.668 44.7186 124.794 45.0296 125.018 45.2624C125.243 45.4952 125.55 45.6316 125.873 45.6428Z" fill="black"/>
<path d="M95.2137 59.0753C95.3531 60.4142 95.3926 61.7617 95.332 63.1064C95.287 64.4555 95.1476 65.7998 94.915 67.1295C94.6944 68.478 94.2995 69.7922 93.7403 71.039C93.4518 71.6754 93.0596 72.2595 92.5798 72.7674C92.3383 73.0222 92.0417 73.2182 91.7126 73.3403C91.3835 73.4624 91.0308 73.5074 90.6816 73.4718C91.0016 73.4319 91.3094 73.3242 91.5844 73.1557C91.8594 72.9873 92.0952 72.7621 92.2761 72.4952C92.6577 71.9778 92.953 71.4021 93.1505 70.7904C93.5672 69.5482 93.8837 68.2745 94.0969 66.9818C94.3388 65.6843 94.508 64.3697 94.6975 63.0526L95.2137 59.0753Z" fill="black"/>
<path d="M237.976 118.916C238.195 118.595 238.522 118.363 238.898 118.264C239.274 118.164 239.673 118.204 240.022 118.374C240.392 118.551 240.687 118.856 240.851 119.232C240.989 119.602 241.058 119.994 241.055 120.389C241.053 121.939 240.548 123.446 239.616 124.685L239.54 124.174C240.126 124.624 240.604 125.2 240.937 125.86C241.271 126.516 241.461 127.235 241.493 127.97C241.507 128.696 241.392 129.419 241.152 130.105C241.038 130.444 240.874 130.76 240.736 131.087L240.211 132.002L240.246 131.658C240.527 132.466 240.712 133.303 240.8 134.153C240.943 135.046 240.782 135.961 240.345 136.752L240.392 136.576C240.371 137.177 240.284 137.773 240.131 138.354C239.985 138.928 239.775 139.484 239.506 140.011C238.971 141.058 238.176 141.95 237.196 142.6C237.623 142.218 238.007 141.792 238.342 141.328C238.674 140.871 238.945 140.373 239.149 139.846C239.58 138.818 239.792 137.712 239.771 136.597C239.77 136.544 239.782 136.491 239.807 136.444L239.819 136.421C240.116 135.731 240.205 134.969 240.077 134.228C239.978 133.444 239.791 132.674 239.517 131.932C239.498 131.879 239.49 131.823 239.494 131.767C239.498 131.711 239.514 131.656 239.541 131.607L239.552 131.588L240.019 130.733C240.135 130.434 240.28 130.144 240.374 129.84C240.574 129.244 240.682 128.621 240.694 127.992C240.678 127.371 240.531 126.76 240.261 126.201C239.993 125.643 239.606 125.151 239.128 124.758L239.108 124.741C239.035 124.683 238.988 124.598 238.978 124.506C238.967 124.413 238.994 124.32 239.052 124.247C239.952 123.15 240.49 121.801 240.594 120.385C240.613 120.043 240.582 119.699 240.5 119.366C240.397 119.048 240.184 118.778 239.899 118.605C239.592 118.425 239.232 118.358 238.881 118.415C238.53 118.472 238.21 118.649 237.976 118.916Z" fill="black"/>
<path d="M211.196 132.195C212.255 131.74 213.167 130.999 213.829 130.055C214.136 129.601 214.357 129.094 214.48 128.559C214.545 128.294 214.588 128.024 214.608 127.752C214.648 127.469 214.669 127.143 214.723 126.845C214.927 125.632 215.368 124.47 216.022 123.428C216.345 122.906 216.726 122.422 217.158 121.985C217.375 121.762 217.615 121.562 217.875 121.389C218.142 121.178 218.469 121.057 218.81 121.043L218.823 121.043C218.86 121.044 218.895 121.057 218.923 121.082C218.951 121.106 218.969 121.139 218.975 121.176C219.055 121.7 219.15 122.223 219.21 122.76C219.003 122.264 218.831 121.756 218.645 121.248L218.81 121.38C218.319 121.595 217.899 121.942 217.597 122.384C217.246 122.83 216.934 123.304 216.663 123.802C216.125 124.8 215.741 125.873 215.526 126.986C215.471 127.267 215.45 127.532 215.403 127.832C215.364 128.146 215.298 128.457 215.203 128.759C215.028 129.369 214.725 129.936 214.315 130.42C213.515 131.359 212.412 131.987 211.196 132.195Z" fill="black"/>
<path d="M228.298 133.294C228.676 133.607 229.02 133.958 229.326 134.341C229.601 134.703 229.927 135.023 230.295 135.291C230.164 135.369 230.017 135.417 229.866 135.432C229.714 135.448 229.561 135.43 229.417 135.38C229.134 135.281 228.883 135.107 228.691 134.878C228.505 134.664 228.372 134.409 228.304 134.133C228.235 133.858 228.233 133.57 228.298 133.294Z" fill="black"/>
<path d="M231.993 137.188C232.345 137.684 232.55 138.077 232.79 138.454C233.012 138.844 233.255 139.163 233.59 139.684C233.288 139.712 232.984 139.651 232.716 139.51C232.447 139.368 232.226 139.151 232.079 138.885C231.917 138.635 231.824 138.346 231.809 138.048C231.794 137.75 231.857 137.453 231.993 137.188Z" fill="black"/>
<path d="M231.395 132.795L239.379 123.823C239.453 123.741 239.556 123.691 239.666 123.685C239.776 123.679 239.884 123.716 239.966 123.79C240.048 123.863 240.098 123.966 240.105 124.076C240.111 124.186 240.074 124.294 240.001 124.376L239.982 124.397L231.395 132.795Z" fill="black"/>
<path d="M235.536 135.291L239.618 131.473C239.699 131.397 239.806 131.357 239.917 131.36C240.027 131.364 240.132 131.412 240.208 131.492C240.283 131.573 240.324 131.681 240.32 131.791C240.316 131.902 240.269 132.006 240.188 132.082C240.173 132.096 240.157 132.109 240.14 132.121L235.536 135.291Z" fill="black"/>
<path d="M237.283 138.435C237.554 137.916 237.957 137.478 238.451 137.165C238.933 136.831 239.494 136.632 240.078 136.589C239.809 137.109 239.406 137.548 238.91 137.859C238.428 138.191 237.867 138.39 237.283 138.435Z" fill="black"/>
<path d="M240.374 135.284C240.422 135.091 240.598 135.116 240.696 135.131L240.946 135.249C241.1 135.34 241.229 135.451 241.373 135.552C241.639 135.769 241.885 136.004 242.138 136.235C242.611 136.721 243.086 137.21 243.525 137.724C244.432 138.733 245.279 139.786 246.132 140.836C247.813 142.954 249.421 145.126 251.009 147.309C254.219 151.655 257.193 156.16 260.222 160.626C261.73 162.863 263.189 165.133 264.637 167.409C266.094 169.678 267.525 171.965 268.929 174.269C271.766 178.854 274.512 183.498 277.415 188.042C280.256 192.626 283.225 197.127 286.127 201.676C287.595 203.94 289.035 206.226 290.447 208.533C291.12 209.711 291.845 210.853 292.452 212.083C292.784 212.687 293.083 213.307 293.349 213.942C293.483 214.263 293.63 214.577 293.753 214.905L294.058 215.935C294.16 216.289 294.225 216.653 294.251 217.021C294.28 217.207 294.297 217.394 294.303 217.581L294.256 218.16C294.23 218.545 294.148 218.924 294.011 219.284C293.899 219.638 293.753 219.979 293.576 220.304C292.929 221.572 292.087 222.731 291.081 223.737C289.109 225.636 286.998 227.385 284.765 228.97C280.377 232.174 275.842 235.116 271.165 237.863L271.576 236.956C271.923 238.876 272.203 240.781 272.399 242.725C272.487 243.698 272.571 244.67 272.572 245.672C272.58 246.184 272.558 246.696 272.505 247.205C272.466 247.806 272.304 248.392 272.029 248.928C271.878 249.154 271.668 249.333 271.421 249.446C271.276 249.517 271.126 249.578 270.973 249.627C270.715 249.707 270.454 249.774 270.189 249.825C269.684 249.928 269.194 249.996 268.704 250.057C267.728 250.173 266.761 250.249 265.796 250.311C263.865 250.433 261.941 250.498 260.019 250.544C256.173 250.648 252.332 250.59 248.494 250.544C244.655 250.497 240.818 250.332 236.983 250.179C236.972 250.179 236.962 250.176 236.952 250.172C236.942 250.167 236.933 250.161 236.925 250.153C236.918 250.144 236.912 250.135 236.908 250.125C236.905 250.114 236.903 250.104 236.903 250.093C236.905 250.071 236.914 250.052 236.929 250.037C236.944 250.022 236.964 250.014 236.985 250.013L248.487 249.677C252.319 249.571 256.148 249.391 259.969 249.214C261.878 249.116 263.787 248.998 265.68 248.826C266.626 248.739 267.57 248.638 268.495 248.502C268.955 248.432 269.414 248.354 269.846 248.254C270.05 248.208 270.253 248.152 270.451 248.084C270.525 248.059 270.598 248.028 270.667 247.991C270.739 247.97 270.71 247.925 270.62 248.073C270.746 247.737 270.822 247.384 270.846 247.027C270.889 246.581 270.905 246.134 270.895 245.687C270.889 244.77 270.803 243.83 270.712 242.894C270.514 241.023 270.224 239.132 269.878 237.281C269.846 237.107 269.867 236.928 269.939 236.767C270.01 236.606 270.129 236.47 270.28 236.378L270.29 236.372C274.87 233.593 279.44 230.737 283.816 227.657C286.006 226.153 288.081 224.489 290.026 222.679C290.955 221.803 291.739 220.785 292.348 219.662C292.653 219.15 292.851 218.582 292.931 217.992C293.012 217.402 292.973 216.802 292.816 216.227C292.026 213.708 290.951 211.287 289.612 209.012C288.31 206.662 286.942 204.342 285.561 202.029C282.757 197.427 279.875 192.872 276.914 188.364C273.991 183.833 270.908 179.405 267.92 174.916C266.402 172.687 264.909 170.443 263.441 168.184C261.971 165.926 260.448 163.703 259.01 161.425L254.591 154.659L250.118 147.932C248.632 145.686 247.096 143.476 245.546 141.277C244.767 140.182 243.993 139.08 243.162 138.027C242.76 137.487 242.321 136.984 241.893 136.467C241.668 136.224 241.445 135.972 241.209 135.743C241.085 135.64 240.965 135.519 240.837 135.428L240.639 135.31L240.54 135.298C240.539 135.309 240.536 135.319 240.531 135.329C240.526 135.339 240.519 135.347 240.511 135.354C240.502 135.361 240.493 135.367 240.482 135.37C240.472 135.373 240.461 135.375 240.45 135.374C240.439 135.373 240.428 135.37 240.419 135.365C240.409 135.36 240.4 135.353 240.393 135.344C240.386 135.336 240.381 135.326 240.378 135.316C240.374 135.306 240.373 135.295 240.374 135.284L240.374 135.284Z" fill="black"/>
<path d="M241.615 217.538C245.974 223.652 249.896 230.018 253.713 236.449L256.521 241.304L257.185 242.487C257.136 242.4 257.06 242.331 256.968 242.292C256.861 242.256 256.919 242.266 256.884 242.256C256.846 242.248 256.826 242.259 256.876 242.253C256.952 242.253 257.028 242.246 257.102 242.231C257.307 242.197 257.509 242.151 257.708 242.094C258.555 241.858 259.433 241.541 260.3 241.227C263.765 239.906 267.232 238.481 270.727 237.118C267.526 239.089 264.208 240.862 260.792 242.429C259.922 242.836 259.03 243.191 258.119 243.493C257.872 243.574 257.62 243.642 257.365 243.695C257.211 243.729 257.054 243.749 256.896 243.755C256.777 243.764 256.657 243.754 256.541 243.726C256.453 243.714 256.368 243.687 256.29 243.645C256.152 243.57 256.031 243.467 255.934 243.343L255.169 242.114L252.285 237.301C248.513 230.84 244.846 224.315 241.615 217.538Z" fill="black"/>
<path d="M252.887 282.467C254.376 283.827 255.505 285.535 256.173 287.438C252.361 288.628 238.102 289.049 236.986 281.046C236.696 278.678 236.696 276.284 236.986 273.916C238.913 274.622 240.787 275.401 242.651 276.212C244.5 277.018 246.304 277.925 248.054 278.929C249.797 279.917 251.419 281.104 252.887 282.467Z" fill="black"/>
<path d="M306.478 279.403H306.467C305.657 279.645 304.856 279.803 304.056 280.035C303.277 280.298 302.476 280.477 301.718 280.782C298.635 281.809 295.82 283.515 293.483 285.774C292.306 286.919 291.296 288.223 290.482 289.649C295.168 289.871 299.391 289.67 301.476 288.628C305.457 286.637 314.629 283.636 306.478 279.403ZM296.769 281.92C298.241 281.063 299.826 280.415 301.476 279.993C302.296 279.793 303.125 279.635 303.961 279.519C304.803 279.466 305.625 279.414 306.467 279.403C303.27 277.897 299.924 276.729 296.484 275.917C273.328 269.799 262.133 249.791 262.133 249.791H238.387C239.24 260.385 237.586 267.693 236.986 273.916C239.019 274.241 241.018 274.752 242.957 275.443C244.906 276.132 246.788 276.996 248.581 278.023C250.401 279.058 252.053 280.364 253.477 281.899C254.93 283.42 255.873 285.356 256.173 287.438C259.985 286.237 268.652 286.869 274.318 287.828C279.666 288.748 285.063 289.357 290.482 289.649C290.948 288.017 291.768 286.507 292.883 285.226C293.993 283.924 295.305 282.808 296.769 281.92ZM240.577 261.48C240.205 259.843 240.028 258.167 240.051 256.488C240.033 254.81 240.21 253.135 240.577 251.497C240.95 253.134 241.127 254.81 241.104 256.488C241.132 258.167 240.955 259.844 240.577 261.48ZM243.526 263.46C242.824 260.169 242.824 256.767 243.526 253.477C244.228 256.767 244.228 260.169 243.526 263.46ZM246.58 262.396C246.202 260.76 246.025 259.083 246.053 257.404C246.03 255.726 246.207 254.05 246.58 252.413C247.282 255.704 247.282 259.105 246.58 262.396ZM250.466 263.46C249.764 260.169 249.764 256.767 250.466 253.477C251.168 256.767 251.168 260.169 250.466 263.46ZM253.603 261.48C252.901 258.189 252.901 254.788 253.603 251.497C254.305 254.788 254.305 258.189 253.603 261.48ZM257.5 262.396C257.122 260.76 256.945 259.083 256.973 257.404C256.956 255.726 257.132 254.051 257.5 252.413C257.868 254.051 258.044 255.726 258.027 257.404C258.049 259.083 257.873 260.759 257.5 262.396V262.396ZM261.238 262.396C260.55 259.104 260.55 255.705 261.238 252.413C261.94 255.704 261.94 259.105 261.238 262.396Z" fill="black"/>
<path d="M300.654 254.361C298.733 254.11 296.791 254.075 294.862 254.256C292.918 254.433 290.984 254.714 289.07 255.098C287.143 255.498 285.237 255.92 283.31 256.436C284.397 258.47 285.727 260.365 287.27 262.08C292.608 267.798 303.676 259.532 306.025 256.457C304.432 255.33 302.588 254.611 300.654 254.361ZM341.408 222.095C340.913 222.748 340.355 223.317 339.86 223.938C339.386 224.591 338.849 225.181 338.417 225.844C337.962 226.486 337.541 227.15 337.153 227.834C336.752 228.505 336.39 229.197 336.068 229.909C335.443 231.342 334.977 232.839 334.679 234.374C334.38 235.935 334.302 237.53 334.447 239.113C333.896 237.561 333.698 235.906 333.868 234.269C334.022 232.619 334.442 231.004 335.11 229.488C335.8 227.987 336.697 226.59 337.774 225.339C338.308 224.723 338.878 224.139 339.481 223.591C340.112 223.075 340.755 222.569 341.408 222.095C338.038 222.689 334.739 223.627 331.562 224.897C309.805 232.942 289.797 223.317 289.797 223.317L270.979 236.533C277.56 244.462 280.319 251.16 283.3 256.436H283.31C285.094 255.547 286.959 254.835 288.881 254.308C290.807 253.759 292.782 253.392 294.778 253.213C296.795 253.019 298.83 253.136 300.812 253.561C302.81 253.957 304.633 254.97 306.025 256.457C308.384 253.392 315.597 249.064 320.631 246.674C327.002 243.641 340.207 236.617 342.587 232.194C344.63 228.403 350.232 220.916 341.408 222.095V222.095ZM276.012 240.924C275.062 239.601 274.274 238.169 273.664 236.659C274.881 237.741 275.959 238.968 276.876 240.313C277.834 241.631 278.623 243.064 279.224 244.578C278.013 243.491 276.935 242.264 276.012 240.924ZM279.456 240.85C278.504 239.529 277.716 238.097 277.108 236.585C278.318 237.673 279.397 238.899 280.319 240.24C281.269 241.559 282.058 242.987 282.668 244.494C281.449 243.418 280.37 242.194 279.456 240.85ZM281.278 238.313C280.33 236.988 279.542 235.557 278.929 234.048C280.143 235.132 281.221 236.359 282.141 237.702C283.095 239.018 283.884 240.447 284.489 241.956C283.274 240.878 282.195 239.654 281.278 238.313ZM284.942 236.986C283.992 235.669 283.207 234.24 282.604 232.731C285.002 234.937 286.895 237.635 288.154 240.64C286.941 239.555 285.863 238.328 284.942 236.986H284.942ZM286.343 233.669C285.385 232.354 284.596 230.925 283.995 229.414C286.392 231.62 288.285 234.318 289.544 237.323C288.332 236.24 287.256 235.013 286.343 233.668L286.343 233.669ZM289.934 232.226C288.98 230.909 288.191 229.48 287.586 227.971C289.991 230.173 291.888 232.872 293.146 235.88C291.924 234.803 290.845 233.575 289.934 232.226L289.934 232.226ZM292.904 230.141C291.946 228.827 291.157 227.397 290.555 225.886C291.766 226.971 292.84 228.198 293.757 229.54C294.714 230.855 295.503 232.284 296.105 233.795C294.89 232.715 293.814 231.488 292.904 230.141H292.904Z" fill="black"/>
<path d="M108.186 55.4209C106.422 55.4232 104.713 54.8044 103.359 53.673C102.004 52.5417 101.092 50.9699 100.78 49.233C100.469 47.4962 100.778 45.7051 101.655 44.1737C102.531 42.6422 103.919 41.4681 105.574 40.857C105.239 35.3798 105.108 27.9477 106.319 23.0619C106.332 23.0089 106.355 22.959 106.388 22.915C106.42 22.871 106.461 22.8339 106.507 22.8057C106.554 22.7775 106.606 22.7587 106.66 22.7505C106.714 22.7423 106.769 22.7449 106.822 22.758C106.875 22.7711 106.925 22.7945 106.969 22.8269C107.013 22.8593 107.05 22.9 107.078 22.9467C107.107 22.9935 107.125 23.0453 107.133 23.0993C107.142 23.1533 107.139 23.2084 107.126 23.2614C105.943 28.0392 106.072 35.3654 106.403 40.7809C106.462 40.8284 106.507 40.8912 106.534 40.9625C106.56 41.0338 106.566 41.1109 106.551 41.1854C106.537 41.26 106.502 41.3292 106.451 41.3855C106.4 41.4418 106.335 41.483 106.262 41.5049C104.694 41.9795 103.355 43.0146 102.5 44.413C101.646 45.8113 101.336 47.4752 101.63 49.0873C101.923 50.6995 102.8 52.1474 104.092 53.1549C105.384 54.1625 107.002 54.6593 108.637 54.5507C110.272 54.4421 111.81 53.7357 112.958 52.566C114.106 51.3964 114.783 49.8454 114.861 48.2086C114.938 46.5717 114.411 44.9635 113.379 43.6904C112.348 42.4173 110.883 41.5684 109.266 41.3053C109.173 41.29 109.089 41.2437 109.026 41.1741C108.963 41.1044 108.925 41.0155 108.919 40.9218C108.469 33.9175 108.658 26.1933 109.368 22.5559C109.378 22.5023 109.399 22.4512 109.429 22.4056C109.459 22.36 109.498 22.3208 109.543 22.2902C109.589 22.2596 109.639 22.2382 109.693 22.2273C109.747 22.2163 109.802 22.2161 109.855 22.2265C109.909 22.2369 109.96 22.2578 110.006 22.2879C110.051 22.3181 110.09 22.3569 110.121 22.4022C110.152 22.4475 110.173 22.4984 110.184 22.5519C110.195 22.6055 110.195 22.6606 110.184 22.7143C109.497 26.2365 109.309 33.6912 109.729 40.5464C111.548 40.9288 113.161 41.9716 114.256 43.4734C115.352 44.9753 115.852 46.8298 115.66 48.6787C115.468 50.5277 114.598 52.2401 113.218 53.4852C111.838 54.7304 110.045 55.42 108.186 55.4209H108.186Z" fill="black"/>
<path d="M106.722 23.5781C106.688 23.578 106.654 23.5739 106.622 23.5657C106.515 23.5391 106.422 23.4711 106.366 23.3766C106.309 23.2821 106.291 23.1689 106.318 23.0618C106.965 20.4354 107.906 18.8547 109.193 18.2274C112.119 16.8103 114.385 20.6143 115.353 22.2412C115.453 22.4088 115.537 22.5507 115.604 22.6546C115.665 22.7292 115.698 22.8225 115.699 22.9189C115.699 23.0292 115.655 23.1349 115.577 23.2128C115.499 23.2907 115.393 23.3344 115.283 23.3344H111.281C111.211 23.3345 111.142 23.3168 111.08 23.283C111.019 23.2491 110.967 23.2003 110.93 23.1411C110.837 23.0063 110.761 22.861 110.702 22.7081C110.656 22.595 110.622 22.5127 110.555 22.3626C110.54 22.3321 110.516 22.3068 110.487 22.2901C110.458 22.2734 110.424 22.266 110.39 22.269C110.354 22.2716 110.321 22.2861 110.294 22.3101C110.267 22.3342 110.25 22.3664 110.244 22.4017L110.184 22.7092C110.164 22.8172 110.102 22.9127 110.011 22.9754C109.921 23.0381 109.809 23.0628 109.701 23.0444C109.647 23.0347 109.596 23.0145 109.55 22.985C109.504 22.9555 109.464 22.9171 109.433 22.8722C109.402 22.8274 109.38 22.7768 109.369 22.7234C109.357 22.67 109.356 22.6148 109.366 22.561L109.425 22.2536C109.463 22.0449 109.567 21.8539 109.721 21.7082C109.875 21.5626 110.072 21.4699 110.282 21.4438C110.493 21.4176 110.706 21.4593 110.891 21.5628C111.076 21.6663 111.224 21.8261 111.312 22.0191C111.387 22.1836 111.424 22.2741 111.451 22.342C111.477 22.4078 111.497 22.4551 111.52 22.5035H114.54C113.642 20.9989 111.717 17.9271 109.557 18.9761C108.52 19.48 107.702 20.9218 107.125 23.2614C107.103 23.3516 107.051 23.4318 106.978 23.4892C106.905 23.5466 106.815 23.5779 106.722 23.5781Z" fill="black"/>
<path d="M250.461 1.71252V99.3525H374.048V1.71252H250.461ZM367.793 92.4654H256.716V8.61002H367.793V92.4654Z" fill="black"/>
<path d="M268.183 16.9914L268.356 31.6665L268.131 31.4407L288.796 31.2863L288.415 31.6665L288.373 19.3875C288.372 19.3321 288.383 19.2772 288.404 19.226C288.425 19.1747 288.456 19.1281 288.495 19.0888C288.534 19.0495 288.58 19.0183 288.631 18.9969C288.682 18.9756 288.737 18.9645 288.793 18.9643H288.796L302.872 18.924C302.994 18.9238 303.112 18.9722 303.199 19.0586C303.286 19.145 303.335 19.2624 303.335 19.3849V19.3875L303.305 40.6512C303.306 40.7077 303.295 40.7638 303.274 40.8162C303.252 40.8686 303.221 40.9163 303.181 40.9565C303.142 40.9968 303.094 41.0289 303.042 41.0509C302.99 41.0729 302.934 41.0844 302.878 41.0848H302.872L280.111 40.9181L280.377 40.6514L280.314 50.5344L280.111 50.3313L296.582 50.3716C296.625 50.3718 296.666 50.3886 296.696 50.4182C296.726 50.4479 296.744 50.4882 296.745 50.5307L297.094 62.8084L296.882 62.6019L310.359 62.5481C310.429 62.5483 310.497 62.5764 310.547 62.6262C310.596 62.6759 310.625 62.7434 310.625 62.8139L310.686 75.3924C310.687 75.4352 310.678 75.4776 310.662 75.5172C310.646 75.5568 310.622 75.5929 310.592 75.6233C310.562 75.6537 310.526 75.6778 310.487 75.6944C310.447 75.711 310.405 75.7196 310.362 75.7198H310.359L268.131 75.9093C267.994 75.9099 267.863 75.8562 267.766 75.7602C267.669 75.6641 267.615 75.5335 267.614 75.397V75.3924C267.572 64.5108 267.563 53.6293 267.588 42.7479C267.588 42.6039 267.645 42.4659 267.747 42.3641C267.849 42.2622 267.987 42.205 268.131 42.2048L274.121 42.2109C274.191 42.2108 274.261 42.2247 274.326 42.2517C274.391 42.2787 274.45 42.3182 274.5 42.3681C274.55 42.418 274.59 42.4772 274.617 42.5424C274.644 42.6075 274.658 42.6774 274.658 42.7479C274.665 51.1336 274.613 59.5193 274.559 67.905L274.121 67.4663L285.501 67.5337L285.13 67.905L285.188 58.022C285.189 57.9391 285.222 57.8597 285.281 57.8011C285.339 57.7425 285.418 57.7095 285.501 57.7091L292.09 57.7481C292.162 57.7475 292.231 57.7755 292.283 57.826C292.334 57.8766 292.363 57.9454 292.364 58.0175V58.022L292.269 69.4024L292.09 69.2239L303.471 69.35C303.485 69.35 303.498 69.3555 303.508 69.3654C303.518 69.3753 303.523 69.3887 303.523 69.4026C303.523 69.4166 303.518 69.43 303.508 69.4399C303.498 69.4497 303.485 69.4553 303.471 69.4553L292.09 69.5813C292.067 69.5816 292.044 69.5773 292.022 69.5686C292.001 69.56 291.981 69.5472 291.965 69.5309C291.948 69.5147 291.935 69.4953 291.926 69.474C291.917 69.4526 291.912 69.4297 291.912 69.4065V69.4025L291.816 58.022L292.09 58.2957L285.501 58.3348L285.814 58.022L285.873 67.905C285.872 68.0034 285.833 68.0977 285.763 68.1673C285.694 68.2369 285.6 68.2762 285.501 68.2767L274.121 68.3441C274.063 68.3444 274.007 68.3335 273.954 68.3119C273.9 68.2903 273.852 68.2584 273.811 68.2182C273.771 68.1779 273.738 68.13 273.716 68.0772C273.694 68.0243 273.682 67.9677 273.682 67.9104V67.9051C273.628 59.5194 273.576 51.1337 273.584 42.748L274.121 43.2849L268.131 43.2909L268.674 42.748C268.698 53.6295 268.689 64.5109 268.647 75.3925L268.131 74.8757L310.359 75.0652L310.032 75.3925L310.094 62.8139L310.359 63.0795L296.882 63.0258C296.827 63.0256 296.774 63.0038 296.734 62.9652C296.695 62.9266 296.672 62.8742 296.67 62.819L296.419 50.5388L296.582 50.6977L280.111 50.738C280.057 50.7379 280.005 50.7164 279.967 50.6783C279.929 50.6402 279.907 50.5885 279.907 50.5346L279.844 40.6516C279.844 40.5809 279.872 40.5132 279.922 40.4632C279.972 40.4133 280.04 40.385 280.111 40.3847L302.872 40.218L302.438 40.6513L302.408 19.3876L302.872 19.8509L288.796 19.8107L289.219 19.3876L289.176 31.6666C289.177 31.7668 289.138 31.8631 289.067 31.9344C288.997 32.0058 288.901 32.0463 288.801 32.047H288.795L268.131 31.8926C268.071 31.8933 268.014 31.8704 267.972 31.829C267.93 31.7876 267.905 31.7311 267.905 31.6719L267.905 31.6666L268.078 16.9916C268.078 16.9776 268.084 16.9642 268.093 16.9543C268.103 16.9445 268.117 16.9389 268.131 16.9389C268.145 16.9389 268.158 16.9445 268.168 16.9543C268.178 16.9642 268.183 16.9776 268.183 16.9916L268.183 16.9914Z" fill="black"/>
<path d="M277.962 26.1259C277.865 24.0795 277.791 22.033 277.739 19.9865C277.698 17.9399 277.63 15.8934 277.611 13.8469C277.611 13.7944 277.621 13.7424 277.64 13.6937C277.66 13.645 277.689 13.6006 277.726 13.5631C277.762 13.5257 277.806 13.4958 277.855 13.4753C277.903 13.4547 277.955 13.4439 278.007 13.4434H278.015L285.876 13.376C288.497 13.3957 291.118 13.4037 293.738 13.4845C296.359 13.5355 298.979 13.6395 301.6 13.6532C304.22 13.6954 306.841 13.687 309.461 13.6575C309.511 13.657 309.558 13.676 309.594 13.7104C309.629 13.7448 309.65 13.7918 309.651 13.8412V13.8469L309.939 29.7948L310.008 37.7685C310.034 40.4265 310 43.0845 309.999 45.7425C309.999 45.8131 309.985 45.883 309.958 45.9483C309.931 46.0135 309.892 46.0728 309.842 46.1228C309.792 46.1727 309.732 46.2123 309.667 46.2393C309.602 46.2663 309.532 46.2802 309.461 46.2802C305.618 46.2896 301.775 46.1906 297.931 46.1419C294.087 46.0578 290.244 45.9515 286.4 45.7953C286.387 45.7947 286.374 45.7889 286.365 45.7791C286.355 45.7693 286.35 45.7562 286.35 45.7426C286.35 45.729 286.355 45.716 286.365 45.7062C286.374 45.6963 286.387 45.6905 286.4 45.6899C290.244 45.5337 294.087 45.4276 297.931 45.3434C301.775 45.2946 305.618 45.1956 309.461 45.205L308.924 45.7425C308.923 43.0845 308.889 40.4265 308.914 37.7685L308.984 29.7948L309.272 13.8469L309.461 14.036C306.841 14.0065 304.22 13.9981 301.6 14.0403C298.979 14.054 296.359 14.158 293.738 14.209C291.118 14.2898 288.497 14.2978 285.877 14.3175L278.015 14.2501L278.418 13.8468C278.399 15.8933 278.331 17.9398 278.29 19.9864C278.238 22.0328 278.164 24.0793 278.068 26.1258C278.067 26.1393 278.061 26.1521 278.051 26.1614C278.041 26.1708 278.028 26.176 278.015 26.176C278.001 26.176 277.988 26.1708 277.978 26.1614C277.969 26.1521 277.963 26.1393 277.962 26.1258L277.962 26.1259Z" fill="black"/>
<path d="M268.131 36.4585C270.389 36.3247 272.648 36.2113 274.907 36.1523C277.165 36.0969 279.424 36.0049 281.683 35.9871C286.2 35.9172 290.717 35.9157 295.235 35.9826L294.759 36.4584C294.778 34.1622 294.864 31.8662 294.924 29.5701C294.98 27.274 295.1 24.9779 295.235 22.6818C295.37 24.9779 295.49 27.274 295.545 29.5701C295.606 31.8662 295.692 34.1622 295.711 36.4584C295.712 36.583 295.664 36.7031 295.576 36.7923C295.489 36.8814 295.37 36.9325 295.246 36.9342L295.235 36.9344C290.718 36.9989 286.2 36.9974 281.683 36.9299C279.424 36.912 277.165 36.8201 274.907 36.7645C272.648 36.7057 270.389 36.5923 268.131 36.4585Z" fill="black"/>
<path d="M279.662 64.0118C279.291 62.3914 279.114 60.7324 279.136 59.0702C279.112 57.4078 279.289 55.7486 279.662 54.1285C280.036 55.7486 280.213 57.4078 280.188 59.0702C280.21 60.7324 280.034 62.3914 279.662 64.0118Z" fill="black"/>
<path d="M270.826 13.8995L262.44 14.0785L262.672 13.8469C262.747 19.4499 262.846 25.0527 262.858 30.6558C262.883 36.2588 262.936 41.8618 262.89 47.4647C262.884 53.0676 262.763 58.6706 262.701 64.2736C262.624 69.8766 262.594 75.4796 262.612 81.0825L262.44 80.9112C270.743 80.9058 279.046 80.7543 287.348 80.6896C295.651 80.5832 303.954 80.5746 312.256 80.528C312.329 80.5275 312.401 80.5414 312.468 80.5687C312.535 80.5961 312.596 80.6364 312.647 80.6873C312.699 80.7383 312.74 80.7989 312.768 80.8657C312.796 80.9325 312.811 81.0042 312.811 81.0766V81.0828L312.808 86.4734C312.808 86.6195 312.751 86.7596 312.647 86.863C312.544 86.9665 312.404 87.0247 312.258 87.025H312.256L299.802 87.0023L287.348 86.8796L274.894 86.7462C270.743 86.7208 266.592 86.5972 262.44 86.5263C262.426 86.5263 262.413 86.5207 262.403 86.5108C262.393 86.501 262.388 86.4876 262.388 86.4736C262.388 86.4597 262.393 86.4463 262.403 86.4364C262.413 86.4265 262.426 86.421 262.44 86.421C266.592 86.35 270.743 86.2265 274.894 86.201L287.348 86.0675L299.802 85.9448L312.256 85.9222L311.705 86.4735L311.702 81.0829L312.256 81.6375C303.954 81.5908 295.651 81.5822 287.348 81.4759C279.046 81.4112 270.743 81.2597 262.44 81.2543C262.395 81.2544 262.351 81.2365 262.319 81.2046C262.287 81.1726 262.269 81.1292 262.269 81.0838V81.0826C262.288 75.4797 262.258 69.8767 262.179 64.2738C262.117 58.6707 261.997 53.0677 261.991 47.4649C261.945 41.8619 261.997 36.2588 262.023 30.6559C262.035 25.0529 262.134 19.45 262.208 13.847L262.209 13.8389C262.209 13.8091 262.215 13.7797 262.227 13.7523C262.239 13.7249 262.256 13.7001 262.277 13.6793C262.299 13.6586 262.324 13.6422 262.351 13.6312C262.379 13.6201 262.409 13.6147 262.439 13.6151H262.44L270.826 13.7941C270.84 13.7944 270.853 13.8 270.863 13.8099C270.872 13.8198 270.878 13.833 270.878 13.8468C270.878 13.8606 270.872 13.8739 270.863 13.8837C270.853 13.8936 270.84 13.8992 270.826 13.8995H270.826Z" fill="black"/>
<path d="M273.123 24.461C273.533 24.4468 273.921 24.2742 274.206 23.9795C274.49 23.6848 274.649 23.2911 274.649 22.8814C274.649 22.4717 274.49 22.078 274.206 21.7833C273.921 21.4886 273.533 21.316 273.123 21.3018C272.714 21.316 272.326 21.4886 272.041 21.7833C271.757 22.078 271.598 22.4717 271.598 22.8814C271.598 23.2911 271.757 23.6848 272.041 23.9795C272.326 24.2742 272.714 24.4468 273.123 24.461Z" fill="black"/>
<path d="M299.079 37.0398C299.488 37.0256 299.876 36.853 300.161 36.5583C300.445 36.2636 300.604 35.8699 300.604 35.4602C300.604 35.0505 300.445 34.6568 300.161 34.3621C299.876 34.0674 299.488 33.8948 299.079 33.8806C298.669 33.8948 298.281 34.0674 297.996 34.3621C297.712 34.6568 297.553 35.0505 297.553 35.4602C297.553 35.8699 297.712 36.2636 297.996 36.5583C298.281 36.853 298.669 37.0256 299.079 37.0398Z" fill="black"/>
<path d="M273.123 73.3782C273.533 73.364 273.921 73.1914 274.206 72.8967C274.49 72.602 274.649 72.2083 274.649 71.7986C274.649 71.3889 274.49 70.9952 274.206 70.7005C273.921 70.4058 273.533 70.2332 273.123 70.219C272.714 70.2332 272.326 70.4058 272.041 70.7005C271.757 70.9952 271.598 71.3889 271.598 71.7986C271.598 72.2083 271.757 72.602 272.041 72.8967C272.326 73.1914 272.714 73.364 273.123 73.3782Z" fill="black"/>
<path d="M278.713 73.3782C279.123 73.364 279.511 73.1914 279.795 72.8967C280.08 72.602 280.239 72.2083 280.239 71.7986C280.239 71.3889 280.08 70.9952 279.795 70.7005C279.511 70.4058 279.123 70.2332 278.713 70.219C278.304 70.2332 277.916 70.4058 277.631 70.7005C277.347 70.9952 277.188 71.3889 277.188 71.7986C277.188 72.2083 277.347 72.602 277.631 72.8967C277.916 73.1914 278.304 73.364 278.713 73.3782Z" fill="black"/>
<path d="M259.545 26.857C259.955 26.8428 260.343 26.6702 260.627 26.3755C260.912 26.0808 261.071 25.6871 261.071 25.2774C261.071 24.8677 260.912 24.474 260.627 24.1793C260.343 23.8846 259.955 23.712 259.545 23.6978C259.136 23.712 258.748 23.8846 258.463 24.1793C258.179 24.474 258.02 24.8677 258.02 25.2774C258.02 25.6871 258.179 26.0808 258.463 26.3755C258.748 26.6702 259.136 26.8428 259.545 26.857Z" fill="black"/>
<path d="M312.257 48.6201C312.667 48.6059 313.055 48.4333 313.339 48.1386C313.624 47.8439 313.783 47.4502 313.783 47.0405C313.783 46.6308 313.624 46.2371 313.339 45.9424C313.055 45.6478 312.667 45.4751 312.257 45.4609C311.848 45.4751 311.46 45.6478 311.175 45.9424C310.891 46.2371 310.731 46.6308 310.731 47.0405C310.731 47.4502 310.891 47.8439 311.175 48.1386C311.46 48.4333 311.848 48.6059 312.257 48.6201Z" fill="black"/>
<path d="M312.755 78.9686C313.165 78.9544 313.553 78.7818 313.837 78.4871C314.122 78.1924 314.281 77.7987 314.281 77.389C314.281 76.9793 314.122 76.5856 313.837 76.2909C313.553 75.9962 313.165 75.8236 312.755 75.8094C312.346 75.8236 311.958 75.9962 311.673 76.2909C311.389 76.5856 311.229 76.9793 311.229 77.389C311.229 77.7987 311.389 78.1924 311.673 78.4871C311.958 78.7818 312.346 78.9544 312.755 78.9686Z" fill="black"/>
<path d="M282.707 17.8899C283.078 19.3919 283.255 20.9352 283.233 22.4821C283.257 24.0292 283.08 25.5728 282.707 27.0744C282.334 25.5728 282.157 24.0292 282.181 22.4821C282.159 20.9352 282.336 19.3919 282.707 17.8899Z" fill="black"/>
<path d="M301.728 50.5345C301.911 53.0303 301.986 55.5261 302.069 58.0218L301.675 57.6281C304.005 57.606 306.334 57.5373 308.664 57.5535C310.993 57.5669 313.322 57.6857 315.651 57.7643L315.394 58.0218C315.545 54.3405 315.504 50.6592 315.373 46.978C315.228 43.2968 315.164 39.6156 315.123 35.9342C315.059 32.253 315.076 28.5718 315.174 24.8906C315.25 21.2092 315.37 17.528 315.599 13.8468C315.6 13.8334 315.606 13.8208 315.615 13.8116C315.625 13.8024 315.638 13.7973 315.652 13.7973C315.665 13.7973 315.678 13.8024 315.688 13.8116C315.698 13.8208 315.704 13.8334 315.704 13.8468C315.933 17.528 316.054 21.2092 316.13 24.8906C316.223 28.5718 316.24 32.253 316.18 35.9342C316.139 39.6156 316.076 43.2968 315.931 46.978C315.799 50.6592 315.759 54.3405 315.909 58.0218C315.912 58.0873 315.888 58.1511 315.844 58.1992C315.8 58.2474 315.738 58.276 315.672 58.2787L315.671 58.2788L315.651 58.2794C313.322 58.3581 310.993 58.4767 308.664 58.4902C306.334 58.5063 304.005 58.4378 301.675 58.4157L301.659 58.4154C301.609 58.415 301.559 58.4046 301.513 58.3851C301.467 58.3655 301.425 58.337 301.39 58.3013C301.355 58.2656 301.328 58.2233 301.309 58.1769C301.29 58.1305 301.281 58.0809 301.281 58.0308L301.282 58.0218C301.365 55.5261 301.439 53.0303 301.623 50.5345C301.624 50.5213 301.63 50.5089 301.639 50.4998C301.649 50.4907 301.662 50.4857 301.675 50.4857C301.689 50.4857 301.701 50.4907 301.711 50.4998C301.721 50.5089 301.727 50.5213 301.728 50.5345H301.728Z" fill="black"/>
<path d="M305.268 52.2317C306.395 51.8631 307.576 51.6853 308.762 51.7055C309.948 51.683 311.13 51.8609 312.257 52.2317C311.13 52.6024 309.948 52.7804 308.762 52.7579C307.576 52.7781 306.395 52.6003 305.268 52.2317Z" fill="black"/>
<path d="M315.651 61.6157C316.065 65.7586 316.16 69.9016 316.178 74.0446C316.163 78.1875 316.068 82.3306 315.651 86.4736C315.235 82.3306 315.14 78.1875 315.125 74.0446C315.142 69.9016 315.237 65.7587 315.651 61.6157Z" fill="black"/>
<path d="M361.611 39.4907C355.587 39.6622 349.406 39.806 343.173 39.8576C340.065 39.9071 336.934 39.9159 333.804 39.8883C330.675 39.8703 327.546 39.7819 324.437 39.7238L324.425 39.7235C324.391 39.7229 324.357 39.7154 324.325 39.7016C324.293 39.6877 324.264 39.6677 324.24 39.6428C324.216 39.6178 324.197 39.5883 324.185 39.5561C324.172 39.5238 324.166 39.4894 324.166 39.4547V39.4533C324.207 37.7396 324.24 36.0258 324.246 34.312C324.252 32.5983 324.293 30.8845 324.271 29.1709C324.262 25.7434 324.222 22.3159 324.148 18.8884C324.147 18.8135 324.175 18.7411 324.227 18.6871C324.279 18.6331 324.35 18.6018 324.425 18.6003L324.437 18.6C330.626 18.458 336.816 18.4037 343.005 18.3623C346.1 18.3284 349.195 18.3218 352.29 18.3424C355.384 18.3603 358.479 18.3384 361.574 18.3951L361.59 18.3953C361.654 18.3963 361.717 18.4098 361.775 18.4351C361.834 18.4605 361.887 18.4971 361.931 18.5429C361.975 18.5887 362.01 18.6427 362.033 18.702C362.057 18.7613 362.068 18.8246 362.067 18.8883C362.015 22.3709 361.982 25.8596 361.881 29.2982L361.611 39.4907ZM361.537 39.4161L361.266 29.0435C361.166 25.6272 361.132 22.2609 361.081 18.8883L361.574 19.3814C358.479 19.4381 355.384 19.4163 352.29 19.4341C349.195 19.4523 346.1 19.4457 343.005 19.4142C336.816 19.3728 330.626 19.3185 324.437 19.1765L324.725 18.8883C324.656 22.3157 324.615 25.7433 324.603 29.1708C324.58 30.8845 324.621 32.5983 324.627 34.3119C324.634 36.0257 324.666 37.7395 324.707 39.4532L324.437 39.183C327.517 39.1249 330.578 39.0365 333.638 39.0185C336.697 38.9908 339.756 38.9997 342.838 39.0492C348.984 39.1008 355.182 39.2447 361.537 39.4162V39.4161Z" fill="black"/>
<path d="M324.436 45.7427C327.53 45.5256 330.625 45.4238 333.72 45.3396C336.815 45.2433 339.909 45.2297 343.004 45.2166C346.099 45.2282 349.194 45.2423 352.288 45.3377L356.931 45.4846C358.478 45.5721 360.025 45.6233 361.573 45.7427C360.025 45.8621 358.478 45.9134 356.931 46.0008L352.288 46.1478C349.194 46.2431 346.099 46.2572 343.004 46.269C339.909 46.2557 336.815 46.2421 333.72 46.1458C330.625 46.0616 327.53 45.9599 324.436 45.7427Z" fill="black"/>
<path d="M324.436 53.0304C327.53 52.8132 330.625 52.7114 333.72 52.6272C336.815 52.531 339.909 52.5174 343.004 52.5042C346.099 52.516 349.194 52.5299 352.288 52.6253L356.931 52.7722C358.478 52.8598 360.025 52.9109 361.573 53.0304C360.025 53.1498 358.478 53.2011 356.931 53.2885L352.288 53.4354C349.194 53.5308 346.099 53.5448 343.004 53.5566C339.909 53.5434 336.815 53.5298 333.72 53.4336C330.625 53.3493 327.53 53.2476 324.436 53.0304Z" fill="black"/>
<path d="M324.436 60.4178C327.53 60.2005 330.625 60.0988 333.72 60.0146C336.815 59.9183 339.909 59.9047 343.004 59.8914C346.099 59.9032 349.194 59.9173 352.288 60.0127L356.931 60.1596C358.478 60.247 360.025 60.2983 361.573 60.4177C360.025 60.5371 358.478 60.5883 356.931 60.6758L352.288 60.8227C349.194 60.9181 346.099 60.9321 343.004 60.9439C339.909 60.9307 336.815 60.9171 333.72 60.8208C330.625 60.7367 327.53 60.6349 324.436 60.4178Z" fill="black"/>
<path d="M346.436 86.5108L341.367 86.7083C339.646 86.7525 337.929 86.8355 336.173 86.8525L330.913 86.9368C329.15 86.928 327.389 86.9299 325.634 86.8844L325.613 86.8839C325.506 86.8812 325.406 86.8364 325.333 86.7594C325.26 86.6825 325.22 86.5797 325.223 86.4736C325.303 83.3622 325.447 80.2508 325.458 77.1395C325.493 75.5838 325.455 74.0281 325.446 72.4724C325.439 70.9167 325.377 69.361 325.345 67.8054C325.344 67.731 325.372 67.6591 325.423 67.6052C325.474 67.5513 325.545 67.5198 325.619 67.5175L325.634 67.517C329.094 67.4116 332.555 67.3317 336.016 67.3044C339.477 67.2635 342.937 67.2187 346.398 67.253L346.406 67.2531C346.551 67.2546 346.69 67.3135 346.792 67.417C346.894 67.5204 346.951 67.66 346.951 67.8054C346.939 70.9843 346.841 74.1547 346.769 77.2932L346.436 86.5108ZM346.361 86.4364L346.027 76.9858C345.956 73.9016 345.858 70.8492 345.846 67.8053L346.398 68.3576C342.937 68.3919 339.477 68.347 336.016 68.3063C332.555 68.279 329.094 68.1991 325.634 68.0936L325.922 67.8053C325.89 69.361 325.828 70.9167 325.821 72.4724C325.813 74.0281 325.775 75.5838 325.809 77.1395C325.82 80.2508 325.964 83.3622 326.044 86.4736L325.634 86.0629C327.339 86.0174 329.039 86.0193 330.736 86.0105L335.859 86.0948C337.564 86.1118 339.308 86.1948 341.048 86.2391L346.361 86.4364Z" fill="black"/>
<path d="M361.61 86.5109C359.943 86.6172 358.196 86.7141 356.412 86.7878C354.635 86.8898 352.803 86.8903 350.991 86.9297C350.932 86.931 350.874 86.9207 350.819 86.8994C350.765 86.8782 350.715 86.8464 350.673 86.8059C350.63 86.7654 350.596 86.7169 350.573 86.6633C350.549 86.6097 350.536 86.5519 350.535 86.4934L350.535 86.4736C350.458 83.3622 350.642 80.2508 350.766 77.1395C350.817 75.5838 350.852 74.0281 350.818 72.4724C350.812 70.9167 350.759 69.3611 350.703 67.8054C350.7 67.7321 350.726 67.6608 350.776 67.607C350.826 67.5531 350.895 67.5212 350.968 67.5181L350.991 67.517C352.754 67.4413 354.518 67.3842 356.282 67.3458L361.573 67.2623C361.643 67.2612 361.712 67.2739 361.778 67.2997C361.843 67.3256 361.903 67.364 361.953 67.4129C362.003 67.4617 362.044 67.52 362.072 67.5845C362.1 67.6489 362.114 67.7182 362.115 67.7884L362.116 67.7903V67.8054C362.154 70.979 362.122 74.1847 362.002 77.3174C361.915 80.4623 361.764 83.5475 361.61 86.5109ZM361.536 86.4364C361.381 83.1771 361.231 80.0396 361.143 76.9617C361.024 73.8717 360.991 70.8547 361.03 67.8054L361.573 68.3484L356.282 68.2649C354.518 68.2278 352.754 68.1707 350.991 68.0936L351.279 67.8054C351.222 69.3611 351.17 70.9167 351.163 72.4724C351.129 74.0281 351.165 75.5838 351.215 77.1395C351.339 80.2508 351.523 83.3622 351.447 86.4736L350.991 86.0176C352.706 86.057 354.401 86.0575 356.152 86.1595C357.895 86.2333 359.675 86.3301 361.536 86.4364Z" fill="black"/>
<path d="M231.358 109.758C235.476 108.603 239.716 107.944 243.989 107.796C246.139 107.717 248.291 107.861 250.411 108.225C252.569 108.573 254.637 109.35 256.491 110.508C258.359 111.744 259.778 113.549 260.538 115.656C261.238 117.734 261.779 119.744 262.436 121.783C263.704 125.845 265.04 129.884 266.445 133.899C269.287 141.914 272.279 149.882 275.847 157.583C277.605 161.435 279.562 165.194 281.708 168.844C283.787 172.489 286.306 175.864 289.21 178.893C290.621 180.362 292.28 181.57 294.111 182.461C295.878 183.328 297.908 183.49 299.791 182.916C301.724 182.381 303.484 181.352 304.898 179.93C306.331 178.465 307.523 176.782 308.429 174.943C309.336 173.063 310.097 171.115 310.705 169.118C311.281 167.098 311.813 165.059 312.198 162.981C313.005 158.835 313.548 154.625 313.957 150.399C314.756 141.942 315.019 133.425 315.199 124.912C315.426 116.396 315.461 107.873 315.651 99.3518C315.941 116.39 316.469 133.445 315.232 150.509C314.936 154.786 314.394 159.041 313.61 163.255C313.231 165.37 312.7 167.462 312.119 169.542C311.499 171.626 310.718 173.659 309.783 175.622C308.813 177.616 307.532 179.444 305.988 181.035C304.391 182.654 302.402 183.83 300.214 184.448C299.106 184.802 297.938 184.933 296.779 184.834C295.627 184.725 294.502 184.426 293.449 183.948C291.43 182.99 289.599 181.678 288.042 180.075C285.056 176.932 282.47 173.431 280.343 169.653C278.191 165.944 276.232 162.126 274.473 158.214C270.968 150.418 267.885 142.438 265.239 134.31C263.899 130.257 262.631 126.182 261.435 122.086C260.821 120.058 260.286 117.941 259.661 115.971C258.995 114.027 257.724 112.347 256.033 111.178C254.293 110.024 252.341 109.228 250.29 108.838C248.218 108.42 246.109 108.218 243.995 108.234C241.871 108.238 239.75 108.377 237.643 108.649C235.529 108.899 233.431 109.269 231.358 109.758Z" fill="black"/>
<path d="M326.184 99.3518H298.331V109.854H326.184V99.3518Z" fill="black"/>
<path d="M398.67 138.442C398.67 139.137 398.659 139.832 398.649 140.527H396.584C396.574 139.832 396.563 139.137 396.563 138.442C396.563 136.252 396.648 134.072 396.795 131.882C396.934 129.676 397.208 127.482 397.617 125.31C398.035 127.48 398.309 129.675 398.438 131.882C398.596 134.072 398.68 136.252 398.67 138.442Z" fill="black"/>
<path d="M378.945 156.565C378.924 158.819 378.871 161.072 378.713 163.326C378.574 165.597 378.3 167.858 377.892 170.097C377.479 167.859 377.204 165.598 377.071 163.326C376.902 161.072 376.86 158.819 376.839 156.565C376.849 155.986 376.849 155.396 376.86 154.817H378.924C378.934 155.396 378.934 155.986 378.945 156.565Z" fill="black"/>
<path d="M389.582 148.899C389.571 150.868 389.55 152.848 389.508 154.817H387.549C387.507 152.848 387.486 150.868 387.476 148.899C387.497 146.108 387.518 143.318 387.623 140.527H389.434C389.54 143.318 389.561 146.108 389.582 148.899Z" fill="black"/>
<path d="M365.698 148.899C365.687 150.868 365.666 152.848 365.624 154.817H363.666C363.623 152.848 363.602 150.868 363.592 148.899C363.613 146.108 363.634 143.318 363.739 140.527H365.55C365.656 143.318 365.677 146.108 365.698 148.899Z" fill="black"/>
<path d="M357.337 156.565C357.316 158.819 357.263 161.072 357.105 163.326C356.966 165.597 356.691 167.858 356.284 170.097C355.871 167.859 355.596 165.598 355.462 163.326C355.294 161.072 355.252 158.819 355.23 156.565C355.241 155.986 355.241 155.396 355.252 154.817H357.316C357.326 155.396 357.326 155.986 357.337 156.565Z" fill="black"/>
<path d="M402.071 156.565C402.05 158.819 401.997 161.072 401.839 163.326C401.7 165.597 401.426 167.858 401.018 170.097C400.605 167.859 400.331 165.598 400.196 163.326C400.028 161.072 399.986 158.819 399.965 156.565C399.975 155.986 399.975 155.396 399.986 154.817H402.05C402.06 155.396 402.06 155.986 402.071 156.565Z" fill="black"/>
<path d="M378.293 138.284C378.293 139.032 378.283 139.78 378.262 140.527H376.219C376.198 139.78 376.187 139.032 376.187 138.284C376.177 136.104 376.261 133.914 376.419 131.724C376.552 129.521 376.826 127.33 377.24 125.163C377.655 127.33 377.929 129.521 378.062 131.724C378.209 133.914 378.293 136.104 378.293 138.284Z" fill="black"/>
<path d="M356.284 140.527C360.677 140.091 365.07 139.864 369.463 139.709C373.856 139.541 378.249 139.496 382.642 139.475C387.035 139.493 391.428 139.538 395.821 139.705C400.214 139.86 404.607 140.089 409 140.527C404.607 140.966 400.214 141.195 395.821 141.349C391.428 141.516 387.035 141.561 382.642 141.58C378.249 141.559 373.856 141.514 369.463 141.346C365.07 141.191 360.677 140.963 356.284 140.527Z" fill="black"/>
<path d="M404.787 154.817C400.394 155.253 396.001 155.481 391.608 155.636C387.215 155.804 382.823 155.849 378.43 155.87C374.036 155.851 369.643 155.806 365.25 155.639C360.857 155.485 356.464 155.256 352.071 154.817C356.464 154.379 360.857 154.15 365.25 153.996C369.643 153.828 374.036 153.783 378.43 153.765C382.823 153.786 387.215 153.831 391.608 153.999C396.002 154.154 400.394 154.382 404.787 154.817Z" fill="black"/>
<path d="M189.527 13.2942C189.527 13.9892 189.517 14.6843 189.506 15.3793H187.442C187.431 14.6843 187.421 13.9893 187.421 13.2942C187.421 11.1039 187.505 8.92401 187.653 6.73353C187.791 4.52837 188.066 2.33384 188.474 0.162415C188.893 2.33224 189.167 4.52743 189.295 6.73353C189.453 8.92399 189.538 11.1039 189.527 13.2942Z" fill="black"/>
<path d="M169.803 31.4173C169.782 33.6709 169.73 35.9244 169.571 38.178C169.432 40.4493 169.158 42.7104 168.75 44.9491C168.337 42.7112 168.063 40.4498 167.929 38.178C167.761 35.9244 167.718 33.6709 167.697 31.4173C167.708 30.8382 167.708 30.2484 167.718 29.6693H169.782C169.793 30.2484 169.793 30.8382 169.803 31.4173Z" fill="black"/>
<path d="M180.439 23.7511C180.429 25.7202 180.408 27.7001 180.365 29.6692H178.407C178.365 27.7001 178.344 25.7202 178.333 23.7511C178.354 20.9604 178.375 18.1699 178.481 15.3792H180.292C180.397 18.1698 180.418 20.9604 180.439 23.7511Z" fill="black"/>
<path d="M156.555 23.7511C156.545 25.7202 156.524 27.7001 156.482 29.6692H154.523C154.481 27.7001 154.46 25.7202 154.449 23.7511C154.47 20.9604 154.491 18.1699 154.597 15.3792H156.408C156.513 18.1698 156.534 20.9604 156.555 23.7511Z" fill="black"/>
<path d="M148.194 31.4173C148.173 33.6709 148.12 35.9244 147.962 38.178C147.823 40.4493 147.549 42.7104 147.141 44.9491C146.728 42.7112 146.454 40.4498 146.32 38.178C146.151 35.9244 146.109 33.6709 146.088 31.4173C146.098 30.8382 146.098 30.2484 146.109 29.6693H148.173C148.183 30.2484 148.183 30.8382 148.194 31.4173Z" fill="black"/>
<path d="M192.928 31.4173C192.907 33.6709 192.855 35.9244 192.697 38.178C192.557 40.4493 192.283 42.7104 191.875 44.9491C191.462 42.7112 191.188 40.4498 191.054 38.178C190.886 35.9244 190.843 33.6709 190.822 31.4173C190.833 30.8382 190.833 30.2484 190.843 29.6693H192.907C192.918 30.2484 192.918 30.8382 192.928 31.4173Z" fill="black"/>
<path d="M169.15 13.1362C169.15 13.8839 169.139 14.6315 169.118 15.3793H167.075C167.054 14.6315 167.044 13.8838 167.044 13.1362C167.033 10.9563 167.118 8.76602 167.276 6.57565C167.409 4.37346 167.683 2.18209 168.097 0.0150757C168.511 2.18209 168.785 4.37346 168.918 6.57565C169.066 8.766 169.15 10.9563 169.15 13.1362Z" fill="black"/>
<path d="M147.141 15.3792C151.534 14.9434 155.927 14.7155 160.32 14.5606C164.713 14.3926 169.106 14.3477 173.499 14.3268C177.892 14.3452 182.285 14.39 186.678 14.5574C191.071 14.7118 195.464 14.9409 199.857 15.3792C195.464 15.8176 191.071 16.0468 186.678 16.201C182.285 16.3684 177.892 16.4132 173.499 16.4316C169.106 16.4107 164.713 16.3658 160.32 16.1978C155.927 16.0428 151.534 15.8149 147.141 15.3792Z" fill="black"/>
<path d="M195.645 29.6693C191.252 30.1051 186.859 30.3331 182.466 30.488C178.073 30.656 173.68 30.7007 169.287 30.7218C164.894 30.7033 160.501 30.6585 156.108 30.491C151.715 30.3368 147.322 30.1077 142.929 29.6692C147.322 29.2309 151.715 29.0018 156.108 28.8476C160.501 28.6801 164.894 28.6352 169.287 28.6168C173.68 28.6379 178.073 28.6826 182.466 28.8506C186.859 29.0056 191.252 29.2336 195.645 29.6693Z" fill="black"/>
</svg>
