<svg width="382" height="329" viewBox="0 0 382 329" fill="none" xmlns="http://www.w3.org/2000/svg">
<path d="M242.054 114.685C240.202 119.655 237.781 124.394 234.84 128.807C233.363 131.027 231.705 133.121 229.881 135.067C228.963 136.037 228.003 136.968 227 137.858C225.994 138.773 224.899 139.585 223.731 140.283C220.203 142.449 216.017 143.284 211.927 142.64C207.837 141.995 204.112 139.913 201.42 136.767C199.675 134.746 198.178 132.523 196.962 130.146C195.75 127.793 194.665 125.377 193.712 122.907C193.171 121.692 192.725 120.437 192.379 119.153C192.044 117.868 191.78 116.572 191.527 115.274C190.525 110.082 189.767 104.856 189.043 99.6272C187.656 89.1598 186.607 78.6607 185.713 68.1415L186.068 68.7519C185.307 68.1608 184.647 67.4508 184.112 66.6492C183.593 65.8871 183.16 65.0695 182.821 64.2116C182.166 62.5163 181.806 60.7211 181.758 58.9041C181.701 57.1209 181.852 55.3371 182.208 53.5889C182.579 51.881 183.05 50.1964 183.619 48.5435C184.112 46.911 184.584 45.258 184.907 43.6141C184.986 43.2149 185.044 42.8118 185.082 42.4065C185.099 42.2314 185.101 42.0552 185.088 41.8798C185.056 41.6262 185.049 41.3702 185.066 41.1153C185.16 40.1371 185.531 39.2062 186.137 38.4321C186.447 38.0268 186.839 37.6916 187.288 37.4485C187.768 37.1918 188.318 37.0957 188.857 37.1745C189.361 37.2568 189.839 37.4581 190.249 37.7617C190.661 38.0386 191.011 38.3967 191.279 38.814C191.759 39.6734 191.879 40.6878 191.613 41.6353C191.376 42.4411 191.193 43.2614 191.062 44.0909L191.054 44.0122C191.317 45.5369 191.472 47.0782 191.519 48.6246C191.573 50.161 191.53 51.6992 191.392 53.2303L191.237 53.2204C191.284 51.6962 191.234 50.1706 191.089 48.6526C190.952 47.1435 190.711 45.6458 190.367 44.17L190.357 44.1297L190.358 44.0909C190.447 43.2128 190.599 42.3423 190.815 41.4864C190.909 41.1217 190.93 40.7422 190.877 40.3693C190.825 39.9964 190.699 39.6376 190.507 39.3134C190.084 38.721 189.444 38.3186 188.727 38.1924C188.388 38.181 188.053 38.261 187.755 38.4241C187.458 38.5872 187.21 38.8272 187.038 39.1191C186.601 39.7299 186.337 40.4473 186.273 41.1957C186.266 41.3709 186.276 41.5465 186.304 41.7197C186.333 41.973 186.34 42.2285 186.322 42.483C186.293 42.9367 186.24 43.3885 186.163 43.8366C185.866 45.5836 185.429 47.2603 184.97 48.9379C184.457 50.5577 184.04 52.2062 183.72 53.8748C183.404 55.5098 183.274 57.1753 183.332 58.8396C183.383 60.4753 183.713 62.0902 184.31 63.6142C184.608 64.359 184.988 65.0684 185.443 65.7292C185.871 66.3608 186.391 66.9248 186.985 67.4024L187.311 67.6452L187.34 68.0131C188.17 78.5134 189.073 89.018 190.125 99.5C190.65 104.74 191.202 109.985 192.082 115.171C192.318 116.464 192.565 117.755 192.88 119.025C193.205 120.292 193.628 121.531 194.147 122.731C195.122 125.171 196.234 127.553 197.478 129.867C198.713 132.166 200.251 134.289 202.05 136.18C203.804 138.06 205.968 139.511 208.374 140.419C210.766 141.299 213.323 141.638 215.861 141.409C218.393 141.158 220.845 140.381 223.06 139.128C225.25 137.766 227.249 136.118 229.004 134.228C230.807 132.342 232.485 130.341 234.027 128.237C237.071 123.953 239.71 119.396 241.912 114.625L242.054 114.685Z" fill="black"/>
<path d="M206.609 38.2964V24.8464L191.319 22.3364V65.9864L206.579 61.5364L206.609 61.5265V61.4965L206.469 55.2965L204.169 55.7365C203.898 55.6924 203.655 55.5455 203.489 55.3265V58.4365L194.479 62.1265V26.0565L203.489 28.1265V39.6865C204.35 38.8952 205.446 38.407 206.609 38.2964ZM203.719 51.1864C203.639 51.1164 203.559 51.0364 203.489 50.9664V52.1064C203.561 52.028 203.638 51.9545 203.719 51.8864C203.916 51.7167 204.149 51.5937 204.399 51.5264L203.719 51.1864ZM203.489 45.6864V46.9564C203.611 46.7934 203.745 46.6396 203.889 46.4964C203.728 46.2412 203.594 45.9697 203.489 45.6864L203.489 45.6864ZM203.489 43.0964V43.6464C203.562 43.4972 203.664 43.3644 203.789 43.2564C203.685 43.2126 203.584 43.159 203.489 43.0964L203.489 43.0964Z" fill="black"/>
<path d="M202.979 53.7863C203 54.1026 203.06 54.4151 203.159 54.7164L194.479 58.6264C194.479 58.6264 194.759 38.6364 199.129 37.2864C194.629 37.2864 194.639 30.3164 199.129 30.3164C203.529 30.3164 203.599 36.9964 199.379 37.2664C200.119 37.2964 202.279 38.2264 203.139 47.4964C202.796 47.9982 202.633 48.6004 202.675 49.2063C202.717 49.8121 202.961 50.3863 203.369 50.8364C203.399 51.2664 203.409 51.7164 203.429 52.1864C203.082 52.6437 202.921 53.2153 202.979 53.7863Z" fill="black"/>
<path d="M205.757 61.7712C207.706 68.1895 209.362 74.6482 211.044 81.1029L213.52 90.7952C214.358 94.0235 215.169 97.2663 215.952 100.524C213.299 94.3648 211.156 87.9987 209.545 81.4896C207.841 75.0092 206.576 68.4215 205.757 61.7712Z" fill="black"/>
<path d="M209.63 109.635C209.931 108.601 210.355 107.608 210.894 106.676C211.408 105.741 212.003 104.854 212.672 104.023C213.34 103.173 214.105 102.403 214.953 101.731C215.387 101.383 215.858 101.085 216.359 100.843C216.861 100.576 217.431 100.465 217.997 100.524C217.138 101.071 216.39 101.776 215.792 102.601L213.879 104.994C213.228 105.791 212.581 106.598 211.877 107.372C211.181 108.177 210.43 108.933 209.63 109.635Z" fill="black"/>
<path d="M259.343 86.6171C256.938 91.3678 254.514 96.1021 252.259 100.908C251.102 103.296 250.025 105.719 248.985 108.149C247.929 110.548 247.054 113.022 246.367 115.551L246.208 116.19L245.593 116.072C242.721 115.495 239.898 114.693 237.151 113.675C234.414 112.674 231.744 111.497 229.16 110.149C226.589 108.781 224.128 107.216 221.798 105.469C219.504 103.653 217.439 101.563 215.65 99.2475L215.526 99.0882L215.618 98.8812C218.492 92.3691 221.477 85.9075 224.764 79.5851C226.405 76.4231 228.072 73.2702 229.897 70.1935C230.814 68.6572 231.76 67.1339 232.794 65.6517C233.311 64.9118 233.861 64.1863 234.444 63.4751C235.047 62.715 235.75 62.0397 236.534 61.4675L236.456 61.525C238.407 59.9926 240.45 58.5818 242.574 57.3006C244.673 56.0049 246.839 54.8205 249.062 53.7526C251.281 52.6827 253.558 51.7371 255.881 50.9202C258.202 50.111 260.571 49.4507 262.976 48.9434L263.013 49.0937C260.679 49.8033 258.384 50.6353 256.137 51.5862C253.889 52.5128 251.694 53.564 249.563 54.7348C247.427 55.8895 245.326 57.1092 243.305 58.4516C241.287 59.7752 239.339 61.2029 237.47 62.729L237.392 62.7868C236.127 63.8875 235.035 65.1711 234.151 66.5951C233.162 68.0358 232.217 69.5241 231.314 71.0401C229.5 74.0694 227.753 77.1483 226.074 80.2767C224.399 83.4017 222.747 86.5418 221.118 89.6971C219.496 92.8542 217.845 96.0026 216.286 99.1911L216.253 98.8252C217.901 101.174 219.872 103.278 222.11 105.074C224.379 106.847 226.83 108.375 229.421 109.633C232.026 110.854 234.716 111.887 237.469 112.724C240.206 113.562 242.992 114.231 245.811 114.725L245.037 115.246C245.705 112.626 246.612 110.073 247.748 107.619C248.817 105.163 249.993 102.762 251.217 100.391C253.702 95.6672 256.329 91.0276 259.209 86.5394L259.343 86.6171Z" fill="black"/>
<path d="M247.189 58.6254C248.72 58.1504 250.329 57.9767 251.926 58.1138C253.567 58.2229 255.169 58.6669 256.633 59.4185C258.123 60.2128 259.345 61.4293 260.147 62.9155C260.912 64.357 261.254 65.985 261.135 67.6125C260.67 66.1693 259.992 64.8035 259.124 63.5601C258.27 62.4033 257.167 61.4533 255.896 60.7805C254.587 60.1062 253.193 59.6102 251.752 59.3058C250.247 58.9835 248.723 58.7563 247.189 58.6254Z" fill="black"/>
<path d="M254.162 12.0164C253.646 13.0924 253.27 14.2302 253.043 15.4019C252.823 16.5627 252.69 17.7381 252.644 18.9186C252.609 20.0949 252.644 21.2722 252.75 22.4443C252.86 23.6155 253.05 24.7767 253.259 25.9338L253.31 26.2151L253.136 26.4628C252.557 27.2848 251.994 28.1311 251.44 28.9716C250.888 29.8098 250.333 30.6612 249.877 31.5128C249.759 31.7268 249.66 31.9343 249.57 32.1374L249.469 32.4081C249.457 32.4463 249.47 32.439 249.461 32.4546L249.45 32.4686C249.458 32.4451 249.459 32.4201 249.455 32.3958C249.382 32.2008 249.389 32.3323 249.575 32.3997C249.758 32.4907 249.949 32.5634 250.145 32.6167C251.077 32.856 252.031 33.0036 252.991 33.0575L253.54 33.0977L253.676 33.6187C254.038 35.0138 254.475 36.3881 254.987 37.7355C255.486 39.0901 256.081 40.4076 256.766 41.6781C257.429 42.9515 258.262 44.128 259.244 45.1748C260.233 46.2422 261.555 46.9418 262.994 47.159C261.467 47.1771 259.987 46.6354 258.832 45.6361C257.664 44.6638 256.659 43.5115 255.854 42.2227C255.047 40.9524 254.344 39.6193 253.75 38.2365C253.153 36.8537 252.645 35.434 252.231 33.9861L252.916 34.5471C251.839 34.5017 250.77 34.3483 249.724 34.0893C249.428 34.0116 249.141 33.9042 248.866 33.7687C248.694 33.6859 248.532 33.5807 248.387 33.456C248.289 33.3719 248.203 33.2741 248.132 33.1657C248.035 33.0384 247.971 32.8898 247.945 32.7325C247.925 32.6473 247.912 32.5609 247.904 32.474L247.924 32.2997C247.938 32.1889 247.96 32.0794 247.99 31.9717C248.044 31.8237 248.099 31.6617 248.159 31.5275C248.278 31.2663 248.403 31.016 248.534 30.785C249.054 29.8462 249.627 28.996 250.207 28.1401C250.793 27.2907 251.403 26.4704 252.028 25.6465L251.904 26.1752L251.669 24.3516C251.635 23.7379 251.574 23.1283 251.565 22.5145C251.524 21.2879 251.582 20.06 251.737 18.8426C251.886 17.6269 252.158 16.4293 252.548 15.2681C252.91 14.1053 253.455 13.0076 254.162 12.0164Z" fill="black"/>
<path d="M251.466 10.7149C251.466 10.7149 259.275 21.1274 266.527 22.3361C266.527 22.3361 270.06 15.1775 273.221 20.0119C276.382 24.8463 273.221 29.5878 271.268 30.0526C271.268 30.0526 261.785 38.6988 262.343 52.4583C262.343 52.4583 280.286 54.2247 292.187 49.0184C304.087 43.8121 309.665 38.9777 309.665 38.9777C309.665 38.9777 296.649 26.5198 293.116 17.5947C289.583 8.66966 288.282 -1.18517 276.754 0.116409C265.225 1.41799 259.647 3.09141 251.466 10.7149Z" fill="black"/>
<path d="M254.461 38.2099C255.348 37.9995 256.217 37.718 257.058 37.368C257.441 37.1867 257.799 36.9552 258.121 36.6798C258.454 36.367 258.748 36.0148 258.997 35.6309C259.017 36.1446 258.871 36.6513 258.579 37.0745C258.272 37.5006 257.863 37.8423 257.389 38.0681C256.468 38.493 255.418 38.5438 254.461 38.2099Z" fill="black"/>
<path d="M256.858 26.1944C257.159 26.1839 257.445 26.0569 257.654 25.8401C257.864 25.6233 257.981 25.3337 257.981 25.0322C257.981 24.7308 257.864 24.4411 257.654 24.2243C257.445 24.0075 257.159 23.8805 256.858 23.8701C256.557 23.8805 256.271 24.0075 256.062 24.2243C255.852 24.4411 255.735 24.7308 255.735 25.0322C255.735 25.3337 255.852 25.6233 256.062 25.8401C256.271 26.0569 256.557 26.1839 256.858 26.1944Z" fill="black"/>
<path d="M254.461 22.6151C254.697 22.1489 255.076 21.7702 255.542 21.534C255.985 21.2843 256.457 21.0928 256.948 20.9644C257.92 20.7029 258.938 20.6633 259.926 20.8486C259.022 21.2046 258.092 21.4935 257.145 21.7133C256.687 21.8271 256.237 21.9554 255.786 22.0846C255.324 22.2052 254.879 22.3835 254.461 22.6151Z" fill="black"/>
<path d="M271.641 27.5774C271.867 27.5696 272.081 27.4744 272.238 27.3118C272.395 27.1492 272.483 26.9319 272.483 26.7058C272.483 26.4797 272.395 26.2625 272.238 26.0999C272.081 25.9373 271.867 25.842 271.641 25.8342C271.415 25.842 271.201 25.9373 271.044 26.0999C270.887 26.2625 270.799 26.4797 270.799 26.7058C270.799 26.9319 270.887 27.1492 271.044 27.3118C271.201 27.4744 271.415 27.5696 271.641 27.5774Z" fill="black"/>
<path d="M303.673 43.1179C306.314 43.6756 308.867 44.5882 311.263 45.8308C313.689 47.058 315.957 48.574 318.019 50.3458C320.08 52.1471 321.844 54.2629 323.245 56.6148C324.615 58.9647 325.499 61.5667 325.842 64.2655C324.929 61.7923 323.714 59.4413 322.226 57.2656C320.713 55.1504 318.958 53.2188 316.998 51.5101C315.017 49.801 312.902 48.2533 310.674 46.8818C308.415 45.4924 306.078 44.2357 303.673 43.1179Z" fill="black"/>
<path d="M193.199 121.257C187.418 117.629 181.148 114.846 174.579 112.991C168.071 111.102 161.291 110.322 154.524 110.684C147.79 111.081 141.213 112.874 135.21 115.949C129.221 118.959 123.877 123.247 118.734 127.689C108.553 136.83 99.1552 146.808 90.6381 157.516C82.0801 168.205 74.0493 179.336 66.5577 190.773L66.6214 190.658C66.2677 191.746 66.0701 192.877 66.0346 194.02C66.0425 194.612 65.9978 195.2 66.0374 195.791L66.1931 197.564C66.2857 198.152 66.4177 198.736 66.5266 199.322C66.5867 199.614 66.6335 199.908 66.7039 200.198L66.9697 201.058L67.4979 202.775C67.7 203.34 67.961 203.886 68.1889 204.442L68.8984 206.102L69.7704 207.692L70.6399 209.282C70.9421 209.805 71.3086 210.294 71.6366 210.803L72.6477 212.316C72.9701 212.831 73.3255 213.325 73.7118 213.794L75.9957 216.644C76.7389 217.608 77.6441 218.444 78.4595 219.351C79.3129 220.225 80.094 221.165 81.0053 221.985L83.7069 224.474C84.6071 225.304 85.4906 226.151 86.4682 226.897L89.3311 229.211C90.2921 229.973 91.2157 230.781 92.2362 231.471L98.2095 235.794L98.6028 236.079L98.7117 236.517C99.3077 238.911 99.894 241.3 100.45 243.71C100.72 244.922 100.989 246.112 101.218 247.383L101.297 247.892L101.327 248.245L101.333 248.333C101.34 248.266 101.337 248.198 101.325 248.132C101.31 248.047 101.282 247.964 101.241 247.888C101.198 247.807 101.142 247.743 101.163 247.764C101.17 247.758 101.155 247.747 101.162 247.759L101.277 247.852C101.34 247.912 101.475 247.993 101.57 248.064C102.044 248.372 102.536 248.654 103.042 248.908C105.186 249.964 107.416 250.837 109.708 251.518C112.016 252.229 114.363 252.808 116.737 253.254C121.507 254.145 126.356 254.545 131.208 254.448C136.075 254.344 140.924 253.81 145.697 252.85L145.162 253.752L141.688 240.851L138.304 227.925L138.527 227.86L142.58 240.593L146.543 253.352L146.768 254.076L146.009 254.254C143.593 254.819 141.154 255.297 138.694 255.661C136.232 256.005 133.75 256.217 131.263 256.324C126.275 256.533 121.279 256.229 116.352 255.419C111.37 254.657 106.521 253.19 101.951 251.062C101.355 250.77 100.776 250.445 100.218 250.086C100.064 249.976 99.9311 249.902 99.7618 249.761L99.5192 249.563C99.4073 249.455 99.3017 249.341 99.2028 249.221C99.1485 249.153 99.1026 249.079 99.0661 249C99.0105 248.889 98.9672 248.771 98.9371 248.65C98.9129 248.549 98.8968 248.446 98.889 248.342L98.8839 248.315L98.8711 248.209L98.8035 247.808C98.5855 246.661 98.3018 245.453 98.0251 244.268C97.4738 241.886 96.895 239.497 96.3057 237.118L96.8077 237.84L90.7464 233.437C89.721 232.724 88.7849 231.888 87.8151 231.099L84.9258 228.704C83.9418 227.932 83.0448 227.054 82.1333 226.193L79.4 223.612C78.4797 222.761 77.6805 221.781 76.8156 220.872C75.9859 219.928 75.0738 219.061 74.3133 218.053C71.024 214.195 68.3482 209.853 66.3798 205.181C64.5558 200.477 63.3456 195.209 65.1765 190.007L65.1935 189.958L65.2402 189.892C69.1927 184.262 73.2679 178.751 77.4199 173.287C81.5829 167.835 85.7522 162.389 90.0922 157.076C98.7259 146.428 107.472 135.808 117.535 126.36C120.036 123.985 122.698 121.774 125.437 119.649C128.215 117.537 131.173 115.673 134.278 114.08C140.56 110.967 147.42 109.193 154.424 108.871C161.384 108.601 168.335 109.589 174.944 111.787C176.593 112.308 178.214 112.911 179.816 113.554C181.407 114.227 182.981 114.935 184.521 115.709C187.613 117.229 190.563 119.023 193.335 121.069L193.199 121.257Z" fill="black"/>
<path d="M380.139 78.0263C376.789 62.4063 350.019 64.2663 350.019 64.2663C285.309 62.4063 269.319 81.1463 269.319 81.1463C255.189 92.8263 237.709 142.146 237.709 142.146L149.979 144.086C144.647 144.167 139.481 145.955 135.239 149.186C123.439 158.316 125.769 170.246 125.769 170.246C128.739 192.106 139.069 230.146 139.069 230.146C154.969 240.956 280.569 237.556 280.569 237.556C323.799 229.376 342.579 220.086 343.689 213.016C344.809 205.946 361.169 151.286 370.469 124.506C379.769 97.7363 383.479 93.6463 380.139 78.0263ZM249.329 171.036C248.909 176.266 248.552 181.503 248.259 186.746L247.339 202.476C247.059 207.726 246.709 212.966 246.349 218.226C246.119 212.966 246.049 207.703 246.139 202.436C246.189 197.166 246.409 191.906 246.709 186.656C246.869 184.026 247.079 181.396 247.289 178.776C247.559 176.156 247.769 173.526 248.129 170.916C248.714 165.674 249.673 160.481 250.999 155.376C250.199 160.576 249.779 165.816 249.329 171.036ZM278.689 94.1463C275.293 98.6034 272.253 103.321 269.599 108.256C266.937 113.197 264.544 118.278 262.429 123.476C261.349 126.076 260.349 128.706 259.409 131.366C258.439 134.006 257.559 136.686 256.729 139.386C257.219 136.596 257.959 133.866 258.689 131.126C259.489 128.416 260.365 125.726 261.319 123.056C263.235 117.711 265.549 112.517 268.239 107.516C269.619 105.026 271.069 102.586 272.639 100.216C274.222 97.8503 275.935 95.5734 277.769 93.3963C279.621 91.2392 281.598 89.1924 283.689 87.2662C285.823 85.3999 288.104 83.7078 290.509 82.2062C286.089 85.6808 282.118 89.6916 278.689 94.1463V94.1463ZM288.279 212.846L288.259 212.576L291.969 212.116L292.029 212.526L288.279 212.846ZM295.759 211.966L295.649 211.416L299.299 210.576L299.449 211.256L295.759 211.966ZM303.119 210.446L302.919 209.626L306.529 208.636L306.769 209.536L303.119 210.446ZM310.399 208.576L310.119 207.586L313.699 206.496L314.019 207.556L310.399 208.576ZM317.619 206.496L317.269 205.356L320.819 204.186L321.219 205.406L317.619 206.496ZM324.799 204.286L324.369 202.986L327.899 201.746L328.369 203.126L324.799 204.286ZM334.079 200.676L334.039 201.176L333.579 201.336L331.929 201.916L331.429 200.506L332.599 200.086L332.689 198.826L334.209 198.956L334.079 200.676ZM334.589 195.586L333.049 195.386L333.519 191.996L335.079 192.246L334.589 195.586ZM335.659 188.916L334.079 188.636L334.709 185.286L336.299 185.596L335.659 188.916ZM337.009 182.296L335.389 181.946L336.119 178.616L337.759 178.996L337.009 182.296ZM338.549 175.706L336.889 175.296L337.699 171.996L339.379 172.416L338.549 175.706ZM340.229 169.136L338.539 168.696L339.439 165.406L341.089 165.856L340.229 169.136ZM341.979 162.586L340.349 162.126L341.289 158.856L342.889 159.316L341.979 162.586ZM343.819 156.056L342.249 155.596L343.219 152.336L344.769 152.796L343.819 156.056ZM345.739 149.546L344.219 149.086L345.229 145.846L346.719 146.306L345.739 149.546ZM347.719 143.066L346.249 142.606L347.289 139.366L348.729 139.826L347.719 143.066ZM349.749 136.596L348.339 136.136L349.419 132.916L350.779 133.366L349.749 136.596ZM351.799 130.126L350.519 129.706L351.629 126.496L352.839 126.896L351.799 130.126ZM353.879 123.676L352.749 123.286L353.879 120.086L354.939 120.446L353.879 123.676ZM356.009 117.236L355.029 116.896L356.179 113.696L357.089 114.016L356.009 117.236ZM358.179 110.806L357.339 110.516L358.529 107.336L359.249 107.586L358.179 110.806ZM360.339 104.376L359.729 104.156L360.949 100.996L361.429 101.166L360.339 104.376ZM362.529 97.9563L362.169 97.8263L363.399 94.6663L363.649 94.7563L362.529 97.9563Z" fill="black"/>
<path d="M97.5088 236.817C100.762 229.944 104.421 223.304 108.18 216.722C111.98 210.163 115.881 203.662 120.193 197.398C116.944 204.274 113.284 210.913 109.522 217.494C105.72 224.051 101.818 230.551 97.5088 236.817Z" fill="black"/>
<path d="M193.712 237.407C193.686 242.155 193.371 246.871 192.987 251.598C192.768 253.956 192.52 256.315 192.241 258.676C191.925 261.028 191.57 263.381 191.178 265.736C190.783 268.089 190.486 270.487 190.096 272.887C189.688 275.303 188.928 277.646 187.838 279.841C186.721 282.144 185.296 284.284 183.603 286.203C183.167 286.696 182.664 287.174 182.184 287.63C181.666 288.088 181.123 288.517 180.557 288.915C179.383 289.77 177.996 290.283 176.548 290.398L176.146 289.593C176.67 288.585 177.059 287.512 177.303 286.403L177.669 284.801L178.002 283.188C178.445 281.039 178.884 278.873 179.402 276.706C179.923 274.521 180.645 272.389 181.559 270.337C182.492 268.25 183.454 266.14 184.201 263.955C184.963 261.776 185.697 259.579 186.402 257.363C187.15 255.159 187.875 252.942 188.576 250.711C190.029 246.262 191.396 241.769 192.822 237.272L193.712 237.407Z" fill="black"/>
<path d="M246.791 237.945L261.503 282.828C262.742 286.549 264.148 290.221 265.552 293.876C266.93 297.522 268.095 301.245 269.041 305.026C269.994 308.795 270.835 312.593 271.641 316.392C272.045 318.288 272.429 320.201 272.853 322.079C273.188 323.967 273.722 325.813 274.446 327.588L273.856 328.267C273.362 328.005 272.89 327.703 272.444 327.365C272.044 327.014 271.619 326.648 271.228 326.268C270.494 325.504 269.801 324.702 269.15 323.866C267.893 322.224 266.746 320.501 265.717 318.707C263.713 315.204 261.963 311.561 260.481 307.808C259.006 304.11 257.844 300.294 257.007 296.401C256.169 292.513 255.443 288.61 254.565 284.753L252.056 273.163L249.803 261.528C248.397 253.752 247.03 245.978 245.915 238.149L246.791 237.945Z" fill="black"/>
<path d="M333.766 222.343C335.867 230.465 338.258 238.489 340.939 246.414C342.272 250.371 343.638 254.31 345.13 258.198L346.198 261.128L347.338 264.029C348.114 265.956 348.819 267.908 349.663 269.804C350.486 271.707 351.315 273.606 352.183 275.487L354.956 281.039C355.82 282.913 356.786 284.731 357.638 286.599C358.519 288.452 359.231 290.391 360.067 292.262C363.125 299.929 366.388 307.408 368.978 315.771L368.238 316.284C366.534 314.903 365.001 313.374 363.447 311.839C362.696 311.055 361.9 310.29 361.221 309.456C360.531 308.627 359.853 307.788 359.188 306.937C358.522 306.086 357.861 305.23 357.219 304.36C356.563 303.498 355.927 302.621 355.358 301.712C354.194 299.904 353.077 298.064 351.979 296.21C350.915 294.346 349.952 292.426 349.092 290.46C348.651 289.482 348.231 288.496 347.824 287.504C347.415 286.513 347.102 285.486 346.737 284.479L344.752 278.372C344.159 276.317 343.528 274.28 342.89 272.248C342.217 270.229 341.688 268.165 341.088 266.126L340.214 263.062L339.416 259.978C338.371 255.862 337.462 251.718 336.592 247.574C334.893 239.284 333.653 230.907 332.877 222.481L333.766 222.343Z" fill="black"/>
<path d="M149.812 233.713C146.846 241.195 143.665 248.573 140.451 255.944L135.51 266.945L130.352 277.85C128.604 281.474 126.98 285.171 125.276 288.837C123.564 292.502 121.561 296.024 119.286 299.369C116.994 302.765 114.475 306.001 111.745 309.054C110.344 310.617 108.847 312.092 107.264 313.47C106.434 314.175 105.565 314.83 104.659 315.433C104.174 315.745 103.667 316.022 103.142 316.261L102.718 316.424L102.237 316.551C102.058 316.586 101.876 316.604 101.693 316.603C101.486 316.589 101.283 316.54 101.093 316.457L101.361 315.598C101.629 315.364 101.857 315.089 102.039 314.784C102.296 314.4 102.53 314.002 102.739 313.59C103.176 312.736 103.612 311.866 104.006 310.962L106.437 305.55C108.067 301.937 109.748 298.34 111.535 294.796C113.318 291.243 115.311 287.799 117.503 284.481C119.714 281.157 121.951 277.834 124.023 274.416L136.46 253.865L149.007 233.311L149.812 233.713Z" fill="black"/>
<path d="M22.0057 209.958C22.0057 209.958 25.9264 219.359 21.2722 223.416C14.3598 220.499 8.47146 215.591 4.35631 209.318C4.35631 209.318 -11.426 209.186 17.0889 231.69C17.0889 231.69 53.2552 263.087 56.0133 263.638C62.9408 265.021 61.1579 254.881 61.1579 254.881C61.1579 254.881 37.6374 238.516 33.6281 233.916C33.6281 233.916 36.4525 221.223 32.8009 216.217L22.0057 209.958Z" fill="black"/>
<path d="M4.35645 209.318C5.54928 208.496 6.9578 208.043 8.40619 208.017C9.84805 207.929 11.2952 208.019 12.7153 208.283C15.5402 208.842 18.296 209.706 20.9337 210.862L24.8162 212.655C26.1026 213.241 27.412 213.772 28.7358 214.259C31.3772 215.234 34.101 215.97 36.8743 216.457C39.6394 216.951 42.456 217.093 45.2567 216.879C46.6559 216.775 48.0459 216.572 49.416 216.27C50.7918 215.983 52.1482 215.61 53.4769 215.152C56.1445 214.218 58.6982 212.987 61.0894 211.48C63.5057 209.982 65.8004 208.295 67.9523 206.437C63.9363 210.557 59.1008 213.79 53.7582 215.925C48.3163 217.977 42.4239 218.534 36.6939 217.537C30.9717 216.633 25.6061 214.24 20.547 211.725C18.0079 210.491 15.3434 209.534 12.5995 208.87C11.2292 208.545 9.82755 208.37 8.41939 208.35C7.71517 208.35 7.01273 208.42 6.32239 208.559C5.62201 208.675 4.95281 208.933 4.35645 209.318Z" fill="black"/>
<path d="M83.5306 225.953C81.2645 228.057 79.068 230.223 76.941 232.449C75.8853 233.567 74.8625 234.715 73.9088 235.908C72.9354 237.06 72.0824 238.309 71.3631 239.636C71.0386 240.301 70.7859 240.999 70.6091 241.717C70.3867 242.478 70.1228 243.226 69.8186 243.957C69.1814 245.398 68.4176 246.78 67.5362 248.086C65.7821 250.674 63.6294 252.967 61.1582 254.881C63.2322 252.617 65.0873 250.162 66.6984 247.548C67.4871 246.254 68.1872 244.909 68.7937 243.521C69.0591 242.817 69.3673 242.126 69.5669 241.402C69.7706 240.623 70.0591 239.868 70.4273 239.151C72.0736 236.474 74.1 234.05 76.4432 231.955C78.6811 229.812 81.048 227.807 83.5306 225.953Z" fill="black"/>
<path d="M79.1066 289.854C79.1066 289.854 88.7789 293.048 88.7963 299.222C82.0648 302.535 74.4998 303.771 67.0638 302.773C67.0638 302.773 56.6286 314.613 92.31 307.802C92.31 307.802 139.722 301.033 141.945 299.309C147.526 294.979 138.696 289.686 138.696 289.686C138.696 289.686 110.925 296.744 104.823 296.761C104.823 296.761 97.0811 286.314 90.9058 285.795L79.1066 289.854Z" fill="black"/>
<path d="M67.0635 302.772C67.2235 301.333 67.804 299.972 68.7325 298.86C69.6106 297.713 70.626 296.678 71.756 295.778C74.0282 294.009 76.4864 292.493 79.087 291.256L82.9845 289.496C84.27 288.908 85.5291 288.266 86.7638 287.585C89.2308 286.227 91.5706 284.651 93.7548 282.874C95.9392 281.108 97.8908 279.072 99.563 276.815C100.401 275.69 101.158 274.506 101.827 273.273C102.511 272.046 103.117 270.776 103.641 269.472C104.683 266.845 105.425 264.109 105.852 261.315C106.302 258.507 106.531 255.669 106.535 252.826C107.019 258.559 106.295 264.33 104.41 269.766C102.397 275.223 98.9588 280.04 94.4529 283.718C90.0222 287.45 84.6995 289.937 79.4861 292.114C76.8906 293.224 74.4222 294.611 72.1234 296.25C70.9803 297.072 69.9306 298.018 68.9928 299.068C68.5318 299.601 68.1249 300.177 67.7779 300.79C67.4063 301.395 67.1631 302.07 67.0635 302.772Z" fill="black"/>
<path d="M131.486 253.834C131.592 256.925 131.79 260.003 132.08 263.068C132.233 264.598 132.43 266.123 132.707 267.625C132.941 269.115 133.326 270.578 133.857 271.99C134.148 272.671 134.509 273.319 134.937 273.923C135.366 274.589 135.758 275.278 136.112 275.987C136.784 277.413 137.328 278.895 137.738 280.416C138.544 283.436 138.867 286.565 138.696 289.686C138.343 286.636 137.702 283.626 136.782 280.697C136.321 279.254 135.763 277.843 135.111 276.476C134.752 275.814 134.433 275.129 134.016 274.504C133.56 273.84 133.179 273.127 132.878 272.38C131.933 269.382 131.429 266.264 131.38 263.121C131.226 260.026 131.261 256.925 131.486 253.834Z" fill="black"/>
<path d="M206.609 61.5264L206.332 55.2996L206.494 55.4306L204.204 55.921C204.186 55.925 204.167 55.9258 204.148 55.9232L204.137 55.9216C203.817 55.8732 203.528 55.7034 203.33 55.4474L203.339 55.4583C202.979 54.9691 202.776 54.3819 202.757 53.7746C202.696 53.1553 202.868 52.5354 203.24 52.0367L203.229 52.0528L203.287 51.9723L203.301 51.9539L203.307 51.947C203.445 51.7959 203.6 51.6606 203.768 51.5436C203.945 51.4212 204.142 51.3306 204.35 51.2756L204.285 51.7549L203.601 51.4233C203.582 51.4144 203.565 51.4032 203.549 51.3899L203.544 51.3856C203.174 51.0718 202.87 50.6878 202.649 50.2559C202.432 49.8043 202.341 49.3026 202.385 48.8036C202.436 48.3172 202.584 47.8461 202.822 47.419C202.938 47.2114 203.071 47.0175 203.196 46.8164C203.337 46.6238 203.508 46.4444 203.665 46.2598L203.612 46.668C203.28 46.1279 203.053 45.5294 202.944 44.9045C202.898 44.5679 202.922 44.2254 203.015 43.8986C203.115 43.5466 203.313 43.23 203.585 42.9847L203.667 43.5736C203.303 43.414 202.973 43.1865 202.695 42.9032C202.399 42.6024 202.211 42.2127 202.158 41.7942C202.145 41.3997 202.216 41.0069 202.367 40.6422C202.518 40.2775 202.745 39.9493 203.033 39.6796C204.044 38.5884 205.447 37.9431 206.933 37.8854C207.645 37.8247 208.36 37.8307 209.07 37.9034C209.423 37.9384 209.774 37.9919 210.123 38.0573L210.648 38.17C210.855 38.2257 211.052 38.3156 211.229 38.4359C211.584 38.66 211.866 38.9839 212.039 39.367C212.195 39.754 212.24 40.1767 212.169 40.5879C211.998 41.3171 211.67 42.0001 211.207 42.5888L211.069 42.0511C211.519 42.2743 211.936 42.5573 212.311 42.8922C212.704 43.2318 213.018 43.6522 213.234 44.1247C213.452 44.6269 213.486 45.1899 213.332 45.7151C213.183 46.2099 212.932 46.6682 212.596 47.0608L212.566 46.6C213.019 47.0415 213.417 47.5365 213.75 48.0741C214.107 48.6178 214.342 49.2324 214.438 49.8755C214.524 50.5534 214.349 51.2388 213.948 51.792C213.553 52.3069 213.046 52.7251 212.466 53.0147L212.59 52.6768C212.879 53.5017 213.042 54.3654 213.074 55.239C213.122 56.1215 212.952 57.0022 212.578 57.8032C212.19 58.6077 211.531 59.2495 210.716 59.6156C210.327 59.807 209.919 59.9559 209.498 60.0598C209.079 60.1502 208.651 60.1947 208.23 60.2634L208.265 60.2538C207.649 60.5695 207.102 61.005 206.656 61.5348L206.652 61.5396C206.652 61.5396 206.65 61.5373 206.639 61.5364L206.626 61.574C206.043 62.2679 205.654 63.1037 205.499 63.9964C205.617 63.0874 205.973 62.2258 206.532 61.4991L206.519 61.5363C206.529 61.506 206.545 61.4779 206.566 61.4534L206.562 61.458C206.999 60.8882 207.547 60.4125 208.173 60.0592L208.188 60.0537L208.208 60.0494C208.616 59.9634 209.03 59.9022 209.429 59.7978C209.823 59.6817 210.204 59.5236 210.564 59.3262C211.288 58.9605 211.867 58.3601 212.205 57.623C212.528 56.8795 212.663 56.068 212.597 55.2602C212.547 54.4446 212.375 53.6411 212.088 52.8762C212.066 52.817 212.064 52.7519 212.084 52.6918C212.104 52.6318 212.145 52.5805 212.198 52.5468L212.212 52.538C212.706 52.2772 213.135 51.9084 213.467 51.4591C213.772 51.0219 213.896 50.4841 213.814 49.9578C213.551 48.852 212.957 47.8526 212.112 47.0929C212.052 47.0342 212.016 46.9561 212.009 46.8728C212.003 46.7895 212.026 46.7066 212.076 46.6393L212.082 46.6318C212.351 46.3122 212.553 45.9406 212.673 45.54C212.786 45.162 212.758 44.756 212.596 44.3965C212.189 43.6465 211.548 43.0511 210.769 42.7018L210.764 42.6993C210.722 42.6779 210.684 42.6482 210.652 42.6121C210.621 42.5759 210.597 42.534 210.582 42.4886C210.567 42.4433 210.561 42.3954 210.565 42.3477C210.568 42.3001 210.581 42.2536 210.603 42.2109L210.631 42.1639C211.019 41.6633 211.297 41.0859 211.445 40.4698C211.5 40.2004 211.47 39.9207 211.358 39.6694C211.247 39.4181 211.06 39.2077 210.824 39.0673C210.716 38.9942 210.596 38.9388 210.471 38.9031L209.984 38.8032C209.656 38.7432 209.324 38.6996 208.992 38.6636C208.33 38.5903 207.663 38.579 207 38.6298C206.355 38.6448 205.72 38.7872 205.13 39.0489C204.541 39.3105 204.009 39.6863 203.566 40.1544C203.344 40.3504 203.166 40.5905 203.043 40.8593C202.92 41.1281 202.854 41.4197 202.85 41.7154C202.91 41.9918 203.039 42.2486 203.225 42.4624C203.41 42.6761 203.646 42.8401 203.911 42.9392L203.923 42.9449C203.964 42.9641 204.001 42.9912 204.032 43.0247C204.063 43.0582 204.086 43.0974 204.102 43.1401C204.117 43.1828 204.124 43.2281 204.122 43.2735C204.12 43.3188 204.109 43.3634 204.09 43.4045C204.068 43.4526 204.034 43.4949 203.993 43.5283C203.839 43.688 203.725 43.8816 203.659 44.0935C203.591 44.3311 203.572 44.5802 203.605 44.8252C203.638 45.0889 203.706 45.3469 203.808 45.5925L204.165 46.3247C204.197 46.3893 204.209 46.4615 204.201 46.5329C204.192 46.6042 204.163 46.6716 204.118 46.727L204.112 46.7333C203.983 46.8897 203.842 47.0324 203.717 47.1966C203.604 47.3725 203.479 47.5442 203.373 47.7231C203.165 48.0723 203.031 48.46 202.978 48.8627C202.945 49.2646 203.011 49.6686 203.171 50.039C203.33 50.4094 203.578 50.735 203.893 50.9871L203.837 50.9497L204.513 51.2979C204.574 51.3291 204.619 51.3831 204.64 51.4479C204.661 51.5127 204.655 51.5831 204.624 51.6436C204.605 51.6772 204.58 51.7065 204.55 51.7296C204.52 51.7527 204.485 51.769 204.447 51.7773C204.303 51.8168 204.165 51.8786 204.039 51.9606C203.906 52.0492 203.783 52.1515 203.671 52.2658L203.69 52.2408L203.629 52.32L203.617 52.3364C203.307 52.737 203.157 53.2391 203.197 53.7445C203.199 54.2606 203.352 54.7649 203.638 55.1945L203.648 55.2057C203.782 55.3868 203.979 55.5103 204.201 55.5513L204.134 55.5519L206.443 55.1623L206.449 55.1614C206.484 55.1554 206.52 55.1637 206.549 55.1843C206.578 55.2049 206.598 55.2362 206.604 55.2713L206.605 55.2935L206.609 61.5264Z" fill="black"/>
<path d="M209.711 57.0716C209.543 56.4538 209.175 55.9091 208.664 55.523C208.419 55.3722 208.131 55.3069 207.846 55.3375C207.537 55.3802 207.233 55.4528 206.938 55.5541C206.284 55.7585 205.618 55.9194 204.944 56.0357C204.577 56.0931 204.203 56.0894 203.837 56.0247C203.617 55.9907 203.411 55.8948 203.242 55.7483C203.074 55.6018 202.951 55.4106 202.887 55.1968L202.899 55.2278C202.773 54.8742 202.696 54.5049 202.672 54.1304C202.644 53.761 202.677 53.3894 202.771 53.0309C202.858 52.6716 203.023 52.3355 203.252 52.0456C203.482 51.7622 203.756 51.5179 204.064 51.3224L204.077 51.5425C203.608 51.3182 203.197 50.9891 202.875 50.5807C202.545 50.1521 202.364 49.627 202.361 49.0859C202.372 48.5492 202.507 48.0223 202.754 47.5459C202.886 47.3231 203.009 47.0904 203.151 46.8742L203.617 46.2588L203.654 46.7655C203.249 46.4137 202.942 45.9629 202.764 45.4571C202.582 44.9196 202.614 44.3324 202.856 43.8186C203.082 43.3144 203.469 42.8994 203.956 42.6386C204.403 42.4204 204.877 42.2614 205.366 42.1654C206.285 41.9352 207.226 41.8003 208.173 41.7628C209.131 41.6886 210.089 41.8914 210.934 42.3471C210.938 42.3498 210.942 42.3533 210.945 42.3574C210.948 42.3615 210.95 42.3661 210.951 42.371C210.952 42.376 210.952 42.381 210.952 42.386C210.951 42.391 210.949 42.3957 210.946 42.4C210.941 42.4074 210.934 42.4129 210.925 42.4156C210.917 42.4184 210.907 42.4182 210.899 42.4151C210.029 42.1519 209.108 42.101 208.214 42.2666C207.315 42.4002 206.428 42.6062 205.562 42.8825C205.146 42.9909 204.742 43.1427 204.357 43.3353C204.026 43.525 203.76 43.8122 203.597 44.1579C203.452 44.5122 203.424 44.9039 203.517 45.2754C203.61 45.6469 203.82 45.9787 204.116 46.2219L204.131 46.2357C204.196 46.2996 204.236 46.3861 204.24 46.4778C204.244 46.5695 204.213 46.6593 204.154 46.729C203.842 47.0786 203.557 47.4509 203.301 47.8428C203.067 48.23 202.911 48.6595 202.842 49.1069C202.794 49.557 202.9 50.0101 203.144 50.3917C203.401 50.7858 203.757 51.1046 204.178 51.3156L204.183 51.3186C204.213 51.3344 204.235 51.3613 204.244 51.3933C204.254 51.4253 204.25 51.4598 204.234 51.4892C204.224 51.5082 204.209 51.5243 204.191 51.5359C203.899 51.6991 203.645 51.9228 203.446 52.1919C203.248 52.457 203.119 52.7671 203.07 53.0944C202.996 53.7476 203.113 54.4081 203.406 54.9964L203.41 55.0042L203.418 55.0278C203.576 55.4511 204.231 55.4342 204.854 55.3549C205.503 55.2611 206.147 55.1327 206.782 54.9703C207.125 54.8635 207.481 54.8067 207.839 54.8014C208.228 54.8073 208.604 54.9402 208.91 55.1799C209.174 55.4193 209.387 55.7088 209.537 56.0315C209.688 56.3542 209.773 56.7035 209.787 57.0593C209.788 57.0694 209.785 57.0795 209.778 57.0874C209.772 57.0952 209.763 57.1003 209.753 57.1013C209.743 57.1015 209.734 57.0987 209.727 57.0934C209.719 57.088 209.714 57.0804 209.711 57.0716Z" fill="black"/>
<path d="M204.036 51.1391C204.775 50.8742 205.53 50.6572 206.297 50.4895C206.681 50.4104 207.076 50.3713 207.464 50.3165C207.858 50.2886 208.254 50.2887 208.648 50.3168C209.442 50.3495 210.214 50.5839 210.892 50.9978C211.557 51.4135 212.065 52.0378 212.337 52.7731C212.015 52.0814 211.472 51.5161 210.795 51.1654C210.126 50.8298 209.382 50.6709 208.634 50.7039C208.262 50.7089 207.891 50.7401 207.524 50.7971C207.158 50.8816 206.792 50.9483 206.433 51.0542C205.717 51.2759 205.016 51.5432 204.334 51.8543L204.317 51.8614C204.223 51.9015 204.117 51.9029 204.022 51.8652C203.927 51.8276 203.851 51.7539 203.81 51.6603C203.769 51.5667 203.767 51.4607 203.803 51.3653C203.84 51.2699 203.913 51.1928 204.006 51.1508L204.036 51.1391Z" fill="black"/>
<path d="M212.335 46.8464C211.827 46.2933 211.17 45.8992 210.443 45.7117C209.727 45.5214 208.983 45.4665 208.247 45.5498C207.513 45.6218 206.79 45.7741 206.089 46.004C205.742 46.1339 205.392 46.2501 205.051 46.3893L204.04 46.8443L204.016 46.8547C203.924 46.8961 203.818 46.8991 203.724 46.863C203.629 46.8268 203.552 46.7546 203.51 46.662C203.469 46.5694 203.465 46.4641 203.501 46.3691C203.537 46.2741 203.609 46.1973 203.702 46.1554L203.732 46.1434L204.822 45.7598C205.189 45.6451 205.566 45.5538 205.936 45.4506C206.688 45.2725 207.457 45.1775 208.23 45.1674C209.004 45.1461 209.774 45.2689 210.502 45.5298C211.227 45.7827 211.864 46.2399 212.335 46.8464Z" fill="black"/>
<path d="M208.855 18.2145C210.121 17.3389 211.443 16.5485 212.813 15.8488C214.163 15.131 215.549 14.4964 216.941 13.8779C218.346 13.286 219.758 12.712 221.205 12.2208C222.654 11.7023 224.136 11.282 225.642 10.9629C224.377 11.8402 223.055 12.6313 221.685 13.3308C220.335 14.0482 218.949 14.6828 217.556 15.2995C216.151 15.8896 214.739 16.4637 213.291 16.9545C211.842 17.4726 210.36 17.8935 208.855 18.2145Z" fill="black"/>
<path d="M214.167 24.6295C215.413 24.3282 216.682 24.1269 217.96 24.0272C219.224 23.9036 220.489 23.8706 221.753 23.8552C223.017 23.8688 224.282 23.9018 225.546 24.0249C226.825 24.1242 228.093 24.3264 229.339 24.6295C228.093 24.9326 226.825 25.1348 225.546 25.2341C224.282 25.3573 223.017 25.3903 221.753 25.4038C220.489 25.3884 219.224 25.3554 217.96 25.2318C216.682 25.1321 215.413 24.9307 214.167 24.6295Z" fill="black"/>
<path d="M214.167 32.9036C215.174 32.8478 216.184 32.8935 217.182 33.04C218.163 33.1654 219.135 33.3502 220.093 33.5935C221.053 33.8302 221.997 34.1259 222.92 34.4788C223.869 34.821 224.781 35.2589 225.642 35.7857C224.634 35.8434 223.624 35.7985 222.626 35.6516C221.645 35.5263 220.673 35.3407 219.716 35.0959C218.756 34.8575 217.812 34.5611 216.889 34.2083C215.94 33.8658 215.028 33.4287 214.167 32.9036Z" fill="black"/>
<path d="M69.6286 192.756C70.0174 192.743 70.3859 192.579 70.6562 192.299C70.9265 192.019 71.0776 191.645 71.0776 191.256C71.0776 190.867 70.9265 190.493 70.6562 190.214C70.3859 189.934 70.0174 189.77 69.6286 189.756C69.2398 189.77 68.8714 189.934 68.6011 190.214C68.3308 190.493 68.1797 190.867 68.1797 191.256C68.1797 191.645 68.3308 192.019 68.6011 192.299C68.8714 192.579 69.2398 192.743 69.6286 192.756Z" fill="black"/>
<path d="M71.3093 201.876C71.6981 201.863 72.0665 201.699 72.3368 201.419C72.6071 201.139 72.7582 200.766 72.7582 200.376C72.7582 199.987 72.6071 199.614 72.3368 199.334C72.0665 199.054 71.6981 198.89 71.3093 198.876C70.9204 198.89 70.552 199.054 70.2817 199.334C70.0114 199.614 69.8604 199.987 69.8604 200.376C69.8604 200.766 70.0114 201.139 70.2817 201.419C70.552 201.699 70.9204 201.863 71.3093 201.876Z" fill="black"/>
<path d="M76.5886 210.996C76.9774 210.983 77.3458 210.819 77.6161 210.539C77.8864 210.259 78.0375 209.885 78.0375 209.496C78.0375 209.107 77.8864 208.733 77.6161 208.454C77.3458 208.174 76.9774 208.01 76.5886 207.996C76.1997 208.01 75.8313 208.174 75.561 208.454C75.2907 208.733 75.1396 209.107 75.1396 209.496C75.1396 209.885 75.2907 210.259 75.561 210.539C75.8313 210.819 76.1997 210.983 76.5886 210.996Z" fill="black"/>
<path d="M84.029 219.876C84.4178 219.863 84.7862 219.699 85.0565 219.419C85.3269 219.139 85.4779 218.766 85.4779 218.376C85.4779 217.987 85.3269 217.614 85.0565 217.334C84.7862 217.054 84.4178 216.89 84.029 216.876C83.6402 216.89 83.2718 217.054 83.0015 217.334C82.7312 217.614 82.5801 217.987 82.5801 218.376C82.5801 218.766 82.7312 219.139 83.0015 219.419C83.2718 219.699 83.6402 219.863 84.029 219.876Z" fill="black"/>
<path d="M90.989 225.876C91.3778 225.863 91.7462 225.699 92.0165 225.419C92.2868 225.139 92.4379 224.766 92.4379 224.376C92.4379 223.987 92.2868 223.614 92.0165 223.334C91.7462 223.054 91.3778 222.89 90.989 222.876C90.6001 222.89 90.2317 223.054 89.9614 223.334C89.6911 223.614 89.54 223.987 89.54 224.376C89.54 224.766 89.6911 225.139 89.9614 225.419C90.2317 225.699 90.6001 225.863 90.989 225.876Z" fill="black"/>
<path d="M98.1891 231.396C98.578 231.383 98.9464 231.219 99.2167 230.939C99.487 230.659 99.6381 230.286 99.6381 229.896C99.6381 229.507 99.487 229.134 99.2167 228.854C98.9464 228.574 98.578 228.41 98.1891 228.396C97.8003 228.41 97.4319 228.574 97.1616 228.854C96.8913 229.134 96.7402 229.507 96.7402 229.896C96.7402 230.286 96.8913 230.659 97.1616 230.939C97.4319 231.219 97.8003 231.383 98.1891 231.396Z" fill="black"/>
<path d="M102.989 240.756C103.378 240.743 103.746 240.579 104.017 240.299C104.287 240.019 104.438 239.645 104.438 239.256C104.438 238.867 104.287 238.493 104.017 238.214C103.746 237.934 103.378 237.77 102.989 237.756C102.6 237.77 102.232 237.934 101.961 238.214C101.691 238.493 101.54 238.867 101.54 239.256C101.54 239.645 101.691 240.019 101.961 240.299C102.232 240.579 102.6 240.743 102.989 240.756Z" fill="black"/>
<path d="M106.589 246.996C106.977 246.983 107.346 246.819 107.616 246.539C107.886 246.259 108.038 245.885 108.038 245.496C108.038 245.107 107.886 244.733 107.616 244.454C107.346 244.174 106.977 244.01 106.589 243.996C106.2 244.01 105.831 244.174 105.561 244.454C105.291 244.733 105.14 245.107 105.14 245.496C105.14 245.885 105.291 246.259 105.561 246.539C105.831 246.819 106.2 246.983 106.589 246.996Z" fill="black"/>
<path d="M114.509 250.356C114.897 250.343 115.266 250.179 115.536 249.899C115.806 249.619 115.957 249.246 115.957 248.856C115.957 248.467 115.806 248.094 115.536 247.814C115.266 247.534 114.897 247.37 114.509 247.356C114.12 247.37 113.751 247.534 113.481 247.814C113.211 248.094 113.06 248.467 113.06 248.856C113.06 249.246 113.211 249.619 113.481 249.899C113.751 250.179 114.12 250.343 114.509 250.356Z" fill="black"/>
<path d="M122.669 251.556C123.058 251.543 123.426 251.379 123.696 251.099C123.967 250.819 124.118 250.445 124.118 250.056C124.118 249.667 123.967 249.293 123.696 249.014C123.426 248.734 123.058 248.57 122.669 248.556C122.28 248.57 121.911 248.734 121.641 249.014C121.371 249.293 121.22 249.667 121.22 250.056C121.22 250.445 121.371 250.819 121.641 251.099C121.911 251.379 122.28 251.543 122.669 251.556Z" fill="black"/>
<path d="M131.549 252.036C131.937 252.023 132.306 251.859 132.576 251.579C132.846 251.299 132.997 250.925 132.997 250.536C132.997 250.147 132.846 249.773 132.576 249.494C132.306 249.214 131.937 249.05 131.549 249.036C131.16 249.05 130.791 249.214 130.521 249.494C130.251 249.773 130.1 250.147 130.1 250.536C130.1 250.925 130.251 251.299 130.521 251.579C130.791 251.859 131.16 252.023 131.549 252.036Z" fill="black"/>
<path d="M138.989 252.036C139.378 252.023 139.746 251.859 140.017 251.579C140.287 251.299 140.438 250.925 140.438 250.536C140.438 250.147 140.287 249.773 140.017 249.494C139.746 249.214 139.378 249.05 138.989 249.036C138.6 249.05 138.232 249.214 137.961 249.494C137.691 249.773 137.54 250.147 137.54 250.536C137.54 250.925 137.691 251.299 137.961 251.579C138.232 251.859 138.6 252.023 138.989 252.036Z" fill="black"/>
</svg>
