<svg width="50" height="50" viewBox="0 0 50 50" fill="none" xmlns="http://www.w3.org/2000/svg">
<path d="M16.0292 43.5C11.9354 43.5 9.59375 40.2771 8.34583 36.2917C7.88958 34.825 7.46042 33.2479 5.39375 31.1417C1.94375 27.6208 0 22.9104 0 18.6104C0 11.4375 5.65208 6 11.8604 6C19.2187 6 24.7896 12.4458 21.1292 22.5146L17.2188 21.1125C19.8021 13.8292 16.35 10.1354 11.9125 10.1354C8.34792 10.1354 4.79583 13.0958 4.23125 17.3354C3.75625 20.8979 5.3 25.1104 8.35833 28.2292C11.2271 31.1542 11.8521 33.45 12.4 35.3062C13.0062 37.3333 14.0458 39.2896 16.15 39.2896C18.4062 39.2896 20.1458 36.7396 17.6146 33.4021L21.2646 31.35C25.4771 37.8042 21.225 43.5 16.0292 43.5ZM15.5333 28.4333C13.4208 29.55 11.5083 27.9417 10.6583 25.9729C9.84792 24.0958 10.3396 21.9458 11.9667 20.2208C13.0854 19.0333 13.6167 17.6792 13.3833 16.5958C13.2958 16.1833 13.05 15.6333 12.3854 15.3604C11.7229 15.0875 11.1271 15.1042 10.5729 15.4125C9.68333 15.9062 8.97917 17.1083 8.73333 18.5479L6.2125 18.1188C6.58958 15.8979 7.75833 14.05 9.33333 13.1771C10.5792 12.4875 11.9708 12.425 13.3583 12.9979C14.6604 13.5333 15.5792 14.6479 15.8833 16.0604C16.3 17.9958 15.55 20.1521 13.8271 21.9792C17.3354 22.8521 17.7646 27.0729 15.5333 28.4333ZM31.9979 36.3708L34.25 21.8625L36.55 31.7417C36.7771 32.7542 38.1833 32.8687 38.5667 31.8937L40.6521 26.5667L42.5979 31.1C42.9208 31.8521 43.9396 31.9688 44.4229 31.3083L46.1937 28.9H48.9792C49.5437 28.9 50 28.4417 50 27.875C50 27.3104 49.5417 26.8542 48.9792 26.8542H45.6479C45.3104 26.8542 44.9917 27.0167 44.7937 27.2875L43.8104 28.5625L41.5792 23.3625C41.2062 22.4937 39.9687 22.5125 39.6229 23.3958L37.8562 27.9125L35.1313 15.2C34.875 14.0583 33.2417 14.1229 33.0562 15.2625L30.7979 29.8458L28.4896 21.2667C28.2312 20.2417 26.7875 20.1833 26.4583 21.2L24.7396 26.8333H21.2729C20.7083 26.8333 20.2521 27.2917 20.2521 27.8542V27.8792C20.2521 28.4437 20.7104 28.9 21.2729 28.9H25.5708C25.9542 28.9 26.3667 28.5917 26.475 28.225L27.3312 25.3354L29.9292 36.4562C30.2104 37.575 31.8146 37.5 31.9979 36.3708Z" fill="black"/>
</svg>
