<svg width="24" height="24" viewBox="0 0 24 24" fill="none" xmlns="http://www.w3.org/2000/svg">
<path d="M7.694 21C5.729 21 4.605 19.453 4.006 17.54C3.787 16.836 3.581 16.079 2.589 15.068C0.933 13.378 0 11.117 0 9.053C0 5.61 2.713 3 5.693 3C9.225 3 11.899 6.094 10.142 10.927L8.265 10.254C9.505 6.758 7.848 4.985 5.718 4.985C4.007 4.985 2.302 6.406 2.031 8.441C1.803 10.151 2.544 12.173 4.012 13.67C5.389 15.074 5.689 16.176 5.952 17.067C6.243 18.04 6.742 18.979 7.752 18.979C8.835 18.979 9.67 17.755 8.455 16.153L10.207 15.168C12.229 18.266 10.188 21 7.694 21ZM7.456 13.768C6.442 14.304 5.524 13.532 5.116 12.587C4.727 11.686 4.963 10.654 5.744 9.826C6.281 9.256 6.536 8.606 6.424 8.086C6.382 7.888 6.264 7.624 5.945 7.493C5.627 7.362 5.341 7.37 5.075 7.518C4.648 7.755 4.31 8.332 4.192 9.023L2.982 8.817C3.163 7.751 3.724 6.864 4.48 6.445C5.078 6.114 5.746 6.084 6.412 6.359C7.037 6.616 7.478 7.151 7.624 7.829C7.824 8.758 7.464 9.793 6.637 10.67C8.321 11.089 8.527 13.115 7.456 13.768ZM15.359 17.578L16.44 10.614L17.544 15.356C17.653 15.842 18.328 15.897 18.512 15.429L19.513 12.872L20.447 15.048C20.602 15.409 21.091 15.465 21.323 15.148L22.173 13.992H23.51C23.781 13.992 24 13.772 24 13.5C24 13.229 23.78 13.01 23.51 13.01H21.911C21.749 13.01 21.596 13.088 21.501 13.218L21.029 13.83L19.958 11.334C19.779 10.917 19.185 10.926 19.019 11.35L18.171 13.518L16.863 7.416C16.74 6.868 15.956 6.899 15.867 7.446L14.783 14.446L13.675 10.328C13.551 9.836 12.858 9.808 12.7 10.296L11.875 13H10.211C9.94 13 9.721 13.22 9.721 13.49V13.502C9.721 13.773 9.941 13.992 10.211 13.992H12.274C12.458 13.992 12.656 13.844 12.708 13.668L13.119 12.281L14.366 17.619C14.501 18.156 15.271 18.12 15.359 17.578Z" fill="white"/>
</svg>
