<svg width="28" height="26" viewBox="0 0 28 26" fill="none" xmlns="http://www.w3.org/2000/svg">
<path d="M7 0L8.36733 0.239909C7.952 2.89309 9.29017 3.21691 11.5138 3.63645C13.2277 3.95909 15.1667 4.37155 15.1667 7.51755V8.27273H13.7865V7.51755C13.7865 5.67864 13.2277 5.37964 11.263 5.00973C8.24833 4.44245 6.48317 3.36582 7 0ZM22.0127 11.8182C22.5517 11.8182 23.0207 12.1916 23.1478 12.7223C23.7638 15.3152 25.5033 22.633 25.627 23.2735C25.6947 23.6009 25.361 23.8656 24.7532 23.3149C20.657 19.6075 19.817 17.7273 17.6225 17.7273H10.3542C8.18417 17.7273 7.34417 19.6075 3.248 23.3137C2.67633 23.8302 2.30183 23.6446 2.36367 23.3173C2.47917 22.7169 4.23267 15.3294 4.85217 12.7223C4.97933 12.1905 5.44717 11.8182 5.98733 11.8182H22.0127ZM25.1568 11.0855C24.9212 10.127 24.0707 9.45455 23.0953 9.45455H4.90467C3.92933 9.45455 3.07883 10.127 2.842 11.0855C2.67167 11.7981 0 22.6956 0 23.3492C0 24.9789 1.27633 26 2.667 26C3.4055 26 4.1405 25.6762 4.802 25.077C8.9915 21.2857 9.20033 20.0909 10.3542 20.0909H17.6622C18.795 20.0909 19.019 21.294 23.198 25.077C23.8595 25.6762 24.5945 26 25.333 26C26.7237 26 28 24.9789 28 23.3492C28 22.6956 25.3283 11.7981 25.1568 11.0855ZM10.5 15.3636H9.33333V16.5455H8.16667V15.3636H7V14.1818H8.16667V13H9.33333V14.1818H10.5V15.3636ZM15.1667 16.5455H12.8333V15.3636H15.1667V16.5455ZM19.25 14.1818C18.928 14.1818 18.6667 13.9171 18.6667 13.5909C18.6667 13.2647 18.928 13 19.25 13C19.572 13 19.8333 13.2647 19.8333 13.5909C19.8333 13.9171 19.572 14.1818 19.25 14.1818ZM18.0833 15.3636C17.7613 15.3636 17.5 15.0989 17.5 14.7727C17.5 14.4465 17.7613 14.1818 18.0833 14.1818C18.4053 14.1818 18.6667 14.4465 18.6667 14.7727C18.6667 15.0989 18.4053 15.3636 18.0833 15.3636ZM20.4167 15.3636C20.0947 15.3636 19.8333 15.0989 19.8333 14.7727C19.8333 14.4465 20.0947 14.1818 20.4167 14.1818C20.7387 14.1818 21 14.4465 21 14.7727C21 15.0989 20.7387 15.3636 20.4167 15.3636ZM19.25 16.5455C18.928 16.5455 18.6667 16.2807 18.6667 15.9545C18.6667 15.6284 18.928 15.3636 19.25 15.3636C19.572 15.3636 19.8333 15.6284 19.8333 15.9545C19.8333 16.2807 19.572 16.5455 19.25 16.5455Z" fill="white"/>
</svg>
