<svg width="50" height="50" viewBox="0 0 50 50" fill="none" xmlns="http://www.w3.org/2000/svg">
<path d="M12.8232 9.9045C7.23717 15.5 5.02367 17.7615 4.87067 18.0775C4.70767 18.4225 4.65967 18.6715 4.65967 19.323C4.65967 20.051 4.68817 20.195 4.94717 20.655C5.15817 21.0385 8.31967 24.2385 18.2367 34.117C30.5582 46.3715 31.2867 47.0805 31.9762 47.4445L32.7142 47.828H40.2452C47.4982 47.828 47.7857 47.8185 48.1497 47.646C48.6287 47.4065 49.0792 46.956 49.3187 46.477C49.4817 46.151 49.5007 45.8925 49.5007 44.331C49.4912 42.2805 49.3567 41.591 48.6577 40.259C48.0922 39.1765 46.8182 37.9115 45.7642 37.3655C44.1737 36.551 44.0877 36.532 40.3222 36.4935C37.1987 36.465 36.9687 36.4745 36.7867 36.6375C36.4992 36.896 36.4132 37.193 36.5282 37.5285C36.7197 38.0745 36.8827 38.1035 40.0827 38.1035C43.3022 38.1035 43.7427 38.161 44.8447 38.707C45.6112 39.0805 46.6077 40.0005 47.0577 40.748C47.4122 41.3325 47.8147 42.415 47.8242 42.7695V42.99H41.0877H34.3617L21.2832 29.9105L8.20467 16.832L14.3367 10.7C17.7092 7.3275 20.4877 4.6065 20.5167 4.6445C20.5552 4.683 20.7657 5.229 20.9862 5.8615C22.4332 9.895 24.3877 12.942 26.4092 14.312C27.6932 15.1745 29.5997 15.96 31.3532 16.343C32.1582 16.5155 34.2852 16.8315 34.6587 16.8315C34.7737 16.8315 34.7927 17.3105 34.7927 20.089V23.347H33.8727C32.9627 23.347 32.9527 23.347 32.5602 23.0115C31.9372 22.475 31.1422 22.4365 30.5192 22.9155C30.0882 23.2415 29.8867 23.663 29.8867 24.209C29.8867 25.694 31.6687 26.3935 32.6942 25.3015C32.8957 25.0905 32.9722 25.0715 33.8537 25.0715H34.7927V27.515V29.958H33.8922C32.9917 29.958 32.9917 29.958 32.6657 29.632C31.6212 28.5875 29.8872 29.2585 29.8872 30.715C29.8872 32.2095 31.6692 32.928 32.6752 31.836C32.8957 31.5965 32.9532 31.587 33.8537 31.587H34.7927V32.018C34.7927 32.267 34.8502 32.5735 34.9267 32.7175C35.1372 33.1105 36.8237 34.7295 37.1112 34.7965C37.6382 34.9305 38.1462 34.423 38.0597 33.8385C38.0502 33.733 37.6667 33.273 37.2262 32.823L36.4212 31.999V23.8935C36.4212 19.438 36.3927 15.7205 36.3637 15.6345C36.2582 15.376 35.7887 15.2035 35.1562 15.2035C34.3612 15.2035 32.7227 14.9735 31.6687 14.7245C28.9377 14.0825 27.1752 13.134 25.8912 11.6105C24.3967 9.8285 22.9692 6.935 22.0012 3.7345C21.6277 2.4795 21.4072 2.173 20.8707 2.173C20.5932 2.1725 19.8367 2.901 12.8232 9.9045ZM20.4017 31.3475L33.7197 44.6175H40.8197H47.9192V45.154C47.9192 45.614 47.8807 45.7195 47.6412 45.9685L47.3537 46.2465L40.1867 46.2275C33.2212 46.199 33.0102 46.189 32.6752 46.007C32.3112 45.806 6.56617 20.2235 6.36517 19.869C6.29817 19.754 6.25017 19.476 6.24067 19.256C6.24067 18.9205 6.29817 18.777 6.58567 18.461C6.77717 18.25 6.96917 18.0775 7.00717 18.0775C7.05517 18.0775 13.0817 24.0465 20.4017 31.3475Z" fill="black"/>
<path d="M18.8686 8.74551C18.6006 8.88901 18.4471 9.24351 18.4951 9.59801C18.5046 9.70351 18.7156 10.1535 18.9551 10.604C20.4206 13.335 22.8351 15.9025 25.4511 17.5025C26.3231 18.039 27.8271 18.748 28.8526 19.112C29.8876 19.4665 31.6696 19.8975 32.2541 19.917C32.6471 19.936 32.7426 19.9075 32.9341 19.6775C33.2216 19.342 33.2311 18.9205 32.9531 18.614C32.7711 18.432 32.5221 18.336 31.6786 18.1735C26.7061 17.206 22.4616 13.977 20.1521 9.397C19.7691 8.64 19.4051 8.44851 18.8686 8.74551Z" fill="black"/>
<path d="M27.1659 21.814C26.6389 22.025 26.6484 21.91 26.6484 27.4865V32.6315L26.8784 32.89C27.1949 33.2635 27.7314 33.2635 28.0474 32.89L28.2774 32.6315V27.467V22.303L28.0664 22.0635C27.8174 21.7855 27.4629 21.6895 27.1659 21.814Z" fill="black"/>
<path d="M2.35998 30.198C2.05348 30.495 2.05348 30.9165 2.35048 31.271L2.58048 31.5395H6.17348H9.76648L10.0155 31.3095C10.3415 31.003 10.3605 30.4665 10.0445 30.1695C9.82398 29.9585 9.78598 29.9585 6.20248 29.9585H2.58998L2.35998 30.198Z" fill="black"/>
<path d="M0.731076 35.0845C0.424577 35.3815 0.424577 35.803 0.721576 36.1575L0.951576 36.426L7.69707 36.4545C12.7466 36.4735 14.4996 36.445 14.7106 36.3585C15.0171 36.234 15.2856 35.726 15.1801 35.4485C15.1516 35.3525 15.0366 35.18 14.9311 35.0555L14.7396 34.8445H7.85007H0.961076L0.731076 35.0845Z" fill="black"/>
<path d="M4.12303 39.856C3.68253 40.1915 3.64403 40.699 4.02703 41.0825L4.30503 41.36H11.9415H19.578L19.856 41.082C20.201 40.737 20.2105 40.4115 19.8845 40.028L19.6355 39.731H11.9605C6.06803 39.741 4.23803 39.76 4.12303 39.856Z" fill="black"/>
</svg>
