<svg width="30" height="24" viewBox="0 0 30 24" fill="none" xmlns="http://www.w3.org/2000/svg">
<path d="M29.9999 17.9219C29.9999 16.2413 29.4742 14.6186 28.4796 13.2291C27.7641 12.2297 26.8428 11.3997 25.7752 10.7829C27.0322 9.64335 27.8186 8.03264 27.8186 6.24837C27.8186 2.80305 24.8907 0 21.2919 0C19.1579 0 17.1589 1.01037 15.9446 2.66896C15.6361 2.62594 15.3208 2.60273 15 2.60273C14.6791 2.60273 14.3639 2.62602 14.0554 2.66896C12.8411 1.01037 10.8421 0 8.70813 0C5.10925 0 2.18128 2.80305 2.18128 6.24837C2.18128 8.03264 2.96776 9.64335 4.22484 10.7829C3.15711 11.3996 2.23581 12.2297 1.52045 13.229C0.525769 14.6186 0 16.2413 0 17.9219V21.3973H6.29191V24H23.7082V21.3973H30V17.9219H29.9999ZM21.2919 1.54216C24.0025 1.54216 26.2078 3.65335 26.2078 6.24845C26.2078 8.84355 24.0025 10.9547 21.2919 10.9547C21.2433 10.9547 21.1947 10.954 21.1461 10.9527C21.1498 10.9428 21.1529 10.9327 21.1565 10.9228C21.2404 10.695 21.3104 10.4611 21.3665 10.2222C21.3705 10.2052 21.375 10.1884 21.3788 10.1714C21.3934 10.1069 21.4062 10.0418 21.4186 9.97659C21.4245 9.94575 21.4306 9.91499 21.436 9.88407C21.4461 9.82585 21.4553 9.76741 21.4637 9.70873C21.4696 9.66794 21.4749 9.62716 21.48 9.58629C21.4864 9.53448 21.4926 9.48259 21.4977 9.43039C21.5028 9.37711 21.5067 9.32375 21.5104 9.27032C21.5133 9.22822 21.5169 9.18627 21.5189 9.14394C21.5233 9.05319 21.5258 8.96229 21.5262 8.8713C21.5262 8.8646 21.5267 8.85804 21.5267 8.85126C21.5267 8.84763 21.5264 8.84401 21.5264 8.84038C21.5262 8.74747 21.5234 8.6551 21.5191 8.56304C21.5178 8.53629 21.5161 8.50961 21.5145 8.48293C21.5097 8.40467 21.5035 8.32679 21.4959 8.2493C21.4941 8.23172 21.4927 8.21414 21.4908 8.19664C21.2474 5.9445 19.7612 4.01682 17.6172 3.12519C18.5411 2.13155 19.8774 1.54216 21.2919 1.54216ZM13.299 4.43527C13.3147 4.42979 13.3306 4.42463 13.3463 4.41923C13.3952 4.4025 13.4445 4.38661 13.494 4.37127C13.5315 4.35978 13.5693 4.34868 13.6073 4.33804C13.635 4.33025 13.6627 4.32277 13.6905 4.31537C13.7401 4.30234 13.7899 4.28962 13.8403 4.27797C14.2124 4.19146 14.6004 4.14451 14.9998 4.14451C15.3995 4.14481 15.7877 4.19185 16.1599 4.27836C16.2099 4.28992 16.2595 4.30257 16.3088 4.31552C16.337 4.323 16.3652 4.33056 16.3932 4.3385C16.4307 4.34906 16.4681 4.36001 16.5052 4.37135C16.5554 4.38684 16.6052 4.40288 16.6547 4.41985C16.6699 4.42501 16.6851 4.42995 16.7003 4.43527C18.3443 5.01733 19.577 6.41808 19.856 8.118C19.8582 8.13157 19.8603 8.14521 19.8624 8.15886C19.8713 8.21646 19.8788 8.27452 19.8855 8.33273C19.8879 8.35417 19.8905 8.37552 19.8926 8.39704C19.898 8.45016 19.9019 8.50367 19.9054 8.55733C19.9069 8.58031 19.9089 8.60321 19.91 8.62627C19.9134 8.69481 19.9153 8.76374 19.9155 8.83306C19.9155 8.83907 19.9159 8.84493 19.9159 8.85095C19.9159 8.85372 19.9158 8.85658 19.9158 8.85935C19.9156 8.92643 19.9135 8.99305 19.9104 9.05944C19.9095 9.08033 19.9085 9.10123 19.9072 9.12205C19.9034 9.1862 19.8984 9.25004 19.892 9.31342C19.8895 9.33794 19.8861 9.36238 19.8832 9.38682C19.8783 9.42784 19.8728 9.46878 19.8669 9.50949C19.8622 9.54118 19.8575 9.57295 19.8522 9.60449C19.8441 9.65252 19.8351 9.70025 19.8254 9.74782C19.8168 9.79015 19.8073 9.83233 19.7975 9.87443C19.7916 9.8998 19.7855 9.92516 19.7792 9.95038C19.7635 10.0129 19.7462 10.0751 19.7279 10.137C19.7205 10.1616 19.7137 10.1863 19.7059 10.2107C19.6948 10.2461 19.6827 10.2813 19.6707 10.3165C19.661 10.3446 19.6511 10.3726 19.6409 10.4005C19.6293 10.4322 19.6178 10.464 19.6056 10.4954C19.5847 10.5489 19.5628 10.6018 19.54 10.6543C19.5299 10.6778 19.5191 10.701 19.5085 10.7244C19.4886 10.7681 19.4682 10.8116 19.4469 10.8546C19.4444 10.8597 19.4419 10.8648 19.4394 10.8698C19.4318 10.8851 19.4242 10.9005 19.4164 10.9157C19.3926 10.9623 19.3678 11.0083 19.3423 11.054C19.3324 11.0717 19.3228 11.0897 19.3127 11.1073C19.312 11.1085 19.3114 11.1096 19.3107 11.1106C19.2829 11.1592 19.2538 11.207 19.2242 11.2545C19.2125 11.2733 19.2009 11.2922 19.1889 11.3108C19.1567 11.3608 19.1236 11.4103 19.0895 11.4591C19.0683 11.4894 19.0462 11.5191 19.0243 11.5489C19.0056 11.5742 18.9871 11.5996 18.968 11.6245C18.9433 11.6567 18.9181 11.6885 18.8925 11.7202C18.8751 11.7417 18.8575 11.7631 18.8398 11.7844C18.8128 11.8168 18.7854 11.849 18.7576 11.8807C18.7403 11.9003 18.7225 11.9196 18.7048 11.939C18.6758 11.9708 18.6469 12.0027 18.6171 12.0338C18.5994 12.0522 18.581 12.07 18.563 12.0882C18.5145 12.1371 18.4649 12.185 18.4143 12.232C18.3843 12.2598 18.3544 12.2877 18.3236 12.3148C18.3024 12.3335 18.2805 12.3517 18.2589 12.3701C18.2236 12.4001 18.1881 12.4298 18.1519 12.4588C18.1336 12.4735 18.115 12.4881 18.0964 12.5026C18.0527 12.5367 18.0084 12.5701 17.9634 12.6028C17.9511 12.6116 17.939 12.6207 17.9267 12.6294C17.1084 13.2118 16.0956 13.557 14.9999 13.557C13.9041 13.557 12.8911 13.2117 12.0728 12.6292C12.0607 12.6206 12.0489 12.6117 12.0369 12.603C11.9917 12.5702 11.9472 12.5366 11.9033 12.5024C11.8848 12.488 11.8664 12.4735 11.8482 12.4589C11.8118 12.4297 11.7762 12.3999 11.7408 12.3698C11.7193 12.3515 11.6976 12.3334 11.6764 12.3148C11.6455 12.2876 11.6156 12.2596 11.5854 12.2318C11.5346 12.1847 11.4849 12.1367 11.4363 12.0876C11.4185 12.0696 11.4003 12.0521 11.3828 12.0339C11.3529 12.0027 11.324 11.9707 11.295 11.9389C11.2774 11.9195 11.2597 11.9003 11.2423 11.8807C11.2144 11.849 11.1872 11.8168 11.1601 11.7845C11.1424 11.7632 11.1247 11.7418 11.1074 11.7202C11.0818 11.6886 11.0566 11.6568 11.0319 11.6245C11.0128 11.5996 10.9942 11.5741 10.9756 11.5487C10.9537 11.519 10.9316 11.4894 10.9105 11.4592C10.8763 11.4102 10.843 11.3605 10.8107 11.3103C10.7989 11.2919 10.7874 11.2733 10.7758 11.2547C10.7458 11.2066 10.7164 11.1581 10.6881 11.1089C10.6777 11.0907 10.6679 11.0723 10.6577 11.0541C10.6322 11.0083 10.6074 10.9621 10.5834 10.9155C10.5749 10.8989 10.5666 10.8822 10.5583 10.8655C10.557 10.863 10.5558 10.8604 10.5546 10.8579C10.5323 10.8129 10.5109 10.7674 10.4901 10.7215C10.4802 10.6997 10.4701 10.6779 10.4606 10.656C10.4373 10.6024 10.4149 10.5482 10.3936 10.4937C10.3821 10.4642 10.3715 10.4344 10.3606 10.4048C10.3494 10.3743 10.3386 10.3436 10.328 10.3128C10.3167 10.2795 10.3052 10.2462 10.2946 10.2128C10.2788 10.1627 10.2638 10.1124 10.2497 10.0617C10.2398 10.0262 10.2308 9.99032 10.2217 9.95454C10.2146 9.9264 10.2078 9.89825 10.2013 9.86996C10.1932 9.83526 10.1851 9.80064 10.1778 9.76579C10.1666 9.71151 10.1564 9.65692 10.1472 9.60202C10.1422 9.57241 10.1379 9.54273 10.1335 9.51312C10.1269 9.46925 10.1211 9.42514 10.1158 9.38089C10.1132 9.35906 10.1103 9.33724 10.1079 9.31542C10.1012 9.25042 10.0962 9.18496 10.0923 9.11927C10.0912 9.10038 10.0903 9.08149 10.0894 9.0626C10.0861 8.99236 10.0838 8.92188 10.0838 8.85095C10.0838 8.77492 10.086 8.69944 10.0898 8.62426C10.0909 8.60383 10.0926 8.58355 10.0938 8.5632C10.0974 8.50675 10.1016 8.45047 10.1073 8.39449C10.1092 8.37498 10.1115 8.35555 10.1137 8.33612C10.1206 8.27552 10.1285 8.21522 10.1378 8.15531C10.1396 8.14367 10.1413 8.13195 10.1433 8.12031C10.4214 6.41939 11.6543 5.01771 13.299 4.43527ZM3.79209 6.24845C3.79209 3.65343 5.99737 1.54216 8.70813 1.54216C10.1227 1.54216 11.4589 2.13162 12.3828 3.12503C10.2381 4.01698 8.75154 5.94558 8.50887 8.19865C8.50718 8.21391 8.50597 8.22926 8.50444 8.2446C8.49639 8.32487 8.49002 8.40544 8.48519 8.48648C8.48374 8.51115 8.48213 8.53575 8.48092 8.5605C8.47633 8.65695 8.47319 8.75372 8.47319 8.85118C8.47319 8.94956 8.47617 9.04772 8.481 9.14579C8.48294 9.18527 8.48632 9.22436 8.48898 9.26361C8.49292 9.32005 8.49695 9.37649 8.50243 9.43278C8.50726 9.48282 8.51322 9.53255 8.51934 9.58228C8.52466 9.62561 8.5303 9.66879 8.53658 9.71197C8.54479 9.76864 8.55365 9.82508 8.5634 9.88129C8.56928 9.91468 8.57572 9.94799 8.58208 9.9813C8.59416 10.0442 8.60649 10.107 8.6205 10.1692C8.62517 10.1897 8.63049 10.2101 8.63532 10.2305C8.69001 10.462 8.7579 10.6887 8.83877 10.9098C8.84392 10.924 8.84843 10.9385 8.85367 10.9527C8.8051 10.954 8.75645 10.9547 8.70797 10.9547C5.99737 10.9547 3.79209 8.84347 3.79209 6.24845ZM7.64234 16.0793C7.62462 16.1061 7.6077 16.1333 7.59031 16.1602C7.5535 16.2171 7.51701 16.2742 7.48174 16.3318C7.462 16.3639 7.443 16.3963 7.42383 16.4287C7.3921 16.4821 7.36077 16.5357 7.33032 16.5897C7.31115 16.6237 7.29231 16.6579 7.27362 16.6921C7.2443 16.7458 7.21571 16.7999 7.18768 16.8541C7.17005 16.8881 7.15249 16.9221 7.13541 16.9564C7.1069 17.0135 7.07944 17.0711 7.05229 17.1288C7.03756 17.1602 7.02241 17.1913 7.00816 17.2228C6.97675 17.2919 6.94679 17.3616 6.91739 17.4314C6.90877 17.4518 6.89959 17.472 6.89121 17.4925C6.85392 17.5832 6.81824 17.6746 6.78442 17.7664C6.77669 17.7875 6.76976 17.8088 6.76211 17.8298C6.73666 17.9006 6.71185 17.9716 6.68841 18.0429C6.6777 18.0757 6.66779 18.1086 6.65749 18.1415C6.63856 18.2019 6.61995 18.2624 6.60248 18.3234C6.59209 18.3596 6.58218 18.3959 6.57227 18.4323C6.55633 18.4908 6.54102 18.5494 6.52653 18.6082C6.51726 18.6454 6.50824 18.6827 6.49963 18.72C6.48577 18.7796 6.47281 18.8394 6.46032 18.8993C6.45283 18.9353 6.4451 18.9713 6.43809 19.0075C6.42545 19.0727 6.41409 19.1383 6.40306 19.2039C6.3979 19.2347 6.39218 19.2654 6.38735 19.2963C6.37237 19.3926 6.35876 19.4892 6.34732 19.5863C6.34716 19.5875 6.34708 19.5886 6.347 19.5898C6.33661 19.6781 6.32767 19.7665 6.32018 19.8553H1.61081V17.9219C1.61081 15.2804 3.19698 12.9091 5.68198 11.782C6.58725 12.2375 7.61632 12.4968 8.70805 12.4968C9.02377 12.4968 9.34045 12.4745 9.65472 12.4302C9.70369 12.4971 9.75347 12.5632 9.80501 12.6281C9.82241 12.65 9.84045 12.6712 9.85817 12.6928C9.90907 12.7551 9.9607 12.8167 10.014 12.8771C10.0358 12.9019 10.0582 12.9261 10.0805 12.9505C10.1304 13.0054 10.1811 13.0596 10.233 13.1127C10.2602 13.1407 10.2879 13.1682 10.3156 13.1958C10.3631 13.2426 10.4112 13.2887 10.46 13.3341C10.4784 13.3511 10.4957 13.3692 10.5143 13.3861C10.4443 13.4265 10.3749 13.468 10.3062 13.5104C10.295 13.5172 10.2841 13.5245 10.273 13.5314C10.2043 13.5741 10.1363 13.6178 10.0689 13.6623C10.0457 13.6777 10.0225 13.6932 9.99928 13.7088C9.93927 13.7493 9.87991 13.7905 9.82104 13.8323C9.80243 13.8456 9.78359 13.8586 9.76514 13.872C9.69024 13.9262 9.61622 13.9814 9.54317 14.0378C9.52723 14.0502 9.5116 14.0629 9.49566 14.0754C9.4375 14.1209 9.37992 14.1673 9.32306 14.2143C9.30099 14.2325 9.27908 14.2509 9.25717 14.2693C9.20023 14.3173 9.14402 14.3661 9.08836 14.4155C9.07386 14.4284 9.05904 14.441 9.04463 14.454C8.97633 14.5156 8.90908 14.5783 8.84279 14.642C8.82556 14.6586 8.80872 14.6755 8.79165 14.6921C8.74091 14.7417 8.69073 14.7918 8.6412 14.8426C8.62155 14.8628 8.6019 14.883 8.58241 14.9035C8.52667 14.9618 8.47174 15.0208 8.4177 15.0807C8.40924 15.0901 8.40046 15.0992 8.39201 15.1087C8.33039 15.1776 8.27015 15.2477 8.21071 15.3186C8.19412 15.3383 8.17793 15.3584 8.16158 15.3784C8.11688 15.4327 8.07282 15.4876 8.02949 15.5431C8.01274 15.5645 7.99591 15.5858 7.9794 15.6074C7.9227 15.6814 7.86672 15.756 7.81236 15.832C7.75396 15.9135 7.69743 15.9961 7.64234 16.0793ZM7.90272 22.458V21.3974V20.5246C7.90272 20.439 7.90441 20.3537 7.90772 20.2687C7.90876 20.2407 7.9111 20.2129 7.91255 20.185C7.91545 20.1283 7.91819 20.0715 7.92254 20.0149C7.92519 19.9806 7.92922 19.9466 7.93244 19.9124C7.93711 19.8626 7.9413 19.8127 7.9471 19.7632C7.95137 19.727 7.95693 19.691 7.96176 19.6548C7.96804 19.6077 7.97392 19.5605 7.98117 19.5136C7.98705 19.4763 7.99414 19.4393 8.00058 19.4021C8.00847 19.3569 8.0158 19.3116 8.02466 19.2666C8.03215 19.2286 8.04085 19.191 8.04898 19.1532C8.05833 19.1095 8.06727 19.0657 8.0775 19.0224C8.08652 18.9841 8.09683 18.9463 8.10649 18.9082C8.11736 18.8658 8.12775 18.8231 8.13943 18.781C8.15006 18.7427 8.16182 18.7047 8.1731 18.6667C8.18534 18.6253 8.19726 18.5838 8.21031 18.5427C8.22247 18.5045 8.23584 18.4665 8.24865 18.4285C8.26234 18.3882 8.27563 18.3478 8.29004 18.3078C8.30373 18.2699 8.31847 18.2324 8.33281 18.1948C8.34795 18.1552 8.36277 18.1154 8.37864 18.0761C8.39378 18.0387 8.40989 18.0018 8.42559 17.9646C8.4421 17.9258 8.45837 17.8868 8.47561 17.8483C8.49228 17.8112 8.50984 17.7745 8.52715 17.7378C8.54495 17.7 8.56259 17.662 8.58112 17.6245C8.59924 17.5879 8.61825 17.5517 8.63701 17.5154C8.65618 17.4784 8.67511 17.4413 8.69492 17.4047C8.71449 17.3686 8.73487 17.333 8.75508 17.2973C8.77554 17.2611 8.79576 17.2249 8.81686 17.1892C8.8378 17.1537 8.85955 17.1188 8.88105 17.0837C8.9028 17.0484 8.92438 17.013 8.94685 16.978C8.96916 16.9432 8.9922 16.909 9.01515 16.8746C9.03818 16.8401 9.06106 16.8056 9.08474 16.7716C9.10842 16.7375 9.13274 16.7039 9.15706 16.6702C9.18131 16.6367 9.20547 16.6032 9.23027 16.57C9.25524 16.5367 9.28093 16.5039 9.30663 16.4709C9.33208 16.4383 9.35745 16.4057 9.38346 16.3735C9.40972 16.3411 9.43662 16.3091 9.46352 16.277C9.49018 16.2452 9.51692 16.2136 9.54414 16.1822C9.5716 16.1508 9.59963 16.1197 9.62766 16.0887C9.65561 16.0578 9.68364 16.0269 9.71223 15.9964C9.74082 15.9658 9.77006 15.9357 9.79921 15.9057C9.82837 15.8757 9.85752 15.8458 9.88724 15.8164C9.91704 15.7868 9.94741 15.7576 9.97785 15.7286C10.0082 15.6995 10.0387 15.6706 10.0697 15.642C10.1005 15.6135 10.1318 15.5855 10.1633 15.5575C10.1949 15.5294 10.2266 15.5014 10.2588 15.4738C10.2908 15.4464 10.3232 15.4193 10.3558 15.3924C10.3885 15.3653 10.4215 15.3384 10.4547 15.3119C10.4878 15.2855 10.5213 15.2595 10.5549 15.2337C10.5888 15.2077 10.623 15.1818 10.6575 15.1563C10.6915 15.1312 10.7259 15.1063 10.7605 15.0817C10.7956 15.0566 10.8309 15.0319 10.8667 15.0074C10.9017 14.9834 10.9369 14.9598 10.9724 14.9364C11.0089 14.9124 11.0454 14.8887 11.0823 14.8654C11.1181 14.8427 11.1543 14.8203 11.1906 14.7982C11.2282 14.7753 11.2661 14.7527 11.3042 14.7305C11.3409 14.709 11.3779 14.6878 11.4151 14.667C11.4538 14.6453 11.4927 14.624 11.532 14.6029C11.5696 14.5827 11.6074 14.5628 11.6455 14.5432C11.6854 14.5227 11.7256 14.5025 11.766 14.4826C11.8044 14.4638 11.8428 14.4452 11.8817 14.4269C11.9122 14.4126 11.943 14.3987 11.9739 14.3847C12.8791 14.8403 13.9083 15.0995 15 15.0995C16.0917 15.0995 17.1208 14.8403 18.026 14.3847C18.0566 14.3986 18.0872 14.4124 18.1175 14.4266C18.1568 14.4451 18.1957 14.4639 18.2346 14.4829C18.2745 14.5026 18.3143 14.5225 18.3538 14.5428C18.3922 14.5626 18.4305 14.5828 18.4685 14.6032C18.5073 14.624 18.5458 14.6451 18.5839 14.6665C18.6217 14.6877 18.6592 14.7092 18.6964 14.7309C18.734 14.7529 18.7713 14.7751 18.8083 14.7977C18.8452 14.8201 18.8818 14.8428 18.9181 14.8658C18.9546 14.8889 18.9907 14.9123 19.0267 14.936C19.0625 14.9597 19.0982 14.9835 19.1335 15.0077C19.1689 15.0319 19.2039 15.0565 19.2387 15.0813C19.2736 15.1061 19.3083 15.1312 19.3427 15.1566C19.3769 15.1819 19.4107 15.2075 19.4444 15.2333C19.4782 15.2593 19.5118 15.2854 19.5452 15.312C19.5783 15.3383 19.611 15.3651 19.6435 15.392C19.6763 15.4191 19.7089 15.4463 19.7411 15.474C19.773 15.5013 19.8045 15.5291 19.8359 15.5569C19.8676 15.5852 19.8992 15.6135 19.9304 15.6423C19.9611 15.6706 19.9913 15.6993 20.0213 15.728C20.0519 15.7573 20.0826 15.7867 20.1126 15.8165C20.1421 15.8458 20.1711 15.8754 20.2001 15.9051C20.2295 15.9354 20.2589 15.9658 20.2878 15.9966C20.3161 16.0268 20.3439 16.0574 20.3716 16.0881C20.3999 16.1193 20.4282 16.1506 20.4558 16.1824C20.4829 16.2135 20.5094 16.245 20.5359 16.2765C20.563 16.3088 20.59 16.3409 20.6165 16.3736C20.6424 16.4056 20.6676 16.4381 20.6929 16.4705C20.7187 16.5035 20.7444 16.5366 20.7696 16.5701C20.7943 16.603 20.8184 16.6365 20.8425 16.6699C20.8669 16.7036 20.8913 16.7374 20.9151 16.7716C20.9386 16.8055 20.9613 16.8397 20.9842 16.874C21.0073 16.9086 21.0305 16.9431 21.053 16.9781C21.0752 17.0127 21.0966 17.0479 21.1182 17.0829C21.14 17.1182 21.1619 17.1535 21.1829 17.1892C21.2039 17.2248 21.2241 17.2609 21.2444 17.2968C21.2647 17.3326 21.2852 17.3684 21.3048 17.4046C21.3246 17.4411 21.3434 17.4782 21.3626 17.5151C21.3814 17.5515 21.4004 17.5877 21.4186 17.6244C21.4371 17.6619 21.4546 17.6997 21.4724 17.7375C21.4898 17.7745 21.5074 17.8112 21.5241 17.8484C21.5412 17.8866 21.5573 17.9252 21.5737 17.9637C21.5896 18.0012 21.6059 18.0385 21.6211 18.0763C21.6369 18.1154 21.6516 18.155 21.6667 18.1944C21.6811 18.2321 21.6959 18.2697 21.7096 18.3077C21.7241 18.3479 21.7374 18.3885 21.7511 18.429C21.7639 18.4668 21.7772 18.5046 21.7893 18.5427C21.8024 18.5838 21.8143 18.6254 21.8266 18.6668C21.8379 18.7048 21.8496 18.7427 21.8602 18.781C21.8719 18.8231 21.8823 18.8657 21.8932 18.9082C21.9029 18.9462 21.9132 18.9841 21.9222 19.0224C21.9324 19.0657 21.9413 19.1094 21.9507 19.153C21.9588 19.1909 21.9675 19.2286 21.975 19.2666C21.9838 19.3112 21.991 19.3562 21.9989 19.401C22.0055 19.4386 22.0127 19.4759 22.0186 19.5137C22.0258 19.5602 22.0316 19.6071 22.0379 19.6538C22.0428 19.6903 22.0485 19.7265 22.0527 19.7631C22.0585 19.8126 22.0627 19.8625 22.0674 19.9123C22.0706 19.9466 22.0746 19.9806 22.0773 20.0149C22.0817 20.0714 22.0844 20.1283 22.0873 20.1851C22.0887 20.213 22.0911 20.2407 22.0921 20.2686C22.0954 20.3537 22.0971 20.4389 22.0971 20.5245V21.3973V22.458H7.90272V22.458ZM23.6801 19.8553C23.6644 19.6674 23.6416 19.4808 23.6128 19.2953C23.6082 19.2659 23.6027 19.2367 23.5978 19.2074C23.5866 19.1403 23.575 19.0733 23.562 19.0065C23.5551 18.9713 23.5477 18.9363 23.5403 18.9013C23.5277 18.8403 23.5145 18.7794 23.5004 18.7188C23.4918 18.6823 23.483 18.6457 23.474 18.6093C23.4592 18.5498 23.4438 18.4905 23.4276 18.4314C23.4179 18.3955 23.4082 18.3598 23.3978 18.324C23.3802 18.2624 23.3614 18.2012 23.3422 18.1401C23.332 18.1079 23.3224 18.0755 23.3118 18.0434C23.2881 17.971 23.2629 17.899 23.2371 17.8271C23.2298 17.8071 23.2232 17.7868 23.2158 17.7667C23.1818 17.6746 23.1462 17.583 23.1087 17.4919C23.1007 17.4724 23.0919 17.4532 23.0837 17.4337C23.0539 17.3629 23.0235 17.2924 22.9917 17.2224C22.9776 17.1913 22.9627 17.1606 22.9482 17.1297C22.9208 17.0714 22.8931 17.0134 22.8643 16.9557C22.8474 16.9219 22.83 16.8884 22.8127 16.8548C22.7844 16.8001 22.7555 16.7456 22.726 16.6914C22.7075 16.6574 22.6888 16.6237 22.6698 16.59C22.6392 16.5358 22.6078 16.482 22.5759 16.4283C22.5568 16.3961 22.5378 16.3638 22.5183 16.3318C22.4828 16.2739 22.4462 16.2166 22.4091 16.1594C22.3919 16.1327 22.3751 16.1058 22.3576 16.0794C22.3024 15.9962 22.2459 15.9136 22.1874 15.832C22.133 15.7559 22.077 15.6813 22.0203 15.6073C22.0039 15.5858 21.9871 15.5646 21.9705 15.5434C21.9269 15.4876 21.8827 15.4326 21.8379 15.378C21.8217 15.3583 21.8056 15.3384 21.7892 15.3189C21.7297 15.2478 21.6692 15.1775 21.6074 15.1085C21.5994 15.0996 21.5911 15.0908 21.583 15.0819C21.5286 15.0215 21.4732 14.962 21.417 14.9032C21.3977 14.883 21.3783 14.8631 21.3588 14.843C21.309 14.7919 21.2585 14.7414 21.2075 14.6916C21.1906 14.6752 21.1741 14.6586 21.1571 14.6423C21.0907 14.5785 21.0232 14.5156 20.9547 14.4539C20.9406 14.4412 20.9261 14.4288 20.912 14.4162C20.856 14.3664 20.7994 14.3175 20.7423 14.2692C20.7205 14.2509 20.6986 14.2327 20.6767 14.2145C20.6197 14.1674 20.5621 14.121 20.5039 14.0754C20.488 14.063 20.4725 14.0502 20.4565 14.0379C20.3835 13.9815 20.3095 13.9263 20.2347 13.8721C20.216 13.8586 20.197 13.8455 20.1782 13.8322C20.1196 13.7906 20.0606 13.7495 20.0008 13.7093C19.9774 13.6935 19.9539 13.6777 19.9304 13.6622C19.8637 13.6181 19.7965 13.575 19.7285 13.5327C19.7166 13.5253 19.7049 13.5176 19.693 13.5103C19.6244 13.4681 19.5553 13.4267 19.4853 13.3863C19.5034 13.3699 19.5203 13.3524 19.5381 13.3357C19.588 13.2895 19.6371 13.2424 19.6854 13.1946C19.7124 13.1679 19.7392 13.1412 19.7656 13.114C19.8184 13.0601 19.8698 13.005 19.9205 12.9493C19.9421 12.9256 19.9638 12.9021 19.9849 12.878C20.039 12.8168 20.0915 12.7543 20.1431 12.691C20.16 12.6703 20.1774 12.6499 20.1939 12.6291C20.2457 12.5639 20.2957 12.4974 20.345 12.4304C20.6592 12.4745 20.9759 12.4969 21.2916 12.4969C22.3834 12.4969 23.4125 12.2377 24.3177 11.7821C26.8028 12.9092 28.3889 15.2805 28.3889 17.922V19.8553H23.6801V19.8553Z" fill="white"/>
</svg>
