<svg width="1873" height="756" viewBox="0 0 1873 756" fill="none" xmlns="http://www.w3.org/2000/svg">
<path d="M26.8889 0C87.3889 0 67 218.5 225.5 266.5C384 314.5 386.5 396 497 396C607.5 396 605.889 443.5 718.389 461C830.889 478.5 810.389 541.5 948.889 569C1087.39 596.5 1275.89 443.5 1391.39 461C1506.89 478.5 1485 361 1550.5 308.5C1616 256 1703.89 304.5 1787.89 245C1871.89 185.5 1822.39 137 1871.89 137C1921.39 137 1871.89 756 1871.89 756H26.8889C26.8889 756 -33.6111 0 26.8889 0Z" fill="#D5CAE3"/>
</svg>
