<svg width="218" height="506" viewBox="0 0 218 506" fill="none" xmlns="http://www.w3.org/2000/svg">
<path d="M100.817 34.4367C102.239 34.4535 103.658 34.3178 105.051 34.0321C106.41 33.8416 107.666 33.2005 108.618 32.2116C108.985 31.6872 109.182 31.0625 109.182 30.4223C109.182 29.7821 108.985 29.1574 108.617 28.633C107.852 27.5336 106.762 26.7017 105.499 26.2544C102.886 25.2908 100.085 24.9499 97.3172 25.2588C95.9366 25.3857 94.5748 25.6678 93.2575 26.0999C91.9541 26.5496 90.7145 27.1665 89.5699 27.9353C88.3883 28.6896 87.2712 29.5625 86.0686 30.3947C84.8538 31.3082 83.4452 31.9298 81.9517 32.2115C80.4415 32.3978 78.9089 32.1833 77.508 31.5895C76.8226 31.329 76.1527 31.0294 75.5017 30.692L73.6126 29.6387C71.7892 28.553 69.7558 27.8674 67.6473 27.6272C65.5387 27.3871 63.4033 27.5979 61.3824 28.2458C60.7056 28.4563 60.0405 28.7026 59.3899 28.9838L58.41 29.4141C58.062 29.5949 57.6906 29.7268 57.3064 29.8061C57.2497 29.8145 57.192 29.8001 57.1459 29.766C57.0999 29.7319 57.0693 29.6809 57.0608 29.6242L57.0605 29.6217L57.0568 29.5934C56.6488 26.5758 56.5556 23.524 56.7788 20.4871C56.9688 17.4194 57.6404 14.4007 58.7687 11.5417C59.9283 8.62063 61.8601 6.06965 64.3576 4.16168C66.9163 2.32148 69.9101 1.17917 73.0443 0.847139C79.2737 0.119785 85.5579 1.64403 90.7619 5.14457C93.3089 6.94153 95.4674 9.23372 97.1081 11.8841C97.8905 13.2147 98.5616 14.6077 99.1144 16.0489C99.7072 17.4828 100.152 18.9205 100.589 20.363L100.227 20.0425C101.515 20.3652 102.774 20.7961 103.991 21.3304C105.213 21.8454 106.372 22.4979 107.447 23.2753C108.535 24.0476 109.467 25.0179 110.196 26.1355C110.887 27.2714 111.265 28.57 111.291 29.8993C111.292 29.9086 111.29 29.9178 111.287 29.9265C111.283 29.9352 111.278 29.9432 111.272 29.9499C111.265 29.9566 111.258 29.962 111.249 29.9658C111.241 29.9695 111.231 29.9716 111.222 29.9718C111.204 29.9712 111.186 29.9639 111.172 29.9511C111.159 29.9384 111.151 29.9211 111.149 29.9026C111.045 28.6264 110.605 27.4003 109.875 26.3487C109.115 25.3287 108.17 24.4612 107.088 23.7916C106.022 23.0935 104.88 22.5163 103.686 22.0707C102.501 21.61 101.279 21.249 100.034 20.9915C99.952 20.9751 99.8757 20.9377 99.8125 20.8829C99.7493 20.8281 99.7015 20.7578 99.6737 20.679L99.671 20.6707C98.7742 17.8358 97.5613 15.1109 96.0549 12.5474C94.4295 10.1077 92.3577 7.99721 89.9486 6.32683C85.0068 3.07867 79.0904 1.6475 73.2104 2.27789C70.3074 2.53884 67.5225 3.55151 65.1299 5.21615C62.7745 6.95309 60.925 9.28693 59.7722 11.977C58.5911 14.706 57.8364 17.6003 57.5346 20.5586C57.193 23.5352 57.1993 26.5413 57.5533 29.5164L57.3041 29.304C57.8256 29.1749 58.5643 28.7956 59.2069 28.5453C59.8749 28.2665 60.5572 28.0234 61.251 27.817C62.6424 27.3992 64.0785 27.1477 65.5291 27.0677C68.4567 26.9744 71.3573 27.6543 73.9385 29.039L75.8451 29.9992C76.4791 30.2942 77.1295 30.5528 77.7931 30.7736C79.063 31.259 80.4384 31.4011 81.7808 31.1856C84.3882 30.6506 86.4349 28.4625 88.8905 26.8975C90.11 26.0417 91.4487 25.37 92.8638 24.9039C94.2776 24.464 95.7365 24.1854 97.2129 24.0733C100.168 23.7851 103.149 24.2063 105.908 25.3018C107.338 25.8792 108.549 26.8936 109.369 28.2001C109.574 28.5366 109.722 28.9048 109.806 29.2897C109.916 29.6674 109.968 30.0598 109.96 30.4531C109.954 30.8526 109.893 31.2495 109.78 31.6325C109.629 32.0049 109.419 32.3502 109.157 32.6551C108.067 33.709 106.645 34.3509 105.133 34.4708C103.701 34.6842 102.249 34.7204 100.808 34.5786C100.789 34.5769 100.772 34.5678 100.76 34.5533C100.747 34.5388 100.742 34.5201 100.743 34.5013C100.746 34.4834 100.755 34.467 100.768 34.4551C100.782 34.4432 100.799 34.4367 100.817 34.4367Z" fill="black"/>
<path d="M94.3286 17.9603C92.5568 15.297 90.9454 12.6226 89.1422 10.1024C88.2627 8.84584 87.2877 7.65884 86.226 6.55191C85.2071 5.39173 83.8727 4.55298 82.3855 4.13787C83.212 4.09023 84.0397 4.20805 84.8201 4.48442C85.6005 4.76079 86.3179 5.19016 86.9302 5.74735C88.198 6.77352 89.3171 7.97073 90.2556 9.30469C92.1214 11.9222 93.5011 14.8541 94.3286 17.9603Z" fill="black"/>
<path d="M76.7552 2.9433L74.7129 7.74875C74.0605 9.34728 73.4205 10.9409 72.8532 12.5574C72.2794 14.1719 71.7964 15.8078 71.3555 17.463C70.9542 19.1446 70.6493 20.8478 70.4422 22.5642C70.1181 20.8166 70.0715 19.0287 70.3043 17.2665C70.5562 15.5084 70.9773 13.7787 71.5619 12.1015C72.7299 8.76211 74.489 5.65997 76.7552 2.9433Z" fill="black"/>
<path d="M94.3283 20.6873C92.2499 20.6316 90.1706 20.7528 88.1128 21.0497C86.0574 21.312 84.0057 21.6009 81.9583 21.9487C77.8545 22.5934 73.7744 23.4088 69.5886 23.929C71.5432 23.1495 73.5417 22.4848 75.5739 21.9384C77.6022 21.3838 79.6617 20.9483 81.7392 20.5969C83.8229 20.2544 85.9271 20.0507 88.0379 19.9872C90.1591 19.8669 92.2854 20.1036 94.3283 20.6873Z" fill="black"/>
<path d="M77.4377 2.13273C77.7141 2.12312 77.9759 2.00657 78.1681 1.80764C78.3602 1.60871 78.4676 1.34294 78.4676 1.06637C78.4676 0.7898 78.3602 0.524033 78.1681 0.325101C77.9759 0.126168 77.7141 0.00960782 77.4377 0C77.1613 0.00960782 76.8994 0.126168 76.7073 0.325101C76.5151 0.524033 76.4077 0.7898 76.4077 1.06637C76.4077 1.34294 76.5151 1.60871 76.7073 1.80764C76.8994 2.00657 77.1613 2.12312 77.4377 2.13273Z" fill="black"/>
<path d="M99.1055 26.4883C99.8206 28.2693 100.428 30.0917 100.924 31.9457C101.045 32.4225 101.136 32.9063 101.197 33.3945C101.23 33.6554 101.24 33.9187 101.227 34.1814L101.196 34.88C101.185 35.8157 101.233 36.7512 101.341 37.6808C101.428 38.6626 101.413 39.6509 101.296 40.6296L101.04 43.4802C100.866 45.371 100.702 47.2638 100.612 49.1501C100.564 51.083 100.42 53.0124 100.179 54.9307C100.005 55.9504 99.6474 56.9299 99.1229 57.8213C98.5713 58.6587 97.9152 59.4222 97.1705 60.0936C95.7774 61.4795 94.1467 62.604 92.3561 63.4135C90.5662 64.1495 88.6675 64.5864 86.7358 64.7067C90.4532 64.0198 93.8426 62.1323 96.384 59.3337C97.0084 58.6762 97.5661 57.9583 98.0486 57.1906C98.4651 56.4176 98.7372 55.5752 98.8515 54.7046C99.1142 52.917 99.0891 50.9912 99.1924 49.0745C99.3122 47.1519 99.483 45.2406 99.7049 43.3408C99.9954 41.487 100.179 39.618 100.254 37.7432C100.209 36.7711 100.225 35.7971 100.304 34.8271L100.385 34.0998C100.41 33.8869 100.415 33.6723 100.402 33.4585C100.373 32.9969 100.32 32.5371 100.244 32.0808C99.9787 30.2112 99.5166 28.3544 99.1055 26.4883Z" fill="black"/>
<path d="M84.0974 63.939C82.443 63.8807 80.8189 63.4782 79.3288 62.757C77.8105 62.0637 76.4142 61.1296 75.1939 59.9908C73.9741 58.8555 72.9397 57.5361 72.1282 56.0807C71.3127 54.6509 70.734 53.0985 70.4143 51.4839C71.3012 52.8652 72.094 54.2314 73.0582 55.4754C73.981 56.7282 75.0198 57.8913 76.1607 58.9494C77.2933 60.0146 78.5295 60.9638 79.851 61.783C81.1972 62.6306 82.6187 63.3524 84.0974 63.939Z" fill="black"/>
<path d="M73.5845 29.2196C73.5845 29.2196 70.2163 37.5785 70.4144 40.223L68.8209 39.7965C68.8209 39.7965 69.1475 30.1952 64.1999 31.3382C63.4155 31.5422 62.7036 31.9613 62.1446 32.5482C61.5856 33.1351 61.2017 33.8666 61.0362 34.66C60.5494 36.3619 60.575 38.1696 61.1099 39.857C61.6448 41.5444 62.6652 43.0366 64.0436 44.1473L64.6408 48.3274C64.6408 48.3274 59.7782 51.3891 57.3042 29.5547C59.7614 28.1075 62.5494 27.3166 65.4005 27.2579C68.2516 27.1992 71.0699 27.8748 73.5845 29.2196Z" fill="black"/>
<path d="M67.5421 43.3799C67.5772 43.8081 67.4624 44.2351 67.2172 44.5879C66.9698 44.9668 66.6072 45.2561 66.1828 45.4131C65.9441 45.4956 65.69 45.5243 65.4388 45.497C65.1877 45.4697 64.9457 45.3872 64.7302 45.2553C64.5371 45.1374 64.3744 44.9757 64.2552 44.7833C64.1361 44.5909 64.0639 44.3732 64.0444 44.1477C64.3919 44.2099 64.7437 44.2443 65.0966 44.2507C65.3153 44.2393 65.5311 44.1947 65.7365 44.1184C66.1768 43.9789 66.7084 43.6646 67.5421 43.3799Z" fill="black"/>
<path d="M100.044 33.9956C98.6373 34.1138 97.4132 34.094 96.1791 34.1738C95.5629 34.1859 94.9584 34.2573 94.3358 34.3116C93.7052 34.3604 93.091 34.4839 92.3667 34.5347C92.836 34.0022 93.4113 33.5734 94.0557 33.2758C94.7001 32.9782 95.3995 32.8182 96.1092 32.8061C96.8094 32.7738 97.5102 32.8527 98.1857 33.0398C98.8691 33.215 99.5043 33.5417 100.044 33.9956Z" fill="black"/>
<path d="M86.7362 34.0038C85.0415 34.1717 83.4882 34.1716 81.9376 34.2775C81.1635 34.3162 80.405 34.4095 79.6326 34.4963C78.8618 34.6063 78.1064 34.7663 77.2563 34.9343C77.8246 34.2817 78.5433 33.7774 79.3502 33.465C80.151 33.1553 80.994 32.9685 81.8506 32.9107C82.6967 32.8658 83.545 32.9293 84.375 33.0996C85.2102 33.2562 86.0101 33.5626 86.7362 34.0038Z" fill="black"/>
<path d="M93.7838 42.1C94.3168 42.4552 94.7216 42.9721 94.9386 43.5747C95.0767 43.914 95.1376 44.2798 95.1168 44.6455C95.0961 45.0112 94.9942 45.3678 94.8185 45.6893C94.6195 45.9973 94.3554 46.258 94.0448 46.453C93.7342 46.648 93.3847 46.7726 93.0208 46.8181C92.3906 46.8963 91.7512 46.7986 91.1731 46.536C91.4337 46.3846 91.7053 46.2531 91.9857 46.1426L92.7105 45.7947C93.0837 45.6123 93.4034 45.3365 93.6385 44.994C93.9499 44.0606 94.0001 43.0599 93.7838 42.1Z" fill="black"/>
<path d="M95.1819 38.9008C95.4584 38.8912 95.7203 38.7747 95.9125 38.5758C96.1047 38.3768 96.2121 38.111 96.2121 37.8344C96.2121 37.5578 96.1047 37.292 95.9125 37.0931C95.7203 36.8942 95.4584 36.7776 95.1819 36.7681C94.9055 36.7776 94.6436 36.8942 94.4514 37.0931C94.2593 37.292 94.1519 37.5578 94.1519 37.8344C94.1519 38.111 94.2593 38.3768 94.4514 38.5758C94.6436 38.7747 94.9055 38.8912 95.1819 38.9008Z" fill="black"/>
<path d="M83.0675 38.9864C83.3439 38.9768 83.6058 38.8603 83.798 38.6613C83.9901 38.4624 84.0975 38.1966 84.0975 37.9201C84.0975 37.6435 83.9901 37.3777 83.798 37.1788C83.6058 36.9799 83.3439 36.8633 83.0675 36.8537C82.7911 36.8633 82.5292 36.9799 82.3371 37.1788C82.145 37.3777 82.0376 37.6435 82.0376 37.9201C82.0376 38.1966 82.145 38.4624 82.3371 38.6613C82.5292 38.8603 82.7911 38.9768 83.0675 38.9864Z" fill="black"/>
<path d="M92.8332 49.7777C92.5093 50.4002 91.9888 50.8981 91.3525 51.1941C90.7377 51.5025 90.0705 51.6927 89.3854 51.7548C88.7135 51.8136 88.0365 51.7657 87.3795 51.6127C86.7199 51.4652 86.0956 51.1896 85.5422 50.8015C86.176 50.6693 86.8186 50.5842 87.4648 50.5469C88.077 50.4739 88.6739 50.4688 89.2573 50.3915C90.4672 50.3101 91.6655 50.1044 92.8332 49.7777Z" fill="black"/>
<path d="M65.4615 68.6835C66.818 71.7255 68.0374 74.8086 69.2023 77.9192C71.0386 76.8503 72.9158 75.8637 74.7654 74.8497C76.7526 73.8083 78.7394 72.7669 80.7811 71.8077C73.9022 74.0276 65.8726 68.9438 65.4615 68.6835ZM168.205 128.688C129.686 38.6195 116.916 65.1207 113.01 59.0367C113.418 59.8383 113.625 60.7271 113.613 61.6265C113.594 62.7463 113.209 63.8291 112.517 64.7096C110.95 66.2682 108.966 67.3392 106.803 67.7928C105.762 68.0573 104.705 68.2496 103.637 68.3683L102.075 68.5602C101.596 68.6424 101.075 68.752 100.582 68.8616C98.5641 69.3211 96.5886 69.9491 94.676 70.7389C92.7802 71.5088 90.9855 72.5074 89.3318 73.7124L88.1398 74.6716L87.0436 75.7267L85.0427 78.1384C84.2501 79.0275 83.3582 79.8229 82.3844 80.509C82.3829 82.8016 82.6171 85.0883 83.0833 87.333C83.5453 89.7407 84.2619 92.0925 85.2209 94.3488C86.1526 96.6098 87.4955 98.6104 88.5644 100.981C89.5471 103.336 90.1663 105.826 90.4007 108.367C90.6111 110.885 90.5881 113.417 90.3322 115.931C89.9651 118.339 89.7819 120.771 89.7842 123.207C90.0121 125.649 90.5319 128.055 91.3324 130.373C92.0587 132.73 92.9493 135.046 93.7852 137.389C91.6204 132.95 89.3592 128.4 88.7015 123.344C88.5326 122.071 88.528 120.781 88.6878 119.507L88.9893 115.807C89.2084 113.378 89.2084 110.933 88.9893 108.504C88.7855 106.101 88.2267 103.741 87.3312 101.502C86.4403 99.3229 85.0292 97.1442 84.207 94.7462C82.4904 90.2234 81.8478 85.3637 82.3296 80.5501C81.553 81.1152 80.7223 81.6017 79.8496 82.0026C77.8865 82.881 75.7264 83.2261 73.5873 83.0029C75.6775 82.9538 77.724 82.394 79.5481 81.3723C81.3541 80.3943 82.9398 79.0557 84.207 77.4396L85.1116 76.1926L86.1253 74.8908L87.2627 73.7124L88.5098 72.6436C90.2412 71.3406 92.1284 70.2589 94.1278 69.4234C96.1235 68.6162 98.187 67.9879 100.294 67.5461C100.828 67.4502 101.335 67.3543 101.911 67.2721L103.487 67.135C104.542 67.0802 105.542 66.8884 106.556 66.7377C108.567 66.4388 110.452 65.5792 111.996 64.2575C112.687 63.5283 113.124 62.5962 113.243 61.5991C113.338 60.5642 113.169 59.522 112.75 58.5708C109.174 50.7191 99.8693 49.7736 99.8693 49.7736C99.705 52.3634 99.0061 56.6661 99.0061 56.6661C96.2793 63.216 88.0987 64.463 88.0987 64.463C86.2761 68.7246 83.6179 70.8896 80.7813 71.8077C78.9038 73.0547 76.9719 74.2057 75.0536 75.3567C73.1076 76.4667 71.1756 77.6314 69.2025 78.7002H69.1888C69.1106 78.7418 69.0191 78.7507 68.9344 78.725C68.8496 78.6993 68.7785 78.6411 68.7365 78.5632L68.7228 78.5221C67.5446 75.2609 66.4071 71.9996 65.448 68.6698C63.5944 64.4664 63.3697 59.7241 64.8176 55.3643C65.5851 53.3226 64.6393 48.3211 64.6393 48.3211C58.843 48.4581 56.9794 55.4877 56.9794 55.4877C56.7339 56.5752 56.7716 57.7076 57.0891 58.7764C57.3478 59.8408 57.7199 60.8744 58.1991 61.8595C59.1551 63.8509 60.3073 65.7421 61.6385 67.505C62.9729 69.3748 64.103 71.3824 65.0094 73.4931C66.0022 75.582 66.4635 77.8837 66.3523 80.1938C65.9242 78.0038 65.1321 75.901 64.0091 73.9728C63.5842 73.178 63.1182 72.4106 62.6525 71.6433C61.8297 73.9371 61.1344 76.2748 60.5697 78.6454C59.905 81.2765 59.4559 83.9574 59.2268 86.6615C58.9766 89.3339 59.064 92.0272 59.4871 94.6777C59.9805 97.3086 60.6794 100.008 61.2547 102.68C62.4679 108.06 63.1699 113.543 63.3513 119.055C63.4003 121.832 63.1243 124.605 62.529 127.318C61.9688 129.795 60.9611 132.149 59.5556 134.265C59.7743 134.403 59.9356 134.615 60.0097 134.863C60.0839 135.111 60.0657 135.377 59.9587 135.612C59.8516 135.847 59.6629 136.036 59.4276 136.143C59.1922 136.25 58.9261 136.268 58.6784 136.194C58.4308 136.119 58.2185 135.958 58.0808 135.739C57.9431 135.52 57.8893 135.259 57.9294 135.004C57.9695 134.748 58.1008 134.516 58.299 134.35C58.4972 134.184 58.7488 134.095 59.0072 134.101C59.1791 134.102 59.3482 134.145 59.5007 134.224C60.675 132.026 61.4673 129.644 61.8439 127.181C62.2959 124.511 62.4339 121.798 62.255 119.096C61.9133 113.662 61.1111 108.266 59.857 102.968C59.3364 100.282 58.6921 97.6512 58.2126 94.8969C57.7857 92.1333 57.7627 89.3222 58.1441 86.5519C58.8405 81.3468 60.3381 76.2808 62.5838 71.5337C61.9261 70.4374 61.2272 69.3686 60.4873 68.3272C59.0966 66.4782 57.9798 64.4383 57.1713 62.2705C56.758 61.1792 56.4997 60.0353 56.4039 58.8723C56.2686 57.7123 56.4683 56.5378 56.9793 55.4877C17.9129 59.0778 21.2975 89.2788 21.2975 89.2788C6.97805 188.569 37.1651 203.766 37.1651 203.766C38.8779 203.081 42.1257 195.571 42.1257 195.571C43.582 190.473 44.6088 185.261 45.1951 179.991C45.8165 174.755 45.7797 169.461 45.0854 164.233C44.6608 161.671 44.0439 159.067 43.5508 156.45C43.0574 153.833 42.5913 151.202 42.2079 148.557C41.4268 143.309 40.9014 138.024 40.6319 132.703L37.0828 115.136L35.2057 106.352C34.5616 103.434 33.9039 100.515 33.0817 97.6375C34.1094 100.447 34.918 103.352 35.7126 106.229C36.5074 109.12 37.2337 112.039 37.9326 114.944C39.344 120.768 40.6868 126.619 41.8929 132.484L41.9063 132.566V132.593C42.208 137.855 42.852 143.131 43.5917 148.365C43.9483 150.982 44.3686 153.595 44.8526 156.203C45.3045 158.807 45.894 161.383 46.3051 164.069C46.6583 166.73 46.7866 169.416 46.6888 172.099C46.6211 174.773 46.3876 177.441 45.9897 180.087C45.6256 182.732 45.1086 185.354 44.4414 187.939C43.8132 190.525 43.0401 193.073 42.1257 195.571C55.7737 221.675 88.1806 214.509 92.4561 210.754C95.6077 207.986 107.31 202.053 113.229 199.12C108.003 201.557 102.651 203.716 97.1972 205.588C90.9661 207.854 84.4906 209.381 77.9035 210.137C77.0815 210.233 76.2181 210.165 75.3824 210.192C74.9713 210.192 74.5464 210.22 74.1218 210.179L72.8472 210.041L71.5867 209.891C71.1756 209.808 70.7644 209.685 70.3536 209.589C69.5366 209.409 68.7312 209.18 67.9415 208.904C64.7835 207.852 61.7472 206.464 58.8842 204.766C53.1921 201.415 47.9085 197.415 43.1396 192.844C45.7159 194.9 48.333 196.873 51.0598 198.696C53.7466 200.554 56.5323 202.264 59.4047 203.82C65.1464 206.821 71.3538 209.466 77.794 208.712C84.282 208.013 90.6765 206.621 96.8682 204.56C100.006 203.615 103.117 202.56 106.2 201.464C109.283 200.408 112.311 199.257 115.353 198.093C115.381 198.079 115.422 198.065 115.449 198.052C116.23 197.668 116.682 197.449 116.682 197.449L121.465 184.253C123.013 179.854 124.589 175.456 126.069 171.03C127.563 166.617 128.974 162.164 130.331 157.711C130.974 155.463 131.674 153.23 132.222 150.969C132.838 148.845 133.29 146.68 133.838 144.515C132.194 142.199 130.618 139.815 129.138 137.389C126.635 133.374 124.48 129.152 122.698 124.769C121.89 122.494 121.163 120.37 120.177 118.26C119.208 116.149 118.129 114.091 116.943 112.094C115.778 110.08 114.504 108.12 113.161 106.202C111.859 104.256 110.448 102.392 108.995 100.542C112.332 103.879 115.308 107.558 117.875 111.518C119.189 113.49 120.366 115.551 121.396 117.685C122.387 119.83 123.265 122.025 124.027 124.262C125.787 128.575 127.81 132.776 130.084 136.841C131.194 138.897 132.359 140.925 133.551 142.939C134.715 144.981 135.935 146.981 137.155 148.996C136.017 147.557 134.935 146.063 133.866 144.57C133.333 149.095 132.505 153.581 131.385 157.998C130.276 162.548 128.878 167.028 127.412 171.482C125.904 175.922 124.274 180.32 122.479 184.65C120.684 188.98 118.806 193.269 116.682 197.449C121.108 209.055 138.525 221.333 138.525 221.333C183.045 151.722 168.205 128.688 168.205 128.688V128.688ZM94.1551 137.691C94.4322 137.7 94.6948 137.817 94.8875 138.016C95.0801 138.216 95.1879 138.482 95.1879 138.76C95.1879 139.037 95.0801 139.303 94.8875 139.503C94.6948 139.702 94.4322 139.819 94.1551 139.828C93.8782 139.819 93.6157 139.702 93.4232 139.502C93.2307 139.303 93.1231 139.037 93.1231 138.76C93.1231 138.483 93.2307 138.216 93.4232 138.017C93.6157 137.817 93.8781 137.701 94.155 137.691L94.1551 137.691ZM109.598 185.267C112.078 184.637 114.572 184.102 117.107 183.718C115.622 182.278 114.365 180.619 113.38 178.799C112.822 177.793 112.346 176.743 111.955 175.661C111.611 174.562 111.345 173.44 111.16 172.304C110.806 170.035 110.788 167.727 111.105 165.453C111.407 163.191 112.021 160.982 112.928 158.889C112.105 161.01 111.57 163.231 111.339 165.494C111.087 167.74 111.165 170.012 111.571 172.236C111.782 173.339 112.075 174.424 112.448 175.483C112.855 176.528 113.34 177.54 113.901 178.511C115.048 180.438 116.475 182.184 118.135 183.691C118.171 183.726 118.199 183.767 118.219 183.813C118.238 183.859 118.248 183.908 118.248 183.958C118.248 184.008 118.238 184.057 118.219 184.103C118.199 184.149 118.171 184.191 118.135 184.225C118.079 184.292 118.002 184.336 117.916 184.349C115.19 184.794 112.491 185.389 109.831 186.13C107.159 186.87 104.515 187.706 101.925 188.665C96.7353 190.581 91.7276 192.956 86.9612 195.763H86.9475C86.9014 195.794 86.8506 195.817 86.797 195.832C83.7012 196.507 80.5588 196.946 77.3967 197.147C74.2385 197.346 71.0705 197.332 67.9141 197.106C64.7516 196.881 61.6126 196.4 58.5279 195.667C55.4341 194.937 52.4154 193.918 49.5114 192.625C49.3812 192.575 49.2709 192.483 49.1968 192.365C49.1228 192.246 49.0889 192.107 49.1003 191.968V191.954L50.8955 157.998C50.9052 157.837 50.9783 157.686 51.099 157.578C51.2197 157.47 51.3782 157.414 51.5398 157.423C51.5628 157.426 51.5856 157.431 51.608 157.437C56.3492 158.245 61.1726 158.848 65.9823 159.259C70.7919 159.67 75.629 159.903 80.4662 159.862C85.2998 159.841 90.1276 159.525 94.9226 158.916C99.7185 158.252 104.434 157.1 108.995 155.477C104.487 157.288 99.7893 158.589 94.9912 159.355C90.1883 160.11 85.3404 160.545 80.4798 160.657C75.6153 160.78 70.7507 160.616 65.9002 160.287C61.2822 159.944 56.6782 159.492 52.0876 158.738L50.5253 191.529C53.2193 192.689 56.0063 193.62 58.8567 194.311C61.861 195.054 64.9232 195.54 68.0101 195.763C71.1054 196.015 74.2145 196.047 77.3143 195.859C80.3788 195.688 83.4254 195.281 86.4269 194.64C88.8383 193.283 91.2637 191.94 93.7988 190.83C96.339 189.659 98.9366 188.616 101.582 187.706C104.213 186.774 106.899 185.966 109.598 185.267L109.598 185.267ZM119.437 69.2864C118.186 69.9066 117.017 70.6799 115.956 71.5885C114.893 72.4897 113.957 73.5315 113.175 74.6853C112.38 75.8566 111.696 77.0999 111.133 78.3988C111.325 77.7136 111.503 77.0148 111.75 76.3296C112.025 75.6601 112.345 75.01 112.709 74.3838C113.439 73.1194 114.385 71.9925 115.504 71.054C117.713 69.133 120.501 68.0045 123.424 67.8476C122.044 68.1703 120.705 68.6532 119.437 69.2864H119.437Z" fill="black"/>
<path d="M138.648 221.328C139.151 228.353 139.628 235.379 139.996 242.409C140.379 249.438 140.795 256.466 141.078 263.5L141.997 284.596C142.268 291.63 142.446 298.667 142.569 305.706L142.569 305.76C142.571 305.885 142.544 306.009 142.49 306.122C142.436 306.235 142.356 306.334 142.257 306.411C138.48 309.312 134.406 311.802 130.102 313.841C125.825 315.897 121.317 317.431 116.673 318.411C112.009 319.366 107.205 319.429 102.517 318.596C97.8239 317.685 93.3948 315.734 89.5555 312.885L89.9412 312.976C84.9416 313.877 79.893 314.481 74.822 314.785C69.7383 315.132 64.6357 315.098 59.5572 314.681C54.4231 314.298 49.3597 313.256 44.4921 311.579C39.4719 309.913 34.9855 306.941 31.4939 302.968C31.391 302.844 31.314 302.701 31.2676 302.547C31.2212 302.393 31.2064 302.231 31.224 302.071L31.2273 302.041C32.1389 293.901 32.9301 285.719 33.6584 277.547C34.4168 269.373 35.0364 261.189 35.6339 253.002C36.1862 244.812 36.5606 236.614 36.8854 228.41C37.1159 220.204 37.2092 211.995 37.0426 203.773C37.0416 203.74 37.0536 203.709 37.076 203.685C37.0983 203.661 37.1292 203.648 37.1617 203.647C37.1929 203.646 37.2232 203.657 37.2466 203.678C37.2699 203.699 37.2846 203.727 37.2878 203.758C38.559 220.184 38.7546 236.676 37.8735 253.127C37.5216 261.355 36.9516 269.571 36.2775 277.777C35.5606 285.982 34.7188 294.164 33.653 302.347L33.3867 301.42C36.5655 305.11 40.6679 307.889 45.2739 309.472C49.9443 311.163 54.8068 312.267 59.7495 312.759C64.7333 313.288 69.7472 313.478 74.7567 313.328C79.7808 313.194 84.792 312.752 89.7619 312.004L89.7849 312.001C89.8487 311.991 89.9138 311.994 89.9763 312.011C90.0387 312.027 90.0972 312.055 90.1483 312.095C93.8233 314.945 98.1084 316.906 102.668 317.823C107.247 318.687 111.956 318.595 116.498 317.554C121.051 316.558 125.443 314.935 129.548 312.73C133.663 310.586 137.542 308.018 141.123 305.068L140.811 305.772C140.407 298.744 140.057 291.713 139.8 284.679L139.137 263.572C138.892 256.538 138.781 249.498 138.637 242.46C138.477 235.422 138.427 228.38 138.402 221.337C138.402 221.305 138.414 221.274 138.436 221.251C138.458 221.228 138.489 221.214 138.521 221.213C138.553 221.212 138.584 221.223 138.608 221.245C138.631 221.266 138.646 221.296 138.648 221.328L138.648 221.328Z" fill="black"/>
<path d="M77.2583 232.363C75.1874 232.25 73.1315 231.944 71.1175 231.449C69.0912 230.977 67.108 230.336 65.1884 229.533C63.2462 228.744 61.4058 227.724 59.7066 226.496C57.9814 225.29 56.5504 223.711 55.5205 221.876C56.9304 223.337 58.5388 224.592 60.2984 225.605C62.038 226.624 63.8494 227.515 65.7183 228.271C67.5737 229.075 69.4889 229.756 71.4142 230.426C73.3465 231.075 75.2849 231.739 77.2583 232.363Z" fill="black"/>
<path d="M89.8518 312.489L88.1152 302.18L86.3421 291.885C85.1261 285.03 83.909 278.176 82.4738 271.367C81.8288 267.948 81.0781 264.553 80.3585 261.149C79.5704 257.763 78.7828 254.375 77.9284 251.006C77.1259 247.622 76.151 244.285 75.1604 240.953L73.5831 235.979L71.7605 231.084C74.741 237.404 77.1461 243.98 78.9464 250.733C80.8774 257.447 82.3939 264.266 83.8157 271.097C85.1421 277.948 86.3826 284.814 87.3779 291.718C88.3765 298.62 89.268 305.539 89.8518 312.489Z" fill="black"/>
<path d="M77.7267 313.891C76.6867 307.836 75.8901 301.746 75.1828 295.645C74.4756 289.544 73.9634 283.422 73.5061 277.293C73.1608 271.159 72.8584 265.014 72.9488 258.858C73.007 255.782 73.1194 252.703 73.4104 249.634C73.627 246.553 74.3054 243.523 75.423 240.644C74.5646 243.582 74.1129 246.623 74.0805 249.684C73.927 252.736 73.9333 255.797 74.0026 258.856C74.1307 264.973 74.4205 271.089 74.8721 277.204C75.2136 283.322 75.7452 289.43 76.2272 295.543L77.7267 313.891Z" fill="black"/>
<path d="M138.773 247.766C134.836 248.373 130.871 248.775 126.892 248.969L127.801 248.001C127.903 250.014 128.014 252.028 127.988 254.045C127.967 256.063 127.863 258.082 127.796 260.101C127.631 264.134 127.756 268.174 128.17 272.19C128.339 274.201 128.569 276.211 128.717 278.223C128.866 280.235 128.968 282.248 129.081 284.261C129.346 288.286 129.452 292.316 129.446 296.35L128.529 295.33C129.593 295.506 130.737 295.612 131.849 295.688C132.965 295.752 134.083 295.76 135.2 295.711C136.299 295.659 137.386 295.456 138.43 295.106C139.493 294.804 140.398 294.103 140.956 293.149C140.969 293.125 140.989 293.107 141.015 293.097C141.04 293.088 141.068 293.088 141.093 293.097C141.118 293.107 141.139 293.125 141.152 293.149C141.164 293.173 141.168 293.2 141.162 293.226C140.976 293.815 140.673 294.36 140.271 294.828C139.869 295.296 139.376 295.677 138.823 295.95C137.744 296.515 136.587 296.914 135.39 297.133C134.215 297.363 133.024 297.497 131.828 297.534C130.63 297.58 129.431 297.548 128.237 297.437C127.999 297.417 127.776 297.312 127.609 297.141C127.441 296.97 127.341 296.745 127.325 296.507L127.319 296.417C127.06 292.392 126.913 288.363 126.924 284.329C126.911 282.313 126.886 280.297 126.908 278.279C126.93 276.262 127.033 274.242 127.075 272.224C127.236 268.191 127.107 264.151 126.688 260.136C126.495 258.126 126.264 256.116 126.117 254.104C125.964 252.092 125.948 250.076 125.923 248.06L125.923 248.02C125.921 247.899 125.943 247.78 125.988 247.668C126.033 247.556 126.099 247.454 126.183 247.368C126.267 247.282 126.368 247.213 126.478 247.165C126.589 247.118 126.708 247.093 126.828 247.091H126.833C130.816 247.035 134.799 247.187 138.767 247.546C138.794 247.549 138.818 247.561 138.837 247.581C138.855 247.6 138.866 247.626 138.867 247.653C138.867 247.68 138.858 247.706 138.841 247.727C138.824 247.748 138.8 247.761 138.773 247.766H138.773Z" fill="black"/>
<path d="M139.207 256.334C137.336 257.198 135.364 257.824 133.337 258.198C131.321 258.63 129.259 258.805 127.199 258.719C129.07 257.853 131.042 257.226 133.07 256.855C135.086 256.426 137.148 256.251 139.207 256.334Z" fill="black"/>
<path d="M140.365 306.776C140.87 308.68 141.342 310.592 141.782 312.513C141.974 313.457 142.242 314.383 142.583 315.283C143.004 316.136 143.515 316.942 144.106 317.686C144.69 318.462 145.252 319.33 145.828 320.064C146.392 320.822 147.044 321.569 147.67 322.317C148.942 323.809 150.232 325.302 151.479 326.833C156.573 332.906 161.147 339.398 165.151 346.239C167.19 349.644 168.982 353.192 170.677 356.78C171.513 358.58 172.275 360.415 173.066 362.234L175.154 367.81L176.964 373.476C177.509 375.352 178.093 377.217 178.716 379.071C179.94 382.786 181.348 386.437 182.866 390.053L182.85 390.022L182.921 390.182L182.937 390.213L184.906 394.76C185.591 396.267 186.178 397.821 186.766 399.365C185.26 396.42 183.634 393.549 182.093 390.617L182.108 390.647L182.024 390.494L182.007 390.463C180.161 386.959 178.519 383.352 177.09 379.659C176.377 377.811 175.702 375.949 175.067 374.072L173.107 368.553C170.318 361.265 166.961 354.208 163.067 347.446C161.152 344.046 159.029 340.767 156.889 337.499C154.706 334.258 152.417 331.086 150.067 327.947L146.507 323.243C145.294 321.668 144.188 320.012 143.197 318.288C142.634 317.439 142.164 316.532 141.796 315.582C141.517 314.614 141.317 313.626 141.199 312.626L140.365 306.776Z" fill="black"/>
<path d="M167.466 419.427C164.741 415.05 162.056 410.66 159.244 406.35C156.492 402.005 153.689 397.695 150.784 393.46C147.847 389.237 144.956 385.017 141.812 380.976C138.796 376.895 135.426 373.089 131.742 369.6C129.958 367.99 127.704 366.433 125.838 364.612C124.854 363.741 123.927 362.818 123.023 361.873C122.091 360.953 121.221 359.98 120.368 358.992C116.952 355.059 113.881 350.84 111.187 346.381C108.489 341.945 106.138 337.308 104.154 332.51C102.183 327.72 100.793 322.71 100.014 317.589C101.249 322.573 103.007 327.413 105.257 332.029C107.424 336.659 109.939 341.118 112.78 345.368C115.591 349.616 118.707 353.654 122.104 357.448C122.963 358.384 123.803 359.335 124.715 360.214C125.597 361.123 126.5 362.009 127.453 362.838C129.289 364.606 131.323 365.954 133.379 367.774C137.161 371.386 140.603 375.338 143.662 379.579C146.729 383.754 149.643 388.046 152.356 392.431C155.086 396.816 157.723 401.25 160.27 405.735C162.741 410.263 165.224 414.782 167.466 419.427Z" fill="black"/>
<path d="M84.8227 312.649C84.092 312.884 83.4496 313.336 82.9801 313.943C82.489 314.523 82.0763 315.166 81.7526 315.854C81.0813 317.22 80.5686 318.659 80.2248 320.142C79.8702 321.627 79.6056 323.131 79.4323 324.647C79.3479 325.407 79.2415 326.162 79.1756 326.923L79.0421 329.213C78.7586 335.334 78.8771 341.466 79.397 347.572L81.128 365.961C81.6382 372.112 82.0332 378.278 82.2554 384.461C82.4889 390.665 82.371 396.877 81.9021 403.067C81.6206 406.177 81.1643 409.269 80.5352 412.328C80.2157 413.856 79.8625 415.37 79.4757 416.871C79.104 418.328 78.8155 419.804 78.6112 421.294C77.8899 427.381 77.4988 433.502 77.4396 439.631C77.2235 445.782 77.2336 451.942 77.2015 458.107C76.0655 445.79 75.9104 433.402 76.7378 421.06C76.8956 419.49 77.1422 417.93 77.4764 416.388C77.8157 414.894 78.1451 413.405 78.4255 411.911C78.9817 408.923 79.3691 405.906 79.5861 402.874C79.9892 396.771 80.0619 390.65 79.8038 384.539C79.6309 378.407 79.2458 372.272 78.8172 366.138C78.4201 360.004 77.8216 353.882 77.5212 347.688C77.2141 341.496 77.324 335.291 77.8501 329.114L78.1237 326.802C78.2365 326.033 78.3904 325.269 78.5218 324.504C78.7902 322.971 79.1509 321.457 79.6017 319.968C80.0424 318.47 80.6562 317.029 81.4307 315.674C81.8191 314.995 82.2951 314.371 82.8465 313.816C83.3728 313.237 84.0615 312.83 84.8227 312.649Z" fill="black"/>
<path d="M39.6658 308.127C38.9432 310.32 38.5138 312.599 38.3889 314.904C38.2401 317.198 38.2747 319.5 38.4923 321.788C38.713 324.071 39.061 326.34 39.5347 328.585C39.7615 329.708 40.0556 330.818 40.3122 331.933L41.2606 335.239C41.2717 335.279 41.2801 335.32 41.2857 335.362L43.2407 350.537L45.0633 365.731C46.1893 375.869 47.4669 385.998 48.3424 396.153C49.2735 406.313 50.068 416.488 50.5812 426.685C50.8214 431.784 51.1014 436.883 51.1084 441.994C51.1292 444.548 51.1145 447.104 51.0191 449.659C50.9886 452.217 50.722 454.766 50.2229 457.275C50.5044 454.746 50.5874 452.197 50.4711 449.655C50.4159 447.112 50.2808 444.569 50.1102 442.029C49.7462 436.951 49.4076 431.872 48.947 426.8C48.0169 416.656 47.0049 406.519 45.9826 396.381L45.2139 388.772L44.3625 381.176L42.7256 365.98L41.1797 350.773L39.7662 335.547L39.7917 335.669L38.9453 332.265C38.7231 331.115 38.4649 329.975 38.2742 328.821C37.8871 326.513 37.6562 324.182 37.583 321.844C37.4984 319.509 37.6001 317.171 37.8871 314.853C38.1525 312.537 38.7516 310.272 39.6658 308.127Z" fill="black"/>
<path d="M129.422 329.398C130.134 330.339 130.712 331.374 131.141 332.473C131.585 333.574 131.899 334.723 132.076 335.897C132.272 337.103 132.223 338.336 131.934 339.523C131.81 340.127 131.558 340.698 131.195 341.197C130.833 341.696 130.368 342.112 129.831 342.417C130.461 341.507 130.825 340.44 130.882 339.334C130.953 338.249 130.899 337.16 130.72 336.087C130.418 333.893 129.853 331.712 129.422 329.398Z" fill="black"/>
<path d="M58.3768 326.046C58.7452 328.535 58.5432 331.075 57.7863 333.474C57.3997 334.713 56.7763 335.865 55.9507 336.866C55.5501 337.395 55.0172 337.809 54.4056 338.067C53.794 338.325 53.1253 338.417 52.4668 338.334C53.5894 338.003 54.5359 337.243 55.1003 336.218C55.6786 335.218 56.1426 334.156 56.4836 333.052C57.2029 330.8 57.7 328.45 58.3768 326.046Z" fill="black"/>
<path d="M141.644 304.266C142.165 307.015 142.458 309.801 142.52 312.598C142.637 315.392 142.519 318.192 142.169 320.967C141.646 318.219 141.353 315.433 141.294 312.636C141.179 309.841 141.296 307.042 141.644 304.266Z" fill="black"/>
<path d="M217.015 418.091C216.25 416.282 215.071 414.676 213.575 413.403C212.078 412.13 210.305 411.225 208.396 410.76C203.751 409.582 199.667 403.881 199.667 403.881C199.667 403.881 194.529 393.125 189.226 396.03C185.909 397.838 186.074 403.018 186.677 406.649C187.012 408.428 186.982 410.256 186.588 412.023C186.195 413.79 185.446 415.458 184.388 416.926C179.743 422.956 173.125 421.394 170.234 420.311C168.882 419.76 167.374 419.726 165.999 420.215C159.518 422.654 165.753 432.342 165.753 432.342C166.453 431.165 167.403 430.155 168.534 429.382C169.675 428.57 170.965 427.992 172.33 427.683C173.691 427.362 175.104 427.32 176.482 427.56C177.855 427.757 179.15 428.315 180.237 429.177C177.74 428.971 175.228 429.142 172.782 429.684C171.599 429.962 170.44 430.333 169.315 430.794C168.137 431.232 167.027 431.821 165.753 432.342C165.753 432.342 164.451 436.343 162.601 441.934C163.633 441.081 164.794 440.397 166.04 439.906C167.27 439.384 168.558 439.011 169.877 438.796C171.247 438.58 172.645 438.617 174.002 438.906C174.712 439.012 175.383 439.3 175.95 439.742C176.516 440.184 176.959 440.764 177.236 441.427C176.218 440.746 175.005 440.418 173.783 440.495C172.58 440.537 171.381 440.651 170.192 440.838L166.479 441.441C165.232 441.646 163.957 441.838 162.601 441.934C161.614 444.949 160.463 448.415 159.271 451.978C160.226 450.993 161.355 450.194 162.601 449.621C163.842 449.007 165.175 448.599 166.547 448.415C167.953 448.212 169.387 448.305 170.754 448.69C172.12 449.086 173.325 449.907 174.193 451.033C172.985 450.632 171.734 450.374 170.466 450.265C169.248 450.222 168.029 450.282 166.821 450.443C164.382 450.772 161.957 451.444 159.271 451.978C157.284 457.953 155.188 464.174 153.543 468.86C149.117 481.521 154.242 483.426 154.242 483.426C153.776 482.867 153.446 482.207 153.28 481.498C153.113 480.789 153.115 480.051 153.283 479.343C153.591 478.653 154.067 478.052 154.668 477.595C155.269 477.137 155.976 476.838 156.722 476.725C157.464 476.584 158.226 476.579 158.97 476.712C159.685 476.859 160.383 477.079 161.053 477.369C162.316 477.802 163.655 477.965 164.985 477.849C167.656 477.509 170.163 476.372 172.179 474.588C174.231 472.82 176.05 470.799 177.592 468.572L177.646 468.49C180.209 463.982 182.963 459.583 185.854 455.253C187.321 453.088 188.842 450.95 190.445 448.868C191.254 447.826 192.089 446.799 192.994 445.812C193.446 445.319 193.953 444.853 194.419 444.373C194.94 443.935 195.57 443.428 196.022 443.085C197.988 441.485 199.796 439.7 201.421 437.755C203.093 435.809 204.669 433.753 206.148 431.643C207.623 429.521 208.991 427.325 210.246 425.066C211.567 422.839 212.429 420.369 212.781 417.803C212.7 420.436 212.04 423.018 210.848 425.367C209.782 427.767 208.541 430.084 207.135 432.301C205.737 434.507 204.23 436.654 202.613 438.741C201.014 440.886 199.17 442.835 197.118 444.551C195.183 446.159 193.469 448.016 192.021 450.073C190.459 452.129 188.992 454.253 187.554 456.39C184.662 460.693 181.908 465.106 179.222 469.518L179.209 469.559L179.168 469.6C177.474 471.956 175.463 474.068 173.193 475.876C170.863 477.739 168.028 478.861 165.054 479.096C163.56 479.149 162.072 478.893 160.683 478.342C160.078 478.03 159.445 477.778 158.791 477.589C158.153 477.42 157.488 477.374 156.832 477.452C156.174 477.501 155.539 477.713 154.984 478.07C154.429 478.426 153.971 478.916 153.653 479.493C153.453 480.151 153.402 480.846 153.504 481.526C153.605 482.207 153.858 482.856 154.242 483.426C165.246 495.115 181.251 474.122 191.048 455.966C200.846 437.809 208.396 434.644 208.396 434.644C218.755 429.382 219.029 422.956 217.015 418.091ZM198.475 427.135C198.16 432.191 192.72 434.041 190.623 432.712C188.527 431.397 188.636 426.751 190.87 422.353C193.103 417.954 196.625 415.46 198.722 416.776C200.818 418.091 198.831 421.257 198.475 427.135V427.135Z" fill="black"/>
<path d="M86.6608 483.069C84.03 478.616 84.7151 471.422 84.7151 471.422C84.7151 471.422 87.8802 459.788 82.1251 457.733C78.5348 456.431 75.3285 460.254 73.4237 463.296C72.56 464.791 71.3623 466.067 69.9242 467.022C68.4862 467.978 66.8467 468.588 65.1337 468.805C57.8438 469.476 54.0069 463.241 52.5955 460.227C51.9789 458.804 50.9159 457.621 49.5672 456.856C43.25 453.567 41.5646 465.269 41.5646 465.269C42.9676 465.02 44.4082 465.081 45.7852 465.448C47.1897 465.786 48.5127 466.401 49.6769 467.256C50.8547 468.086 51.8637 469.132 52.6503 470.339C53.4695 471.51 54.0001 472.857 54.1989 474.272C52.5128 472.271 50.5945 470.477 48.4846 468.928C47.4574 468.176 46.3662 467.516 45.2235 466.955C44.086 466.338 42.8529 465.886 41.5646 465.269C41.5646 465.269 38.0432 467.092 33.0964 469.627C34.4764 469.876 35.8143 470.319 37.0704 470.942C38.3328 471.553 39.5231 472.302 40.6192 473.176C41.7492 474.072 42.7099 475.162 43.4558 476.396C43.8822 477.004 44.1644 477.702 44.2807 478.436C44.3971 479.169 44.3446 479.92 44.1272 480.63C43.7828 479.377 43.1057 478.241 42.1678 477.342C41.2698 476.427 40.318 475.567 39.3175 474.765L36.2207 472.299C35.134 471.463 34.0912 470.571 33.0964 469.627C30.4382 470.997 27.355 472.559 24.2033 474.176C25.6322 474.265 27.0337 474.608 28.3415 475.19C29.6747 475.753 30.917 476.51 32.0276 477.438C33.1573 478.388 34.1005 479.541 34.8093 480.836C35.4985 482.14 35.8072 483.612 35.7002 485.084C35.0551 483.901 34.3077 482.778 33.4664 481.726C32.606 480.756 31.6813 479.845 30.6985 479C28.6979 477.314 26.5057 475.875 24.2034 474.176H24.1896C18.8868 476.876 13.3371 479.657 9.11656 481.713C-2.28425 487.262 0.237128 492.579 0.237128 492.579C0.291571 491.859 0.472455 491.154 0.771432 490.496C1.06137 489.787 1.60994 489.214 2.30626 488.893C3.03425 488.624 3.83284 488.614 4.56714 488.866C5.29492 489.074 5.9747 489.423 6.56798 489.893C7.72388 490.857 8.6112 492.103 9.14395 493.511C9.74882 494.732 10.5654 495.836 11.5557 496.772C12.5416 497.7 13.6705 498.464 14.8991 499.033C16.1513 499.572 17.462 499.962 18.8046 500.198C21.5061 500.614 24.2549 500.618 26.9577 500.212H26.9851C31.836 499.019 36.7325 498.01 41.6746 497.183C44.1548 496.786 46.6351 496.443 49.1563 496.21C50.4171 496.101 51.6914 496.046 52.9794 496.032C53.6234 496.046 54.2814 496.101 54.9251 496.128C55.5694 496.224 56.3502 496.347 56.8848 496.443C59.2704 496.837 61.6913 496.975 64.1062 496.854C66.5738 496.772 69.0349 496.553 71.4781 496.197C73.9263 495.843 76.3514 495.344 78.7406 494.703C79.9285 494.37 81.0916 493.953 82.2211 493.456C83.3689 492.98 84.4224 492.303 85.3316 491.455C83.5634 493.265 81.3671 494.599 78.9463 495.333C76.5845 496.202 74.1554 496.876 71.6834 497.348C69.2071 497.838 66.7046 498.186 64.1883 498.389C61.6333 498.648 59.0561 498.593 56.5146 498.225C54.1365 497.854 51.7165 497.84 49.3343 498.184C46.8952 498.43 44.4423 498.787 42.0032 499.184C37.1253 500.02 32.2333 500.993 27.3961 502.075H27.3687L27.3002 502.089C24.3644 502.479 21.3851 502.396 18.4757 501.842C17.0122 501.522 15.5944 501.02 14.2551 500.349C12.9188 499.656 11.7021 498.754 10.6514 497.677C9.61568 496.587 8.77651 495.326 8.17115 493.949C7.93615 493.296 7.65686 492.66 7.33517 492.045C6.99918 491.461 6.57903 490.93 6.08829 490.469C5.59481 490.015 5.01772 489.661 4.38916 489.427C3.7805 489.161 3.09979 489.108 2.45718 489.277C1.84471 489.603 1.32187 490.075 0.93473 490.651C0.547588 491.226 0.308032 491.889 0.23717 492.579C0.758055 509.42 25.9847 506.94 44.8399 501.664C63.7086 496.388 71.2726 500.006 71.2726 500.006C82.2485 504.309 86.5785 499.979 88.2365 494.95C88.8305 492.971 88.9972 490.888 88.7255 488.84C88.4539 486.792 87.7501 484.825 86.6608 483.069ZM68.8471 486.975C65.3666 490.318 60.2006 487.413 59.5155 484.851C58.8303 482.275 61.8997 479.082 66.3805 477.684C70.8476 476.3 75.0271 477.259 75.7122 479.822C76.3974 482.384 72.9031 483.097 68.8471 486.975V486.975Z" fill="black"/>
<path d="M122.481 234.984C121.255 234.808 120.066 234.431 118.962 233.87C117.837 233.323 116.793 232.622 115.861 231.787C114.925 230.925 114.152 229.901 113.579 228.764C113.036 227.619 112.811 226.35 112.927 225.088C113.328 226.194 113.858 227.25 114.507 228.232C115.181 229.153 115.945 230.006 116.786 230.777C117.649 231.556 118.557 232.283 119.506 232.954C120.466 233.636 121.454 234.301 122.481 234.984Z" fill="black"/>
<path d="M49.7982 212.274C49.8943 213.305 49.8113 214.345 49.5529 215.349C49.3166 216.37 48.9225 217.348 48.3847 218.248C47.8387 219.18 47.0915 219.979 46.1975 220.585C45.2971 221.181 44.2177 221.446 43.1438 221.334C44.0246 220.942 44.8333 220.405 45.5361 219.745C46.1849 219.082 46.7482 218.341 47.2128 217.539C48.1672 215.831 49.0302 214.073 49.7982 212.274Z" fill="black"/>
</svg>
