<svg width="700" height="550" viewBox="0 0 700 550" fill="none" xmlns="http://www.w3.org/2000/svg">
<path d="M323.919 132.022L321.185 155.777C320.529 155.328 319.999 154.717 319.648 154.004C318.946 152.764 318.452 151.417 318.186 150.018C315.926 139.04 311.973 141.091 311.973 141.091C307.913 143.202 313.692 156.928 313.692 156.928C315.357 162.139 314.166 163.784 312.88 164.251C312.433 164.397 311.953 164.413 311.497 164.298C311.041 164.183 310.626 163.941 310.302 163.601C308.452 161.669 306.354 159.992 304.062 158.613C303.408 158.223 302.669 158 301.909 157.963C301.615 157.914 301.314 157.93 301.026 158.008C300.738 158.087 300.47 158.227 300.242 158.418C300.013 158.61 299.828 158.849 299.7 159.118C299.572 159.388 299.504 159.682 299.5 159.98C299.456 160.521 299.522 161.065 299.696 161.58C299.869 162.094 300.146 162.568 300.509 162.971L309.618 173.577C310.816 176.785 314.755 181.509 318.22 181.489L317.902 184.25L317.638 195.444L314.085 234.245C294.593 235.95 295.812 231.456 295.812 231.456L294.167 168.948C296.915 146.045 309.171 133.863 309.171 133.863C309.171 133.863 317.726 135.981 323.919 132.022Z" fill="black"/>
<path d="M314.785 122.381C315.968 122.066 317.067 121.493 318.003 120.703C318.475 120.32 318.916 119.902 319.324 119.451C319.723 118.993 320.09 118.509 320.423 118.002C321.719 115.937 322.585 113.632 322.968 111.224C323.093 110.627 323.18 110.023 323.226 109.416C323.284 108.809 323.382 108.206 323.407 107.596C323.409 106.374 323.508 105.154 323.431 103.933C323.35 102.713 323.348 101.486 323.205 100.27L322.771 96.6193L322.971 96.8317C320.962 96.2443 319.05 95.3655 317.296 94.2232C312.903 91.3832 309.542 87.2039 307.71 82.3043C307.335 81.3366 307.097 80.3216 306.784 79.3311L307.013 79.4571C305.476 80.1653 304.098 81.174 302.957 82.4237C301.803 83.6658 300.818 85.0559 300.03 86.5575C299.244 88.062 298.605 89.6384 298.12 91.2652C297.877 92.078 297.701 92.9117 297.488 93.7334L297.051 96.2471L297.02 96.0487C297.504 97.5458 297.646 99.1324 297.435 100.692C297.355 101.454 297.238 102.209 297.083 102.957C296.932 103.682 296.821 104.414 296.751 105.151C296.454 108.114 296.604 111.104 297.197 114.022C297.507 115.471 298.007 116.873 298.683 118.192C299.369 119.502 300.322 120.653 301.48 121.571C303.955 123.282 306.991 123.98 309.964 123.521L309.973 123.588C308.475 123.821 306.952 123.827 305.452 123.606C303.933 123.376 302.492 122.783 301.252 121.876C300.024 120.948 299.004 119.771 298.26 118.424C297.531 117.078 296.983 115.643 296.629 114.154C295.939 111.183 295.747 108.117 296.059 105.082C296.129 104.321 296.24 103.565 296.393 102.816C296.54 102.089 296.651 101.359 296.725 100.624C296.909 99.1911 296.798 97.7359 296.397 96.3481L296.353 96.2245L296.366 96.1493L296.837 93.5926C297.062 92.7549 297.25 91.9072 297.508 91.0788C298.014 89.4151 298.693 87.8088 299.533 86.2862C300.375 84.7617 301.417 83.3562 302.63 82.1065C303.841 80.8394 305.291 79.8256 306.897 79.1239L307.068 79.0543L307.127 79.25C307.422 80.2308 307.642 81.2385 307.998 82.1999C308.34 83.1673 308.747 84.1109 309.214 85.0245C310.118 86.8729 311.296 88.5735 312.71 90.0684C315.521 93.0756 319.113 95.2418 323.085 96.3248L323.262 96.3699L323.284 96.5374L323.779 100.212C323.934 101.439 323.949 102.681 324.039 103.916C324.104 105.152 323.991 106.395 323.975 107.633C323.943 108.252 323.837 108.867 323.771 109.484C323.716 110.102 323.621 110.717 323.487 111.324L323.076 113.144C322.895 113.739 322.668 114.322 322.467 114.91C322.019 116.075 321.435 117.182 320.726 118.209C320.37 118.722 319.979 119.208 319.555 119.666C319.117 120.109 318.646 120.517 318.145 120.888C317.157 121.649 316.013 122.182 314.796 122.448L314.785 122.381Z" fill="black"/>
<path d="M309.526 112.147C309.537 113.073 309.212 113.972 308.611 114.676C308.29 115.039 307.891 115.325 307.444 115.512C306.997 115.698 306.514 115.781 306.03 115.753C305.084 115.677 304.198 115.262 303.532 114.585C302.854 113.944 302.434 113.077 302.351 112.147C302.314 111.662 302.386 111.175 302.561 110.721C302.736 110.268 303.01 109.858 303.363 109.524C304.075 108.828 305.034 108.44 306.03 108.445C306.519 108.444 307.003 108.547 307.45 108.748C307.896 108.949 308.295 109.242 308.619 109.608C309.22 110.316 309.542 111.219 309.526 112.147ZM309.445 112.147C309.434 111.72 309.321 111.302 309.114 110.929C308.907 110.556 308.613 110.238 308.256 110.003C307.602 109.55 306.825 109.309 306.03 109.313C305.245 109.314 304.486 109.588 303.881 110.087C303.266 110.607 302.877 111.346 302.797 112.147C302.759 112.567 302.823 112.989 302.982 113.38C303.141 113.77 303.391 114.117 303.711 114.391C304.364 114.915 305.197 115.16 306.03 115.076C306.831 115.025 307.604 114.757 308.265 114.3C308.621 114.063 308.914 113.743 309.119 113.368C309.325 112.993 309.436 112.574 309.445 112.147Z" fill="black"/>
<path d="M301.932 99.9027C301.583 100.477 301.262 101.042 300.972 101.6C300.683 102.121 300.496 102.692 300.422 103.283C300.394 103.549 300.431 103.818 300.53 104.066C300.63 104.314 300.788 104.534 300.991 104.708C301.212 104.917 301.455 105.103 301.714 105.262C301.986 105.432 302.285 105.555 302.574 105.745C302.235 105.727 301.897 105.689 301.563 105.631C301.218 105.543 300.891 105.399 300.594 105.204C300.268 104.999 300.002 104.711 299.823 104.37C299.658 104.011 299.585 103.616 299.61 103.222C299.696 102.504 299.983 101.826 300.436 101.264C300.845 100.72 301.353 100.258 301.932 99.9027Z" fill="black"/>
<path d="M299.672 99.414C299.988 99.4031 300.288 99.2696 300.508 99.0418C300.728 98.814 300.851 98.5097 300.851 98.193C300.851 97.8762 300.728 97.5719 300.508 97.3441C300.288 97.1163 299.988 96.9829 299.672 96.9719C299.355 96.9829 299.055 97.1163 298.835 97.3441C298.615 97.5719 298.492 97.8762 298.492 98.193C298.492 98.5097 298.615 98.814 298.835 99.0418C299.055 99.2696 299.355 99.4031 299.672 99.414Z" fill="black"/>
<path d="M313.685 99.699C314.002 99.688 314.302 99.5546 314.522 99.3268C314.742 99.099 314.865 98.7947 314.865 98.478C314.865 98.1613 314.742 97.857 314.522 97.6292C314.302 97.4014 314.002 97.2679 313.685 97.257C313.369 97.2679 313.069 97.4014 312.849 97.6292C312.629 97.857 312.506 98.1613 312.506 98.478C312.506 98.7947 312.629 99.099 312.849 99.3268C313.069 99.5546 313.369 99.688 313.685 99.699Z" fill="black"/>
<path d="M297.306 93.0415C298.308 92.5206 299.438 92.2935 300.564 92.3862C301.133 92.4324 301.691 92.5634 302.221 92.7747C302.751 92.9936 303.22 93.3371 303.589 93.776C303.079 93.617 302.561 93.4857 302.037 93.3826C301.525 93.3035 301.019 93.2335 300.503 93.1974C299.467 93.1176 298.426 93.1205 297.306 93.0415Z" fill="black"/>
<path d="M308.713 93.776C309.827 93.1132 311.084 92.7288 312.378 92.6554C313.671 92.5308 314.976 92.7427 316.163 93.2703C314.869 93.3478 313.665 93.3577 312.438 93.4666C311.212 93.5471 310.002 93.6913 308.713 93.776Z" fill="black"/>
<path d="M292.893 94.9907C297.086 95.2536 301.295 95.0695 305.498 95.1915C309.7 95.3096 313.885 95.8071 318.07 96.2158L318.344 96.2425L318.323 96.4911C318.2 98.18 317.774 99.833 317.066 101.371C316.7 102.158 316.149 102.845 315.458 103.371C314.761 103.934 313.89 104.237 312.994 104.23C312.108 104.262 311.226 104.11 310.404 103.781C309.565 103.432 308.826 102.879 308.255 102.172C307.168 100.734 306.578 98.9823 306.574 97.1802L307.148 97.8256L302.51 97.4684L303.261 96.9201C302.979 98.1717 302.563 99.389 302.018 100.551C301.482 101.778 300.677 102.869 299.663 103.745C299.096 104.214 298.41 104.516 297.681 104.619C296.956 104.705 296.221 104.587 295.56 104.277C294.394 103.672 293.384 102.808 292.605 101.751L292.581 101.723C292.281 101.214 292.04 100.672 291.862 100.108C291.685 99.562 291.554 99.0021 291.472 98.4341C291.396 97.8715 291.355 97.3045 291.35 96.7367C291.352 96.1727 291.386 95.6092 291.451 95.049L291.458 94.9728L291.535 94.9738L292.893 94.9907ZM292.889 95.126L291.535 95.143L291.619 95.068C291.447 96.7193 291.717 98.3868 292.402 99.8991C292.613 100.384 292.881 100.843 293.201 101.265L293.178 101.236C293.976 102.073 294.937 102.737 296.003 103.187C296.47 103.37 296.98 103.418 297.474 103.328C297.968 103.237 298.427 103.01 298.799 102.673C299.619 101.902 300.269 100.968 300.709 99.9329C301.201 98.8652 301.596 97.7552 301.887 96.6164L302.051 96.0046L302.639 96.0679L307.264 96.5656L307.833 96.6268L307.839 97.2113C307.803 98.7462 308.235 100.256 309.078 101.539C309.513 102.155 310.089 102.659 310.758 103.008C311.452 103.353 312.213 103.543 312.988 103.567C313.773 103.586 314.545 103.367 315.204 102.94C315.862 102.512 316.376 101.896 316.679 101.171C317.398 99.7096 317.777 98.1043 317.787 96.4754L318.04 96.7507C313.837 96.6844 309.634 96.707 305.449 96.3501C301.263 95.9971 297.084 95.3381 292.889 95.126V95.126Z" fill="black"/>
<path d="M318.055 96.4832L323.027 96.5782" stroke="black" stroke-width="0.81402" stroke-miterlimit="10"/>
<path d="M306.209 123.687C306.826 125.347 307.381 127.025 307.922 128.707L308.707 131.238C308.978 132.078 309.195 132.935 309.442 133.783L309.241 133.589C310.838 134.002 312.47 134.262 314.117 134.364C315.769 134.476 317.429 134.338 319.04 133.955C320.63 133.58 322.136 132.91 323.477 131.978C324.746 130.989 325.758 129.71 326.428 128.247L326.987 128.662C326.693 128.825 326.357 128.895 326.023 128.863C325.689 128.83 325.372 128.697 325.116 128.48C324.664 128.161 324.262 127.776 323.925 127.337C323.28 126.499 322.729 125.592 322.281 124.634C321.817 123.7 321.407 122.741 321.053 121.76C320.663 120.796 320.388 119.791 320.064 118.808C320.061 118.799 320.062 118.79 320.066 118.782C320.07 118.774 320.077 118.768 320.085 118.765C320.094 118.763 320.102 118.764 320.11 118.767C320.118 118.771 320.124 118.777 320.127 118.785C320.549 119.732 320.955 120.683 321.398 121.615C321.827 122.553 322.293 123.472 322.784 124.37C323.263 125.262 323.822 126.11 324.453 126.903C324.75 127.284 325.103 127.618 325.498 127.895C325.675 128.017 325.872 128.106 326.08 128.157C326.228 128.19 326.383 128.176 326.524 128.118L326.563 128.091C326.627 128.046 326.704 128.024 326.782 128.028C326.86 128.032 326.934 128.061 326.994 128.112C327.053 128.163 327.094 128.231 327.11 128.308C327.126 128.384 327.116 128.463 327.082 128.534C326.345 130.098 325.224 131.451 323.825 132.466C322.389 133.379 320.784 133.991 319.105 134.265C317.455 134.546 315.781 134.662 314.108 134.613C312.429 134.605 310.754 134.446 309.103 134.136C309.057 134.127 309.014 134.105 308.979 134.073C308.944 134.041 308.919 134 308.905 133.954L308.901 133.942C308.649 133.096 308.368 132.258 308.14 131.405L307.426 128.853C306.97 127.146 306.526 125.436 306.144 123.707C306.143 123.698 306.144 123.689 306.148 123.682C306.153 123.675 306.16 123.669 306.168 123.667C306.176 123.664 306.185 123.665 306.193 123.669C306.2 123.673 306.206 123.679 306.209 123.687H306.209Z" fill="black"/>
<path d="M308.116 130.28C304.673 132.565 301.353 135.029 298.168 137.663C296.58 138.969 295.082 140.381 293.684 141.89C292.995 142.63 292.388 143.441 291.874 144.312C291.629 144.724 291.447 145.171 291.335 145.638C291.285 146.038 291.277 146.624 291.254 147.136C290.984 151.286 290.577 155.388 290.257 159.512C289.924 163.632 289.626 167.752 289.363 171.874C288.813 180.116 288.444 188.37 288.436 196.62C288.35 204.857 288.843 213.091 289.912 221.259L289.926 221.359L289.917 221.416C289.339 224.34 287.979 227.053 285.981 229.266C285.028 230.367 283.978 231.381 282.845 232.296C282.262 232.725 281.695 233.18 281.092 233.581C280.485 233.966 279.878 234.386 279.269 234.741C274.407 237.666 269.501 240.518 264.619 243.409L264.463 242.564C266.909 243.083 269.301 243.828 271.61 244.787C273.934 245.719 276.125 246.95 278.129 248.45C280.161 249.949 281.792 251.924 282.88 254.201C283.381 255.354 283.7 256.577 283.824 257.828C283.919 259.073 283.848 260.326 283.614 261.552L283.609 261.579L283.595 261.596C283.436 261.785 283.239 261.939 283.017 262.047C282.795 262.155 282.552 262.215 282.305 262.223C281.825 262.217 281.356 262.073 280.955 261.808C280.189 261.271 279.527 260.6 279.001 259.827C279.551 260.572 280.232 261.212 281.01 261.715C281.397 261.951 281.844 262.071 282.297 262.061C282.515 262.045 282.727 261.984 282.92 261.883C283.114 261.781 283.284 261.641 283.421 261.47L283.402 261.513C283.597 260.306 283.631 259.078 283.504 257.862C283.348 256.656 283.006 255.482 282.49 254.381C281.376 252.214 279.745 250.354 277.742 248.965C275.754 247.549 273.594 246.39 271.314 245.517C269.044 244.621 266.697 243.935 264.301 243.468L263.128 243.244L264.145 242.622C268.986 239.663 273.804 236.666 278.665 233.741C279.28 233.378 279.837 232.984 280.425 232.608C281.001 232.22 281.539 231.781 282.096 231.368C283.165 230.493 284.156 229.525 285.055 228.476C285.946 227.432 286.717 226.291 287.354 225.075C287.986 223.893 288.425 222.618 288.655 221.298L288.659 221.454C287.5 213.228 286.992 204.922 287.141 196.615C287.197 188.326 287.616 180.05 288.215 171.794C288.816 163.542 289.776 155.3 290.523 147.095C290.559 146.575 290.558 146.125 290.644 145.5C290.779 144.961 290.996 144.446 291.287 143.973C291.851 143.077 292.512 142.247 293.258 141.495C294.718 140.013 296.276 138.632 297.924 137.362C301.195 134.824 304.597 132.46 308.116 130.28Z" fill="black"/>
<path d="M265.478 247.158C264.753 246.577 264.11 245.902 263.565 245.15C263.241 244.746 263.075 244.239 263.097 243.722C263.112 243.569 263.17 243.424 263.264 243.303L263.405 243.116L263.582 242.994C263.81 242.848 264.062 242.743 264.326 242.682L264.437 243.35C264.041 243.409 263.677 243.522 263.594 243.825C263.547 244.228 263.639 244.635 263.856 244.978C264.297 245.774 264.843 246.507 265.478 247.158Z" fill="black"/>
<path d="M283.508 261.533C284.757 260.626 286.057 259.793 287.403 259.037C288.731 258.266 290.093 257.565 291.463 256.879C292.844 256.215 294.232 255.566 295.655 254.988C297.076 254.387 298.532 253.87 300.014 253.439C298.766 254.347 297.466 255.181 296.12 255.937C294.792 256.708 293.429 257.408 292.059 258.093C290.677 258.756 289.289 259.404 287.866 259.982C286.445 260.583 284.989 261.101 283.508 261.533Z" fill="black"/>
<path d="M289.285 221.357C289.486 222.758 289.576 224.166 289.69 225.575C289.774 226.984 289.818 228.397 289.823 229.811C289.826 231.227 289.775 232.645 289.669 234.066C289.583 235.53 289.32 236.978 288.886 238.378L288.864 238.442L288.808 238.527C288.553 238.879 288.447 239.317 288.511 239.746C288.594 239.942 288.721 240.117 288.882 240.257C289.042 240.398 289.233 240.5 289.438 240.556C290.567 240.907 291.746 241.072 292.927 241.044C294.18 241.088 295.432 241.16 296.684 241.24C297.936 241.344 299.189 241.41 300.441 241.554C299.189 241.698 297.936 241.764 296.684 241.868C295.432 241.948 294.18 242.02 292.927 242.064C291.606 242.202 290.271 242.086 288.993 241.722C288.627 241.604 288.284 241.422 287.982 241.185C287.633 240.908 287.379 240.532 287.252 240.106C287.136 239.692 287.132 239.255 287.241 238.84C287.336 238.456 287.494 238.091 287.71 237.759L287.632 237.908C288.013 236.614 288.262 235.285 288.375 233.94C288.53 232.562 288.634 231.17 288.735 229.775L289.001 225.575L289.285 221.357Z" fill="black"/>
<path d="M300.543 234.633L300.282 258.766L299.942 282.896L299.559 307.026L299.08 331.153L299.078 331.076L300.98 357.06L302.76 383.052C303.95 400.38 304.974 417.719 306.081 435.053L306.012 434.827C306.104 434.928 306.208 435.018 306.32 435.097C306.471 435.205 306.631 435.301 306.797 435.383C307.149 435.56 307.516 435.706 307.893 435.82C308.677 436.054 309.478 436.223 310.29 436.325C311.946 436.525 313.615 436.599 315.283 436.548C318.648 436.437 322.002 436.104 325.322 435.55C331.985 434.433 338.588 432.98 345.104 431.197L345.082 431.204C346.497 430.542 347.678 429.468 348.471 428.122C349.289 426.76 349.832 425.25 350.067 423.679C350.305 422.095 350.359 420.489 350.229 418.893C350.165 418.092 350.069 417.295 349.947 416.499C349.794 415.707 349.673 414.88 349.59 414.078C348.814 407.624 348.1 401.162 347.448 394.695C346.803 388.226 346.17 381.754 345.719 375.263C345.493 372.017 345.304 368.767 345.219 365.506C345.181 363.875 345.162 362.242 345.219 360.6C345.246 359.779 345.291 358.957 345.382 358.127C345.447 357.251 345.639 356.39 345.953 355.57L346.272 354.81L346.897 355.391L374.169 380.738L401.401 406.126L401.528 406.244L401.627 406.448C403.025 409.551 405.508 412.036 408.61 413.436C411.681 414.692 415.273 414.064 418.257 412.479C421.284 410.702 423.983 408.419 426.236 405.728C428.576 403.036 430.688 400.153 432.548 397.11C433.488 395.592 434.38 394.043 435.194 392.462C436.015 390.931 436.697 389.33 437.231 387.677C437.279 387.506 437.316 387.333 437.342 387.159L437.351 387.068C437.36 387.038 437.349 386.961 437.368 387.147C437.407 387.298 437.378 387.189 437.347 387.143C437.142 386.799 436.917 386.467 436.672 386.149C436.148 385.453 435.582 384.758 435.009 384.069C433.861 382.69 432.674 381.328 431.479 379.973C426.687 374.56 421.765 369.238 416.833 363.931C406.942 353.337 397.011 342.777 387.038 332.25L357.065 300.729L356.765 300.413L356.932 300.017C358.763 295.688 360.45 291.271 362.018 286.826C363.587 282.378 365.008 277.879 366.251 273.332C367.535 268.799 368.46 264.171 369.016 259.492C369.286 257.157 369.309 254.801 369.084 252.462C368.809 250.167 368.168 247.76 366.456 246.13L366.592 245.98C368.403 247.629 369.111 250.09 369.445 252.415C369.726 254.78 369.758 257.168 369.538 259.539C369.085 264.265 368.259 268.948 367.069 273.544C365.934 278.149 364.544 282.684 363.049 287.18C361.541 291.675 359.923 296.121 358.139 300.528L358.006 299.817C368.186 310.148 378.298 320.544 388.342 331.004C398.417 341.437 408.453 351.907 418.347 362.519C423.296 367.824 428.232 373.138 433.063 378.573C434.268 379.935 435.466 381.303 436.641 382.708C437.228 383.412 437.81 384.12 438.377 384.872C438.686 385.271 438.969 385.691 439.223 386.128C439.334 386.322 439.416 386.531 439.464 386.749C439.493 386.886 439.499 387.027 439.483 387.166L439.461 387.414C439.425 387.687 439.369 387.958 439.295 388.225C438.728 390.027 437.995 391.774 437.105 393.441C436.262 395.085 435.353 396.686 434.38 398.246C432.439 401.382 430.24 404.35 427.806 407.119C425.376 409.984 422.468 412.407 419.212 414.282C417.495 415.189 415.628 415.78 413.701 416.025C411.729 416.266 409.728 416.01 407.88 415.279C406.068 414.53 404.439 413.4 403.103 411.965C401.77 410.565 400.674 408.958 399.857 407.206L400.083 407.528L373.063 381.914L346.083 356.257L347.027 356.078C346.763 356.779 346.598 357.513 346.535 358.259C346.44 359.043 346.386 359.843 346.35 360.646C346.276 362.251 346.275 363.868 346.293 365.485C346.338 368.722 346.487 371.963 346.672 375.202C347.055 381.68 347.561 388.153 348.189 394.622C348.811 401.087 349.495 407.547 350.242 414C350.324 414.816 350.435 415.596 350.586 416.401C350.706 417.211 350.801 418.028 350.863 418.847C350.989 420.493 350.925 422.148 350.672 423.779C350.422 425.43 349.858 427.017 349.009 428.455C348.149 429.934 346.854 431.113 345.3 431.829L345.294 431.831L345.277 431.836C338.747 433.665 332.128 435.162 325.447 436.324C322.093 436.896 318.708 437.27 315.309 437.443C313.594 437.522 311.876 437.47 310.168 437.29C309.299 437.194 308.439 437.025 307.597 436.786C307.162 436.662 306.739 436.5 306.332 436.303C306.119 436.2 305.913 436.08 305.718 435.944C305.477 435.789 305.268 435.588 305.104 435.353L305.045 435.27L305.034 435.127C303.705 417.808 302.293 400.496 301.046 383.172L299.171 357.187L297.419 331.193L297.416 331.152L297.417 331.115L298.034 306.991L298.748 282.869L299.504 258.748L300.34 234.629L300.543 234.633Z" fill="black"/>
<path d="M321.215 155.716C321.356 155.789 321.517 155.814 321.674 155.789C321.832 155.764 321.976 155.689 322.088 155.576C322.313 155.332 322.486 155.045 322.595 154.731C322.831 154.096 322.931 153.417 322.886 152.741L322.766 148.545L322.602 140.154C322.475 138.626 322.914 137.103 323.835 135.877C324.099 135.529 324.441 135.248 324.833 135.056C325.062 134.951 325.311 134.896 325.564 134.897C325.816 134.898 326.065 134.953 326.294 135.06C327.006 135.46 327.591 136.054 327.979 136.773C328.737 138.071 329.141 139.546 329.148 141.049L329.31 145.241L329.462 149.434C329.497 150.115 329.485 150.871 329.528 151.492C329.579 152.114 329.776 152.715 330.101 153.247C330.404 153.753 330.981 154.281 331.223 154.169C331.318 154.139 331.402 154.083 331.467 154.008C331.515 153.96 331.558 153.908 331.597 153.853C331.642 153.787 331.615 153.831 331.654 153.731C331.749 153.414 331.827 153.092 331.889 152.767C332.155 151.41 332.378 150.03 332.548 148.65C332.735 147.263 332.901 145.874 333.061 144.485L333.306 142.401C333.345 141.681 333.49 140.972 333.737 140.295C334.014 139.607 334.47 139.005 335.059 138.552C335.367 138.312 335.736 138.163 336.125 138.123C336.521 138.095 336.916 138.194 337.252 138.405C337.863 138.827 338.36 139.394 338.697 140.055C339.034 140.717 339.201 141.452 339.182 142.194V142.202L339.182 142.212C339.057 143.952 338.98 145.695 338.877 147.436L338.732 150.049L338.659 151.355C338.632 151.759 338.655 152.165 338.728 152.564C338.798 152.953 338.926 153.329 339.109 153.68C339.259 154.002 339.487 154.282 339.772 154.495C340.09 154.799 340.686 154.073 341.018 153.342C341.699 151.82 342.342 150.119 343.173 148.56C343.58 147.746 344.063 146.973 344.617 146.251C345.209 145.436 346.04 144.824 346.995 144.499C347.508 144.368 348.043 144.345 348.566 144.433C348.939 144.482 349.28 144.671 349.519 144.961C349.723 145.226 349.851 145.542 349.888 145.875C349.942 146.843 349.805 147.813 349.484 148.728C348.409 152.155 346.827 155.285 345.518 158.468C344.392 161.72 343.564 165.068 343.045 168.47C342.462 172.058 340.816 175.39 338.32 178.033C337.081 179.363 335.596 180.439 333.946 181.201C333.104 181.568 332.206 181.792 331.291 181.865C330.407 181.966 329.517 182.006 328.627 181.984C326.873 181.907 325.124 181.719 323.393 181.423C322.539 181.299 321.676 181.244 320.813 181.259C320.383 181.267 319.955 181.312 319.532 181.394C319.104 181.502 318.663 181.557 318.221 181.556V181.421C318.651 181.395 319.076 181.314 319.486 181.182C319.915 181.072 320.353 180.999 320.794 180.963C321.674 180.893 322.558 180.894 323.438 180.967C325.189 181.091 326.912 181.296 328.628 181.255C329.483 181.24 330.336 181.165 331.181 181.032C332.005 180.934 332.807 180.699 333.553 180.334C335.048 179.564 336.388 178.526 337.508 177.272C339.765 174.739 341.224 171.597 341.704 168.238C342.219 164.737 343.055 161.29 344.2 157.942C345.499 154.657 347.156 151.568 348.206 148.34C348.476 147.609 348.611 146.837 348.604 146.058C348.6 145.955 348.569 145.855 348.515 145.768C348.488 145.723 348.485 145.729 348.347 145.692C348.009 145.63 347.661 145.637 347.325 145.714C346.619 145.961 346.004 146.417 345.563 147.022C345.037 147.672 344.573 148.369 344.175 149.105C343.317 150.602 342.678 152.156 341.883 153.791C341.667 154.228 341.383 154.627 341.044 154.977C340.831 155.187 340.568 155.342 340.281 155.428C340.116 155.466 339.945 155.471 339.778 155.442C339.611 155.413 339.452 155.35 339.31 155.258C338.888 154.953 338.556 154.54 338.349 154.063C338.141 153.632 338 153.172 337.93 152.698C337.86 152.235 337.848 151.766 337.892 151.3L338.008 149.996L338.241 147.39C338.39 145.652 338.565 143.916 338.693 142.176L338.692 142.194C338.718 141.532 338.579 140.874 338.288 140.278C337.998 139.683 337.564 139.168 337.027 138.781C336.765 138.612 336.457 138.531 336.147 138.55C335.837 138.569 335.541 138.686 335.302 138.885C334.773 139.289 334.37 139.833 334.138 140.456C333.918 141.1 333.794 141.773 333.77 142.453L333.56 144.539C333.417 145.93 333.28 147.322 333.164 148.715C333.05 150.118 332.885 151.51 332.671 152.909C332.618 153.273 332.545 153.634 332.451 153.99C332.417 154.116 332.363 154.235 332.291 154.342C332.232 154.432 332.166 154.517 332.094 154.596C331.93 154.788 331.717 154.932 331.478 155.013C331.236 155.072 330.984 155.07 330.742 155.008C330.501 154.945 330.279 154.824 330.096 154.655C329.789 154.404 329.519 154.109 329.296 153.78C328.86 153.132 328.582 152.391 328.484 151.616C328.407 150.844 328.38 150.199 328.342 149.484L328.137 145.293L327.943 141.102C327.967 139.792 327.642 138.5 327.001 137.357C326.732 136.834 326.332 136.389 325.839 136.068C325.752 136.021 325.656 135.995 325.557 135.992C325.459 135.989 325.361 136.01 325.272 136.053C325.035 136.172 324.828 136.343 324.667 136.554C323.883 137.584 323.503 138.864 323.599 140.155L323.435 148.546L323.315 152.741C323.317 153.468 323.166 154.186 322.871 154.85C322.724 155.19 322.506 155.494 322.232 155.742C322.085 155.868 321.902 155.945 321.709 155.962C321.516 155.979 321.322 155.936 321.155 155.838L321.215 155.716Z" fill="black"/>
<path d="M320.096 165.537C321.377 166.188 322.535 167.057 323.52 168.104C324.56 169.118 325.312 170.39 325.7 171.79C324.901 170.644 324.008 169.567 323.03 168.57C322.074 167.557 321.069 166.593 320.096 165.537Z" fill="black"/>
<path d="M322.531 160.258C323.506 160.556 324.484 160.8 325.458 161.033C326.428 161.259 327.41 161.435 328.398 161.561C329.381 161.676 330.372 161.716 331.361 161.679C332.359 161.61 333.347 161.433 334.307 161.151C333.421 161.686 332.439 162.044 331.416 162.204C330.389 162.343 329.348 162.352 328.317 162.232C326.273 161.98 324.303 161.308 322.531 160.258Z" fill="black"/>
<path d="M317.191 182.131C317.191 182.131 352.337 216.946 376.702 207.687" stroke="black" stroke-width="0.67679" stroke-miterlimit="10"/>
<path d="M341.806 170.823C344.597 171.76 347.471 172.434 350.388 172.837C351.826 173.021 353.275 173.107 354.725 173.095C355.445 173.072 356.163 173.049 356.873 172.959C357.215 172.921 357.615 172.897 358.01 172.873C358.401 172.833 358.795 172.824 359.187 172.847C360.728 172.941 362.248 173.244 363.708 173.747C365.134 174.252 366.518 174.87 367.845 175.596C370.47 177.035 372.901 178.803 375.078 180.858C372.611 179.243 370.035 177.8 367.37 176.539C364.796 175.248 362.001 174.454 359.133 174.199C358.786 174.173 358.438 174.176 358.092 174.207C357.747 174.223 357.408 174.233 357.012 174.273C356.253 174.351 355.489 174.385 354.725 174.373C353.211 174.336 351.702 174.17 350.216 173.875C347.275 173.288 344.439 172.259 341.806 170.823Z" fill="black"/>
<path d="M341.806 206.956C343.18 208.689 344.704 210.297 346.361 211.762C349.648 214.7 353.353 217.132 357.356 218.98C359.368 219.898 361.435 220.692 363.545 221.357C362.464 221.114 361.368 220.895 360.301 220.575C359.243 220.228 358.172 219.905 357.148 219.457C352.992 217.77 349.206 215.284 346.006 212.139C344.393 210.596 342.982 208.854 341.806 206.956Z" fill="black"/>
<path d="M346.278 164.806C346.853 166.095 347.31 167.434 347.643 168.806C348.006 170.171 348.243 171.566 348.353 172.974C347.777 171.684 347.32 170.345 346.988 168.973C346.626 167.608 346.389 166.213 346.278 164.806Z" fill="black"/>
<path d="M344.297 138.005C345.409 137.029 346.595 136.142 347.845 135.35C349.097 134.553 350.402 133.843 351.752 133.225C353.117 132.611 354.556 132.174 356.032 131.925C356.778 131.815 357.535 131.799 358.286 131.876C359.034 131.962 359.751 132.225 360.377 132.644C359.017 132.127 357.527 132.054 356.122 132.438C354.709 132.756 353.335 133.227 352.024 133.843C350.688 134.428 349.381 135.08 348.11 135.796C346.826 136.498 345.563 137.246 344.297 138.005Z" fill="black"/>
<path d="M324.378 188.389C324.453 190.856 324.442 193.32 324.477 195.786L324.434 203.177C324.404 208.105 324.267 213.03 324.131 217.954C323.962 222.878 323.79 227.801 323.513 232.721L323.094 240.101C322.905 242.559 322.762 245.019 322.532 247.477C322.455 245.01 322.466 242.546 322.431 240.08L322.473 232.688C322.504 227.761 322.64 222.836 322.778 217.912C322.949 212.988 323.121 208.065 323.398 203.145L323.817 195.765C324.006 193.306 324.148 190.847 324.378 188.389Z" fill="black"/>
<path d="M316.745 239.541C319.588 239.184 322.437 238.914 325.282 238.598L333.829 237.797C339.527 237.264 345.233 236.837 350.939 236.411C356.647 236.017 362.355 235.626 368.071 235.339L376.645 234.914C379.507 234.821 382.365 234.682 385.23 234.631C382.387 234.989 379.538 235.259 376.693 235.576L368.146 236.378C362.447 236.909 356.742 237.336 351.036 237.761C345.328 238.153 339.619 238.545 333.903 238.83L325.329 239.256C322.468 239.35 319.61 239.489 316.745 239.541Z" fill="black"/>
<path d="M320.907 207.484C321.171 207.475 321.42 207.364 321.603 207.175C321.786 206.985 321.888 206.732 321.888 206.469C321.888 206.206 321.786 205.953 321.603 205.763C321.42 205.574 321.171 205.463 320.907 205.454C320.644 205.463 320.395 205.574 320.212 205.763C320.029 205.953 319.927 206.206 319.927 206.469C319.927 206.732 320.029 206.985 320.212 207.175C320.395 207.364 320.644 207.475 320.907 207.484Z" fill="black"/>
<path d="M318.958 225.758C319.221 225.749 319.471 225.638 319.654 225.448C319.837 225.259 319.939 225.006 319.939 224.742C319.939 224.479 319.837 224.226 319.654 224.037C319.471 223.847 319.221 223.736 318.958 223.727C318.695 223.736 318.446 223.847 318.263 224.037C318.08 224.226 317.978 224.479 317.978 224.742C317.978 225.006 318.08 225.259 318.263 225.448C318.446 225.638 318.695 225.749 318.958 225.758Z" fill="black"/>
<path d="M317.252 240.133C317.515 240.124 317.765 240.013 317.948 239.823C318.131 239.634 318.233 239.381 318.233 239.118C318.233 238.854 318.131 238.601 317.948 238.412C317.765 238.222 317.515 238.111 317.252 238.102C316.989 238.111 316.74 238.222 316.557 238.412C316.374 238.601 316.271 238.854 316.271 239.118C316.271 239.381 316.374 239.634 316.557 239.823C316.74 240.013 316.989 240.124 317.252 240.133Z" fill="black"/>
<path d="M321.882 191.16C322.145 191.151 322.394 191.04 322.577 190.851C322.76 190.661 322.863 190.408 322.863 190.145C322.863 189.882 322.76 189.628 322.577 189.439C322.394 189.25 322.145 189.139 321.882 189.13C321.619 189.139 321.369 189.25 321.187 189.439C321.004 189.628 320.901 189.882 320.901 190.145C320.901 190.408 321.004 190.661 321.187 190.851C321.369 191.04 321.619 191.151 321.882 191.16Z" fill="black"/>
<path d="M319.933 247.738C320.594 249.215 321.301 250.63 322.07 251.992C322.819 253.344 323.701 254.617 324.703 255.793C325.692 256.94 326.862 257.918 328.167 258.686C329.555 259.399 331.056 259.867 332.602 260.071C330.966 260.397 329.271 260.248 327.717 259.642C326.166 258.97 324.787 257.958 323.682 256.68C321.569 254.139 320.263 251.026 319.933 247.738L319.933 247.738Z" fill="black"/>
<path d="M335.445 247.477C334.08 254.759 333.037 262.094 332.069 269.433C331.122 276.776 330.251 284.129 329.57 291.5C328.17 306.235 327.099 321.007 326.716 335.804C326.653 337.653 326.548 339.501 326.513 341.351L326.42 346.9C326.381 350.6 326.244 354.3 326.285 358L326.379 369.101C326.383 370.951 326.411 372.801 326.49 374.65L326.656 380.198C326.99 395.003 328.186 409.766 329.435 424.532L328.162 413.491C327.746 409.809 327.296 406.128 327.044 402.43L326.2 391.343C326.038 389.495 325.957 387.644 325.875 385.792L325.616 380.238C324.876 365.425 324.947 350.582 325.364 335.759C325.862 320.936 326.92 306.148 328.539 291.393C329.348 284.023 330.331 276.673 331.417 269.34C332.604 262.023 333.865 254.716 335.445 247.477Z" fill="black"/>
<path d="M346.49 355.824C346.677 353.464 346.971 351.118 347.222 348.766L348.157 341.736C348.799 337.05 349.596 332.389 350.437 327.734C351.305 323.085 352.255 318.448 353.394 313.852C353.958 311.553 354.579 309.267 355.215 306.987L356.302 303.603C356.683 302.481 357.114 301.376 357.535 300.273L356.646 303.703L355.858 307.153C355.354 309.458 354.849 311.759 354.41 314.078C353.515 318.709 352.603 323.336 351.767 327.981L349.18 341.904L347.874 348.868L346.49 355.824Z" fill="black"/>
<path d="M352.101 335.824C355.33 338.65 358.501 341.54 361.703 344.396L371.208 353.071C377.535 358.864 383.779 364.746 390.069 370.58C396.284 376.493 402.538 382.364 408.715 388.317L417.962 397.267C421.011 400.286 424.091 403.272 427.112 406.321C423.881 403.495 420.71 400.606 417.508 397.751L408.002 389.076C401.678 383.28 395.43 377.401 389.143 371.565C382.931 365.649 376.673 359.782 370.498 353.826L361.251 344.877C358.202 341.858 355.122 338.873 352.101 335.824Z" fill="black"/>
<path d="M270.905 244.986C268.174 246.193 265.511 247.548 262.927 249.045C260.343 250.534 257.827 252.133 255.341 253.774C252.884 255.459 250.478 257.215 248.124 259.043C245.757 260.853 243.434 262.722 241.154 264.65L241.192 264.611C240.85 264.994 240.538 265.402 240.258 265.832C240.132 266.021 240.032 266.227 239.962 266.443C239.931 266.532 239.958 266.586 239.929 266.538C239.919 266.534 239.918 266.519 239.919 266.535C239.952 266.536 239.985 266.541 240.017 266.552L240.889 266.837L240.169 267.198C239.367 267.589 238.651 268.136 238.063 268.807C237.769 269.122 237.558 269.504 237.446 269.92C237.335 270.336 237.327 270.773 237.423 271.192C237.467 271.394 237.547 271.586 237.659 271.76C237.781 271.923 237.933 272.061 238.108 272.167C238.487 272.363 238.915 272.442 239.339 272.394C240.237 272.269 241.096 271.949 241.856 271.455L242.655 270.995L242.144 271.77C241.482 272.735 240.953 273.785 240.571 274.891C240.381 275.41 240.325 275.969 240.408 276.515C240.466 276.753 240.594 276.967 240.776 277.131C240.957 277.295 241.184 277.401 241.426 277.435L241.61 277.558C241.715 277.607 241.83 277.631 241.946 277.63C242.123 277.627 242.299 277.6 242.469 277.549C242.842 277.425 243.201 277.262 243.54 277.062C244.24 276.636 244.901 276.148 245.514 275.604C246.796 274.482 248.157 273.454 249.587 272.53C252.423 270.658 255.355 268.984 258.359 267.404L261.002 266.015L259.164 268.405C258.21 269.596 257.409 270.901 256.779 272.291C256.493 272.858 256.379 273.496 256.452 274.127C256.476 274.22 256.522 274.306 256.587 274.377C256.651 274.449 256.732 274.504 256.821 274.537C257.102 274.641 257.399 274.696 257.699 274.699L258.257 274.985C258.203 274.915 258.138 274.855 258.063 274.809L258.006 274.777C257.969 274.759 257.931 274.746 257.892 274.736C257.868 274.728 257.844 274.723 257.82 274.721L257.774 274.718C257.752 274.722 257.797 274.712 257.806 274.712C257.866 274.699 257.926 274.683 257.985 274.664C258.12 274.624 258.271 274.565 258.42 274.507C258.722 274.383 259.028 274.245 259.335 274.096C259.947 273.8 260.56 273.477 261.17 273.152C262.383 272.504 263.609 271.773 264.809 271.091C267.204 269.688 269.506 268.13 271.699 266.427C273.896 264.727 275.947 262.846 277.829 260.802C279.73 258.761 281.288 256.426 282.443 253.888L282.57 253.935C281.629 256.614 280.211 259.1 278.386 261.275C276.593 263.473 274.588 265.489 272.399 267.294C270.223 269.111 267.921 270.773 265.51 272.267C264.283 272.99 263.11 273.714 261.859 274.408C261.238 274.752 260.615 275.093 259.962 275.402C259.637 275.559 259.304 275.709 258.957 275.85C258.778 275.919 258.603 275.988 258.402 276.048C258.294 276.082 258.184 276.11 258.072 276.132C257.997 276.146 257.92 276.156 257.844 276.16C257.785 276.164 257.725 276.163 257.666 276.157C257.621 276.152 257.575 276.144 257.53 276.134C257.48 276.12 257.431 276.102 257.385 276.08L257.312 276.042C257.233 275.993 257.163 275.931 257.106 275.857L257.663 276.143C257.167 276.136 256.677 276.035 256.218 275.846C255.942 275.724 255.696 275.542 255.498 275.315C255.3 275.087 255.154 274.818 255.07 274.528C254.901 273.579 255.049 272.602 255.491 271.746C255.833 270.986 256.237 270.255 256.699 269.561C257.147 268.875 257.631 268.212 258.147 267.575L258.952 268.575C255.974 270.088 253.011 271.687 250.159 273.424C248.731 274.282 247.357 275.229 246.046 276.258C245.371 276.799 244.649 277.28 243.89 277.696C243.493 277.907 243.075 278.076 242.642 278.197C242.405 278.257 242.161 278.282 241.917 278.273C241.764 278.275 241.612 278.243 241.472 278.181C241.332 278.119 241.206 278.027 241.104 277.913L241.287 278.036C240.949 277.945 240.636 277.779 240.372 277.55C240.113 277.304 239.94 276.981 239.878 276.628C239.803 275.99 239.879 275.343 240.103 274.741C240.516 273.596 241.083 272.512 241.787 271.519L242.076 271.833C241.251 272.339 240.331 272.671 239.373 272.808C238.864 272.868 238.349 272.775 237.893 272.539C237.665 272.406 237.465 272.229 237.306 272.018C237.161 271.802 237.054 271.562 236.989 271.309C236.861 270.819 236.853 270.305 236.966 269.812C237.08 269.318 237.311 268.859 237.64 268.474C238.248 267.703 239.004 267.062 239.864 266.588L240.017 267.234C239.917 267.227 239.815 267.215 239.716 267.197C239.586 267.155 239.469 267.079 239.379 266.976C239.309 266.88 239.262 266.769 239.24 266.652C239.218 266.536 239.222 266.416 239.252 266.301C239.324 265.999 239.44 265.711 239.597 265.444C239.877 264.958 240.195 264.495 240.547 264.059L240.56 264.043L240.585 264.02C241.695 263.008 242.787 261.974 243.914 260.978C245.064 260.009 246.185 259.003 247.385 258.095C249.731 256.208 252.231 254.523 254.738 252.861C257.262 251.222 259.873 249.719 262.558 248.359C265.225 246.968 268.002 245.797 270.861 244.858L270.905 244.986Z" fill="black"/>
<path d="M254.757 261.439C252.555 263.057 250.385 264.715 248.247 266.414C247.183 267.269 246.128 268.133 245.099 269.024C244.067 269.886 243.108 270.832 242.232 271.853L241.699 271.436C242.643 270.417 243.672 269.48 244.774 268.634C245.846 267.78 246.94 266.957 248.042 266.146C250.25 264.532 252.489 262.963 254.757 261.439Z" fill="black"/>
<path d="M239.834 266.608L250.616 260.085L240.2 267.178L239.834 266.608Z" fill="black"/>
<path d="M312.867 437.017C312.867 437.017 318.227 437.689 296.786 449.14C275.346 460.592 268.523 461.81 268.523 468.388C268.523 468.388 276.076 479.109 328.948 464.733H330.545V466.683L345.272 465.708C345.272 465.708 346.246 446.46 342.104 440.856C342.104 440.856 340.401 434.041 342.105 432.332" fill="black"/>
<path d="M421.667 411.488C421.667 411.488 425.736 411.415 423.912 435.654C422.087 459.892 419.459 466.305 425.013 469.831C425.013 469.831 438.112 469.2 454.314 416.86L455.17 415.512L456.815 416.557L462.899 405.41C462.899 405.41 443.107 392.446 436.156 392.939" fill="black"/>
<path d="M323.067 112.147C323.067 112.147 334.148 97.3381 323.264 98.193" stroke="black" stroke-width="0.81402" stroke-miterlimit="10"/>
<path d="M322.039 115.415C328.827 112.147 331.44 106.23 331.83 99.6476C332.201 94.1845 330.534 88.7777 327.151 84.4723C324.894 81.4178 321.653 79.2346 317.974 78.2907C314.296 77.3468 310.404 77.6999 306.955 79.2904C307.838 83.3485 309.796 87.0945 312.623 90.136C315.451 93.1775 319.045 95.4026 323.028 96.5782L323.264 98.193C323.264 98.193 330.69 96.4746 326.755 105.744C325.654 107.95 324.422 110.087 323.067 112.147L322.039 115.415Z" fill="black"/>
<path d="M326.75 128.342C331.869 127.748 337.001 127.284 342.148 126.949C347.302 126.577 352.475 126.551 357.633 126.87C358.938 126.965 360.233 127.17 361.504 127.484C361.823 127.579 362.143 127.676 362.459 127.795C362.772 127.933 363.097 128.072 363.369 128.217C363.934 128.509 364.511 128.786 365.093 129.056C366.327 129.55 367.474 130.237 368.491 131.093C369.451 132.024 370.23 133.126 370.788 134.342C371.894 136.692 372.831 139.118 373.59 141.602C374.381 144.062 375.124 146.532 375.82 149.015C378.681 158.926 381.033 168.978 382.865 179.131C383.307 181.672 383.694 184.224 383.979 186.791C384.315 189.358 384.435 191.949 384.338 194.536C384.289 195.191 384.179 195.84 384.009 196.474C383.826 197.099 383.59 197.707 383.305 198.292C382.782 199.473 382.222 200.638 381.606 201.775C380.998 202.92 380.309 204.019 379.543 205.064C378.794 206.138 377.861 207.072 376.787 207.822L376.846 207.62C381.142 216.774 385.457 225.914 389.369 235.254C389.841 236.436 390.319 237.591 390.686 238.857L390.791 239.373C390.832 239.585 390.791 239.805 390.677 239.989C390.586 240.154 390.467 240.302 390.326 240.428C390.205 240.551 390.074 240.662 389.933 240.761C389.402 241.143 388.835 241.472 388.239 241.741C385.903 242.769 383.477 243.576 380.991 244.152C376.057 245.334 371.052 246.199 366.008 246.741C355.935 247.822 345.809 248.323 335.68 248.241C330.619 248.221 325.557 248.092 320.504 247.9L318.64 247.874C317.956 247.913 317.27 247.846 316.606 247.677C315.934 247.449 315.325 247.067 314.829 246.56C314.332 246.052 313.962 245.436 313.749 244.759C313.335 243.499 313.159 242.173 313.227 240.848C313.269 239.56 313.405 238.277 313.635 237.009L314.119 237.544C314.03 237.524 313.945 237.488 313.87 237.436C313.761 237.359 313.683 237.245 313.649 237.116C313.627 237.03 313.621 236.941 313.631 236.853L313.643 236.631L313.668 236.192L313.724 235.321L313.842 233.58L314.089 230.103L314.602 223.151L315.668 209.252L316.794 195.357C317.223 190.729 317.579 186.097 318.173 181.481C318.175 181.468 318.182 181.457 318.192 181.449C318.202 181.441 318.215 181.438 318.227 181.439C318.24 181.442 318.252 181.449 318.259 181.46C318.267 181.47 318.27 181.483 318.269 181.496C317.779 186.11 317.524 190.755 317.198 195.388L316.252 209.294L315.351 223.203L314.921 230.158L314.715 233.636L314.617 235.374L314.572 236.241L314.552 236.672L314.544 236.885C314.534 236.898 314.561 237.034 314.521 236.84C314.501 236.792 314.471 236.748 314.433 236.711C314.395 236.675 314.35 236.647 314.301 236.629C314.221 236.599 314.133 236.6 314.053 236.63L314.537 237.166C314.33 238.388 314.214 239.623 314.188 240.862C314.131 242.069 314.292 243.275 314.664 244.425C314.826 244.959 315.112 245.447 315.499 245.849C315.886 246.251 316.363 246.556 316.891 246.737C317.454 246.877 318.034 246.928 318.613 246.889L320.54 246.911C325.589 247.093 330.634 247.211 335.683 247.221C345.775 247.322 355.866 246.866 365.908 245.855C370.921 245.348 375.899 244.538 380.814 243.431C383.262 242.893 385.654 242.129 387.959 241.147C388.518 240.902 389.052 240.603 389.552 240.253C389.78 240.105 389.976 239.913 390.129 239.689C390.252 239.574 390.132 239.268 390.088 238.992C389.763 237.829 389.292 236.634 388.839 235.466C386.969 230.781 384.906 226.164 382.848 221.55C380.782 216.938 378.686 212.34 376.559 207.755C376.543 207.72 376.54 207.68 376.551 207.643C376.562 207.606 376.586 207.574 376.619 207.553C377.668 206.834 378.579 205.932 379.307 204.889C380.058 203.851 380.734 202.761 381.327 201.626C381.932 200.494 382.481 199.333 382.994 198.156C383.271 197.583 383.498 196.986 383.673 196.374C383.832 195.764 383.933 195.14 383.976 194.51C384.064 191.947 383.919 189.38 383.541 186.843C383.219 184.294 382.795 181.757 382.317 179.23C381.361 174.176 380.217 169.157 378.971 164.165C377.738 159.17 376.411 154.198 374.99 149.251C374.279 146.778 373.573 144.305 372.794 141.858C372.061 139.411 371.155 137.019 370.081 134.7C369.571 133.565 368.855 132.534 367.969 131.659C367.013 130.852 365.935 130.202 364.774 129.733C364.19 129.458 363.608 129.174 363.03 128.872C362.734 128.712 362.465 128.602 362.19 128.476C361.905 128.367 361.608 128.275 361.312 128.184C360.083 127.869 358.831 127.655 357.568 127.544C352.444 127.156 347.301 127.111 342.171 127.409C337.029 127.617 331.892 127.96 326.76 128.438C326.748 128.44 326.735 128.436 326.725 128.428C326.715 128.42 326.709 128.408 326.708 128.395C326.706 128.383 326.71 128.37 326.718 128.36C326.726 128.35 326.737 128.344 326.75 128.342L326.75 128.342Z" fill="black"/>
</svg>
