<svg width="613" height="676" viewBox="0 0 613 676" fill="none" xmlns="http://www.w3.org/2000/svg">
<path d="M156.672 283.138C156.78 278.242 156.823 273.367 156.586 268.428C156.322 263.337 155.618 258.279 154.481 253.31C153.919 250.796 153.195 248.321 152.313 245.901C150.956 242.064 148.734 238.592 145.817 235.754C142.901 232.916 139.37 230.788 135.498 229.537C132.929 228.702 130.252 228.246 127.552 228.184C124.824 228.184 122.463 228.313 119.906 228.399C114.904 228.613 109.878 228.678 104.874 228.764C99.8711 228.828 94.8452 228.828 89.8414 228.656C84.8227 228.675 79.815 228.186 74.8949 227.196C77.2478 228.154 79.6955 228.859 82.1972 229.301C84.6876 229.773 87.179 230.203 89.6914 230.525C94.7172 231.147 99.785 231.555 104.832 231.77C109.878 232.028 114.924 232.028 119.992 232.028C122.463 232.049 125.147 231.899 127.445 231.963C130.948 232.081 134.385 232.953 137.521 234.521C140.656 236.089 143.416 238.315 145.612 241.047C147.095 242.874 148.29 244.916 149.155 247.103C150.057 249.38 150.874 251.699 151.582 254.061C154.049 263.6 155.729 273.325 156.608 283.138C141.747 281.356 112.498 279.122 67.3148 280.969C66.134 263.102 65.3172 250.196 64.8883 245.75C63.0198 226.638 79.3619 224.812 79.3619 224.812L161.483 217.683C157.36 223.803 157.853 227.776 159.335 231.083C160.15 233.511 160.089 236.147 159.163 238.535C154.374 244.977 157.016 250.11 158.196 250.947C159.378 251.763 159.335 256.058 159.335 256.058C156.028 264.348 160.667 266.989 164.124 269.459C164.509 269.734 164.944 269.93 165.404 270.037C165.865 270.144 166.342 270.159 166.808 270.081L168.311 284.878C168.311 284.878 164.511 284.083 156.672 283.138Z" fill="black"/>
<path d="M321.988 36.2924C321.988 36.2924 323.311 23.5006 333.897 27.0294C344.484 30.5581 359.04 26.6802 365.215 26.4137C365.215 26.4137 369.185 41.1445 372.273 41.1445C375.36 41.1445 374.919 76.8733 359.04 79.961C359.04 79.961 351.968 79.2244 348.541 75.7037C347.491 74.6174 346.17 73.8316 344.714 73.4274C343.259 73.0233 341.722 73.0157 340.262 73.4053C337.87 74.0181 335.697 75.287 333.988 77.0689C332.279 78.8507 331.102 81.0747 330.589 83.4899C330.589 83.4899 338.308 120.321 366.318 85.4748C366.318 85.4748 372.493 77.9762 376.684 61.6556C376.684 61.6556 375.14 40.924 385.285 38.2775C385.285 38.2775 389.255 38.0569 389.034 42.6884C389.034 42.6884 391.265 40.3013 389.848 19.4858C389.657 16.6327 388.663 13.8919 386.981 11.5791C385.3 9.26638 382.999 7.47588 380.344 6.414C375.157 4.34788 369.273 1.93716 367.641 1.00472C364.554 -0.759665 336.323 -0.980211 327.06 6.95953C317.797 14.8993 321.988 36.2924 321.988 36.2924Z" fill="black"/>
<path d="M321.987 36.2924L322.273 48.4577C322.345 50.4764 322.384 52.4941 322.546 54.4892C322.588 56.4027 322.889 58.3016 323.442 60.1341C325.169 63.8445 326.579 67.6947 327.656 71.6434C328.815 75.5427 329.814 79.4891 330.589 83.4897C329.128 79.6911 327.676 75.9007 326.295 72.0949C324.987 68.2895 323.479 64.5559 321.777 60.9098C321.132 58.8635 320.807 56.7297 320.813 54.5841C320.748 52.5285 320.747 50.4873 320.845 48.4497C320.999 44.3792 321.381 40.3205 321.987 36.2924Z" fill="black"/>
<path d="M323.917 53.1092C324.936 52.2697 326.113 51.644 327.379 51.2693C328.652 50.8686 329.981 50.6767 331.315 50.7012C332.671 50.7338 334.006 51.0406 335.24 51.6032C336.464 52.1517 337.522 53.0135 338.308 54.1016C337.158 53.6331 335.975 53.2509 334.769 52.9581C333.617 52.7019 332.443 52.5609 331.263 52.5372C328.803 52.535 326.347 52.7262 323.917 53.1092Z" fill="black"/>
<path d="M346.413 52.8538C347.562 51.8077 348.925 51.0254 350.407 50.5615C351.89 50.0581 353.445 49.8058 355.011 49.8149C358.145 49.7965 361.188 50.871 363.616 52.8538C362.096 52.5625 360.693 52.1844 359.258 51.992C357.852 51.7633 356.43 51.6495 355.005 51.6517C352.1 51.6595 349.209 52.0639 346.413 52.8538Z" fill="black"/>
<path d="M331.857 61.49C332.572 61.4653 333.249 61.1641 333.746 60.6498C334.242 60.1355 334.52 59.4483 334.52 58.7332C334.52 58.0181 334.242 57.3309 333.746 56.8166C333.249 56.3022 332.572 56.001 331.857 55.9763C331.142 56.001 330.465 56.3022 329.968 56.8166C329.471 57.3309 329.194 58.0181 329.194 58.7332C329.194 59.4483 329.471 60.1355 329.968 60.6498C330.465 61.1641 331.142 61.4653 331.857 61.49Z" fill="black"/>
<path d="M351.046 61.1591C351.761 61.1345 352.438 60.8332 352.935 60.3189C353.432 59.8046 353.709 59.1174 353.709 58.4023C353.709 57.6872 353.432 57 352.935 56.4857C352.438 55.9714 351.761 55.6701 351.046 55.6454C350.331 55.6701 349.654 55.9714 349.157 56.4857C348.66 57 348.383 57.6872 348.383 58.4023C348.383 59.1174 348.66 59.8046 349.157 60.3189C349.654 60.8332 350.331 61.1345 351.046 61.1591Z" fill="black"/>
<path d="M334.835 68.1616C336.337 69.7337 338.237 70.8701 340.332 71.4503C341.32 71.6209 342.335 71.5302 343.276 71.187C343.795 71.0667 344.273 70.7734 344.815 70.5879C345.326 70.3366 345.828 70.0464 346.414 69.8156C346.101 70.3438 345.745 70.8451 345.35 71.3145C344.909 71.7646 344.415 72.1589 343.878 72.4887C342.732 73.2127 341.359 73.4877 340.023 73.2606C338.715 73.0129 337.521 72.3522 336.616 71.3757C335.744 70.4842 335.129 69.3738 334.835 68.1616Z" fill="black"/>
<path d="M321.083 279.874C321.088 279.901 321.088 279.929 321.082 279.956C321.077 279.983 321.065 280.008 321.049 280.031C321.033 280.053 321.012 280.071 320.988 280.085C320.964 280.099 320.938 280.108 320.911 280.111L305.749 282.967H305.578C297.503 281.957 289.386 281.098 281.268 280.218C273.151 279.337 265.034 278.557 256.916 277.877C248.799 277.211 240.66 276.675 232.564 276.288C226.189 275.948 219.801 275.962 213.429 276.331C213.551 275.058 213.359 273.776 212.87 272.594C219.492 272.339 226.123 272.439 232.734 272.895C240.917 273.389 249.056 274.183 257.195 275.107C273.409 276.954 289.557 279.166 305.663 281.871L320.847 279.703C320.874 279.696 320.902 279.695 320.929 279.701C320.956 279.706 320.982 279.717 321.005 279.734C321.027 279.75 321.046 279.771 321.059 279.795C321.073 279.82 321.081 279.847 321.083 279.874Z" fill="black"/>
<path d="M416.474 175.334C416.882 177.095 417.291 178.878 417.677 180.639C416.668 180.725 415.595 180.767 414.499 180.789C413.704 177.589 412.91 174.411 412.136 171.211L402.065 128.712C398.866 115.14 395.966 101.503 392.981 87.8883L329.931 104.832L297.568 113.787L265.291 123.043C265.222 123.07 265.15 123.084 265.076 123.086C255.756 123.086 246.414 123.258 237.073 123.343L209.07 123.709C191.31 123.966 173.593 124.074 155.834 124.224C164.789 148.77 173.916 173.251 182.742 197.84L182.935 198.398C181.518 198.763 180.035 199.129 178.533 199.494L178.49 199.386C169.256 173.96 160.322 148.426 151.216 122.978V122.957C151.04 122.473 151.063 121.939 151.28 121.471C151.498 121.004 151.892 120.643 152.376 120.466C152.592 120.399 152.816 120.363 153.042 120.359C171.725 120.53 190.387 120.616 209.07 120.917L237.073 121.261C246.372 121.346 255.692 121.518 264.969 121.54L297.225 112.52L329.48 103.179L393.84 83.98C394.287 83.8486 394.768 83.899 395.178 84.1202C395.588 84.3413 395.894 84.7154 396.03 85.1611L396.052 85.2685V85.3114L415.358 170.438C415.745 172.07 416.11 173.702 416.474 175.334Z" fill="black"/>
<path d="M435.974 255.221C435.995 255.259 436.002 255.304 435.995 255.347C435.987 255.39 435.964 255.429 435.931 255.457C435.912 255.478 435.888 255.494 435.863 255.505C435.837 255.516 435.809 255.522 435.781 255.522C435.753 255.522 435.725 255.516 435.699 255.505C435.674 255.494 435.65 255.478 435.631 255.457C435.609 255.436 435.587 255.393 435.566 255.371C433.161 248.972 431.121 242.443 429.23 235.872C429.725 235.872 430.197 235.851 430.67 235.829C432.281 242.315 434.02 248.778 435.953 255.157C435.953 255.178 435.974 255.2 435.974 255.221Z" fill="black"/>
<path d="M187.85 287.99C176.021 286.355 164.176 284.874 152.279 283.934C140.393 282.889 128.474 282.278 116.553 281.972C104.631 281.647 92.7037 281.676 80.7891 281.979C68.8862 282.299 56.9428 282.907 45.1542 284.082L45.3461 284.051C38.2553 285.636 31.4909 288.431 25.3496 292.314C22.3633 294.298 19.61 296.612 17.1419 299.212C14.7181 301.838 12.6079 304.737 10.854 307.85C7.44382 314.197 5.32859 321.158 4.63123 328.329C3.84981 335.512 4.17818 342.773 5.60484 349.856L5.607 349.867C5.61959 349.927 5.63376 350.005 5.6437 350.065C7.31568 360.319 11.5546 370.354 16.0105 380.073C20.5425 389.813 25.6339 399.327 30.9486 408.715C41.6006 427.489 53.2084 445.743 65.0474 463.838C76.8885 481.937 89.0686 499.817 101.588 517.479L120.46 543.893L125.22 550.465L127.603 553.724C128.31 554.671 129.132 555.527 130.049 556.272C131.893 557.776 134.088 558.788 136.429 559.214C137.667 559.411 138.918 559.507 140.172 559.501L144.221 559.612C155.019 559.868 165.829 559.937 176.595 559.524C179.286 559.422 181.972 559.275 184.651 559.085C186.001 558.99 187.354 558.887 188.485 558.694C189.661 558.45 190.796 558.045 191.861 557.491C194.012 556.366 195.798 554.653 197.011 552.55C198.224 550.448 198.813 548.044 198.71 545.619C198.652 544.402 198.433 543.199 198.058 542.041L196.771 538.188L194.198 530.482L189.047 515.072L178.706 484.265C164.748 443.245 150.951 402.165 136.736 361.239C136.686 361.095 136.672 360.941 136.697 360.79C136.721 360.639 136.783 360.497 136.875 360.376C136.968 360.255 137.09 360.159 137.229 360.097C137.368 360.034 137.521 360.007 137.673 360.018L137.69 360.02C153.165 361.217 168.709 361.901 184.24 362.229C199.775 362.497 215.318 362.333 230.821 361.568C246.308 360.904 261.741 359.3 277.034 356.764C284.641 355.509 292.152 353.731 299.514 351.445C306.809 349.308 313.733 346.066 320.045 341.83C320.312 341.64 320.625 341.526 320.951 341.499C321.277 341.473 321.604 341.534 321.898 341.678C322.192 341.822 322.441 342.043 322.62 342.317C322.799 342.591 322.901 342.908 322.915 343.235L325.898 407.633L326.639 423.646L327.536 439.726C328.151 450.448 328.669 461.164 329.453 471.868L331.615 503.993C332.002 509.343 332.277 514.71 332.755 520.046L334.384 536.01L335.199 543.991L335.402 545.987C335.484 546.626 335.591 547.141 335.701 547.72C336.36 550.527 337.763 553.105 339.764 555.183C341.764 557.26 344.287 558.76 347.068 559.525C348.199 559.825 349.358 560.014 350.526 560.089L354.541 560.4L362.571 561.021L378.631 562.264L394.692 563.507L402.722 564.129L403.725 564.207L404.539 564.22C406.153 564.251 407.753 563.924 409.224 563.262C411.196 562.394 412.888 560.996 414.111 559.223C415.334 557.449 416.041 555.371 416.151 553.22C416.184 552.258 416.096 550.806 416.028 549.479L415.826 545.456L415.423 537.411L412.191 473.046C410.065 430.135 407.799 387.231 405.868 344.31C405.853 343.97 405.904 343.63 406.02 343.31C406.136 342.99 406.314 342.696 406.544 342.444C406.773 342.193 407.05 341.99 407.359 341.845C407.667 341.701 408.001 341.619 408.341 341.604C408.429 341.6 408.516 341.6 408.604 341.605L408.665 341.609C415.2 341.938 421.746 341.244 428.066 339.552C434.385 337.925 440.319 335.063 445.525 331.13C450.634 327.118 454.75 321.984 457.555 316.125C460.313 310.145 462.054 303.747 462.708 297.195L462.769 297.983C457.272 280.186 445.732 263.508 429.742 253.497C427.67 252.394 425.645 251.131 423.535 250.147C421.416 249.158 419.225 248.334 416.979 247.683C412.427 246.359 407.76 245.462 403.041 245.003C393.501 244.097 383.888 244.288 374.391 245.572C364.86 246.736 355.491 248.969 346.459 252.228C341.967 253.838 337.648 255.897 333.57 258.374C331.563 259.611 329.686 261.047 327.965 262.659C326.243 264.201 324.837 266.064 323.827 268.144C323.343 269.169 322.997 270.254 322.798 271.37L322.253 274.939C321.948 277.329 321.642 279.721 321.435 282.128C320.98 286.934 320.681 291.763 320.508 296.598C320.151 306.266 320.148 315.946 320.499 325.637C320.503 325.71 320.477 325.782 320.428 325.836C320.379 325.89 320.311 325.923 320.238 325.926C320.165 325.929 320.094 325.903 320.041 325.855C319.987 325.807 319.954 325.739 319.949 325.667C319.395 315.978 319.19 306.277 319.333 296.566C319.403 291.711 319.599 286.855 319.954 282.003C320.111 279.576 320.368 277.154 320.625 274.731L321.099 271.102C321.297 269.827 321.664 268.584 322.188 267.405C323.248 265.089 324.747 263.002 326.603 261.259C328.383 259.516 330.334 257.955 332.426 256.602C336.581 253.952 340.993 251.729 345.595 249.966C364.031 243.087 383.735 240.273 403.359 241.715C408.299 242.123 413.19 242.99 417.968 244.307C420.389 244.972 422.754 245.823 425.044 246.851C427.34 247.881 429.461 249.158 431.678 250.306C440.183 255.525 447.604 262.333 453.533 270.359C459.48 278.378 464.045 287.335 467.038 296.86C467.107 297.083 467.132 297.317 467.11 297.55L467.099 297.649C466.454 304.721 464.632 311.636 461.707 318.107C458.645 324.644 454.119 330.388 448.48 334.895C442.8 339.278 436.306 342.491 429.376 344.348C422.496 346.263 415.356 347.073 408.222 346.747L411.018 344.046C413.479 386.94 415.605 429.851 417.871 472.755L421.228 537.114L421.648 545.158L421.858 549.181C421.92 550.536 422.031 551.764 421.99 553.489C421.845 556.734 420.787 559.872 418.939 562.544C417.09 565.215 414.526 567.311 411.54 568.592C409.317 569.57 406.907 570.051 404.479 570L403.28 569.965L402.276 569.882L394.246 569.22L378.185 567.895L362.125 566.57L354.095 565.908L350.08 565.576C348.568 565.465 347.071 565.209 345.608 564.812C341.884 563.772 338.51 561.745 335.842 558.947C333.174 556.148 331.311 552.68 330.451 548.911C330.305 548.174 330.158 547.367 330.074 546.676L329.878 544.663L329.097 536.612L327.536 520.512C327.082 515.149 326.835 509.783 326.474 504.419L324.471 472.233C323.725 461.508 323.38 450.758 322.864 440.028L322.143 423.925L321.573 407.742L319.297 343.357L322.166 344.762C315.501 349.154 308.197 352.491 300.514 354.656C292.988 356.904 285.317 358.631 277.555 359.827C262.117 362.21 246.547 363.648 230.933 364.132C215.351 364.73 199.764 364.675 184.194 364.276C168.62 363.88 153.072 363.129 137.53 361.86L138.483 360.641C152.345 401.698 166.572 442.619 180.733 483.567L191.438 514.252L196.813 529.586L199.498 537.254L200.841 541.089C201.323 542.501 201.614 543.972 201.706 545.462C201.875 548.478 201.182 551.48 199.707 554.116C198.232 556.752 196.038 558.914 193.379 560.348C192.05 561.066 190.628 561.595 189.153 561.921C187.615 562.206 186.267 562.309 184.917 562.428C182.196 562.662 179.476 562.849 176.756 562.989C165.878 563.559 155.012 563.641 144.151 563.536L140.079 563.481C138.623 563.503 137.168 563.406 135.728 563.192C132.706 562.683 129.86 561.419 127.457 559.517C126.257 558.57 125.178 557.478 124.247 556.265L121.788 553L116.925 546.48C110.44 537.789 104.106 528.987 97.8087 520.159C85.2258 502.495 72.9338 484.623 60.9328 466.541C49.0036 448.413 37.5562 429.951 26.8942 410.997C21.5899 401.505 16.5018 391.875 11.9472 381.945C7.47557 371.993 3.16748 361.847 1.38856 350.642L1.42736 350.85C-0.0772235 343.283 -0.394714 335.529 0.486259 327.864C1.2776 320.15 3.63887 312.678 7.42482 305.91C9.37739 302.548 11.716 299.425 14.3931 296.605C17.0983 293.828 20.1086 291.366 23.3669 289.265C29.9083 285.241 37.0955 282.376 44.6117 280.798L44.6479 280.79L44.8051 280.766C56.8082 279.733 68.7511 279.292 80.7327 279.129C92.7049 278.955 104.672 279.163 116.633 279.753C128.587 280.313 140.526 281.178 152.417 282.478C164.325 283.638 176.151 285.484 187.939 287.445C187.975 287.451 188.009 287.464 188.04 287.483C188.07 287.503 188.097 287.528 188.118 287.557C188.139 287.587 188.154 287.62 188.162 287.655C188.17 287.69 188.172 287.727 188.166 287.763C188.152 287.834 188.112 287.897 188.054 287.939C187.995 287.982 187.922 288 187.85 287.99Z" fill="black"/>
<path d="M82.9135 323.005L95.9646 333.607C100.336 337.1 104.672 340.624 109.111 344.007C113.524 347.422 118.032 350.702 122.657 353.794C124.964 355.341 127.358 356.756 129.825 358.033C132.253 359.399 134.88 360.38 137.61 360.94C131.898 360.711 126.685 357.893 121.791 355.202C116.928 352.344 112.255 349.173 107.803 345.709C103.359 342.253 99.029 338.662 94.8939 334.855C90.7448 331.066 86.6935 327.17 82.9135 323.005Z" fill="black"/>
<path d="M216.125 288.6C226.2 289.709 236.159 291.699 245.887 294.547C255.642 297.377 265.164 300.954 274.371 305.244C283.526 309.686 292.21 315.041 300.289 321.228C308.253 327.545 315.264 334.977 321.106 343.296C317.884 339.417 314.433 335.736 310.77 332.271L308.035 329.677C307.152 328.783 306.205 327.956 305.201 327.201L299.286 322.54C291.162 316.636 282.511 311.493 273.443 307.179C264.361 302.859 254.994 299.165 245.409 296.121C240.623 294.562 235.784 293.167 230.892 291.935C226.024 290.611 221.09 289.548 216.125 288.6Z" fill="black"/>
<path d="M373.154 304.479C375.475 304.65 377.741 305.268 379.827 306.301C381.91 307.345 383.889 308.583 385.741 309.997C389.42 312.844 392.7 316.171 395.496 319.89C396.944 321.7 398.165 323.666 399.492 325.557C400.635 327.562 401.891 329.5 402.926 331.558C403.926 333.634 404.993 335.67 405.93 337.766C406.768 339.91 407.67 342.019 408.442 344.178C406.087 340.228 403.893 336.242 401.494 332.379L397.793 326.673C396.444 324.861 395.235 322.94 393.799 321.203C391.094 317.606 388.048 314.28 384.702 311.271C383.036 309.762 381.238 308.407 379.328 307.221C377.436 305.972 375.35 305.046 373.154 304.479Z" fill="black"/>
<path d="M265.088 122.306C269.274 135.446 273.195 148.652 276.851 161.926C280.565 175.185 284.035 188.505 287.458 201.838C290.804 215.19 294.097 228.556 297.148 241.983C300.257 255.395 303.098 268.876 305.669 282.424C301.478 269.286 297.555 256.08 293.899 242.807C290.186 229.547 286.716 216.227 283.298 202.893C279.957 189.539 276.664 176.173 273.615 162.746C270.507 149.333 267.665 135.853 265.088 122.306Z" fill="black"/>
<path d="M213.522 276.339C213.317 277.962 212.655 279.494 211.612 280.755C210.569 282.016 209.189 282.954 207.633 283.46C206.574 283.74 205.485 283.887 204.39 283.896C200.114 283.816 195.88 283.043 191.853 281.607C187.799 280.309 183.916 278.531 180.284 276.312C178.463 275.177 176.764 273.857 175.215 272.373C174.425 271.619 173.733 270.768 173.155 269.841C172.517 268.894 172.176 267.779 172.175 266.638L172.846 266.911C171.326 268.517 169.404 269.687 167.278 270.3C166.721 270.437 166.141 270.455 165.575 270.354C165.01 270.254 164.472 270.036 163.996 269.715C163.122 269.105 162.23 268.514 161.383 267.832C159.567 266.514 158.315 264.557 157.879 262.355C157.649 260.143 157.97 257.909 158.813 255.85L158.773 256.053C158.795 254.589 158.533 253.134 158 251.771C157.95 251.682 157.885 251.603 157.808 251.536C157.614 251.384 157.435 251.214 157.273 251.028C156.983 250.681 156.733 250.302 156.529 249.898C156.147 249.124 155.883 248.297 155.747 247.445C155.473 245.761 155.615 244.035 156.16 242.418C156.69 240.837 157.462 239.348 158.448 238.004L158.336 238.205C158.903 236.625 159.112 234.939 158.945 233.268C158.894 232.873 158.808 232.483 158.689 232.102C158.568 231.746 158.413 231.389 158.204 230.909C157.046 228.137 157 225.025 158.077 222.22C158.738 220.43 159.625 218.732 160.716 217.167C160.759 217.103 160.81 217.045 160.867 216.993L160.884 216.979C161.235 216.649 161.552 216.284 161.827 215.889C162.111 215.488 162.344 215.055 162.521 214.597C162.869 213.701 162.929 212.718 162.691 211.786L162.725 211.883C161.881 209.912 161.511 207.772 161.644 205.632C161.719 205.016 161.956 204.431 162.33 203.936C162.724 203.451 163.259 203.098 163.86 202.927C164.851 202.582 165.814 202.33 166.789 202.069C170.673 201.038 174.593 200.233 178.511 199.405C178.523 199.402 178.535 199.402 178.547 199.404C178.559 199.406 178.57 199.411 178.58 199.418C178.59 199.424 178.599 199.433 178.606 199.443C178.613 199.453 178.617 199.464 178.62 199.476C178.624 199.498 178.62 199.522 178.609 199.541C178.597 199.561 178.578 199.576 178.556 199.583L167.099 203.118C166.159 203.43 165.201 203.745 164.323 204.112C163.957 204.218 163.637 204.445 163.415 204.756C163.207 205.077 163.081 205.445 163.052 205.827C163.034 207.698 163.438 209.549 164.234 211.242L164.268 211.34C164.639 212.601 164.608 213.947 164.179 215.19C163.971 215.796 163.688 216.374 163.338 216.91C162.984 217.454 162.562 217.95 162.081 218.387L162.248 218.199C160.124 220.919 159.084 224.33 159.331 227.772C159.463 228.599 159.691 229.407 160.011 230.181C160.158 230.541 160.363 231.025 160.523 231.535C160.668 232.028 160.769 232.533 160.824 233.044C160.994 235.023 160.709 237.014 159.991 238.865C159.966 238.931 159.933 238.993 159.891 239.05L159.878 239.067C157.983 241.34 157.049 244.262 157.272 247.212C157.359 247.919 157.55 248.608 157.841 249.257C157.981 249.56 158.154 249.847 158.357 250.112C158.446 250.229 158.548 250.335 158.661 250.429C158.884 250.617 159.069 250.846 159.204 251.104C159.783 252.69 160.02 254.38 159.897 256.064C159.898 256.134 159.884 256.203 159.857 256.267C158.971 258.129 158.566 260.184 158.681 262.244C158.833 263.258 159.185 264.231 159.717 265.108C160.248 265.985 160.949 266.747 161.778 267.35C163.446 268.549 165.086 270.411 167.152 269.71C169.133 269.089 170.906 267.938 172.28 266.381C172.333 266.326 172.4 266.288 172.475 266.271C172.549 266.254 172.626 266.259 172.698 266.286C172.769 266.312 172.831 266.359 172.876 266.421C172.921 266.482 172.946 266.555 172.95 266.631L172.951 266.654C173.292 268.617 174.384 270.37 175.996 271.541C177.558 272.875 179.252 274.045 181.053 275.031C184.659 277.066 188.44 278.773 192.352 280.131C196.223 281.562 200.276 282.444 204.391 282.751C206.398 282.955 208.41 282.422 210.051 281.25C210.915 280.707 211.654 279.987 212.221 279.138C212.787 278.289 213.168 277.33 213.338 276.323C213.342 276.299 213.355 276.277 213.374 276.262C213.394 276.248 213.418 276.241 213.442 276.245C213.465 276.248 213.485 276.26 213.5 276.277C213.514 276.294 213.522 276.316 213.522 276.339Z" fill="black"/>
<path d="M212.786 272.628L212.286 271.707C212.276 271.689 212.27 271.669 212.268 271.648C212.266 271.627 212.268 271.606 212.273 271.587C212.279 271.567 212.289 271.548 212.302 271.532C212.315 271.516 212.332 271.502 212.35 271.492L212.403 271.475L212.423 271.472C213.27 271.353 214.121 271.318 214.949 271.173C215.765 271.009 216.559 270.751 217.315 270.403C218.825 269.805 220.052 268.656 220.749 267.189C221.402 265.707 221.697 264.091 221.61 262.473C221.569 260.829 221.298 259.199 220.805 257.63C220.743 257.436 220.761 257.225 220.854 257.044C220.948 256.863 221.11 256.727 221.304 256.665C221.359 256.648 221.416 256.637 221.474 256.632C223.511 256.514 225.5 255.957 227.303 255.001C228.171 254.554 228.942 253.939 229.571 253.192C230.201 252.444 230.675 251.58 230.968 250.648C231.274 249.728 231.36 248.749 231.221 247.79C231.016 246.848 230.529 245.991 229.825 245.333C228.345 243.832 226.666 242.542 224.835 241.498L224.811 241.484C224.744 241.444 224.692 241.384 224.662 241.312C224.632 241.24 224.627 241.161 224.646 241.086C224.665 241.01 224.708 240.943 224.768 240.894C224.828 240.845 224.903 240.817 224.98 240.814C226.203 240.796 227.404 240.489 228.486 239.917C229.567 239.346 230.498 238.527 231.202 237.528C232.508 235.419 233.055 232.928 232.753 230.467C232.689 229.878 232.54 229.303 232.309 228.757C232.18 228.507 232.047 228.335 231.956 228.352C231.614 228.253 231.283 228.119 230.967 227.954C229.81 227.344 228.741 226.657 227.669 225.966C225.533 224.576 223.458 223.12 221.412 221.607C221.291 221.517 221.2 221.394 221.151 221.252C221.101 221.11 221.096 220.957 221.136 220.812C221.175 220.667 221.258 220.537 221.372 220.44C221.486 220.343 221.628 220.282 221.777 220.267L221.819 220.262C222.648 220.228 223.442 219.916 224.072 219.378C224.592 218.753 224.88 217.967 224.888 217.155C224.925 216.217 224.85 215.279 224.666 214.36C224.56 213.472 224.337 212.602 224.005 211.773C223.643 211.138 223.008 210.889 221.987 210.426C221.072 209.999 220.151 209.576 219.245 209.114C217.412 208.194 215.636 207.166 213.925 206.036C210.591 203.729 207.325 201.498 203.863 199.531C202.158 198.541 200.374 197.694 198.529 196.997C197.63 196.65 196.701 196.386 195.754 196.208C195.301 196.131 194.84 196.099 194.38 196.111C194.01 196.12 193.646 196.205 193.311 196.36L193.119 196.488C193.095 196.504 193.068 196.515 193.04 196.521C189.693 197.231 186.321 197.84 182.957 198.488C182.945 198.49 182.933 198.49 182.921 198.488C182.909 198.485 182.898 198.481 182.888 198.474C182.878 198.467 182.869 198.459 182.863 198.449C182.856 198.439 182.851 198.427 182.849 198.416C182.845 198.393 182.849 198.369 182.861 198.35C182.873 198.33 182.892 198.316 182.914 198.309C186.207 197.368 189.492 196.388 192.802 195.508L192.533 195.669C193.025 195.257 193.637 195.015 194.278 194.978C194.822 194.926 195.369 194.928 195.913 194.984C196.956 195.102 197.985 195.33 198.98 195.664C200.929 196.312 202.822 197.121 204.638 198.081C208.223 199.972 211.678 202.102 214.977 204.456C216.634 205.53 218.353 206.505 220.125 207.375L222.804 208.714C223.935 209.107 224.909 209.854 225.583 210.843C225.872 211.376 226.061 211.956 226.142 212.556L226.408 214.074C226.594 215.134 226.652 216.212 226.582 217.286C226.53 218.503 226.038 219.659 225.197 220.54C224.277 221.311 223.12 221.742 221.92 221.761L222.328 220.417C224.304 221.975 226.292 223.54 228.311 225.04C229.323 225.782 230.349 226.523 231.403 227.145C231.642 227.284 231.892 227.404 232.151 227.503C232.364 227.573 232.557 227.693 232.715 227.852C232.874 228.011 232.992 228.205 233.06 228.419C233.296 229.052 233.437 229.717 233.477 230.392C233.722 233.008 233.084 235.63 231.667 237.842C230.922 238.93 229.935 239.831 228.784 240.472C227.632 241.114 226.347 241.479 225.03 241.539L225.176 240.855C227.15 241.835 228.984 243.077 230.627 244.547C231.544 245.328 232.202 246.369 232.514 247.532C232.761 248.7 232.73 249.909 232.423 251.062C232.093 252.196 231.542 253.254 230.801 254.175C230.061 255.096 229.145 255.861 228.108 256.427C226.093 257.493 223.859 258.083 221.579 258.149L222.247 257.15C222.751 258.876 223.007 260.665 223.008 262.462C223.036 264.292 222.603 266.099 221.749 267.718C220.866 269.35 219.387 270.578 217.621 271.147C216.784 271.443 215.915 271.64 215.033 271.735C214.16 271.801 213.284 271.781 212.419 271.784L212.555 271.549L212.957 272.561C212.966 272.582 212.966 272.607 212.957 272.628C212.949 272.65 212.932 272.668 212.911 272.678C212.89 272.687 212.866 272.689 212.844 272.682C212.821 272.674 212.803 272.659 212.792 272.638L212.786 272.628Z" fill="black"/>
<path d="M177.363 209.092L201.388 209.261C205.511 209.368 209.536 210.545 213.066 212.677C214.795 213.766 216.419 215.013 217.918 216.403L222.471 220.316C222.563 220.395 222.638 220.491 222.692 220.599C222.747 220.706 222.779 220.824 222.788 220.944C222.798 221.065 222.783 221.186 222.745 221.3C222.707 221.415 222.648 221.521 222.569 221.613C222.49 221.704 222.394 221.779 222.286 221.834C222.179 221.888 222.061 221.921 221.941 221.93C221.821 221.939 221.7 221.924 221.585 221.887C221.47 221.849 221.364 221.789 221.273 221.71L221.246 221.687L216.846 217.602C215.461 216.212 213.95 214.954 212.332 213.843C209.05 211.691 205.265 210.428 201.347 210.179L177.363 209.092Z" fill="black"/>
<path d="M171.739 227.949L186.191 226.405L193.417 225.632C195.848 225.267 198.316 225.223 200.758 225.502C203.218 225.822 205.614 226.525 207.856 227.586C210.067 228.683 212.139 230.041 214.027 231.63L225.571 240.461C225.669 240.533 225.751 240.625 225.814 240.73C225.876 240.834 225.917 240.95 225.933 241.071C225.95 241.192 225.943 241.314 225.912 241.432C225.881 241.55 225.827 241.661 225.753 241.757C225.679 241.854 225.587 241.935 225.481 241.996C225.376 242.057 225.259 242.096 225.138 242.111C225.017 242.126 224.895 242.117 224.777 242.084C224.66 242.052 224.55 241.996 224.454 241.921L224.432 241.903L213.173 232.712C211.403 231.118 209.448 229.744 207.349 228.617C205.237 227.535 202.969 226.791 200.626 226.411C198.259 226.066 195.855 226.035 193.479 226.319L186.233 226.862L171.739 227.949Z" fill="black"/>
<path d="M170.581 249.287L197.503 245.527C201.021 244.945 204.63 245.678 207.641 247.587L210.518 249.394L222.029 256.622C222.234 256.752 222.379 256.959 222.433 257.196C222.487 257.433 222.444 257.681 222.315 257.887C222.186 258.093 221.98 258.239 221.744 258.294C221.507 258.348 221.258 258.307 221.052 258.179L221.025 258.162L209.766 250.549C208.006 249.198 206.094 248.059 204.068 247.156C202.007 246.394 199.792 246.148 197.615 246.44L170.581 249.287Z" fill="black"/>
<path d="M172.567 266.655L182.856 265.435C186.304 265.057 189.677 264.556 193.185 264.28C196.736 264.134 200.274 264.785 203.541 266.185C206.745 267.687 209.748 269.268 212.861 270.805C213.08 270.913 213.247 271.104 213.325 271.335C213.403 271.565 213.387 271.818 213.279 272.037C213.171 272.255 212.98 272.422 212.749 272.5C212.518 272.578 212.266 272.562 212.047 272.454L212.014 272.437L212.002 272.43C208.993 270.773 205.953 269.003 202.971 267.44C199.923 265.973 196.586 265.207 193.204 265.199C189.819 265.315 186.331 265.669 182.9 265.893L172.567 266.655Z" fill="black"/>
<path d="M415.076 176.645C418.519 172.715 422.571 169.364 427.078 166.72C429.364 165.335 431.912 164.44 434.562 164.092C437.212 163.743 439.905 163.949 442.471 164.696C443.119 164.914 443.746 165.188 444.348 165.513C444.931 165.862 445.492 166.247 446.026 166.667C449.285 169.073 451.746 172.402 453.09 176.224C453.975 178.762 454.396 181.44 454.331 184.128C454.32 184.798 454.274 185.467 454.209 186.134C454.15 186.731 454.141 187.331 454.182 187.929C454.224 189.024 454.614 190.077 455.294 190.936L455.385 191.028C456.445 192.305 457.218 193.794 457.653 195.395C458.088 196.996 458.174 198.672 457.906 200.309C457.672 201.905 457.232 203.464 456.596 204.946C456.001 206.454 455.005 207.746 455.241 208.86C455.382 209.539 455.618 210.195 455.942 210.809C456.312 211.511 456.645 212.231 456.942 212.967C457.474 214.525 457.67 216.177 457.519 217.817C457.473 219.515 456.888 221.154 455.849 222.498C455.681 222.663 455.501 222.816 455.311 222.956C455.177 223.047 455.05 223.148 454.93 223.257C454.69 223.468 454.49 223.722 454.34 224.004C454.037 224.577 453.912 225.227 453.981 225.871L453.878 225.637C454.877 226.933 455.438 228.512 455.479 230.147C455.449 230.966 455.253 231.77 454.905 232.511C454.556 233.253 454.062 233.916 453.451 234.462C452.277 235.574 450.765 236.261 449.155 236.414C448.374 236.396 447.598 236.287 446.843 236.088C446.122 235.988 445.372 235.951 444.626 235.919C438.618 235.817 432.574 236.05 426.54 236.256C420.503 236.463 414.459 236.6 408.407 236.42C405.351 236.408 402.305 236.071 399.32 235.417C397.75 235.076 396.288 234.353 395.064 233.312C394.735 233.012 394.469 232.649 394.281 232.245C394.094 231.84 393.989 231.403 393.973 230.957C393.957 230.065 394.234 229.193 394.761 228.474L395.099 229.392C392.988 228.988 390.9 228.469 388.845 227.838C386.712 227.232 384.707 226.243 382.927 224.921C381.933 224.166 381.254 223.07 381.018 221.845C380.884 220.59 381.233 219.332 381.992 218.325C383.363 216.53 385.105 215.051 387.098 213.988L387.227 215.505C385.585 214.966 383.971 214.342 382.393 213.637C380.793 212.916 379.269 212.037 377.843 211.013C376.361 209.95 375.113 208.594 374.178 207.028C373.663 206.189 373.329 205.252 373.195 204.277C373.061 203.302 373.131 202.31 373.401 201.364L373.336 201.705C373.37 201.266 373.511 200.841 373.747 200.468C373.982 200.096 374.305 199.786 374.688 199.567C375.23 199.2 375.812 198.894 376.422 198.654C377.552 198.212 378.713 197.854 379.896 197.581C382.199 197.037 384.528 196.611 386.875 196.305C391.542 195.681 396.204 195.283 400.9 195.023L400.947 196.921C397.375 196.927 393.822 196.386 390.413 195.317C388.67 194.764 387.019 193.955 385.515 192.916C384.739 192.386 384.038 191.755 383.431 191.04C382.711 190.272 382.229 189.313 382.045 188.277C382.005 187.728 382.078 187.177 382.258 186.657C382.438 186.138 382.722 185.66 383.093 185.253C383.726 184.521 384.49 183.914 385.347 183.464C386.935 182.6 388.632 181.954 390.393 181.545C393.816 180.731 397.311 180.257 400.827 180.128C407.844 179.712 414.752 180.828 421.559 179.721C428.439 178.968 434.998 176.41 440.57 172.304L440.58 172.296C440.599 172.281 440.623 172.274 440.646 172.277C440.67 172.279 440.692 172.291 440.707 172.309C440.723 172.328 440.73 172.352 440.728 172.375C440.726 172.399 440.715 172.421 440.697 172.437C435.225 176.842 428.656 179.673 421.697 180.623C418.24 181.169 414.742 181.401 411.243 181.318C407.773 181.284 404.339 181.19 400.905 181.466C397.492 181.661 394.107 182.19 390.797 183.046C389.185 183.453 387.636 184.076 386.191 184.896C384.808 185.687 383.658 186.899 383.802 188.072C384.327 189.466 385.307 190.643 386.583 191.412C387.941 192.338 389.428 193.058 390.996 193.548C394.219 194.542 397.575 195.039 400.947 195.022C401.194 195.024 401.43 195.121 401.607 195.294C401.783 195.467 401.885 195.701 401.891 195.948C401.897 196.195 401.807 196.434 401.64 196.615C401.473 196.797 401.241 196.906 400.995 196.92C396.371 197.192 391.724 197.604 387.14 198.234C384.85 198.557 382.562 198.908 380.341 199.43C379.246 199.671 378.17 199.992 377.121 200.389C376.642 200.571 376.183 200.804 375.754 201.084C375.336 201.338 375.148 201.659 375.174 201.705C375.182 201.721 375.188 201.738 375.19 201.756C375.192 201.774 375.19 201.792 375.184 201.81L375.108 202.048C374.769 203.45 374.999 204.929 375.747 206.162C376.549 207.516 377.62 208.692 378.893 209.618C380.214 210.582 381.627 211.412 383.111 212.097C384.622 212.787 386.166 213.4 387.738 213.933C387.947 214.005 388.119 214.157 388.215 214.356C388.312 214.555 388.326 214.784 388.254 214.993C388.184 215.187 388.047 215.349 387.867 215.451C386.081 216.362 384.507 217.638 383.246 219.197C382.687 219.884 382.409 220.758 382.468 221.642C382.638 222.524 383.127 223.312 383.84 223.857C385.464 225.095 387.295 226.033 389.248 226.627C391.244 227.283 393.273 227.829 395.329 228.264C395.479 228.298 395.61 228.39 395.693 228.52C395.776 228.65 395.803 228.808 395.77 228.959C395.751 229.04 395.716 229.116 395.666 229.183C395.259 229.664 395.05 230.281 395.08 230.91C395.11 231.54 395.377 232.134 395.827 232.574C396.903 233.501 398.19 234.151 399.574 234.468C402.483 235.144 405.455 235.511 408.44 235.564C414.456 235.827 420.491 235.773 426.523 235.65C432.558 235.573 438.58 235.138 444.647 235.221C445.408 235.246 446.169 235.274 446.944 235.373C447.648 235.558 448.372 235.653 449.099 235.655C450.515 235.477 451.833 234.834 452.844 233.827C453.351 233.354 453.758 232.783 454.04 232.149C454.321 231.515 454.472 230.831 454.482 230.138C454.4 228.735 453.877 227.395 452.987 226.307L452.975 226.291C452.927 226.227 452.896 226.152 452.884 226.073C452.747 225.179 452.893 224.265 453.301 223.458C453.504 223.054 453.777 222.689 454.107 222.381C454.267 222.226 454.439 222.083 454.621 221.953C454.737 221.86 454.848 221.76 454.953 221.654C455.749 220.498 456.175 219.128 456.174 217.724C456.272 216.282 456.067 214.835 455.57 213.477C454.79 212.089 454.17 210.615 453.723 209.086C453.606 208.172 453.768 207.243 454.187 206.422C454.534 205.653 454.87 205.038 455.146 204.339C455.717 202.982 456.109 201.557 456.311 200.099C456.531 198.683 456.451 197.237 456.078 195.853C455.704 194.47 455.045 193.18 454.143 192.067L454.234 192.159C451.927 189.647 452.698 186.388 452.79 184.09C452.875 181.583 452.507 179.08 451.706 176.702C450.914 174.325 449.639 172.137 447.96 170.276C447.127 169.335 446.209 168.473 445.216 167.702C444.287 166.891 443.216 166.261 442.056 165.843C439.642 165.096 437.1 164.853 434.588 165.129C432.076 165.405 429.648 166.195 427.454 167.45C422.9 169.882 418.766 173.03 415.209 176.772C415.192 176.789 415.169 176.799 415.145 176.8C415.12 176.8 415.097 176.791 415.079 176.773C415.062 176.756 415.053 176.734 415.052 176.71C415.052 176.686 415.06 176.663 415.076 176.645Z" fill="black"/>
<path d="M401.04 195.055C407.739 195.826 414.493 195.993 421.222 195.554C424.59 195.35 427.931 194.829 431.201 193.997C434.519 193.285 437.611 191.765 440.203 189.574C437.688 191.899 434.641 193.569 431.329 194.439C428.061 195.429 424.707 196.109 421.311 196.469C414.517 197.221 407.669 197.36 400.85 196.884C400.73 196.876 400.612 196.844 400.504 196.791C400.395 196.738 400.298 196.664 400.219 196.573C400.139 196.482 400.078 196.377 400.039 196.263C400 196.148 399.984 196.027 399.992 195.907C399.999 195.786 400.031 195.668 400.084 195.56C400.138 195.452 400.212 195.355 400.302 195.275C400.393 195.195 400.499 195.134 400.613 195.096C400.728 195.057 400.848 195.041 400.969 195.049L401.007 195.052L401.04 195.055Z" fill="black"/>
<path d="M387.589 213.802C396.679 214.858 405.825 215.362 414.976 215.313C419.553 215.29 424.125 214.989 428.665 214.41C433.239 213.99 437.684 212.67 441.746 210.526C437.737 212.814 433.316 214.289 428.736 214.864C424.19 215.599 419.603 216.055 415.002 216.231C405.795 216.588 396.575 216.388 387.393 215.63C387.15 215.61 386.924 215.495 386.766 215.309C386.608 215.124 386.53 214.883 386.55 214.64C386.569 214.397 386.684 214.172 386.87 214.014C387.056 213.856 387.296 213.778 387.539 213.797L387.566 213.8L387.589 213.802Z" fill="black"/>
<path d="M395.246 227.913C402.183 228.293 409.16 228.459 416.121 228.352C419.6 228.27 423.084 228.154 426.548 227.814C430.028 227.63 433.452 226.855 436.673 225.523C433.496 227.002 430.091 227.931 426.603 228.27C423.137 228.764 419.647 229.035 416.158 229.27C409.172 229.685 402.185 229.826 395.174 229.749C394.93 229.747 394.697 229.647 394.527 229.473C394.356 229.299 394.262 229.064 394.265 228.82C394.267 228.576 394.367 228.344 394.541 228.173C394.715 228.003 394.95 227.908 395.194 227.911L395.231 227.912L395.246 227.913Z" fill="black"/>
<path d="M389.249 42.6649C389.61 44.6511 389.848 46.6579 389.961 48.6737C390.074 50.723 389.998 52.7784 389.733 54.8137C389.446 56.9404 388.745 58.9902 387.669 60.847C387.096 61.904 386.304 62.8262 385.346 63.5516C384.388 64.2771 383.285 64.7891 382.113 65.0532L383.378 63.412C383.828 65.5623 384.442 67.6748 385.215 69.731C385.582 70.703 386.03 71.6421 386.556 72.5382C386.894 73.2032 387.424 73.7513 388.077 74.1113L387.872 74.0527C396.058 75.7281 404.243 77.4152 412.375 79.3409C420.503 81.289 428.584 83.4522 436.692 85.4941C452.897 89.5753 469.3 92.8277 485.837 95.2388L488.909 95.6555L490.47 95.8641C491.204 95.9871 491.904 96.2595 492.528 96.6647C494.452 98.1032 495.966 100.02 496.92 102.225C498.771 106.118 500.218 110.19 501.239 114.378C503.298 122.569 504.849 130.88 505.884 139.262C507.976 155.954 508.617 172.796 507.8 189.599L507.795 189.696C507.777 190.058 507.617 190.399 507.35 190.644C507.082 190.889 506.729 191.02 506.367 191.007C497.875 190.703 489.384 190.353 480.894 189.788C480.839 189.785 480.788 189.76 480.751 189.721C480.714 189.681 480.693 189.628 480.693 189.574C480.693 189.519 480.714 189.466 480.751 189.427C480.788 189.387 480.839 189.362 480.894 189.359C489.384 188.794 497.875 188.444 506.367 188.14L504.933 189.548C504.554 172.917 503.299 156.305 501.344 139.823C500.459 131.596 499.13 123.423 497.364 115.339C496.502 111.378 495.296 107.499 493.76 103.748C493.137 102.064 492.111 100.557 490.772 99.3606C490.534 99.1733 490.264 99.0296 489.975 98.9361C489.524 98.8245 488.952 98.7265 488.447 98.621L485.342 97.9755L460.867 92.3483C452.705 90.5431 444.514 88.8766 436.276 87.4296C428.042 85.9566 419.788 84.5763 411.586 82.9574C403.387 81.3179 395.246 79.4214 387.111 77.4886L387.015 77.4657L386.906 77.4297C385.485 76.7801 384.333 75.6595 383.645 74.2578C383.052 73.1581 382.556 72.0088 382.162 70.8231C381.44 68.5535 380.91 66.2274 380.577 63.8693C380.521 63.4918 380.617 63.1075 380.845 62.8009C381.072 62.4944 381.412 62.2906 381.789 62.2345L381.843 62.2275C382.575 62.0935 383.266 61.7892 383.859 61.3394C384.559 60.837 385.169 60.2198 385.663 59.514C386.702 57.969 387.459 56.2517 387.897 54.442C388.357 52.5468 388.643 50.6133 388.75 48.6659C388.869 46.6962 388.842 44.7118 388.822 42.7118C388.82 42.6836 388.824 42.6554 388.833 42.6287C388.843 42.602 388.857 42.5774 388.876 42.5563C388.895 42.5351 388.917 42.518 388.943 42.5056C388.968 42.4933 388.996 42.4861 389.024 42.4845C389.077 42.4835 389.128 42.5011 389.169 42.534C389.21 42.567 389.238 42.6133 389.249 42.6649Z" fill="black"/>
<path d="M225.001 122.306C224.029 119.919 223.809 117.291 224.372 114.775C224.704 113.471 225.294 112.248 226.106 111.177C226.947 110.11 227.971 109.203 229.131 108.498C233.63 105.954 238.137 104.003 242.707 101.954C251.815 97.9046 261.043 94.1983 270.195 90.3753C274.786 88.5113 279.37 86.6089 283.827 84.581C288.41 82.4055 293.188 80.6673 298.098 79.3897C307.719 76.8439 317.383 74.4443 327.169 72.4537C317.895 76.1575 308.498 79.4524 299.058 82.601C294.42 84.1283 289.91 86.0189 285.57 88.2554C281.025 90.4598 276.43 92.4 271.833 94.343C262.596 98.1082 253.296 101.646 243.959 105.049C239.345 106.801 234.533 108.397 230.153 110.33C228.027 111.251 226.353 112.979 225.5 115.133C224.667 117.431 224.495 119.916 225.001 122.306Z" fill="black"/>
<path d="M451.181 173.46C456.27 173.775 461.236 175.152 465.76 177.504C470.342 179.699 474.724 182.288 478.857 185.242C482.975 188.193 486.91 191.389 490.643 194.813C494.36 198.234 497.911 201.804 501.403 205.453C499.399 203.916 497.474 202.291 495.508 200.713C493.569 199.111 491.698 197.411 489.714 195.879C485.819 192.725 481.87 189.638 477.795 186.741C473.731 183.838 469.502 181.174 465.129 178.762C462.946 177.553 460.688 176.484 458.37 175.56C456.073 174.556 453.657 173.851 451.181 173.46Z" fill="black"/>
<path d="M451.25 235.411C458.48 242.525 466.483 248.806 475.112 254.136C477.263 255.419 479.548 256.464 481.926 257.253C484.284 258.078 486.827 258.229 489.266 257.689C494.216 256.527 498.533 253.516 501.332 249.272C503.957 245.006 505.558 240.191 506.012 235.203C506.487 230.195 506.393 225.15 505.732 220.163C505.117 215.115 504.948 209.984 504.601 204.894C504.315 199.793 504.101 194.689 503.96 189.581C503.959 189.569 503.961 189.557 503.965 189.546C503.97 189.534 503.976 189.524 503.984 189.515C503.993 189.507 504.003 189.5 504.014 189.495C504.025 189.49 504.037 189.487 504.049 189.487C504.071 189.486 504.093 189.494 504.111 189.508C504.128 189.523 504.139 189.544 504.143 189.566C505.594 199.683 506.561 209.805 507.616 219.956C508.364 225.082 508.401 230.288 507.726 235.425C507.128 240.632 505.209 245.6 502.151 249.858C500.538 251.899 498.628 253.686 496.484 255.16C494.286 256.523 491.912 257.581 489.429 258.304C486.873 258.918 484.205 258.896 481.659 258.241C479.135 257.605 476.695 256.676 474.386 255.475C469.859 253.001 465.636 250.008 461.802 246.556C457.947 243.177 454.373 239.492 451.114 235.535C451.099 235.516 451.092 235.492 451.094 235.467C451.096 235.443 451.108 235.421 451.127 235.405C451.145 235.392 451.167 235.385 451.19 235.386C451.213 235.387 451.234 235.396 451.25 235.411Z" fill="black"/>
<path d="M457.231 161.123C456.515 156.516 456.101 151.867 455.994 147.207C455.837 142.535 455.985 137.858 456.437 133.205C456.837 128.506 457.814 123.873 459.343 119.412C460.133 117.155 461.256 115.029 462.676 113.104C463.383 112.138 464.275 111.322 465.301 110.706C466.328 110.089 467.467 109.684 468.652 109.514C466.476 110.219 464.647 111.72 463.532 113.716C462.36 115.647 461.477 117.74 460.912 119.928C459.748 124.351 458.965 128.865 458.573 133.422C458.082 137.992 457.866 142.6 457.638 147.217C457.526 149.526 457.462 151.84 457.421 154.156L457.231 161.123Z" fill="black"/>
<path d="M379.45 90.8294C379.229 90.8292 379.014 90.7489 378.847 90.6032C378.68 90.4575 378.571 90.2563 378.54 90.0366C378.51 89.817 378.56 89.5937 378.681 89.4079C378.802 89.2222 378.986 89.0865 379.2 89.0259C383.519 87.8022 385.997 78.9259 386.587 75.6092C386.63 75.3692 386.766 75.1561 386.966 75.0167C387.166 74.8772 387.413 74.823 387.653 74.8658C387.893 74.9086 388.107 75.045 388.246 75.245C388.385 75.445 388.44 75.6922 388.397 75.9322C388.301 76.4648 386.001 89.0091 379.701 90.7937C379.62 90.8173 379.535 90.8293 379.45 90.8294Z" fill="black"/>
<path d="M498.852 252.853C499.174 258.076 499.366 263.298 499.492 268.521C499.656 273.743 499.73 278.966 499.749 284.188C499.749 284.316 499.721 284.442 499.669 284.559C499.616 284.675 499.539 284.779 499.443 284.863C494.356 289.329 488.854 293.3 483.013 296.723C480.063 298.44 476.909 299.781 473.625 300.713C471.945 301.19 470.172 301.24 468.468 300.858C467.628 300.642 466.857 300.212 466.233 299.61C465.608 299.007 465.15 298.254 464.903 297.422C465.229 298.173 465.736 298.832 466.379 299.34C467.021 299.848 467.78 300.189 468.586 300.332C470.202 300.523 471.84 300.333 473.369 299.777C476.494 298.692 479.47 297.221 482.229 295.397C487.846 291.819 493.203 287.849 498.26 283.515L497.955 284.188C497.972 278.966 498.047 273.743 498.21 268.521C498.337 263.298 498.529 258.076 498.852 252.853Z" fill="black"/>
<path d="M138.948 561.463C140.076 563.497 140.896 565.687 141.38 567.962C141.939 570.22 142.155 572.549 142.021 574.872C140.889 572.839 140.07 570.648 139.59 568.372C139.035 566.114 138.819 563.785 138.948 561.463Z" fill="black"/>
<path d="M193.981 559.748C195.169 561.262 196.077 562.976 196.66 564.81C197.312 566.621 197.631 568.536 197.599 570.461C196.407 568.949 195.499 567.234 194.92 565.398C194.271 563.586 193.953 561.672 193.981 559.748Z" fill="black"/>
<path d="M211.712 612.371C211.712 612.371 178.641 617.654 171.575 621.626C164.511 625.599 93.0629 633.545 75.4111 634.426C60.2247 634.73 45.034 634.092 29.9268 632.514C27.793 632.247 25.7922 631.332 24.1931 629.894C20.7569 626.695 19.5972 620.639 47.1928 614.561C60.3439 611.468 73.1883 607.191 85.5688 601.784C88.7471 604.017 91.8823 605.52 94.8026 607.281C96.2606 608.095 97.6667 608.999 99.0126 609.987C100.411 611.061 101.673 612.301 102.771 613.681C102.936 611.655 102.339 609.64 101.095 608.033C99.9203 606.412 98.4026 605.07 96.6502 604.103C94.9931 603.126 93.1863 602.43 91.3024 602.041C89.4414 601.579 87.507 601.492 85.6118 601.784C92.999 598.648 100.214 595.298 106.915 591.991C108.053 593.151 108.955 594.182 109.878 595.212L112.434 598.305L114.968 601.504C115.89 602.697 116.894 603.824 117.974 604.876C118.185 603.294 118.03 601.686 117.523 600.173C117.048 598.656 116.29 597.242 115.29 596.007C114.294 594.737 113.043 593.691 111.618 592.936C110.197 592.111 108.544 591.779 106.915 591.991C125.77 582.671 140.845 573.609 145.999 570.452C156.135 564.288 161.44 564.718 166.272 570.452C168.826 573.221 172.321 574.939 176.073 575.268C179.826 575.598 183.567 574.516 186.565 572.234C198.484 564.288 206.859 571.783 207.31 574.876C207.74 577.968 217.447 596.05 211.712 612.371Z" fill="black"/>
<path d="M352.242 563.151C353.785 566.68 354.845 570.402 355.394 574.214C355.69 576.098 355.889 577.997 355.992 579.901C356.119 581.838 356.063 583.783 355.825 585.71C355.002 583.952 354.346 582.12 353.867 580.239C353.374 578.396 352.975 576.53 352.673 574.646C352.014 570.851 351.869 566.985 352.242 563.151Z" fill="black"/>
<path d="M405.566 567.397C406.529 570.231 406.995 573.21 406.943 576.203C406.94 577.675 406.839 579.146 406.641 580.606C406.459 582.111 406.098 583.589 405.566 585.008C405.033 583.589 404.671 582.111 404.49 580.606C404.292 579.146 404.191 577.675 404.188 576.203C404.135 573.21 404.602 570.231 405.566 567.397Z" fill="black"/>
<path d="M415.295 643.96C415.295 643.96 383.748 651.648 367.964 660.539C352.18 669.451 319.409 682.186 281.806 671.276C281.806 671.276 273.904 670.654 324.885 625.148C324.885 625.148 326.217 623.28 328.385 620.295C334.635 620.231 340.733 619.865 346.768 620.123C349.755 620.207 352.726 620.588 355.638 621.261C358.583 621.823 361.231 623.414 363.11 625.75C362.652 624.181 361.749 622.779 360.512 621.712C359.258 620.652 357.836 619.81 356.303 619.221C353.291 618.091 350.112 617.467 346.897 617.375C343.743 617.265 340.586 617.459 337.469 617.954C334.364 618.399 331.318 619.184 328.385 620.295C331.563 615.936 336.589 609.214 341.915 602.621C348.594 601.684 355.338 601.296 362.08 601.462C365.382 601.637 368.664 602.082 371.894 602.793C375.15 603.646 378.309 604.834 381.322 606.336C378.821 603.866 375.818 601.962 372.517 600.753C369.193 599.593 365.723 598.906 362.208 598.713C358.719 598.593 355.227 598.852 351.794 599.486C348.385 600.086 345.071 601.133 341.936 602.6C350.376 592.163 359.61 582.07 363.712 582.07C371.314 582.07 379.882 587.417 389.847 595.041C391.532 596.408 393.105 597.909 394.55 599.529C396.225 601.333 395 603.18 402.539 585.699C402.539 585.699 412.266 569.335 415.295 643.96Z" fill="black"/>
<path d="M330.075 519.569C319.323 519.826 308.571 519.961 297.819 519.973C282.289 520.047 266.777 519.918 251.266 519.734C235.754 519.477 220.242 519.183 204.73 518.669C200.301 518.54 195.889 518.393 191.46 518.209L190.67 515.912C195.375 515.856 200.062 515.82 204.767 515.82C220.278 515.746 235.809 515.875 251.32 516.058C266.833 516.297 282.345 516.591 297.856 517.106C308.553 517.419 319.256 517.854 329.964 518.411L330.075 519.569Z" fill="black"/>
<path d="M329.974 518.418L190.666 515.905L173.035 464.408C178.016 464.537 183.02 464.623 188.024 464.709C205.397 465.01 222.749 465.074 240.144 465.117C257.517 465.074 274.891 465.01 292.241 464.709C303.645 464.537 315.041 464.272 326.43 463.914C326.408 463.485 326.388 463.077 326.345 462.626C314.984 462.261 303.617 461.996 292.242 461.831C274.891 461.552 257.517 461.466 240.144 461.445C222.749 461.466 205.397 461.552 188.024 461.831C182.763 461.917 177.502 462.003 172.262 462.132L158.131 420.921C164.466 421.222 170.78 421.48 177.115 421.673C192.19 422.231 207.288 422.554 222.363 422.854C237.459 423.069 252.557 423.262 267.631 423.219C280.001 423.219 306.759 423.069 324.347 422.79C324.326 422.554 324.326 422.317 324.326 422.06C306.781 421.308 280.045 420.771 267.674 420.363C252.599 419.805 237.525 419.483 222.427 419.182C207.331 418.967 192.255 418.795 177.158 418.838C170.608 418.838 164.037 418.86 157.486 418.967L157.895 420.213L137.601 360.942C137.601 360.942 279.293 373.032 321.105 343.29L329.974 518.418Z" fill="black"/>
<path d="M444.135 466.027C450.846 466.11 457.499 466.13 464.065 465.697C467.314 465.5 470.547 465.097 473.745 464.491C476.799 464.017 479.736 462.966 482.398 461.395C483.555 460.699 484.518 459.724 485.198 458.558C485.499 457.984 485.718 457.371 485.849 456.736L486.299 454.324C486.912 451.101 487.306 447.827 487.75 444.548C488.545 437.976 489.132 431.348 489.758 424.661C490.698 431.325 491.029 438.062 490.747 444.786C490.656 448.159 490.321 451.524 489.903 454.895L489.507 457.416C489.32 458.42 488.992 459.394 488.533 460.306C487.58 462.064 486.193 463.548 484.504 464.619C482.949 465.597 481.267 466.358 479.506 466.881C477.831 467.415 476.117 467.814 474.379 468.074C470.99 468.57 467.565 468.777 464.141 468.691C457.392 468.578 450.678 467.684 444.135 466.027Z" fill="white"/>
<path d="M608.783 302.788C610.157 310.648 556.985 445.21 551.423 467.222C545.883 489.255 509.353 517.902 509.353 517.902C488.072 534.631 417.785 526.557 417.785 526.557L408.529 345.995C418.407 346.167 428.308 346.232 438.186 346.318C443.168 346.296 448 346.404 453.09 346.253C458.248 346.054 463.327 344.919 468.079 342.903C477.731 338.79 485.581 331.343 490.198 321.922C491.3 319.617 492.268 317.251 493.097 314.835L495.696 307.92C497.435 303.303 499.175 298.708 501.001 294.134C504.651 285.007 508.409 275.901 512.79 267.247C513.907 265.099 515.066 262.995 516.312 260.998C517.425 259.089 518.774 257.328 520.328 255.758C520.6 255.494 520.903 255.263 521.23 255.071C521.337 255.049 521.445 254.942 521.466 254.985C521.509 254.985 521.509 254.963 521.552 254.942L522.068 254.899L525.718 254.62L533.062 254.147C542.877 253.653 552.711 253.417 562.462 253.868C567.297 254.042 572.118 254.523 576.893 255.307C579.195 255.693 581.459 256.282 583.657 257.068C585.541 257.608 587.185 258.775 588.317 260.375L588.36 260.439C588.503 260.731 588.708 260.987 588.961 261.191C591.058 262.984 592.818 265.136 594.159 267.548C595.575 270.038 596.597 272.733 597.186 275.536C598.4 281.278 598.334 287.217 596.993 292.931C596.628 294.37 596.349 295.83 595.919 297.269C595.468 298.686 595.06 300.125 594.566 301.542C593.6 304.399 592.591 307.233 591.517 310.068C589.413 315.716 587.179 321.342 584.903 326.947C580.35 338.136 575.539 349.238 570.6 360.276L555.504 393.283C550.393 404.257 545.411 415.281 540.557 426.355C535.703 437.414 530.871 448.56 526.426 459.834C521.895 471.066 517.793 482.533 513.734 493.872C511.67 499.502 509.238 504.99 506.454 510.3C505.04 512.927 503.402 515.427 501.558 517.773C499.777 520.149 497.516 522.125 494.923 523.572C494.892 523.583 494.864 523.601 494.841 523.624C494.818 523.647 494.799 523.674 494.787 523.704C494.775 523.735 494.769 523.767 494.771 523.8C494.772 523.832 494.78 523.864 494.794 523.894C494.817 523.956 494.864 524.006 494.924 524.034C494.984 524.062 495.053 524.066 495.116 524.044C497.96 522.798 500.491 520.935 502.525 518.589C504.57 516.303 506.417 513.846 508.044 511.245C511.278 506.05 514.066 500.591 516.376 494.924C520.929 483.65 525.546 472.547 530.249 461.423C534.995 450.299 539.848 439.261 544.766 428.201C549.641 417.12 554.358 405.975 558.918 394.765L572.533 361.114L586.363 327.548L593.235 310.734C595.646 305.122 597.698 299.362 599.377 293.489C601.016 287.436 601.331 281.1 600.3 274.913C599.75 271.765 598.73 268.717 597.272 265.873C595.874 263.079 593.983 260.562 591.689 258.442C591.021 257.171 590.056 256.081 588.876 255.264C587.738 254.451 586.504 253.78 585.203 253.267C582.988 252.391 580.704 251.701 578.374 251.205C579.449 242.749 580.03 234.238 580.114 225.714C580.307 221.269 580.007 216.824 579.834 212.378C579.706 207.912 579.083 203.488 578.589 199.042C578.374 196.809 577.923 194.619 577.494 192.407C577.022 190.216 576.721 188.004 576.119 185.835L574.273 179.328C573.564 177.202 572.684 175.098 571.867 173.015C570.987 170.932 569.87 168.935 568.861 166.916L566.971 164.081L566.026 162.664L564.91 161.375C563.469 159.609 561.793 158.048 559.928 156.737C558.117 155.372 555.989 154.493 553.743 154.181C554.798 154.488 555.798 154.959 556.706 155.577L558.059 156.501L559.283 157.574C560.862 159.039 562.248 160.698 563.406 162.514L564.33 163.824L565.103 165.263L566.649 168.097C567.422 170.137 568.389 172.07 569.097 174.11C571.851 182.377 573.75 190.904 574.767 199.558C575.325 203.917 575.969 208.234 576.184 212.636C576.571 216.995 576.936 221.376 577.108 225.779C577.645 234.218 577.709 242.68 578.202 251.184C578.04 251.138 577.875 251.102 577.709 251.076C572.76 250.109 567.752 249.477 562.719 249.186C552.733 248.585 542.769 248.65 532.826 249.015L525.374 249.358L521.638 249.595L521.23 249.616C520.972 249.659 520.671 249.702 520.392 249.745C519.87 249.848 519.364 250.022 518.888 250.26C518.127 250.646 517.419 251.129 516.784 251.699C514.783 253.577 513.062 255.732 511.673 258.099C510.298 260.289 509.097 262.501 507.937 264.734C503.467 273.663 499.495 282.833 496.04 292.201C494.278 296.861 492.561 301.5 490.929 306.181L488.502 313.203C487.799 315.485 486.96 317.723 485.989 319.904C484.034 324.175 481.337 328.065 478.022 331.393C474.68 334.717 470.785 337.434 466.512 339.424C462.228 341.478 457.608 342.736 452.875 343.139C448.086 343.505 443.039 343.612 438.143 343.87C428.265 344.364 418.386 344.857 408.507 345.48L408.443 344.17C408.443 344.17 462.754 345.008 464.901 297.419C464.901 297.419 463.548 312.409 498.853 284.191V252.859C498.853 252.859 511.136 246.481 506.412 218.027L504.05 189.572H506.369C506.369 189.572 506.412 148.061 504.179 143.766C573.177 148.985 579.641 158.541 579.641 158.541C606.464 189.508 602.297 259.645 602.297 259.645C621.71 262.265 608.783 302.788 608.783 302.788Z" fill="black"/>
<path d="M408.529 345.996C408.459 345.99 408.394 345.958 408.346 345.906C408.298 345.855 408.271 345.787 408.271 345.716C408.272 345.654 408.297 345.594 408.341 345.55C408.385 345.506 408.445 345.481 408.507 345.48L408.529 345.996Z" fill="white"/>
<path d="M478.18 526.53C479.6 536.066 480.739 545.609 481.901 555.151L483.506 569.469L484.894 583.793C485.339 588.568 486.053 593.335 486.682 598.105C487.292 602.862 487.452 607.667 487.159 612.454C486.87 617.288 486.293 622.101 485.429 626.866C484.575 631.812 483.231 636.662 481.417 641.342C481.359 641.485 481.26 641.609 481.134 641.697C481.007 641.785 480.857 641.835 480.702 641.839C480.548 641.843 480.395 641.802 480.263 641.721C480.132 641.64 480.026 641.523 479.961 641.383C477.885 636.812 476.27 632.046 475.14 627.156C474.009 622.447 473.161 617.675 472.601 612.865C472.038 608.101 471.927 603.295 472.269 598.511C472.627 593.714 473.071 588.913 473.247 584.121L473.825 569.742L474.622 555.356C475.244 545.764 475.843 536.172 476.724 526.572C476.741 526.393 476.822 526.227 476.953 526.104C477.083 525.981 477.255 525.91 477.434 525.905C477.613 525.9 477.788 525.961 477.926 526.076C478.063 526.191 478.154 526.353 478.18 526.531V526.53Z" fill="black"/>
<path d="M542.096 484.739C543.16 493.657 543.944 502.568 544.751 511.478L545.823 524.839L546.678 538.195C546.945 542.647 547.483 547.099 547.933 551.551C548.366 555.99 548.348 560.462 547.877 564.898C547.408 569.39 546.651 573.847 545.612 578.242C544.568 582.839 543.044 587.314 541.066 591.592L541.06 591.604C540.994 591.741 540.891 591.857 540.761 591.938C540.632 592.018 540.483 592.06 540.331 592.059C540.178 592.058 540.03 592.013 539.902 591.931C539.774 591.848 539.673 591.731 539.609 591.592C537.709 587.302 536.272 582.822 535.32 578.227C534.365 573.818 533.694 569.351 533.313 564.856C532.928 560.405 532.995 555.926 533.515 551.488C534.051 547.034 534.673 542.582 535.027 538.128L536.139 524.769L537.469 511.415C538.448 502.514 539.402 493.615 540.639 484.723C540.664 484.546 540.752 484.384 540.888 484.267C541.023 484.151 541.196 484.088 541.375 484.09C541.554 484.092 541.725 484.159 541.858 484.279C541.991 484.398 542.075 484.562 542.096 484.74L542.096 484.739Z" fill="black"/>
<path d="M156.672 283.138V283.611C156.651 283.461 156.629 283.289 156.608 283.138H156.672Z" fill="white"/>
<path d="M340.529 128.652C343.587 127.505 346.693 126.336 349.877 125.199C353.065 124.071 356.225 122.871 359.498 121.776L369.282 118.429C372.586 117.381 375.879 116.307 379.191 115.336L379.238 115.322C379.445 115.261 379.667 115.285 379.856 115.388C380.045 115.492 380.185 115.666 380.246 115.872L380.266 115.958L381.975 125.537C382.514 128.736 383.186 131.907 383.805 135.089C385.106 141.441 386.591 147.753 388.134 154.053C388.172 154.21 388.149 154.375 388.071 154.515C387.992 154.655 387.863 154.76 387.71 154.81L387.667 154.823C381.65 156.728 375.601 158.521 369.545 160.288C363.493 162.066 357.439 163.841 351.349 165.488L351.335 165.492C351.05 165.569 350.745 165.531 350.488 165.385C350.23 165.24 350.04 165 349.958 164.716C348.208 158.628 346.62 152.51 345.013 146.467L340.529 128.652ZM340.718 128.752L346.654 146.634C348.521 152.489 350.406 158.27 352.13 164.082L350.739 163.309C356.798 161.553 362.893 159.925 368.988 158.301C375.081 156.664 381.181 155.054 387.312 153.556L386.846 154.325C385.709 147.939 384.512 141.566 383.133 135.231C382.412 132.07 381.744 128.899 380.943 125.755L378.631 116.304L379.706 116.926C376.547 118.05 373.368 119.071 370.202 120.119L360.574 123.057C357.376 124.057 354.065 124.953 350.783 125.92L340.718 128.752Z" fill="black"/>
<path d="M240.909 225.522L275.798 223.987L282.068 255.398H245.015L240.909 225.522Z" fill="black"/>
<path d="M177.449 140.331L181.214 152.497C182.365 156.417 183.471 160.251 184.4 164.166L183.485 163.454C188.309 163.55 193.134 163.895 197.958 164.026C202.783 164.144 207.607 164.006 212.431 163.816L211.864 164.535C210.713 160.557 209.616 156.566 208.574 152.563C207.563 148.552 206.471 144.56 205.527 140.532L206.642 141.412C201.917 141.427 197.209 141.253 192.386 141.049L177.449 140.331ZM177.28 140.199C181.87 139.959 186.677 139.68 191.62 139.481C196.557 139.276 201.607 139.102 206.642 139.118C206.899 139.119 207.149 139.207 207.351 139.366C207.553 139.525 207.696 139.747 207.758 139.997C208.743 144.015 209.581 148.067 210.5 152.101C211.392 156.14 212.225 160.194 212.998 164.262L213.008 164.312C213.022 164.384 213.021 164.459 213.006 164.532C212.991 164.605 212.962 164.673 212.921 164.735C212.879 164.796 212.826 164.849 212.764 164.889C212.702 164.93 212.632 164.958 212.56 164.972C212.517 164.98 212.474 164.983 212.431 164.982C207.607 164.791 202.783 164.654 197.958 164.771C193.134 164.902 188.309 165.247 183.485 165.343C183.279 165.348 183.078 165.283 182.914 165.159C182.749 165.036 182.631 164.861 182.577 164.663L182.569 164.631C181.458 160.501 180.524 156.291 179.635 152.166C178.804 148.052 177.99 144.005 177.28 140.199Z" fill="black"/>
<path d="M221.528 143.773C226.397 143.013 231.321 142.654 236.249 142.7C241.178 142.649 246.102 143.008 250.971 143.773C246.102 144.538 241.178 144.897 236.249 144.846C231.321 144.892 226.397 144.533 221.528 143.773Z" fill="black"/>
<path d="M224.424 161.123C228.807 160.363 233.249 160.004 237.697 160.05C242.145 159.999 246.589 160.358 250.971 161.123C246.589 161.887 242.145 162.246 237.697 162.196C233.249 162.242 228.807 161.882 224.424 161.123Z" fill="black"/>
<path d="M187.896 177.884C193.52 177.442 199.144 177.234 204.768 177.062C210.392 176.866 216.016 176.838 221.639 176.811C227.263 176.835 232.887 176.864 238.512 177.059L246.947 177.358C249.76 177.536 252.571 177.641 255.383 177.884C252.571 178.128 249.76 178.232 246.947 178.411L238.512 178.71C232.887 178.905 227.263 178.933 221.639 178.958C216.016 178.931 210.392 178.903 204.768 178.707C199.144 178.535 193.52 178.327 187.896 177.884Z" fill="black"/>
<path d="M192.499 189.574C197.739 189.131 202.979 188.923 208.219 188.751C213.46 188.555 218.7 188.527 223.94 188.5C229.181 188.525 234.421 188.553 239.661 188.748L247.522 189.047C250.142 189.226 252.762 189.33 255.382 189.574C252.762 189.817 250.142 189.921 247.522 190.1L239.661 190.399C234.421 190.594 229.181 190.623 223.94 190.647C218.7 190.62 213.46 190.592 208.219 190.396C202.979 190.224 197.739 190.016 192.499 189.574Z" fill="black"/>
<path d="M221.528 202.365C229.057 201.604 236.621 201.246 244.189 201.292C251.757 201.241 259.321 201.599 266.85 202.365C259.321 203.131 251.757 203.49 244.189 203.438C236.621 203.485 229.057 203.127 221.528 202.365Z" fill="black"/>
<path d="M236.25 215.047C242.813 214.286 249.416 213.927 256.023 213.974C262.63 213.923 269.234 214.281 275.797 215.047C269.234 215.813 262.63 216.171 256.023 216.12C249.416 216.166 242.813 215.808 236.25 215.047Z" fill="black"/>
<path d="M282.069 140.265C296.452 136.258 311.187 133.641 326.071 132.451C318.901 134.503 311.624 136.159 304.272 137.412C296.928 138.764 289.516 139.716 282.069 140.265Z" fill="black"/>
<path d="M285.377 156.271C292.743 154.058 300.221 152.234 307.778 150.806C315.317 149.283 322.932 148.162 330.59 147.449C323.225 149.666 315.748 151.49 308.189 152.913C300.65 154.431 293.035 155.552 285.377 156.271Z" fill="black"/>
<path d="M294.418 173.46C301.179 171.211 308.061 169.349 315.033 167.881C321.983 166.317 329.018 165.155 336.102 164.399C329.344 166.652 322.461 168.515 315.489 169.978C308.537 171.537 301.502 172.699 294.418 173.46Z" fill="black"/>
<path d="M299.051 189.456C306.823 187.313 314.645 185.4 322.475 183.521C330.3 181.619 338.16 179.881 346.02 178.144C353.892 176.457 361.764 174.774 369.672 173.254L381.534 170.981C385.505 170.3 389.461 169.547 393.446 168.929C389.564 170.023 385.653 170.98 381.758 172.01L370.022 174.868C362.197 176.769 354.337 178.507 346.477 180.241C338.604 181.926 330.732 183.609 322.824 185.128C314.922 186.671 307.011 188.179 299.051 189.456Z" fill="black"/>
<path d="M304.069 205.453C310.26 203.696 316.499 202.17 322.745 200.679C328.986 199.163 335.262 197.813 341.538 196.463C347.825 195.163 354.112 193.868 360.434 192.735L369.918 191.043C373.096 190.556 376.258 189.997 379.449 189.573C376.359 190.473 373.239 191.237 370.135 192.073L360.774 194.352C354.533 195.865 348.257 197.216 341.98 198.563C335.693 199.86 329.406 201.156 323.084 202.288C316.767 203.443 310.443 204.563 304.069 205.453Z" fill="black"/>
<path d="M307.983 221.002C313.334 219.574 318.728 218.377 324.128 217.215C329.524 216.03 334.95 215.01 340.376 213.991C345.811 213.022 351.247 212.058 356.713 211.257L364.914 210.063C367.661 209.742 370.395 209.349 373.155 209.092C370.483 209.828 367.786 210.427 365.103 211.099L357.01 212.882C351.614 214.066 346.188 215.086 340.762 216.102C335.326 217.068 329.89 218.034 324.423 218.833C318.962 219.657 313.494 220.445 307.983 221.002Z" fill="black"/>
<path d="M310.961 233.448C316.812 232.104 322.699 230.993 328.59 229.917C334.479 228.816 340.393 227.882 346.306 226.949C352.228 226.067 358.151 225.189 364.098 224.475L373.02 223.411C376.006 223.134 378.981 222.785 381.977 222.572C379.055 223.266 376.112 223.822 373.18 224.452L364.348 226.108C358.459 227.206 352.546 228.141 346.631 229.071C340.709 229.951 334.787 230.83 328.84 231.542C322.895 232.278 316.946 232.98 310.961 233.448Z" fill="black"/>
<path d="M315.262 249.333C321.703 247.795 328.184 246.49 334.671 245.219C341.154 243.925 347.664 242.797 354.175 241.669C360.695 240.592 367.215 239.519 373.762 238.61L383.585 237.254C386.873 236.88 390.148 236.432 393.446 236.122C390.229 236.912 386.989 237.566 383.761 238.292L374.038 240.239C367.555 241.532 361.044 242.661 354.533 243.785C348.013 244.86 341.493 245.933 334.945 246.841C328.401 247.772 321.851 248.669 315.262 249.333Z" fill="black"/>
</svg>
