<svg width="262" height="372" viewBox="0 0 262 372" fill="none" xmlns="http://www.w3.org/2000/svg">
<path d="M193.67 172.535L219.73 183.435C218.38 183.805 217.051 184.225 215.71 184.615L211.741 185.895C209.09 186.745 206.46 187.675 203.84 188.605C201.221 189.555 198.601 190.505 196.011 191.535C193.46 192.535 190.9 193.555 188.391 194.665C186.991 185.685 184.891 176.095 182.141 173.865L193.67 172.535Z" fill="black"/>
<path d="M219.73 183.435V201.955C214.911 204.195 204.11 207.735 190.48 211.795C190.48 211.795 189.77 203.535 188.391 194.685C191.041 193.945 193.67 193.115 196.271 192.255C198.92 191.405 201.551 190.475 204.17 189.545C206.791 188.595 209.411 187.645 212 186.615L215.88 185.075C217.161 184.525 218.46 184.015 219.73 183.435Z" fill="black"/>
<path d="M32.7212 193.225C33.7109 192.925 34.6812 192.595 35.6411 192.205L34.311 197.485C33.0174 196.21 31.6447 195.018 30.2012 193.915C31.041 193.705 31.8911 193.485 32.7212 193.225Z" fill="black"/>
<path d="M121.231 213.445C107.321 211.205 69.2708 198.825 62.4208 193.615C57.3808 189.775 51.6107 183.485 50.8607 168.485C49.7611 175.315 48.6312 182.145 47.4711 188.975L47.431 189.215C48.2819 188.735 49.1981 188.382 50.1508 188.165C51.2214 187.892 52.3308 187.804 53.431 187.905C52.4931 188.489 51.4611 188.905 50.3808 189.135C49.4075 189.38 48.4026 189.475 47.4008 189.415L44.6708 205.265C47.161 206.955 49.6308 208.655 52.0707 210.405L55.911 213.145L59.7211 215.935C62.2611 217.795 64.8109 219.635 67.3109 221.555C69.8109 223.465 72.3407 225.325 74.8207 227.275L74.8309 227.285C74.886 227.336 74.9243 227.402 74.9408 227.475C76.8607 226.925 78.8011 226.415 80.7308 225.885L86.9007 224.305C91.0208 223.265 95.1507 222.305 99.2708 221.305C103.421 220.375 107.551 219.405 111.701 218.525C115.851 217.635 120.001 216.765 124.181 216.005C120.101 217.165 115.981 218.225 111.871 219.265C107.761 220.315 103.621 221.265 99.5008 222.275C95.3607 223.195 91.2308 224.165 87.0809 225.055L80.8509 226.365C78.8807 226.745 76.9207 227.145 74.951 227.505C74.951 227.515 74.971 227.525 74.971 227.535C75.3309 231.565 75.6707 235.595 75.9109 239.635C75.2806 235.695 74.7508 231.745 74.241 227.785C71.7107 225.995 69.241 224.135 66.741 222.315C64.1907 220.475 61.6907 218.555 59.181 216.665L55.411 213.815L51.6908 210.915C49.3206 209.085 46.9808 207.205 44.661 205.305L43.8607 209.965C43.8405 210.078 43.7766 210.178 43.6829 210.244C43.5892 210.309 43.4734 210.335 43.3607 210.315C43.3363 210.313 43.3126 210.307 43.2908 210.295L32.451 206.525C32.3417 206.484 32.2511 206.405 32.1959 206.302C32.1407 206.199 32.1247 206.079 32.1507 205.965L34.2708 197.625C32.4188 196.613 30.6411 195.47 28.951 194.205C27.6209 195.165 26.3109 196.135 24.971 197.085C23.511 198.095 22.0706 199.135 20.5906 200.135C21.951 198.985 23.3309 197.865 24.7108 196.735C25.991 195.685 27.2908 194.665 28.5906 193.635C28.6004 193.562 28.6243 193.49 28.6609 193.425C27.8909 190.465 27.2108 187.485 26.5008 184.505C25.7508 181.425 25.0608 178.325 24.3909 175.225C23.6907 172.125 23.0208 169.025 22.4007 165.906C21.7508 162.795 21.1507 159.686 20.5906 156.556C21.451 159.616 22.2708 162.686 23.0306 165.766C23.8309 168.836 24.5706 171.926 25.2908 175.016C26.0306 178.105 26.7508 181.196 27.4109 184.296C28.0608 187.236 28.721 190.176 29.3206 193.126C30.3909 192.876 31.4607 192.646 32.5408 192.456C33.5808 192.276 34.6209 192.135 35.681 192.046L36.8509 187.456L41.6106 168.946L41.6209 168.916V168.906C42.2184 167.288 42.6897 165.626 43.0306 163.936C43.4212 162.291 43.411 160.576 43.0008 158.936C42.7498 158.156 42.294 157.458 41.681 156.916C41.3588 156.645 41.0179 156.398 40.661 156.176L40.1009 155.806L39.8109 155.566C39.7709 155.556 39.7411 155.526 39.6307 155.486C37.9528 155.103 36.2476 154.853 34.5306 154.736C27.5706 154.106 20.5809 153.736 13.6009 153.356C17.0907 153.406 20.5907 153.506 24.0907 153.636C27.5907 153.766 31.0809 153.906 34.5809 154.176C35.451 154.246 36.3309 154.326 37.201 154.426C38.1 154.495 38.9905 154.649 39.8607 154.886C40.0054 154.932 40.141 155.003 40.2611 155.096L40.4808 155.276L41.0208 155.616C41.41 155.847 41.7811 156.108 42.1307 156.396C42.8478 157.008 43.3867 157.803 43.6908 158.696C44.1693 160.451 44.2207 162.296 43.8407 164.076C43.5166 165.812 43.0484 167.517 42.4408 169.176L37.7806 187.686L33.161 205.786L43.1009 209.306L46.911 188.876C48.201 182.056 49.5176 175.239 50.8607 168.426C50.6387 161.862 51.1014 155.293 52.241 148.826L33.931 146.906C32.0862 146.736 30.3392 145.999 28.931 144.796C27.4324 144.576 25.9468 144.276 24.4808 143.896C24.1009 143.806 23.721 143.706 23.3407 143.586C23.1507 143.526 22.9608 143.466 22.7611 143.396C22.7387 143.386 22.715 143.379 22.6908 143.376H22.661C22.5932 143.383 22.5262 143.396 22.4608 143.416C21.7549 143.636 21.0718 143.924 20.4208 144.276C19.0409 144.946 17.681 145.686 16.3011 146.386C14.931 147.116 13.5306 147.806 12.1107 148.466C14.5493 146.499 17.187 144.793 19.9808 143.376C20.7102 143.005 21.4739 142.707 22.2611 142.486C22.3895 142.46 22.5199 142.447 22.6508 142.446C22.8084 142.455 22.9636 142.488 23.1108 142.546C23.2709 142.626 23.4511 142.686 23.621 142.756L24.7109 143.156C26.101 143.646 27.4911 144.165 28.871 144.735C27.4208 143.355 26.3808 141.125 26.9911 137.485L27.9208 112.795L24.1708 112.025C24.1708 112.025 21.4111 112.645 26.8608 96.9055L35.5708 71.8555C35.5708 71.8555 1.36076 76.0755 0.12105 77.3155C-1.11918 78.5555 7.31099 162.115 18.9711 202.035C18.9711 202.035 72.0307 239.975 75.2509 241.216C76.8207 241.806 106.231 234.756 138.361 226.285C138.361 226.285 135.131 215.685 121.231 213.445ZM9.09068 96.0754C8.28062 91.1554 7.50086 86.2354 6.8207 81.2954C7.90078 86.1654 8.88074 91.0554 9.84068 95.9454C10.8011 100.835 11.681 105.745 12.6009 110.645C13.4408 115.555 14.3309 120.465 15.1307 125.385L16.3207 132.765C16.681 135.235 17.0707 137.695 17.4007 140.165C16.8509 137.735 16.3607 135.295 15.8309 132.855L14.3709 125.515C13.4109 120.625 12.5408 115.715 11.6209 110.815C10.7806 105.905 9.89097 101.005 9.09068 96.0754Z" fill="black"/>
<path d="M101.541 38.1354C99.721 38.1354 97.4007 39.1254 95.0907 39.6254C92.7806 40.1254 87.4911 39.1254 86.9911 37.6454C86.4911 36.1554 83.3709 23.8754 82.8607 24.4554C82.3607 25.0353 81.3709 26.0654 81.3709 26.0654C81.3709 26.0654 81.201 41.0254 81.5306 42.6354C81.8709 44.2554 87.9808 52.3554 97.0706 51.5254C106.161 50.6954 107.491 39.9554 107.491 39.9554C107.491 39.9554 103.351 38.1354 101.541 38.1354ZM103.041 42.5754C102.373 42.9866 101.593 43.1756 100.811 43.1154C100.051 43.0574 99.3156 42.8246 98.6609 42.4354C98.0242 42.0665 97.4802 41.5568 97.0706 40.9454C98.2578 41.56 99.5444 41.9595 100.871 42.1254C101.492 42.172 102.115 42.0868 102.701 41.8754C103.335 41.6294 103.942 41.3177 104.511 40.9454C104.193 41.6219 103.681 42.189 103.041 42.5754Z" fill="black"/>
<path d="M81.3707 26.0698C81.3707 26.0698 89.6358 18.3006 88.9746 8.7131C88.9746 8.7131 91.1235 6.72947 94.5948 10.0355C94.5948 10.0355 97.5703 10.862 101.042 7.22538C104.513 3.58873 106.331 8.87838 106.331 8.87838C106.331 8.87838 108.15 14.4987 108.646 13.0109C109.141 11.5232 109.968 4.41522 102.529 2.10099C96.7449 0.377881 90.6983 -0.293959 84.6767 0.117369C82.6931 0.447969 78.5605 3.75401 78.5605 8.38247C78.5605 13.0109 76.5769 18.7965 76.7422 20.6148C76.9075 22.4332 81.3707 26.0698 81.3707 26.0698Z" fill="black"/>
<path d="M88.8086 24.0862C90.4117 23.4736 92.1328 23.2325 93.8425 23.3808C94.7027 23.4547 95.5497 23.6394 96.3625 23.9304C97.1706 24.2277 97.9163 24.6729 98.5612 25.2433C97.7989 24.9133 97.0109 24.6461 96.205 24.4442C95.408 24.2615 94.599 24.1353 93.7841 24.0667C92.1273 23.9535 90.4645 23.96 88.8086 24.0862Z" fill="black"/>
<path d="M102.859 24.4563C103.522 23.73 104.339 23.1604 105.249 22.789C106.152 22.3617 107.169 22.2369 108.149 22.4332C107.255 22.7182 106.376 23.0488 105.515 23.4237C104.654 23.7777 103.805 24.1629 102.859 24.4563Z" fill="black"/>
<path d="M95.0909 27.5989C95.3587 27.5896 95.6125 27.4767 95.7987 27.284C95.9849 27.0912 96.089 26.8337 96.089 26.5657C96.089 26.2977 95.9849 26.0402 95.7987 25.8475C95.6125 25.6547 95.3587 25.5418 95.0909 25.5326C94.823 25.5418 94.5693 25.6547 94.3831 25.8475C94.1969 26.0402 94.0928 26.2977 94.0928 26.5657C94.0928 26.8337 94.1969 27.0912 94.3831 27.284C94.5693 27.4767 94.823 27.5896 95.0909 27.5989Z" fill="black"/>
<path d="M105.67 26.9377C105.938 26.9284 106.192 26.8155 106.378 26.6228C106.564 26.43 106.668 26.1725 106.668 25.9045C106.668 25.6365 106.564 25.379 106.378 25.1863C106.192 24.9935 105.938 24.8806 105.67 24.8714C105.402 24.8806 105.148 24.9935 104.962 25.1863C104.776 25.379 104.672 25.6365 104.672 25.9045C104.672 26.1725 104.776 26.43 104.962 26.6228C105.148 26.8155 105.402 26.9284 105.67 26.9377Z" fill="black"/>
<path d="M76.7415 20.6149C76.3801 20.7651 76.0571 20.9945 75.7963 21.2863C75.5355 21.5781 75.3436 21.9248 75.2349 22.3007C75.0263 23.0435 75.0277 23.8295 75.2388 24.5715C75.7199 26.0894 76.2873 27.5786 76.938 29.0319C77.5194 30.5514 77.9781 32.115 78.3096 33.7078C78.4435 34.4555 78.8133 35.1407 79.3648 35.663C79.6597 35.9194 80.0056 36.1104 80.3797 36.2234C80.7538 36.3364 81.1476 36.3688 81.5352 36.3186C81.1339 36.4358 80.7115 36.4613 80.2991 36.3933C79.8866 36.3252 79.4947 36.1654 79.1524 35.9256C78.4779 35.3873 77.9989 34.6424 77.7888 33.8055C77.385 32.2654 76.8858 30.752 76.294 29.274C76.0186 28.5229 75.7373 27.773 75.4373 27.0298C75.1072 26.2739 74.8667 25.482 74.7207 24.6703C74.5538 23.839 74.6229 22.9776 74.9202 22.1835C75.0785 21.797 75.3261 21.4533 75.6426 21.1807C75.9592 20.9081 76.3357 20.7142 76.7415 20.6149Z" fill="black"/>
<path d="M103.686 31.8554C104.08 32.9012 104.068 34.057 103.652 35.0943C103.422 35.6495 102.996 36.1003 102.454 36.36C101.922 36.573 101.329 36.5781 100.793 36.3743C101.29 36.3108 101.768 36.145 102.198 35.8874C102.566 35.6124 102.851 35.2419 103.022 34.8163C103.367 33.8611 103.59 32.8663 103.686 31.8554Z" fill="black"/>
<path d="M108.646 13.0109C108.505 15.2808 108.501 17.5569 108.632 19.8273C108.7 20.9532 108.83 22.0745 109.021 23.1863C109.221 24.2771 109.539 25.3945 109.73 26.534C110.119 28.8224 110.094 31.1619 109.656 33.4415C109.181 35.6874 108.454 37.8725 107.488 39.9552C108.2 37.7978 108.75 35.5906 109.134 33.3517C109.481 31.1279 109.453 28.8618 109.052 26.6471C108.886 25.5335 108.596 24.4469 108.404 23.2919C108.216 22.1539 108.116 21.0032 108.105 19.8498C108.061 17.558 108.242 15.2674 108.646 13.0109Z" fill="black"/>
<path d="M81.5359 42.6368C81.3989 43.9593 80.906 45.22 80.1096 46.2848C79.7039 46.8257 79.2063 47.2912 78.6396 47.6602C78.0659 48.0152 77.407 48.2087 76.7324 48.2203C77.3049 47.961 77.8402 47.6264 78.324 47.2253C78.7794 46.8154 79.1933 46.3617 79.5598 45.8707C79.9333 45.3716 80.2772 44.8512 80.5898 44.312C80.9039 43.7661 81.2276 43.2149 81.5359 42.6368Z" fill="black"/>
<path d="M80.8868 44.4033C75.8632 45.4236 70.9473 46.9163 66.2047 48.8616C63.7461 49.7542 61.1753 50.3007 58.5662 50.4853C56.0309 50.6332 53.5058 50.9233 51.003 51.3544C50.4384 51.4774 49.8966 51.6883 49.3973 51.9792C48.8236 52.3347 48.2187 52.6373 47.5902 52.8832C46.4468 53.3078 45.3935 53.9436 44.4851 54.7575C42.7513 56.5614 41.326 58.6383 40.2664 60.9049C39.6656 62.0229 39.1861 63.2078 38.6582 64.3684C38.1809 65.5524 37.7012 66.7382 37.2535 67.9368C36.8311 69.1453 36.3831 70.3459 35.9808 71.5628L34.8333 75.2345L34.8306 75.2434L34.8257 75.2574C32.4349 81.2391 30.2623 87.304 28.3079 93.452C27.3399 96.523 26.4254 99.6119 25.6443 102.725C25.2591 104.282 24.8958 105.844 24.6238 107.408C24.4855 108.18 24.3905 108.959 24.3392 109.742C24.3168 110.112 24.3227 110.484 24.3567 110.854C24.3647 111.113 24.4426 111.365 24.5821 111.583L24.2979 111.438C29.9778 112.554 35.6619 113.668 41.3536 114.718L49.8843 116.31L54.1533 117.031C55.539 117.271 56.9358 117.442 58.3386 117.543L58.7534 117.548C58.7544 117.525 58.7434 117.55 58.7686 117.534C58.7967 117.506 58.8284 117.481 58.8628 117.46C59.0524 117.24 59.2105 116.995 59.3325 116.731C59.6234 116.111 59.8639 115.468 60.0518 114.81C60.4355 113.438 60.7426 112.047 60.9717 110.642C61.4534 107.815 61.71 104.942 61.9092 102.067C62.0901 99.1905 62.1489 96.3066 62.0855 93.4157C62.0435 90.5278 61.8718 87.6389 61.5481 84.7619C61.5464 84.7442 61.5516 84.7265 61.5626 84.7126C61.5735 84.6987 61.5895 84.6895 61.607 84.687C61.6246 84.6845 61.6425 84.6888 61.6569 84.6991C61.6713 84.7095 61.6813 84.7249 61.6846 84.7424C62.169 87.6018 62.5032 90.4899 62.7073 93.3894C62.8853 96.2902 62.9379 99.1972 62.8653 102.11C62.7938 105.027 62.5545 107.937 62.1485 110.827C61.9457 112.286 61.6614 113.733 61.2969 115.16C61.1046 115.899 60.8521 116.622 60.5418 117.32C60.3664 117.717 60.1322 118.086 59.847 118.414C59.7452 118.508 59.6343 118.6 59.523 118.686C59.3736 118.776 59.2131 118.847 59.0454 118.895C58.8108 118.918 58.6004 118.917 58.3758 118.924C56.8888 118.837 55.4077 118.668 53.9392 118.418L49.6375 117.714C46.7801 117.208 43.9246 116.702 41.0806 116.141C35.3948 115.006 29.7189 113.831 24.053 112.616L24.0056 112.606C23.9145 112.586 23.8317 112.539 23.7686 112.47C23.4038 112.055 23.1977 111.524 23.1868 110.971C23.1557 110.537 23.158 110.102 23.1936 109.668C23.2663 108.843 23.3851 108.023 23.5496 107.212C23.8641 105.605 24.2711 104.033 24.722 102.477C25.6212 99.3647 26.6478 96.3018 27.7057 93.252C28.7816 90.2084 29.8643 87.1697 30.9786 84.1425L34.3532 75.072L34.3456 75.0946C35.6334 70.0941 37.3066 65.2008 39.35 60.4587C40.3761 58.0196 41.8441 55.7911 43.6801 53.8854C44.68 52.9681 45.8415 52.2444 47.1056 51.751C47.6714 51.5231 48.2196 51.2538 48.7457 50.9451C49.3596 50.5914 50.0259 50.3377 50.7196 50.1939C53.2841 49.7822 55.8702 49.5192 58.465 49.406C59.7343 49.2945 60.9982 49.1591 62.2396 48.9316C63.4833 48.7401 64.7072 48.4368 65.8964 48.0253C70.7247 46.2008 75.7476 44.9398 80.8651 44.2672C80.8832 44.2647 80.9015 44.2694 80.9161 44.2803C80.9307 44.2913 80.9404 44.3076 80.943 44.3257C80.9449 44.3433 80.9402 44.361 80.9298 44.3753C80.9194 44.3896 80.9041 44.3996 80.8868 44.4033Z" fill="black"/>
<path d="M97.1038 58.7335C96.9909 59.3351 96.9623 59.9494 97.0188 60.5588C97.0554 61.1756 97.0955 61.7915 97.1541 62.4072L97.5315 66.0971C97.8028 68.5558 98.1258 71.0091 98.4263 73.4649L98.9046 77.1453C99.2062 78.4396 99.0084 79.8001 98.3506 80.9549C98.1341 81.2293 97.8656 81.4584 97.5605 81.6288C97.2553 81.7993 96.9195 81.9079 96.5724 81.9484C96.2252 81.9889 95.8734 81.9604 95.5372 81.8647C95.201 81.769 94.8871 81.6079 94.6133 81.3906C94.3389 81.1759 94.1115 80.9073 93.945 80.6013C93.7785 80.2954 93.6765 79.9585 93.6453 79.6116L93.4458 77.7671C93.1692 75.3091 92.875 72.8521 92.5 70.4087C92.321 69.1884 92.0776 67.9785 91.7707 66.7839C91.6956 66.4929 91.5921 66.21 91.4617 65.9393C91.4357 65.8791 91.3962 65.8257 91.3462 65.7834C91.2961 65.741 91.237 65.7108 91.1733 65.6952L90.7485 65.5113C90.1812 65.2665 89.6069 65.0365 89.03 64.8133C86.7251 63.9152 84.4036 63.0564 82.0605 62.2693C80.8987 61.9016 79.6919 61.3763 78.5754 61.7442C78.0566 61.9935 77.6257 62.3946 77.3399 62.8943C77.0541 63.3939 76.9269 63.9687 76.9751 64.5423C76.974 64.6072 76.9473 64.6691 76.9006 64.7143C76.8539 64.7595 76.7913 64.7843 76.7263 64.7833C76.6838 64.7823 76.6422 64.7704 76.6056 64.7487C76.5691 64.727 76.5386 64.6963 76.5173 64.6595C75.8681 63.5307 75.1379 62.4505 74.3325 61.4273C73.5536 60.4009 72.6422 59.4822 71.622 58.6951C71.1232 58.3198 70.5658 58.0293 69.9724 57.8354C69.3209 57.6296 68.6944 57.3518 68.1045 57.0071C66.9015 56.3194 65.8848 55.3482 65.1428 54.178C65.1328 54.1618 65.1249 54.1444 65.1194 54.1262L65.113 54.1048C64.9275 53.4166 65.0174 52.6832 65.3635 52.06C65.6827 51.4848 66.101 50.9704 66.5991 50.5406C67.5554 49.7227 68.6092 49.0264 69.7366 48.4674C71.9465 47.3467 74.2603 46.4436 76.6452 45.7712C76.7058 45.7537 76.7703 45.7549 76.8301 45.7748C76.89 45.7947 76.9424 45.8322 76.9805 45.8825C77.0186 45.9328 77.0406 45.9934 77.0435 46.0564C77.0465 46.1194 77.0303 46.1818 76.997 46.2354L76.988 46.25C76.6061 46.8942 76.3588 47.6092 76.261 48.3516C76.2048 48.7296 76.1741 49.1108 76.169 49.4929C76.2022 49.8745 76.1993 50.2613 76.2671 50.6406C76.5246 52.1803 77.101 53.6493 77.9595 54.9532C78.379 55.617 78.8332 56.2582 79.3201 56.8743C79.8524 57.4543 80.3516 58.0667 80.907 58.6276C81.4808 59.1696 82.0257 59.7462 82.6253 60.2627L84.4488 61.7889C84.4524 61.7915 84.4555 61.7949 84.4579 61.7988C84.4602 61.8026 84.4617 61.8069 84.4624 61.8114C84.4631 61.8159 84.4629 61.8204 84.4618 61.8248C84.4607 61.8292 84.4588 61.8334 84.4561 61.837C84.4504 61.8441 84.4422 61.8487 84.4332 61.85C84.4242 61.8513 84.415 61.8491 84.4075 61.844L82.514 60.3942C81.8892 59.9017 81.3162 59.3463 80.7132 58.824C80.1234 58.2873 79.6075 57.6731 79.0533 57.0972C78.5414 56.4803 78.0627 55.8367 77.619 55.1691C76.696 53.8324 76.0627 52.3175 75.7596 50.7216C75.679 50.322 75.6702 49.9091 75.6275 49.5023C75.6228 49.0908 75.6461 48.6795 75.6973 48.2713C75.7879 47.4329 76.053 46.6227 76.4754 45.8929L76.8179 46.3717C74.495 47.0898 72.2359 48.0004 70.0643 49.094C68.9931 49.6294 67.9921 50.2948 67.0838 51.0752C66.6321 51.3851 66.2741 51.813 66.0489 52.3123C65.8236 52.8116 65.7397 53.3631 65.8062 53.9068L65.7764 53.834C66.4481 54.8978 67.365 55.785 68.4503 56.4214C68.9941 56.7466 69.5726 57.0102 70.1749 57.2073C70.8324 57.4293 71.449 57.7576 72.0003 58.1792C73.0626 59.0071 74.0012 59.9826 74.7877 61.076C75.5874 62.1395 76.3087 63.2599 76.9459 64.4281L76.4883 64.5454C76.5054 63.8868 76.6689 63.2402 76.9669 62.6525C77.114 62.3482 77.3212 62.0768 77.576 61.8547C77.8308 61.6326 78.128 61.4643 78.4495 61.3601C79.7864 60.9738 81.0264 61.5798 82.1705 61.9496C84.5086 62.776 86.8187 63.6719 89.1126 64.6073L90.8326 65.3113L91.2621 65.4912C91.3475 65.5176 91.4267 65.561 91.4951 65.6186C91.5635 65.6763 91.6196 65.7471 91.66 65.8269C91.8028 66.1117 91.9167 66.4101 92.0001 66.7176C92.3441 67.9194 92.5587 69.141 92.7884 70.3596C93.2371 72.7988 93.6043 75.25 93.9503 77.7037L94.2027 79.545C94.2293 79.8163 94.3111 80.0792 94.4431 80.3177C94.5752 80.5561 94.7547 80.765 94.9705 80.9314C95.3988 81.2671 95.9425 81.4197 96.4829 81.3558C97.0233 81.2919 97.5164 81.0167 97.8545 80.5904C98.1541 80.1078 98.3369 79.562 98.3885 78.9964C98.4502 78.404 98.429 77.806 98.3255 77.2195L97.888 73.5297C97.5967 71.0697 97.364 68.6027 97.1551 66.1335C97.0486 64.8991 96.9619 63.6624 96.9136 62.4228C96.8836 61.8037 96.8721 61.1828 96.8638 60.5626C96.8337 59.9365 96.8942 59.3094 97.0435 58.7006C97.0462 58.6922 97.0522 58.6852 97.06 58.6812C97.0679 58.6771 97.077 58.6763 97.0854 58.6789C97.0939 58.6816 97.1009 58.6874 97.1051 58.6952C97.1093 58.703 97.1102 58.7121 97.1077 58.7206L97.1038 58.7335Z" fill="black"/>
<path d="M100.203 50.7553C100.687 51.4409 101.115 52.165 101.481 52.9205C101.664 53.3004 101.797 53.705 101.957 54.099C102.089 54.5075 102.186 54.9263 102.247 55.3511C102.4 56.2217 102.328 57.1168 102.039 57.9519C101.713 58.8072 101.095 59.5193 100.293 59.961C100.262 59.9778 100.228 59.9883 100.193 59.9918C100.157 59.9954 100.122 59.992 100.088 59.9818C100.054 59.9716 100.022 59.9548 99.9949 59.9323C99.9675 59.9099 99.9447 59.8823 99.928 59.8511C99.9116 59.8209 99.9012 59.7878 99.8974 59.7537L99.8964 59.7442C99.7851 58.5442 99.5296 57.362 99.1354 56.2232C98.938 55.6609 98.6268 55.1454 98.2211 54.7088C98.0231 54.5111 97.768 54.3804 97.4919 54.3352C97.3567 54.352 97.2263 54.3958 97.1083 54.4639C96.9903 54.532 96.8871 54.623 96.8049 54.7316C96.1201 55.7192 95.6247 56.8254 95.3439 57.9939C94.9953 59.1515 94.7031 60.3353 94.4484 61.5121L94.4533 61.3996L94.7651 63.5468C94.7785 63.6391 94.7555 63.733 94.7009 63.8086C94.6464 63.8843 94.5646 63.9358 94.4728 63.9522C94.381 63.9687 94.2864 63.9488 94.2089 63.8968C94.1315 63.8448 94.0773 63.7648 94.0578 63.6736L94.0563 63.6655C93.8662 62.6551 93.7561 61.6312 93.7272 60.6035C93.6726 59.5844 93.6979 58.5675 93.7446 57.5541C93.8306 55.5295 94.0409 53.5121 94.3742 51.5133C94.3758 51.5043 94.3808 51.4962 94.3883 51.4909C94.3957 51.4855 94.405 51.4834 94.414 51.4848C94.4223 51.4864 94.4298 51.4908 94.435 51.4974C94.4403 51.5039 94.4431 51.5122 94.4428 51.5206C94.3767 53.5404 94.3439 55.5553 94.3444 57.5654C94.3175 59.5588 94.4568 61.5509 94.7609 63.5211L94.052 63.6399L93.802 61.4847L93.8007 61.4736C93.7968 61.4396 93.7989 61.4051 93.8068 61.3718C94.0934 60.1732 94.4508 58.9926 94.8771 57.8362C95.2681 56.6531 95.8585 55.5456 96.623 54.5616C96.73 54.4305 96.8627 54.3226 97.0129 54.2447C97.1631 54.1668 97.3277 54.1204 97.4965 54.1085C97.8256 54.1618 98.1293 54.3183 98.3637 54.5554C98.8083 55.0005 99.1558 55.5329 99.3842 56.119C99.8781 57.2577 100.236 58.4507 100.45 59.6732L100.054 59.4566C100.699 59.0493 101.195 58.4445 101.469 57.7321C101.748 56.9944 101.834 56.1976 101.719 55.4172C101.699 55.0183 101.574 54.6278 101.514 54.2276C101.389 53.8412 101.292 53.4427 101.143 53.0609C100.978 52.6856 100.851 52.2917 100.676 51.9169L100.144 50.7911C100.142 50.7871 100.141 50.7828 100.14 50.7782C100.14 50.7737 100.14 50.7692 100.141 50.7648C100.143 50.7605 100.145 50.7564 100.148 50.7529C100.151 50.7494 100.154 50.7465 100.158 50.7444C100.166 50.7407 100.174 50.7398 100.182 50.7418C100.191 50.7438 100.198 50.7486 100.203 50.7553Z" fill="black"/>
<path d="M95.2148 67.1888C95.4826 67.1795 95.7363 67.0666 95.9225 66.8739C96.1087 66.6811 96.2127 66.4236 96.2127 66.1556C96.2127 65.8877 96.1087 65.6302 95.9225 65.4374C95.7363 65.2447 95.4826 65.1318 95.2148 65.1225C94.9469 65.1318 94.6932 65.2447 94.507 65.4374C94.3208 65.6302 94.2168 65.8877 94.2168 66.1556C94.2168 66.4236 94.3208 66.6811 94.507 66.8739C94.6932 67.0666 94.9469 67.1795 95.2148 67.1888Z" fill="black"/>
<path d="M95.9579 72.8917C96.2257 72.8824 96.4795 72.7695 96.6656 72.5767C96.8518 72.384 96.9559 72.1265 96.9559 71.8585C96.9559 71.5905 96.8518 71.333 96.6656 71.1403C96.4795 70.9476 96.2257 70.8347 95.9579 70.8254C95.6901 70.8347 95.4364 70.9476 95.2502 71.1403C95.064 71.333 94.96 71.5905 94.96 71.8585C94.96 72.1265 95.064 72.384 95.2502 72.5767C95.4364 72.7695 95.6901 72.8824 95.9579 72.8917Z" fill="black"/>
<path d="M96.5782 78.3467C96.846 78.3374 97.0998 78.2245 97.286 78.0318C97.4722 77.8391 97.5763 77.5815 97.5763 77.3135C97.5763 77.0455 97.4722 76.788 97.286 76.5953C97.0998 76.4025 96.846 76.2896 96.5782 76.2804C96.3103 76.2896 96.0566 76.4025 95.8704 76.5953C95.6842 76.788 95.5801 77.0455 95.5801 77.3135C95.5801 77.5815 95.6842 77.8391 95.8704 78.0318C96.0566 78.2245 96.3103 78.3374 96.5782 78.3467Z" fill="black"/>
<path d="M103.166 48.8171C107.296 48.9199 111.421 49.1939 115.535 49.6169C117.593 49.8162 119.643 50.1048 121.688 50.4526C123.767 50.7425 125.802 51.2963 127.742 52.1005C127.996 52.2266 128.234 52.3825 128.452 52.5648C128.652 52.746 128.842 52.9388 129.019 53.1422C129.361 53.5115 129.733 53.8649 130.102 54.229C130.866 54.9534 131.555 55.7525 132.16 56.6144C133.316 58.3681 134.175 60.3006 134.701 62.334C135.739 66.3457 136.382 70.4492 136.622 74.586C136.122 70.4968 135.31 66.4517 134.194 62.486C133.63 60.5297 132.771 58.6708 131.646 56.9735C131.056 56.1505 130.385 55.3889 129.642 54.7002C129.273 54.3435 128.893 53.9892 128.529 53.6048C128.229 53.2308 127.851 52.9257 127.423 52.7098C125.55 51.9208 123.586 51.3694 121.577 51.0684C119.556 50.6935 117.514 50.4213 115.473 50.1407C111.385 49.6097 107.278 49.2033 103.166 48.8171Z" fill="black"/>
<path d="M46.4912 57.5552C48.3947 57.1522 50.3777 57.3814 52.1392 58.2079C53.9053 59.0558 55.4137 60.3586 56.5095 61.9826C57.0569 62.7812 57.5338 63.626 57.9348 64.5073C58.3145 65.3904 58.6467 66.2932 58.9299 67.2119C59.1372 68.1485 59.3933 69.072 59.5569 70.0112C59.6649 70.9615 59.7952 71.905 59.8807 72.8503C59.6404 71.9262 59.4449 71.0002 59.2269 70.0812C58.9981 69.1656 58.6883 68.2727 58.4251 67.3719C58.0728 66.5032 57.7615 65.6168 57.367 64.7726C56.9627 63.9355 56.4876 63.1345 55.9468 62.3784C54.9323 60.8265 53.5432 59.5552 51.9078 58.6818C50.243 57.8074 48.3665 57.4171 46.4912 57.5552Z" fill="black"/>
<path d="M70.9561 101.117C71.4309 102.381 71.9311 103.632 72.5129 104.846C73.0632 106.074 73.6672 107.275 74.3074 108.455C75.5741 110.818 77.0218 113.08 78.6377 115.219C80.2305 117.372 82.0422 119.353 84.0437 121.131L85.5723 122.436C86.0957 122.853 86.6611 123.214 87.2029 123.61L88.0186 124.204C88.301 124.384 88.5964 124.545 88.8853 124.717L90.627 125.747C88.128 124.682 85.795 123.263 83.6995 121.534C81.6111 119.787 79.7287 117.807 78.0889 115.634C76.4716 113.45 75.0494 111.129 73.8386 108.697C72.6255 106.273 71.6598 103.734 70.9561 101.117Z" fill="black"/>
<path d="M27.9227 112.795C27.8927 116.915 27.8019 121.032 27.7347 125.15C27.6791 129.268 27.5397 133.384 27.4457 137.501L27.443 137.536L27.4371 137.574C27.1856 139.219 27.3956 140.902 28.0438 142.435C28.7318 143.916 29.9666 145.073 31.4891 145.664C31.8805 145.791 32.2636 145.938 32.6591 146.053L33.8861 146.291C34.7355 146.416 35.6122 146.508 36.4786 146.603C38.2172 146.788 39.9592 146.952 41.7047 147.096C48.6835 147.683 55.6847 147.984 62.6823 148.141C69.6769 148.301 76.675 148.07 83.6437 147.448C90.568 146.779 97.6014 145.718 103.892 142.705C103.954 142.676 104.024 142.67 104.09 142.689C104.155 142.708 104.211 142.75 104.247 142.808C104.743 143.581 105.43 144.212 106.241 144.641C107.069 145.078 107.984 145.326 108.919 145.368C109.867 145.404 110.815 145.304 111.735 145.071C112.192 144.937 112.649 144.797 113.103 144.647L114.431 144.096L113.133 144.721C112.686 144.897 112.233 145.063 111.778 145.224C110.849 145.515 109.881 145.662 108.908 145.66C107.909 145.673 106.921 145.444 106.03 144.993C105.138 144.542 104.368 143.882 103.787 143.069L104.141 143.172C100.998 144.81 97.6518 146.027 94.1901 146.79C90.7501 147.58 87.2677 148.172 83.7599 148.563C76.7518 149.279 69.7075 149.58 62.6639 149.465C55.6256 149.42 48.6002 148.973 41.5948 148.348C39.8431 148.189 38.0928 148.009 36.3441 147.808C35.4674 147.704 34.5987 147.607 33.7139 147.469L32.3592 147.195C31.9146 147.063 31.4766 146.894 31.0367 146.742C29.2616 146.014 27.8421 144.62 27.0816 142.858C26.3895 141.124 26.2002 139.23 26.5355 137.393L26.5269 137.466C26.7449 133.354 26.9178 129.24 27.1744 125.129C27.4191 121.018 27.6405 116.905 27.9227 112.795Z" fill="black"/>
<path d="M53.4367 117.632C53.5513 119.896 53.6159 122.16 53.6946 124.424L53.5393 124.188C61.5055 127.044 69.8685 128.64 78.3266 128.917C82.5313 129.045 86.7374 128.715 90.8708 127.935L93.9487 127.269C94.9653 127.011 95.9512 126.646 96.9553 126.34L98.4597 125.869C98.9499 125.683 99.426 125.461 99.9106 125.259L102.812 124.016L102.565 124.388C102.679 123.7 102.949 123.048 103.354 122.481C103.731 121.931 104.2 121.451 104.741 121.063C105.798 120.314 107.013 119.817 108.291 119.612C108.913 119.504 109.54 119.428 110.169 119.384C110.797 119.384 111.423 119.33 112.046 119.376C112.669 119.428 113.294 119.427 113.91 119.522L115.753 119.796L113.897 119.692C113.28 119.661 112.661 119.69 112.046 119.685C111.429 119.681 110.819 119.777 110.209 119.818C109.605 119.901 109.007 120.016 108.415 120.161C107.254 120.437 106.162 120.951 105.209 121.67C104.303 122.35 103.687 123.346 103.484 124.461L103.48 124.492C103.47 124.564 103.443 124.632 103.401 124.692C103.359 124.751 103.303 124.8 103.238 124.833C99.4277 126.857 95.3511 128.335 91.1284 129.221C86.9044 130.076 82.5939 130.426 78.2873 130.265C73.9959 130.108 69.7283 129.553 65.5395 128.606C63.4534 128.118 61.3838 127.566 59.3464 126.913C57.2975 126.288 55.2896 125.536 53.3344 124.661L53.3224 124.656C53.2783 124.636 53.2411 124.603 53.2156 124.562C53.19 124.521 53.1773 124.473 53.1788 124.424C53.2578 122.16 53.3222 119.896 53.4367 117.632Z" fill="black"/>
<path d="M33.4326 129.641C34.5121 128.154 35.8889 126.907 37.4756 125.979C39.0636 125.039 40.7827 124.34 42.5764 123.906C43.4787 123.723 44.3913 123.596 45.3091 123.525C46.223 123.435 47.1426 123.42 48.0589 123.48C48.9751 123.501 49.878 123.685 50.7827 123.783C51.6753 123.975 52.5613 124.192 53.4366 124.425C52.5276 124.344 51.6367 124.195 50.7388 124.118C49.8372 124.09 48.9429 123.965 48.0454 124.01C46.258 124.001 44.4752 124.191 42.7298 124.577C40.9905 124.972 39.3117 125.598 37.7376 126.437C36.141 127.269 34.6876 128.35 33.4326 129.641Z" fill="black"/>
<path d="M103.024 124.425C103.299 125.024 103.624 125.599 103.996 126.144C104.347 126.677 104.799 127.136 105.326 127.496C105.457 127.574 105.593 127.64 105.735 127.695C105.927 127.767 106.101 127.881 106.243 128.028C106.371 128.194 106.455 128.388 106.488 128.594C106.521 128.801 106.503 129.012 106.434 129.209C106.209 129.882 105.843 130.5 105.36 131.021L105.356 131.025L105.337 131.044C104.822 131.529 104.435 132.132 104.208 132.802C104.104 133.118 104.071 133.453 104.113 133.783C104.154 134.113 104.269 134.43 104.449 134.71C104.783 135.253 105.516 135.782 105.797 136.616C105.884 136.831 105.923 137.063 105.911 137.295C105.899 137.527 105.837 137.753 105.729 137.958C105.492 138.338 105.137 138.629 104.718 138.786L104.811 138.722C104.268 139.295 103.854 139.976 103.594 140.721C103.468 141.093 103.429 141.489 103.481 141.878C103.568 142.27 103.752 142.635 104.016 142.938C103.693 142.67 103.451 142.315 103.32 141.915C103.215 141.499 103.209 141.064 103.3 140.645C103.388 140.228 103.538 139.828 103.747 139.456C103.946 139.08 104.181 138.724 104.449 138.394C104.465 138.374 104.485 138.358 104.508 138.346L104.542 138.33C104.833 138.194 105.073 137.97 105.229 137.689C105.29 137.553 105.322 137.405 105.323 137.256C105.323 137.107 105.292 136.959 105.231 136.823C105.007 136.179 104.401 135.78 103.898 135.064C103.655 134.706 103.496 134.298 103.434 133.87C103.385 133.442 103.431 133.008 103.569 132.6C103.846 131.824 104.313 131.129 104.928 130.579L104.904 130.602C105.33 130.153 105.667 129.627 105.898 129.052C105.951 128.941 105.976 128.817 105.971 128.693C105.965 128.569 105.929 128.449 105.866 128.342C105.781 128.247 105.678 128.171 105.563 128.118C105.4 128.042 105.244 127.953 105.096 127.851C104.543 127.434 104.094 126.895 103.784 126.276C103.463 125.689 103.208 125.068 103.024 124.425Z" fill="black"/>
<path d="M115.34 125.12C115.319 125.54 115.298 125.954 115.278 126.367C114.444 126.36 113.604 126.326 112.771 126.236C111.79 126.156 110.817 125.993 109.864 125.747C110.817 125.501 111.79 125.338 112.771 125.258C113.625 125.169 114.486 125.134 115.34 125.12Z" fill="black"/>
<path d="M115.119 129.756C115.092 130.176 115.078 130.589 115.057 130.995C114.293 130.982 113.535 130.947 112.771 130.865C111.79 130.785 110.817 130.621 109.864 130.375C110.817 130.13 111.79 129.966 112.771 129.886C113.556 129.804 114.334 129.769 115.119 129.756Z" fill="black"/>
<path d="M114.913 134.219C114.899 134.639 114.878 135.052 114.865 135.459C114.169 135.438 113.466 135.403 112.771 135.328C111.79 135.248 110.817 135.085 109.864 134.839C110.817 134.593 111.79 134.429 112.771 134.35C113.487 134.274 114.203 134.239 114.913 134.219Z" fill="black"/>
<path d="M112.771 139.681C113.418 139.612 114.066 139.577 114.706 139.557C114.686 139.977 114.672 140.383 114.658 140.776C114.031 140.762 113.398 140.728 112.771 140.659C111.79 140.579 110.817 140.416 109.864 140.17C110.817 139.924 111.79 139.76 112.771 139.681Z" fill="black"/>
<path d="M91.5404 149.932C91.5404 149.932 79.1313 137.668 74.4984 145.621C69.8655 153.575 73.0504 159.409 76.4925 163.346C80.686 168.142 80.8968 169.578 82.1411 170.999C83.3853 172.419 97.4311 189.591 114.937 188.626C125.149 188.063 124.976 182.621 123.058 178.184C121.664 175.041 119.424 172.348 116.588 170.404C110.995 166.495 98.4984 157.444 91.5404 149.932Z" fill="black"/>
<path d="M87.3076 146.428C89.9761 146.554 92.6375 146.733 95.2991 146.907L103.279 147.449C105.936 147.659 108.597 147.813 111.256 147.955C112.585 148.037 113.916 148.085 115.246 148.107C115.909 148.106 116.578 148.154 117.24 148.106L118.236 148.058L119.222 147.903C116.596 148.436 113.914 148.631 111.239 148.484C108.565 148.452 105.898 148.292 103.232 148.135C100.57 147.926 97.9085 147.717 95.2539 147.433C92.5994 147.149 89.9478 146.836 87.3076 146.428Z" fill="black"/>
<path d="M113.865 168.82C113.79 168.82 113.716 168.795 113.656 168.75C113.596 168.704 113.553 168.639 113.533 168.567C113.513 168.494 113.517 168.416 113.546 168.346C113.574 168.276 113.624 168.217 113.689 168.179C114.228 167.861 126.947 160.394 131.706 161.946C131.792 161.975 131.864 162.037 131.905 162.118C131.945 162.2 131.952 162.294 131.924 162.38C131.896 162.467 131.834 162.539 131.753 162.58C131.672 162.621 131.578 162.629 131.491 162.601C127.029 161.139 114.169 168.695 114.04 168.773C113.987 168.804 113.927 168.82 113.865 168.82Z" fill="black"/>
<path d="M189.905 118.185L189.912 118.184L189.937 118.189L219.937 129.307L219.964 129.318C222.946 130.713 225.784 132.398 228.435 134.35C231.113 136.305 233.471 138.662 235.427 141.339C236.434 142.689 237.225 144.188 237.771 145.78C238.299 147.349 238.711 148.955 239.006 150.584C239.675 153.895 239.444 157.324 238.337 160.516C237.717 162.104 236.805 163.562 235.648 164.816C234.483 166.05 233.123 167.083 231.621 167.875C230.13 168.662 228.541 169.246 226.895 169.611C226.076 169.784 225.248 169.906 224.415 169.979L221.98 170.245C215.488 170.939 208.998 171.644 202.5 172.277C189.505 173.549 176.507 174.794 163.48 175.753C160.224 175.996 156.966 176.223 153.704 176.41C150.435 176.573 147.191 176.801 143.868 176.655C142.162 176.515 140.54 175.855 139.22 174.764C137.924 173.718 136.785 172.492 135.836 171.123C133.962 168.411 132.453 165.465 131.349 162.359C131.334 162.318 131.33 162.274 131.336 162.231C131.343 162.187 131.36 162.147 131.387 162.112C131.413 162.077 131.448 162.05 131.488 162.032C131.528 162.014 131.571 162.007 131.615 162.011L131.624 162.011C133.018 162.191 134.431 162.186 135.825 161.998C136.48 161.872 137.174 161.61 137.364 161.054C137.481 160.41 137.354 159.745 137.007 159.19C136.322 157.954 135.521 156.785 134.614 155.701C133.727 154.585 132.809 153.49 131.898 152.387C130.987 151.284 130.082 150.174 129.205 149.04C128.375 147.9 127.37 146.897 126.229 146.068C125.695 145.642 125.067 145.348 124.397 145.211C123.727 145.074 123.035 145.098 122.376 145.28C121.094 145.797 120.048 146.768 119.439 148.009L119.431 148.022C119.409 148.064 119.375 148.097 119.334 148.119C119.292 148.141 119.245 148.151 119.199 148.146C119.152 148.141 119.108 148.123 119.072 148.094C119.035 148.064 119.008 148.024 118.994 147.98C118.544 146.593 118.309 145.145 118.297 143.686C118.293 142.943 118.41 142.204 118.645 141.498C118.887 140.764 119.347 140.122 119.964 139.657L119.929 139.688C120.493 139.193 121.141 138.804 121.843 138.537C122.509 138.259 123.19 138.016 123.882 137.808C125.257 137.388 126.649 137.047 128.046 136.737C130.84 136.124 133.655 135.633 136.475 135.186C142.117 134.301 147.782 133.6 153.452 132.964C164.794 131.692 176.158 130.681 187.542 129.844L187.048 130.314C187.765 125.78 188.696 121.404 189.575 116.962L192.311 103.696L197.808 77.169L198.063 77.8626C197.448 77.521 196.782 77.2808 196.09 77.1513C195.338 76.9793 194.566 76.8372 193.785 76.7233C192.225 76.4868 190.64 76.3256 189.055 76.1841C185.881 75.9051 182.688 75.7405 179.495 75.5958C173.107 75.3123 166.706 75.1807 160.304 75.1052C147.501 74.9569 134.687 75.0692 121.884 75.2465L122.347 75.0432C121.92 75.5782 121.59 76.1839 121.372 76.8329C121.11 77.5226 120.889 78.2437 120.692 78.9738C120.298 80.4364 119.99 81.9363 119.713 83.4418C119.164 86.4568 118.747 89.5061 118.379 92.5609C117.651 98.6735 117.122 104.817 116.666 110.964C116.215 117.114 115.836 123.27 115.531 129.431C115.191 135.583 114.965 141.753 114.734 147.912L114.734 147.918C114.731 147.997 114.697 148.072 114.639 148.126C114.582 148.18 114.505 148.21 114.426 148.208L88.1743 147.526C88.1562 147.525 88.139 147.517 88.1265 147.504C88.114 147.491 88.1071 147.474 88.1074 147.456C88.1078 147.437 88.1152 147.42 88.1282 147.407C88.1412 147.395 88.1586 147.388 88.1767 147.388L114.436 147.601L114.128 147.897C114.285 141.723 114.462 135.56 114.741 129.388C114.99 123.227 115.309 117.064 115.7 110.898C116.099 104.736 116.569 98.5772 117.242 92.43C117.582 89.3567 117.972 86.2862 118.499 83.2254C118.766 81.6954 119.064 80.1676 119.457 78.6469C119.655 77.8866 119.878 77.1282 120.156 76.3729C120.425 75.5545 120.844 74.7935 121.393 74.1289C121.447 74.0673 121.514 74.0174 121.589 73.9826C121.664 73.9477 121.745 73.9285 121.827 73.9262L121.856 73.9255C128.268 73.7598 134.676 73.701 141.086 73.6537C147.497 73.6131 153.908 73.6201 160.32 73.675C166.732 73.7402 173.145 73.8615 179.56 74.1357C182.767 74.2794 185.974 74.4691 189.183 74.7613C190.787 74.9113 192.391 75.0808 193.998 75.3312C194.801 75.452 195.605 75.6024 196.414 75.791C197.299 75.9594 198.146 76.2893 198.911 76.7642C199.015 76.8338 199.096 76.9328 199.143 77.0485C199.19 77.1643 199.201 77.2915 199.175 77.4137L199.166 77.4582L193.558 103.955L190.74 117.2C189.825 121.606 188.842 126.059 188.107 130.437L188.102 130.465C188.082 130.583 188.023 130.691 187.934 130.771C187.845 130.852 187.732 130.9 187.612 130.907C176.241 131.64 164.871 132.546 153.533 133.713C147.866 134.312 142.205 134.975 136.573 135.822C133.759 136.25 130.95 136.721 128.171 137.312C126.782 137.611 125.4 137.94 124.046 138.345C123.371 138.542 122.706 138.775 122.055 139.041C121.42 139.278 120.83 139.622 120.312 140.059L120.302 140.068L120.276 140.09C119.743 140.489 119.345 141.041 119.135 141.673C118.916 142.324 118.804 143.007 118.804 143.693C118.809 145.096 119.027 146.489 119.451 147.826L119.006 147.797C119.678 146.446 120.828 145.395 122.234 144.848C122.958 144.649 123.719 144.624 124.456 144.775C125.192 144.925 125.882 145.248 126.47 145.716C127.639 146.58 128.673 147.613 129.54 148.78C130.417 149.904 131.325 151.006 132.24 152.103C133.155 153.201 134.08 154.292 134.978 155.411C135.911 156.517 136.737 157.71 137.442 158.974C137.858 159.645 137.997 160.451 137.83 161.222C137.677 161.616 137.384 161.939 137.007 162.129C136.666 162.303 136.301 162.426 135.924 162.495C134.482 162.701 133.019 162.714 131.573 162.536L131.848 162.189C132.942 165.239 134.449 168.125 136.329 170.765C137.258 172.072 138.368 173.24 139.627 174.233C140.85 175.227 142.35 175.819 143.923 175.929C147.124 176.031 150.407 175.769 153.65 175.565C156.902 175.341 160.153 175.075 163.403 174.795C176.401 173.643 189.392 172.397 202.378 171.059L221.857 169.082C223.468 168.886 225.138 168.811 226.651 168.491C228.197 168.155 229.692 167.614 231.095 166.882C233.926 165.462 236.144 163.06 237.332 160.124C238.382 157.116 238.608 153.881 237.987 150.756C237.711 149.171 237.325 147.606 236.831 146.075C236.331 144.571 235.6 143.153 234.666 141.873C232.792 139.249 230.522 136.932 227.939 135.003C225.352 133.053 222.578 131.364 219.659 129.959L219.685 129.97L189.888 118.318L189.912 118.322L189.905 118.322C189.887 118.322 189.869 118.315 189.856 118.302C189.844 118.289 189.836 118.272 189.836 118.253C189.836 118.235 189.844 118.218 189.856 118.205C189.869 118.192 189.887 118.185 189.905 118.185L189.905 118.185Z" fill="black"/>
<path d="M121.869 74.586C116.828 80.289 114.431 147.904 114.431 147.904H119.224C119.224 147.904 117.22 141.967 120.12 139.874C125.389 134.446 187.577 130.376 187.577 130.376C187.715 129.184 188.644 124.445 189.912 118.253C193.121 102.488 198.487 77.3137 198.487 77.3137C193.032 73.0983 121.869 74.586 121.869 74.586ZM157.079 105.58C151.052 105.58 146.169 104.134 146.169 102.357C146.169 100.58 151.052 99.1335 157.079 99.1335C163.105 99.1335 167.989 100.58 167.989 102.357C167.989 104.134 163.105 105.58 157.079 105.58V105.58Z" fill="black"/>
<path d="M52.3777 148.475C51.5793 153.224 51.1611 158.029 51.127 162.844C51.0519 167.644 51.5113 172.438 52.4969 177.137C53.5506 181.772 55.378 186.352 58.5909 189.824C60.2305 191.526 62.1322 192.954 64.2237 194.054L65.7854 194.923C66.3094 195.208 66.8597 195.449 67.3955 195.714C68.4705 196.238 69.5491 196.756 70.6607 197.211C75.0616 199.118 79.585 200.765 84.1504 202.28C88.7124 203.807 93.3184 205.208 97.9395 206.561C107.177 209.3 116.503 211.686 125.854 214.073C128.249 214.71 130.492 215.819 132.451 217.336C134.411 218.853 136.047 220.746 137.263 222.905C137.864 223.98 138.361 225.109 138.749 226.278C139.103 227.449 139.37 228.644 139.548 229.855L140.734 236.989C142.367 246.493 143.946 256.006 145.643 265.499L155.834 322.454L155.356 322.041C162.47 322.144 169.603 322.05 176.704 321.669C180.254 321.48 183.8 321.213 187.309 320.751C189.055 320.528 190.787 320.214 192.5 319.812C193.34 319.614 194.165 319.363 194.972 319.059C195.718 318.801 196.404 318.396 196.992 317.869L196.818 318.349C196.311 306.152 195.704 293.954 195.072 281.76C194.432 269.566 193.641 257.382 192.842 245.199C192.006 233.019 191.048 220.845 189.731 208.711C189.071 202.644 188.296 196.59 187.325 190.569C186.83 187.561 186.282 184.559 185.545 181.603C185.19 180.124 184.745 178.667 184.214 177.242C183.949 176.532 183.624 175.846 183.242 175.192C183.081 174.858 182.856 174.558 182.58 174.311C182.303 174.063 181.981 173.873 181.631 173.75L181.625 173.749C181.607 173.746 181.592 173.735 181.581 173.72C181.571 173.705 181.568 173.686 181.571 173.669C181.575 173.651 181.585 173.635 181.6 173.625C181.615 173.615 181.634 173.611 181.652 173.614C182.027 173.732 182.375 173.923 182.676 174.177C182.976 174.43 183.223 174.741 183.402 175.092C183.806 175.747 184.152 176.437 184.438 177.152C185.005 178.576 185.486 180.034 185.878 181.516C186.686 184.47 187.303 187.469 187.867 190.474C188.981 196.49 189.781 202.553 190.53 208.618C191.996 220.754 193.102 232.927 194.085 245.107C195.089 257.286 195.809 269.484 196.5 281.683C197.191 293.882 197.748 306.087 198.172 318.299L198.173 318.321C198.176 318.405 198.162 318.489 198.131 318.568C198.101 318.646 198.056 318.718 197.997 318.779C197.269 319.463 196.404 319.984 195.459 320.309C194.595 320.63 193.712 320.894 192.814 321.101C191.053 321.506 189.272 321.819 187.478 322.039C183.912 322.489 180.339 322.738 176.766 322.91C169.618 323.214 162.477 323.222 155.33 323.038C155.215 323.035 155.104 322.992 155.017 322.917C154.93 322.841 154.871 322.738 154.852 322.625L145.193 265.577C143.582 256.07 141.853 246.583 140.177 237.086L138.882 229.971C138.692 228.798 138.415 227.64 138.054 226.508C137.665 225.393 137.172 224.317 136.58 223.296C135.393 221.258 133.81 219.478 131.925 218.061C130.04 216.644 127.891 215.618 125.604 215.043C116.225 212.842 106.867 210.424 97.5953 207.739C92.9541 206.409 88.3521 204.938 83.7754 203.389C79.199 201.841 74.6604 200.159 70.2239 198.206C69.1057 197.741 68.0139 197.21 66.9253 196.671C66.3823 196.398 65.8284 196.152 65.2944 195.858L63.7015 194.96C61.5253 193.797 59.5571 192.281 57.877 190.474C54.5528 186.77 52.7622 182.028 51.7549 177.3C50.8091 172.54 50.4355 167.684 50.6421 162.835C50.7921 158.004 51.3273 153.193 52.2427 148.448C52.2462 148.43 52.2567 148.414 52.2719 148.404C52.287 148.393 52.3056 148.39 52.3235 148.393C52.3413 148.397 52.3568 148.408 52.3669 148.423C52.3769 148.438 52.3808 148.457 52.3777 148.475Z" fill="black"/>
<path d="M166.501 331.342C166.501 331.342 160.55 330.722 160.55 333.573C160.55 336.425 161.046 357.253 163.525 357.873C166.005 358.493 238.655 383.536 257.995 363.204C257.995 363.204 271.385 355.765 246.094 347.087C220.802 338.408 204.933 329.73 204.933 329.73C204.933 329.73 180.882 330.474 180.386 332.953C179.89 335.433 183.609 344.359 183.609 344.359C183.609 344.359 167.74 348.078 166.501 331.342Z" fill="black"/>
<path d="M166.501 331.687C166.472 331.686 166.444 331.683 166.416 331.676C166.327 331.653 166.251 331.596 166.205 331.517C166.158 331.439 166.145 331.345 166.168 331.256C166.495 329.823 166.536 328.34 166.29 326.891C166.043 325.442 165.514 324.056 164.731 322.812C164.705 322.775 164.687 322.733 164.677 322.689C164.667 322.645 164.666 322.599 164.674 322.554C164.682 322.51 164.699 322.467 164.723 322.429C164.747 322.391 164.779 322.358 164.816 322.332C164.853 322.306 164.895 322.288 164.939 322.278C164.983 322.268 165.029 322.267 165.073 322.275C165.118 322.283 165.16 322.3 165.199 322.324C165.237 322.348 165.27 322.38 165.296 322.417C166.145 323.738 166.719 325.217 166.983 326.766C167.248 328.314 167.197 329.9 166.835 331.428C166.816 331.502 166.773 331.568 166.712 331.614C166.652 331.661 166.577 331.687 166.501 331.687Z" fill="black"/>
<path d="M201.958 330.074L201.947 330.073C194.451 329.823 187.123 322.004 186.815 321.672C186.784 321.639 186.76 321.6 186.744 321.558C186.728 321.515 186.721 321.47 186.723 321.425C186.725 321.38 186.735 321.335 186.754 321.294C186.773 321.253 186.8 321.216 186.833 321.185C186.866 321.154 186.905 321.13 186.947 321.115C186.99 321.099 187.035 321.092 187.08 321.093C187.125 321.095 187.17 321.106 187.211 321.124C187.252 321.143 187.289 321.17 187.32 321.203C187.393 321.283 194.763 329.145 201.97 329.386C202.06 329.389 202.146 329.427 202.208 329.493C202.27 329.558 202.304 329.646 202.303 329.736C202.301 329.826 202.264 329.912 202.2 329.976C202.135 330.039 202.049 330.074 201.958 330.074V330.074Z" fill="black"/>
<path d="M29.0811 144.815C29.0308 144.805 28.981 144.805 28.9312 144.795L28.8711 144.735C28.9427 144.758 29.0128 144.784 29.0811 144.815Z" fill="white"/>
<path d="M50.8604 168.425V168.485C50.8906 168.305 50.9204 168.135 50.9507 167.955C50.9204 168.115 50.8906 168.265 50.8604 168.425Z" fill="white"/>
<path d="M188.391 194.665V194.685C188.351 194.695 188.32 194.705 188.28 194.715C188.32 194.695 188.351 194.685 188.391 194.665Z" fill="white"/>
<path d="M19.0718 202.03L20.2493 222.74L21.3235 243.453C21.6899 250.357 22.1751 257.257 22.2947 264.17C22.3477 267.627 22.4004 271.084 22.364 274.544L22.3067 279.735C22.2464 281.466 22.2247 283.196 22.1299 284.929C22.1285 284.955 22.1174 284.979 22.099 284.998C22.0805 285.016 22.056 285.026 22.0301 285.027C22.0042 285.028 21.979 285.019 21.9592 285.003C21.9395 284.986 21.9267 284.963 21.9234 284.937C21.7012 283.216 21.5523 281.492 21.3645 279.769L20.9248 274.597C20.6336 271.149 20.4316 267.698 20.2297 264.246C19.8396 257.343 19.815 250.426 19.6716 243.514L19.2168 222.778L18.8652 202.038C18.8648 202.011 18.875 201.985 18.8936 201.965C18.9122 201.946 18.9378 201.934 18.9648 201.933C18.9918 201.932 19.0181 201.942 19.0381 201.96C19.0581 201.978 19.0702 202.003 19.0718 202.03V202.03Z" fill="black"/>
<path d="M75.3577 241.21L75.9363 262.3L76.4116 283.391C76.5784 290.421 76.8638 297.45 76.7835 304.482C76.7366 307.998 76.6895 311.515 76.5532 315.031L76.3457 320.307C76.2354 322.065 76.1638 323.824 76.0191 325.583C76.0169 325.609 76.0052 325.633 75.9862 325.65C75.9672 325.668 75.9423 325.678 75.9164 325.678C75.8905 325.678 75.8655 325.669 75.8462 325.651C75.8269 325.634 75.8148 325.61 75.8123 325.584C75.6402 323.828 75.5408 322.071 75.4028 320.314L75.1128 315.043C74.9214 311.528 74.8194 308.013 74.7173 304.498C74.5269 297.468 74.7022 290.436 74.7586 283.404L74.9034 262.308L75.1512 241.211C75.1515 241.184 75.1624 241.159 75.1816 241.139C75.2008 241.12 75.2266 241.11 75.2536 241.109C75.2807 241.109 75.3067 241.12 75.3262 241.138C75.3456 241.157 75.3569 241.183 75.3577 241.21L75.3577 241.21Z" fill="black"/>
<path d="M22.0266 285.05C26.8652 285.05 30.7877 284.31 30.7877 283.397C30.7877 282.484 26.8652 281.744 22.0266 281.744C17.1881 281.744 13.2656 282.484 13.2656 283.397C13.2656 284.31 17.1881 285.05 22.0266 285.05Z" fill="black"/>
<path d="M75.5852 325.921C80.4238 325.921 84.3463 325.181 84.3463 324.268C84.3463 323.355 80.4238 322.615 75.5852 322.615C70.7467 322.615 66.8242 323.355 66.8242 324.268C66.8242 325.181 70.7467 325.921 75.5852 325.921Z" fill="black"/>
<path d="M133.85 227.569L134.62 237.245L135.287 246.924C135.496 250.151 135.884 253.372 135.852 256.608C135.875 259.858 135.684 263.107 135.28 266.333C135.276 266.357 135.265 266.38 135.246 266.396C135.228 266.413 135.204 266.422 135.18 266.423C135.155 266.424 135.131 266.416 135.111 266.401C135.092 266.386 135.078 266.365 135.073 266.34C134.432 263.153 134.003 259.927 133.787 256.684C133.516 253.459 133.665 250.219 133.635 246.985L133.588 237.283L133.643 227.577C133.643 227.55 133.654 227.525 133.672 227.506C133.691 227.486 133.716 227.475 133.743 227.474C133.77 227.473 133.796 227.483 133.815 227.5C133.835 227.518 133.848 227.543 133.85 227.569Z" fill="black"/>
<path d="M210.824 205.412L211.401 226.256L211.874 247.1C212.04 254.048 212.325 260.996 212.244 267.946C212.197 271.421 212.149 274.896 212.013 278.372L211.805 283.586C211.694 285.324 211.622 287.062 211.477 288.8C211.475 288.826 211.464 288.85 211.445 288.868C211.426 288.885 211.401 288.895 211.375 288.895C211.349 288.896 211.324 288.886 211.305 288.869C211.285 288.852 211.273 288.828 211.271 288.802C211.099 287.066 211 285.329 210.862 283.593L210.572 278.383C210.381 274.91 210.279 271.436 210.178 267.962C209.988 261.014 210.164 254.063 210.221 247.113L210.368 226.264L210.617 205.413C210.618 205.386 210.628 205.36 210.648 205.341C210.667 205.322 210.693 205.311 210.72 205.311C210.747 205.311 210.773 205.321 210.792 205.34C210.812 205.359 210.823 205.385 210.824 205.412V205.412Z" fill="black"/>
<path d="M135.176 266.454C140.015 266.454 143.937 265.714 143.937 264.801C143.937 263.888 140.015 263.148 135.176 263.148C130.338 263.148 126.415 263.888 126.415 264.801C126.415 265.714 130.338 266.454 135.176 266.454Z" fill="black"/>
<path d="M211.043 289.138C215.882 289.138 219.804 288.398 219.804 287.485C219.804 286.572 215.882 285.832 211.043 285.832C206.205 285.832 202.282 286.572 202.282 287.485C202.282 288.398 206.205 289.138 211.043 289.138Z" fill="black"/>
<path d="M119.222 148.247H114.431C114.34 148.247 114.252 148.21 114.188 148.146C114.124 148.081 114.088 147.994 114.088 147.903C114.088 147.811 114.124 147.724 114.188 147.659C114.252 147.595 114.34 147.558 114.431 147.558H119.222C119.313 147.558 119.401 147.595 119.465 147.659C119.529 147.724 119.565 147.811 119.565 147.903C119.565 147.994 119.529 148.081 119.465 148.146C119.401 148.21 119.313 148.247 119.222 148.247Z" fill="black"/>
</svg>
