<svg width="303" height="254" viewBox="0 0 303 254" fill="none" xmlns="http://www.w3.org/2000/svg">
<path d="M121.107 63.2042C121.107 63.2042 123.675 61.6636 126.072 64.4025C126.072 64.4025 130.351 58.3216 148.497 63.5875C148.497 63.5875 146.1 68.1686 144.388 68.1686C142.676 68.1686 147.641 76.043 152.263 75.7007C152.263 75.7007 160.137 87.17 154.146 98.2969C148.241 109.264 143.998 112.747 138.141 105.634C137.961 105.413 137.761 105.21 137.542 105.028C135.858 103.639 128.4 97.863 125.757 102.17C125.194 103.127 125.033 104.267 125.309 105.343C126.516 110.395 132.157 129.005 148.497 121.578C148.497 121.578 167.539 114.437 163.047 97.521C162.567 95.8004 161.871 94.1477 160.974 92.6024C160.111 91.0238 159.578 89.2854 159.41 87.4937C159.242 85.702 159.441 83.8949 159.996 82.183C160.684 79.7425 162.237 77.6358 164.364 76.2561C166.427 74.9696 169.146 74.3944 171.206 77.992C172.058 79.4886 172.508 81.1809 172.51 82.9034C172.514 84.4799 172.221 86.4134 170.922 87.3412L172.51 90.4225C173.374 88.6649 174.478 87.0364 175.792 85.5839C177.992 83.3561 179.404 80.4717 179.817 77.3683C180.398 72.4451 179.698 65.0944 173.832 56.5281C173.832 56.5281 165.958 40.7792 151.236 41.1216C136.514 41.4639 123.846 45.4011 121.107 63.2042Z" fill="black"/>
<path d="M145.758 83.7463C143.201 83.1614 140.573 82.9449 137.955 83.1034C136.636 83.1689 135.327 83.3674 134.048 83.6959C132.743 83.976 131.53 84.5823 130.522 85.4581C131.685 84.918 132.928 84.5682 134.201 84.422C135.46 84.2411 136.73 84.1095 138.011 84.0522C140.57 83.8934 143.144 83.8812 145.758 83.7463Z" fill="black"/>
<path d="M121.107 83.5019C122.043 83.7865 122.91 84.2639 123.651 84.9033C124.002 85.1931 124.288 85.5536 124.49 85.9614C124.693 86.3692 124.807 86.8151 124.825 87.27C124.756 88.2033 124.512 89.1151 124.104 89.9576L122.985 92.7096C122.15 94.5717 121.664 96.5715 121.553 98.6092C121.555 99.1461 121.653 99.6783 121.844 100.18C122.049 100.688 122.384 101.133 122.815 101.471C123.692 102.023 124.726 102.268 125.757 102.17C124.79 102.087 123.87 101.719 123.114 101.112C122.803 100.781 122.569 100.386 122.428 99.9546C122.286 99.5231 122.241 99.0659 122.295 98.6151C122.369 97.662 122.563 96.7219 122.871 95.8171C123.159 94.8904 123.503 93.972 123.869 93.057C124.221 92.1354 124.602 91.2189 124.944 90.275C125.108 89.7985 125.274 89.3234 125.403 88.8209C125.563 88.3015 125.617 87.7552 125.562 87.2144C125.505 86.6767 125.33 86.1582 125.049 85.6959C124.768 85.2336 124.389 84.839 123.938 84.5402C123.091 83.9734 122.12 83.6174 121.107 83.5019Z" fill="black"/>
<path d="M121.107 63.2042C120.787 65.123 120.548 67.0521 120.392 68.9914C120.214 70.9278 120.104 72.8698 120.061 74.8176C120.031 76.7653 120.06 78.7165 120.212 80.6691C120.302 82.6594 120.746 84.6177 121.525 86.4514C121.536 86.4743 121.551 86.4953 121.568 86.514C122.169 87.1608 122.733 87.841 123.257 88.5513C123.518 88.907 123.749 89.2829 123.95 89.6754C124.173 90.0576 124.262 90.5032 124.203 90.9418C124.341 90.5005 124.316 90.0246 124.133 89.6001C123.976 89.1718 123.784 88.7569 123.561 88.3592C123.114 87.5665 122.597 86.8152 122.016 86.1142L122.059 86.1764C121.728 85.3005 121.507 84.3867 121.402 83.4562C121.253 82.5173 121.193 81.5587 121.123 80.6033C121.009 78.6857 120.99 76.7565 120.979 74.8262C120.979 70.9627 121.064 67.0921 121.107 63.2042Z" fill="black"/>
<path d="M131.378 96.7562C131.559 97.1278 131.705 97.5152 131.814 97.9136C131.926 98.2816 131.95 98.6705 131.885 99.0496C131.832 99.4253 131.668 99.7765 131.414 100.058C131.145 100.369 130.846 100.653 130.522 100.906C130.73 100.844 130.933 100.771 131.132 100.687C131.326 100.58 131.509 100.455 131.678 100.311C132.031 100.005 132.27 99.5883 132.354 99.1286C132.414 98.6734 132.346 98.2104 132.157 97.7917C131.981 97.3908 131.715 97.0363 131.378 96.7562Z" fill="black"/>
<path d="M170.922 87.3411C170.329 88.0848 169.857 88.9164 169.521 89.8059C169.341 90.26 169.211 90.7322 169.132 91.2144C169.09 91.4672 169.074 91.7235 169.083 91.9795L169.087 92.1767L169.076 92.2836C169.08 92.3532 169.065 92.4226 169.032 92.4839C168.885 92.7971 168.626 93.0435 168.305 93.1741C167.925 93.3685 167.525 93.5202 167.111 93.6265C166.232 93.8636 165.327 93.9947 164.417 94.0173C165.316 94.3698 166.291 94.4864 167.248 94.356C167.747 94.3051 168.236 94.1798 168.699 93.9842C168.971 93.8787 169.219 93.7203 169.43 93.5183C169.64 93.3164 169.809 93.0747 169.926 92.8073C169.987 92.6566 170.017 92.4951 170.014 92.3324L170.017 92.0922L170.01 91.9421C169.999 91.7351 170.004 91.5275 170.024 91.3211C170.062 90.8825 170.13 90.4471 170.229 90.018C170.423 89.1385 170.679 88.2542 170.922 87.3411Z" fill="black"/>
<path d="M172.51 90.4224C172.892 91.807 173.43 93.1435 174.115 94.4061C174.785 95.6872 175.595 96.8907 176.528 97.9949C177.462 99.12 178.57 100.089 179.81 100.864C181.053 101.634 182.475 102.067 183.937 102.119C182.599 101.717 181.342 101.084 180.224 100.248C179.129 99.4058 178.132 98.4434 177.252 97.3789C176.348 96.3157 175.513 95.1963 174.75 94.0276C173.983 92.8533 173.221 91.6626 172.51 90.4224Z" fill="black"/>
<path d="M159.966 130.479C158.884 130.005 157.861 129.406 156.918 128.696C155.982 127.997 155.094 127.236 154.26 126.418C153.4 125.624 152.63 124.736 151.829 123.867L150.663 122.521C150.284 122.062 149.905 121.6 149.488 121.156C149.726 121.711 150.003 122.248 150.28 122.787C150.593 123.303 150.901 123.826 151.245 124.324C151.939 125.324 152.728 126.255 153.601 127.102C154.479 127.957 155.458 128.701 156.517 129.317C157.566 129.954 158.744 130.351 159.966 130.479Z" fill="black"/>
<path d="M177.092 97.6863C177.944 96.4239 178.998 95.3103 180.211 94.39C180.464 94.1669 180.769 94.0128 181.099 93.9429C181.429 93.873 181.771 93.8895 182.092 93.9909C182.66 94.3766 183.068 94.9563 183.238 95.6211C183.472 96.33 183.641 97.0588 183.742 97.7985C183.793 98.1663 183.838 98.5491 183.871 98.903C183.869 99.2398 183.84 99.6357 183.806 100.004C183.659 101.513 183.379 103.007 182.97 104.468C182.216 107.44 181.046 110.29 179.493 112.933C177.92 115.576 176.038 118.022 173.888 120.22C172.809 121.311 171.688 122.361 170.55 123.385C169.369 124.359 168.24 125.406 167.01 126.301C166.417 126.781 165.763 127.169 165.143 127.608C164.487 127.985 163.857 128.414 163.174 128.734C161.854 129.451 160.45 130.002 158.994 130.372C156.086 131.144 152.996 130.819 150.311 129.461C147.614 128.021 145.348 125.889 143.746 123.284C143.74 123.273 143.73 123.265 143.718 123.261C143.706 123.257 143.693 123.258 143.682 123.264C143.672 123.27 143.664 123.28 143.66 123.292C143.656 123.304 143.657 123.316 143.662 123.328C145.055 126.156 147.244 128.516 149.96 130.116C151.352 130.905 152.882 131.419 154.468 131.628C156.058 131.816 157.67 131.713 159.224 131.325C160.767 130.959 162.252 130.381 163.638 129.61C164.345 129.258 164.988 128.803 165.659 128.397C166.289 127.933 166.955 127.515 167.553 127.012C168.805 126.071 169.902 124.972 171.061 123.94C171.653 123.437 172.154 122.836 172.696 122.283C173.219 121.71 173.785 121.179 174.271 120.572C176.298 118.229 178.138 115.732 179.776 113.102C181.443 110.473 182.771 107.644 183.728 104.681C184.195 103.183 184.5 101.638 184.638 100.074C184.664 99.6734 184.688 99.2996 184.679 98.865C184.633 98.4531 184.578 98.07 184.515 97.676C184.389 96.8896 184.19 96.1165 183.922 95.3666C183.802 94.9527 183.6 94.567 183.329 94.232C183.057 93.8969 182.722 93.6192 182.342 93.4151C181.916 93.2477 181.443 93.2381 181.01 93.3881C180.616 93.523 180.248 93.7244 179.922 93.9836C178.726 95.0029 177.737 96.2434 177.011 97.637C177.008 97.6424 177.006 97.6484 177.005 97.6546C177.004 97.6608 177.005 97.667 177.006 97.6731C177.008 97.6791 177.011 97.6847 177.015 97.6897C177.018 97.6946 177.023 97.6987 177.029 97.7018C177.039 97.7072 177.052 97.7086 177.063 97.7058C177.075 97.7029 177.085 97.696 177.092 97.6863Z" fill="black"/>
<path d="M221.161 110.622C219.914 110.976 218.783 111.652 217.881 112.583C216.952 113.499 216.209 114.586 215.693 115.785C215.176 116.976 214.885 118.254 214.836 119.552C214.811 120.19 214.844 120.83 214.933 121.463C215.042 122.091 215.208 122.708 215.43 123.306C215.651 122.687 215.752 122.09 215.914 121.507C216.089 120.927 216.194 120.35 216.389 119.798C216.699 118.702 217.079 117.628 217.527 116.581C217.977 115.54 218.502 114.533 219.099 113.569C219.725 112.545 220.413 111.561 221.161 110.622Z" fill="black"/>
<path d="M216.799 134.588C216.414 139.027 216.226 143.465 216.107 147.902C215.976 152.34 215.962 156.777 215.971 161.213C216.017 165.65 216.088 170.086 216.275 174.521C216.45 178.957 216.697 183.392 217.141 187.826C217.529 183.387 217.718 178.949 217.836 174.511C217.967 170.074 217.981 165.637 217.97 161.201C217.921 156.764 217.85 152.328 217.662 147.892C217.486 143.457 217.241 139.022 216.799 134.588Z" fill="black"/>
<path d="M125.251 105.262C121.588 107.553 117.993 109.94 114.465 112.422C112.699 113.661 110.948 114.923 109.211 116.207L106.626 118.181C106.173 118.521 105.746 118.895 105.349 119.299L104.735 119.94L104.218 120.596C102.878 122.323 101.656 124.139 100.56 126.031C99.4553 127.894 98.3803 129.77 97.3349 131.659C95.2689 135.453 93.1413 139.204 90.9521 142.913C89.8572 144.769 88.7412 146.613 87.6044 148.444L85.9037 151.19C85.3997 152.088 84.8008 152.929 84.1172 153.699C83.3926 154.409 82.5298 155.114 81.7792 155.998C80.8901 156.925 80.3547 158.134 80.2666 159.415C80.334 160.728 80.906 161.964 81.8634 162.866C82.2727 163.279 82.7029 163.671 83.1524 164.041C83.5549 164.365 83.946 164.706 84.3286 165.057C85.0983 165.764 85.8062 166.506 86.5263 167.305C87.2593 168.115 88.0184 168.901 88.7886 169.678C90.3436 171.231 91.9947 172.684 93.7322 174.029C95.5035 175.401 97.4319 176.557 99.4766 177.473C100.549 177.926 101.676 178.238 102.829 178.4C104.04 178.58 105.276 178.472 106.438 178.087C106.623 178.031 106.781 177.908 106.881 177.743L106.887 177.732C107.638 176.488 108.46 175.248 109.291 174.035C110.121 172.816 110.991 171.626 111.9 170.465C112.813 169.314 113.788 168.213 114.821 167.169C115.816 166.094 117.035 165.251 118.391 164.699L118.399 164.697C118.423 164.688 118.442 164.671 118.454 164.649C118.466 164.627 118.469 164.601 118.462 164.576C118.455 164.552 118.44 164.531 118.418 164.518C118.397 164.504 118.371 164.5 118.346 164.505C116.864 164.887 115.494 165.615 114.348 166.63C113.172 167.58 112.071 168.619 111.053 169.737C109.007 171.952 107.127 174.316 105.428 176.807L105.877 176.453C103.973 176.841 101.993 176.553 100.278 175.639C98.4064 174.746 96.6467 173.635 95.036 172.329C93.3672 171.033 91.7715 169.646 90.2564 168.174C89.4898 167.441 88.7312 166.697 87.9978 165.928C87.2544 165.146 86.453 164.348 85.6149 163.62C85.1939 163.254 84.7625 162.898 84.3169 162.558C83.913 162.221 83.5298 161.933 83.1917 161.59C82.5368 161.026 82.109 160.243 81.988 159.387C82.0399 158.499 82.394 157.655 82.9916 156.996C83.6042 156.208 84.3776 155.494 85.1286 154.637C85.3266 154.413 85.5119 154.178 85.6835 153.933L86.117 153.199L86.8969 151.768L88.4218 148.913C89.4278 147.006 90.4554 145.111 91.5044 143.231C93.6086 139.472 95.8264 135.776 98.229 132.201C100.61 128.632 103.027 125.018 105.607 121.72L106.095 121.11L106.603 120.59C106.952 120.217 107.33 119.872 107.735 119.56L110.249 117.563L115.325 113.577C118.716 110.923 122.064 108.205 125.368 105.423C125.388 105.407 125.4 105.384 125.404 105.359C125.407 105.334 125.4 105.308 125.385 105.288C125.37 105.267 125.348 105.253 125.323 105.248C125.298 105.243 125.272 105.248 125.251 105.262V105.262Z" fill="black"/>
<path d="M111.863 137.555C113.614 144.134 115.267 150.728 116.648 157.349C117.358 160.631 117.854 163.955 118.132 167.301C118.227 168.91 118.237 170.687 118.378 172.408C118.516 174.164 118.809 175.904 119.256 177.608C120.307 180.975 121.991 184.111 124.217 186.848C125.246 188.22 126.336 189.547 127.357 190.88C127.848 191.542 128.346 192.198 128.786 192.907C129.259 193.59 129.687 194.309 130.112 195.03C131.787 197.956 133.284 200.981 134.596 204.088C135.98 207.182 137.173 210.362 138.34 213.561C136.855 206.873 134.55 200.395 131.477 194.272C130.683 192.724 129.774 191.238 128.758 189.827C127.749 188.433 126.716 187.102 125.743 185.726C123.695 183.152 122.148 180.216 121.181 177.072C120.752 175.489 120.465 173.87 120.323 172.236C120.164 170.57 120.169 168.943 120.016 167.16C119.658 163.734 119.039 160.339 118.164 157.007C116.486 150.394 114.381 143.896 111.863 137.555Z" fill="black"/>
<path d="M36.4189 226.638C36.8167 226.639 37.1984 226.481 37.4799 226.2C37.7614 225.919 37.9197 225.537 37.9199 225.139C37.9202 224.741 37.7624 224.36 37.4813 224.078C37.2002 223.797 36.8188 223.639 36.4209 223.638L1.50293 223.592H1.50098C1.30399 223.592 1.10892 223.631 0.92688 223.706C0.744843 223.781 0.579384 223.892 0.440002 224.031C0.300621 224.17 0.190037 224.336 0.114532 224.517C0.0390282 224.699 9.91821e-05 224.894 -3.05176e-05 225.091C-0.000160217 225.288 0.0385094 225.483 0.11377 225.665C0.18903 225.848 0.299404 226.013 0.438599 226.152C0.577793 226.292 0.74308 226.402 0.925018 226.478C1.10696 226.553 1.30198 226.592 1.49896 226.592L36.417 226.638H36.4189Z" fill="black"/>
<path d="M258.549 225.643L302.576 226.059L302.548 229.059L258.521 228.643L258.549 225.643Z" fill="black"/>
<path d="M136.513 90.1371C136.144 90.1244 135.793 89.9685 135.536 89.7023C135.279 89.4362 135.135 89.0806 135.135 88.7106C135.135 88.3406 135.279 87.985 135.536 87.7189C135.793 87.4527 136.144 87.2968 136.513 87.2841C136.883 87.2968 137.234 87.4527 137.491 87.7189C137.748 87.985 137.892 88.3406 137.892 88.7106C137.892 89.0806 137.748 89.4362 137.491 89.7023C137.234 89.9685 136.883 90.1244 136.513 90.1371Z" fill="black"/>
<path d="M98.7596 238.02C93.718 241.457 88.0447 243.859 82.0683 245.088C79.101 245.66 76.0761 245.877 73.0575 245.734C70.0459 245.571 67.0627 245.065 64.1659 244.225C58.3802 242.464 52.9219 239.767 48.0075 236.242C46.7737 235.409 45.6076 234.481 44.5202 233.464C43.4349 232.435 42.4125 231.341 41.4587 230.189C39.551 227.884 37.9005 225.378 36.5365 222.715L36.6322 223.119L36.632 223.11L36.6318 223.088C36.6295 222.956 36.5972 222.825 36.5374 222.707C35.3584 220.392 34.3953 217.974 33.6602 215.483C32.9297 212.98 32.4578 210.409 32.2519 207.811L32.2477 207.756L32.2414 207.721C32.227 207.67 32.2442 207.694 32.2277 207.787L32.2361 207.63C31.8251 202.369 32.5648 197.082 34.4037 192.136C36.2813 187.198 39.1893 182.717 42.9339 178.99C46.6345 175.327 51.0318 172.443 55.8659 170.508C60.7 168.573 65.8729 167.627 71.0789 167.725C76.2849 167.823 81.4185 168.964 86.1763 171.079C90.9341 173.195 95.2196 176.242 98.7796 180.042C102.35 183.856 105.129 188.339 106.955 193.234C108.775 198.192 109.621 203.455 109.446 208.733C109.446 208.747 109.448 208.76 109.453 208.773C109.457 208.786 109.465 208.797 109.474 208.807C109.483 208.817 109.494 208.825 109.507 208.83C109.519 208.836 109.532 208.839 109.546 208.839C109.572 208.839 109.597 208.83 109.616 208.812C109.636 208.795 109.648 208.771 109.651 208.746C110.288 203.392 109.777 197.964 108.15 192.824C106.512 187.629 103.792 182.84 100.169 178.773C96.537 174.674 92.0839 171.384 87.0986 169.115C82.1035 166.852 76.6829 165.68 71.1989 165.679C65.7505 165.625 60.3518 166.719 55.3538 168.889C50.3559 171.058 45.8706 174.256 42.1896 178.273C38.5441 182.238 35.7014 186.871 33.8186 191.917C31.9385 196.972 31.0302 202.337 31.1414 207.729L31.1497 207.572C31.1275 207.693 31.1296 207.818 31.156 207.938L31.1456 207.849C31.2187 210.551 31.5733 213.239 32.2036 215.868C32.825 218.508 33.736 221.072 34.9201 223.512L34.8254 223.11L34.8253 223.119C34.8233 223.254 34.8531 223.386 34.9122 223.507L34.9211 223.524C36.306 226.339 38.0371 228.969 40.0743 231.354C41.088 232.547 42.1727 233.678 43.3224 234.741C44.493 235.792 45.7397 236.754 47.0525 237.62C52.1443 241.196 57.8108 243.875 63.8065 245.538C69.8299 247.174 76.1596 247.329 82.2557 245.989C88.2715 244.555 93.9285 241.9 98.8764 238.19C98.8981 238.174 98.9128 238.15 98.9173 238.124C98.9219 238.097 98.9159 238.07 98.9007 238.048C98.8854 238.026 98.8622 238.011 98.8358 238.005C98.8095 238 98.7822 238.006 98.7597 238.02L98.7596 238.02Z" fill="black"/>
<path d="M89.9388 171.95C90.2131 172.685 90.444 173.431 90.6762 174.173C90.9041 174.916 91.1269 175.659 91.327 176.408C91.5494 177.148 91.7292 177.902 91.9061 178.657L92.4852 180.9L92.456 180.712C92.4582 180.797 92.4746 180.881 92.5046 180.961C92.5409 181.058 92.5964 181.147 92.6677 181.222C92.7396 181.297 92.8257 181.357 92.9211 181.399C93.0164 181.44 93.119 181.462 93.223 181.463L92.4942 180.909C92.9155 183.081 93.4355 185.218 93.8787 187.376C94.2847 189.542 94.6932 191.709 95.0358 193.891C95.3922 196.072 95.7459 198.253 96.0443 200.452C96.3849 202.646 96.7063 204.85 97.0888 207.06C97.2886 204.827 97.3546 202.585 97.2866 200.345C97.2486 198.103 97.095 195.865 96.8264 193.639C96.547 191.414 96.2099 189.191 95.7206 186.998C95.4976 185.897 95.1986 184.811 94.8912 183.73C94.5825 182.648 94.2977 181.562 93.9635 180.49L93.2344 179.936C93.3357 179.937 93.4358 179.959 93.5287 179.999C93.6216 180.04 93.7055 180.098 93.7755 180.171C93.8451 180.245 93.8992 180.331 93.9345 180.426C93.9636 180.503 93.9795 180.585 93.9815 180.667L93.9523 180.479C93.3997 178.999 92.8896 177.514 92.2341 176.076C91.5971 174.633 90.8287 173.252 89.9388 171.95Z" fill="black"/>
<path d="M51.124 171.949C49.7611 174.295 48.6354 176.771 47.7635 179.341C47.2794 180.612 46.936 181.924 46.5181 183.218C46.1472 184.524 45.8388 185.846 45.4987 187.163C44.3128 192.463 43.5508 197.85 43.2198 203.272C42.878 208.682 42.8737 214.109 43.207 219.52C43.3728 222.221 43.676 224.912 43.9344 227.601C44.3492 230.276 44.7088 232.953 45.1853 235.61C45.1415 232.903 44.9691 230.217 44.8733 227.528L44.7051 219.467C44.7189 218.124 44.7258 216.783 44.7159 215.442L44.7092 213.431L44.7807 211.422L44.887 207.406L45.1354 203.398C45.4532 198.056 46.0629 192.736 46.9619 187.461L47.7336 183.522C48.0431 182.223 48.292 180.902 48.6586 179.615C49.2791 176.999 50.1034 174.436 51.124 171.949Z" fill="black"/>
<path d="M71.4082 224.78C70.7898 224.158 70.2644 223.451 69.8482 222.68C69.8582 223.58 69.8782 224.47 69.8982 225.37C70.0282 231.87 70.2782 238.37 70.6482 244.87C71.0182 238.37 71.2682 231.87 71.3982 225.37C71.3982 225.17 71.4082 224.98 71.4082 224.78Z" fill="black"/>
<path d="M71.1387 218.35C71.1387 218.35 70.4787 217.56 69.7587 216.52C69.7687 217.53 69.7787 218.55 69.7987 219.56C70.1449 219.057 70.6038 218.643 71.1387 218.35Z" fill="black"/>
<path d="M69.6884 204.9V206.82L69.7184 211.53C70.3506 211.581 70.9747 211.705 71.5784 211.9C71.5884 210.2 71.5984 208.51 71.6084 206.82V204.9C71.5684 192.21 71.3884 179.53 70.6484 166.84C69.9184 179.53 69.7284 192.21 69.6884 204.9Z" fill="black"/>
<path d="M106.114 189.604C100.559 187.135 94.7438 185.296 88.7787 184.122C82.8052 182.901 76.7285 182.256 70.6318 182.195C67.5814 182.104 64.5358 182.348 61.4923 182.518C59.9767 182.687 58.4661 182.907 56.9545 183.1C56.2 183.206 55.4415 183.284 54.691 183.414L52.4543 183.894C46.4896 185.091 40.6924 187.009 35.19 189.604C36.6504 189.188 38.0994 188.756 39.5369 188.308L41.6948 187.644C42.4167 187.435 43.1638 187.308 43.8957 187.136L48.2828 186.115C49.7559 185.833 51.243 185.62 52.7194 185.369L54.9357 185.006C55.6776 184.908 56.4255 184.85 57.1696 184.769C58.6602 184.625 60.1471 184.453 61.6374 184.331C64.6294 184.221 67.6153 183.993 70.6105 184.114C76.6063 184.166 82.5902 184.66 88.5134 185.592L92.9529 186.36C94.4219 186.671 95.9023 186.947 97.3679 187.287C100.316 187.913 103.221 188.713 106.114 189.604Z" fill="black"/>
<path d="M71.5381 228.02L62.3406 226.833C59.2979 226.404 56.2621 225.948 53.2456 225.401C50.2247 224.882 47.2164 224.27 44.2132 223.626C42.7261 223.251 41.2252 222.913 39.7162 222.581L38.5784 222.347L37.4599 222.056C36.7115 221.865 35.9541 221.688 35.188 221.52C35.8766 221.876 36.5739 222.222 37.28 222.557C37.9793 222.904 38.6969 223.211 39.4296 223.48C40.8857 224.027 42.35 224.569 43.828 225.074C46.8052 226.008 49.8395 226.749 52.9121 227.292C59.0539 228.424 65.3266 228.67 71.5381 228.02Z" fill="black"/>
<path d="M109.658 205.86C107.688 205.74 105.718 205.639 103.748 205.56C104.285 205.703 104.813 205.88 105.328 206.09C106.778 206.02 108.218 205.94 109.658 205.86Z" fill="black"/>
<path d="M31.6387 205.86C38.1387 206.23 44.6387 206.48 51.1387 206.61C57.3287 206.75 63.5087 206.799 69.6887 206.82H71.6087C72.3887 206.82 73.1587 206.81 73.9387 206.81C73.8587 205.98 74.2687 205.43 75.4287 205.37C76.45 205.342 77.4484 205.674 78.2487 206.31C78.4287 206.45 78.6287 206.6 78.8588 206.77C84.9287 206.73 90.9954 206.613 97.0587 206.42C97.0833 206.204 97.1509 205.996 97.2574 205.807C97.3638 205.618 97.5071 205.452 97.6787 205.32C88.9887 205.02 80.2987 204.93 71.6087 204.9H69.6887C63.5087 204.92 57.3287 204.97 51.1387 205.11C44.6387 205.23 38.1387 205.48 31.6387 205.86Z" fill="black"/>
<path d="M93.2182 180.69C93.2181 180.691 93.2184 180.692 93.2189 180.693C93.2194 180.695 93.2201 180.696 93.221 180.697C93.222 180.698 93.2231 180.698 93.2243 180.699C93.2256 180.699 93.2269 180.7 93.2282 180.7C94.1537 182.448 94.8751 184.296 95.3782 186.21C95.3882 186.23 95.3882 186.26 95.3982 186.28C96.1482 189.17 95.7782 189.7 96.7682 192.549C97.3282 194.16 97.8282 195.089 97.5482 196.42C97.2819 197.257 96.944 198.07 96.5382 198.85C96.4182 199.1 96.2982 199.37 96.1582 199.67C95.4682 201.19 95.2982 201.549 95.4482 202.01C95.6382 202.57 96.0782 202.64 96.8882 203.13C97.1738 203.296 97.4447 203.487 97.6982 203.7C98.1783 204.061 98.6206 204.469 99.0182 204.92C102.016 204.888 104.968 205.658 107.568 207.15C108.188 207.5 108.858 207.85 109.578 208.22H109.588C109.618 207.79 109.628 207.36 109.648 206.93C109.658 206.57 109.658 206.22 109.658 205.86C109.665 200.248 108.458 194.701 106.118 189.6L106.108 189.59H106.098C105.158 187.523 104.033 185.545 102.738 183.68C98.3881 179.44 93.6981 177.24 92.1381 177.25C91.9693 177.234 91.8009 177.284 91.6681 177.39C91.3181 177.74 92.1582 178.7 93.2182 180.69Z" fill="black"/>
<path d="M31.6382 205.86C31.6382 206.19 31.6382 206.52 31.6582 206.85C31.6582 207.13 31.6782 207.4 31.6882 207.68C31.6882 207.73 31.6982 207.78 31.6982 207.83C31.6999 208.12 31.7166 208.411 31.7482 208.7C32.1006 213.697 33.4218 218.577 35.6382 223.07C35.6662 223.087 35.6965 223.1 35.7282 223.11V223.12C35.9901 223.244 36.2704 223.325 36.5582 223.36C36.8944 223.394 37.2342 223.356 37.5548 223.249C37.8755 223.142 38.1698 222.969 38.4182 222.74C38.4282 222.73 38.4382 222.71 38.4582 222.7C39.2682 221.81 38.6182 220.57 38.8782 218.71C39.0982 217.17 39.9082 216.08 41.5182 213.91C42.2192 212.913 43.0019 211.976 43.8582 211.11C44.4482 210.54 44.9982 210.19 45.3882 210.35C45.8782 210.57 46.0282 211.61 45.8482 212.37C45.5782 213.51 44.6582 213.61 44.4582 214.53C44.1882 215.74 45.4182 217.14 46.4682 217.78C47.0545 218.174 47.7329 218.41 48.4374 218.464C49.1419 218.519 49.8484 218.389 50.4882 218.09C51.9282 217.25 51.8882 215.46 52.6583 215.46C53.2683 215.47 53.8083 216.59 53.8983 217.47C53.969 218.02 53.8747 218.579 53.6272 219.076C53.3797 219.572 52.9903 219.984 52.5083 220.26C51.5183 220.68 50.8783 219.81 49.7183 220.26C49.3712 220.374 49.0601 220.577 48.8162 220.849C48.5722 221.121 48.404 221.452 48.3283 221.81C48.2783 222.76 49.5783 223.5 51.2683 224.44C53.1983 225.51 53.7983 225.46 56.0683 226.61C56.2883 226.72 56.4883 226.82 56.6783 226.92C57.5655 227.328 58.3986 227.846 59.1583 228.46C60.7183 229.74 60.5683 230.31 62.0983 231.56C63.0973 232.487 64.3267 233.129 65.6583 233.42C66.8683 233.62 67.1183 233.25 69.2183 233.11C69.6941 233.075 70.1714 233.065 70.6483 233.08C71.5675 233.092 72.4854 233.152 73.3983 233.26C74.467 233.365 75.5265 233.549 76.5683 233.81C71.2083 231.08 70.4983 226.95 72.7283 225.97C72.7283 225.97 66.3883 221.16 71.1383 218.35C71.1383 218.35 63.4583 209.21 72.1283 212.07C72.8491 212.317 73.5348 212.656 74.1683 213.08C74.4383 213.25 74.7482 213.46 75.0983 213.68L76.1283 211.06V211.05C74.0983 208.29 72.7383 205.5 75.4283 205.37C76.4496 205.342 77.448 205.674 78.2483 206.31C78.8683 206.78 79.7583 207.44 80.8783 208.2L83.1483 205.86C83.6667 205.016 83.9849 204.065 84.0783 203.08C84.1197 201.992 83.9349 200.908 83.5355 199.896C83.1362 198.884 82.531 197.966 81.7583 197.2C80.3331 195.69 78.5093 194.615 76.4983 194.1C74.9208 193.489 73.2174 193.276 71.5383 193.48C71.2583 193.53 70.9583 193.59 70.6483 193.67C69.6683 193.9 68.6583 194.24 68.1383 194.41C67.2537 194.811 66.3127 195.074 65.3483 195.19C64.0883 195.25 63.7382 194.87 63.1883 195.19C62.4983 195.57 62.6083 196.37 62.0983 198.28C61.5883 200.17 61.1683 201.77 60.0883 202.15C59.2783 202.43 58.8383 201.77 57.9183 202.15C57.3183 202.4 57.3183 202.76 56.3783 203.7C55.5483 204.52 55.1283 204.93 54.5183 205.09C53.9368 205.222 53.3286 205.175 52.7748 204.953C52.221 204.732 51.7478 204.347 51.4183 203.85C51.2983 203.64 51.0783 203.2 51.2683 201.38C51.4983 199.08 51.6083 197.93 52.3483 197.2C53.2483 196.31 53.9483 196.96 56.0683 196.27C58.4983 195.48 58.3183 194.38 61.0183 193.33C62.8283 192.63 63.3083 192.96 64.7283 192.09C65.8783 191.39 67.3383 190.09 67.0583 189.3C66.7483 188.46 64.7483 189.11 63.9583 187.91C63.3383 186.98 64.1983 186.07 63.4983 184.81C63.0883 184.09 62.2383 183.4 61.6383 183.58C60.9783 183.77 61.2283 184.84 60.3983 186.21C59.6298 187.381 58.4825 188.253 57.1483 188.68C56.1383 189.05 54.8883 189.51 53.8983 188.84C53.0183 188.25 52.5283 186.9 52.9683 186.21C53.5383 185.32 55.2683 186.08 55.7583 185.28C55.839 185.088 55.8797 184.882 55.878 184.674C55.8763 184.466 55.8321 184.26 55.7483 184.07C55.6191 183.627 55.3827 183.223 55.06 182.893C54.7373 182.563 54.3383 182.318 53.8983 182.18C53.3883 182.1 52.8683 182.29 49.8683 184.81C49.7083 184.95 49.5483 185.08 49.4083 185.2L49.3983 185.21C47.8083 186.56 47.5183 186.86 46.9283 186.83C46.7325 186.817 46.5401 186.773 46.3583 186.7C46.0421 186.567 45.7512 186.381 45.4982 186.15C44.7909 185.46 44.2268 184.638 43.8382 183.73C43.3282 182.55 43.5282 182.07 43.2182 181.87C42.4982 181.41 39.9282 182.95 37.2282 185.72C36.4715 186.971 35.7904 188.267 35.1882 189.6C33.226 193.86 32.0536 198.441 31.7282 203.12C31.6982 203.57 31.6782 204.03 31.6582 204.49C31.6482 204.939 31.6382 205.4 31.6382 205.86Z" fill="black"/>
<path d="M145.758 0C145.198 2.27476 144.768 4.57937 144.469 6.90279C144.139 9.21105 143.925 11.5279 143.734 13.8464C143.58 16.1677 143.452 18.4909 143.439 20.8226C143.393 23.1648 143.482 25.5078 143.704 27.84C144.266 25.5657 144.697 23.2611 144.996 20.9374C145.325 18.6291 145.539 16.3123 145.728 13.9935C145.879 11.6721 146.008 9.34894 146.02 7.0172C146.065 4.67507 145.978 2.33225 145.758 0Z" fill="black"/>
<path d="M131.339 29.76C130.805 27.3888 130.143 25.0485 129.354 22.7496C128.6 20.45 127.737 18.1941 126.853 15.9467C125.935 13.7132 124.994 11.4891 123.944 9.30849C122.92 7.10415 121.775 4.95805 120.514 2.87999C121.045 5.25187 121.707 7.59261 122.496 9.89151C123.251 12.1909 124.113 14.4468 124.999 16.6933C125.92 18.9259 126.861 21.15 127.911 23.3304C128.936 25.5344 130.08 27.6808 131.339 29.76Z" fill="black"/>
<path d="M167.669 5.28C166.431 7.14852 165.305 9.08863 164.296 11.0902C163.264 13.0666 162.338 15.0896 161.433 17.1217C160.563 19.1687 159.715 21.2256 158.975 23.329C158.199 25.432 157.55 27.5795 157.031 29.76C158.271 27.8927 159.398 25.9529 160.406 23.951C161.438 21.9743 162.364 19.9513 163.266 17.9183C164.135 15.8703 164.982 13.8134 165.722 11.7098C166.497 9.60678 167.147 7.45977 167.669 5.28Z" fill="black"/>
<path d="M260.803 167.853C261.698 167.626 262.609 167.466 263.527 167.377C263.962 167.322 264.404 167.366 264.819 167.506C265.212 167.648 265.088 168.08 264.871 168.456C264.363 169.206 263.755 169.883 263.064 170.469C262.39 171.089 261.675 171.68 260.949 172.234C260.884 172.284 260.841 172.357 260.83 172.439C260.819 172.52 260.841 172.603 260.891 172.668C260.925 172.711 260.969 172.744 261.019 172.765C261.069 172.786 261.124 172.794 261.178 172.787C263.07 172.577 264.852 171.794 266.286 170.542C267.013 169.914 267.616 169.157 268.065 168.308C268.302 167.867 268.471 167.393 268.567 166.902C268.622 166.617 268.616 166.323 268.55 166.039C268.501 165.858 268.411 165.69 268.288 165.548C268.249 165.479 268.214 165.456 268.157 165.348C267.322 163.829 266.61 162.112 265.886 160.464L263.758 155.453C263.044 153.778 262.322 152.124 261.71 150.429C261.08 148.734 260.569 147.017 259.978 145.284L258.242 140.103C257.652 138.381 256.929 136.705 256.28 135.005C253.681 128.194 250.353 121.684 246.354 115.588C244.335 112.53 241.951 109.728 239.256 107.245C238.916 106.936 238.584 106.617 238.236 106.317L237.145 105.468C236.422 104.893 235.664 104.363 234.876 103.88C233.294 102.847 231.546 102.094 229.708 101.655L229.81 101.68C226.685 100.749 223.461 100.189 220.205 100.01C216.985 99.7484 213.76 99.6649 210.54 99.6618C207.32 99.6632 204.103 99.7258 200.888 99.8497C197.673 100.002 194.466 100.195 191.255 100.457L191.592 100.571C190.349 99.2987 189.204 97.9349 188.164 96.4914L186.559 94.3142C186.046 93.518 185.372 92.8376 184.581 92.3163C182.937 91.3802 181.005 91.088 179.158 91.4964C177.354 91.82 175.635 92.51 174.108 93.5236C174.102 93.5276 174.096 93.5327 174.092 93.5388C174.088 93.5448 174.085 93.5516 174.084 93.5587C174.082 93.5659 174.082 93.5732 174.084 93.5804C174.085 93.5876 174.088 93.5944 174.092 93.6005C174.101 93.6122 174.114 93.6203 174.128 93.6231C174.143 93.6259 174.158 93.6232 174.17 93.6156C175.714 92.6947 177.429 92.0991 179.211 91.8655C180.951 91.5701 182.738 91.9053 184.252 92.8107C184.961 93.3123 185.555 93.9577 185.998 94.7048L187.539 96.948C188.563 98.4767 189.717 99.9152 190.986 101.248C191.026 101.288 191.074 101.319 191.127 101.339C191.18 101.359 191.237 101.367 191.293 101.364L191.323 101.362C194.517 101.167 197.725 101.039 200.927 100.953C204.13 100.852 207.334 100.799 210.535 100.814C213.737 100.823 216.933 100.955 220.117 101.154C223.282 101.291 226.42 101.796 229.468 102.659L229.535 102.677L229.571 102.684C231.272 103.097 232.897 103.774 234.389 104.69C235.162 105.138 235.907 105.633 236.62 106.172L237.701 106.97C238.047 107.255 238.378 107.559 238.718 107.852C239.411 108.426 240.07 109.039 240.692 109.689C241.31 110.344 241.969 110.962 242.556 111.647C243.705 113.038 244.906 114.392 245.915 115.898C250.071 121.851 253.416 128.331 255.86 135.167C256.452 136.883 257.116 138.571 257.648 140.305L259.21 145.516C259.743 147.239 260.195 149.031 260.831 150.745C261.436 152.476 262.153 154.162 262.847 155.837C263.538 157.519 264.281 159.18 265.017 160.845C265.778 162.512 266.471 164.157 267.409 165.812C267.485 165.938 267.572 166.057 267.669 166.169C267.662 166.225 267.71 166.188 267.711 166.278C267.743 166.439 267.744 166.605 267.714 166.766C267.637 167.168 267.502 167.557 267.312 167.92C266.914 168.685 266.388 169.375 265.755 169.962C264.465 171.155 262.841 171.926 261.1 172.172L261.329 172.725C262.061 172.13 262.76 171.515 263.433 170.857C264.131 170.208 264.733 169.463 265.221 168.643C265.347 168.413 265.421 168.158 265.439 167.896C265.439 167.746 265.393 167.6 265.306 167.477C265.22 167.355 265.098 167.262 264.957 167.211C264.487 167.067 263.988 167.037 263.504 167.123C262.58 167.261 261.667 167.469 260.774 167.746C260.767 167.748 260.761 167.751 260.755 167.756C260.749 167.76 260.745 167.766 260.741 167.772C260.738 167.779 260.735 167.786 260.734 167.793C260.734 167.8 260.734 167.808 260.736 167.815C260.74 167.828 260.75 167.84 260.762 167.847C260.775 167.854 260.789 167.856 260.803 167.853Z" fill="black"/>
<path d="M69.8414 216.463C69.4012 215.811 69.0081 215.128 68.665 214.42C68.4966 214.072 68.3623 213.708 68.2637 213.334C68.1483 212.989 68.1419 212.617 68.2454 212.269C68.3163 212.117 68.4285 211.989 68.569 211.899C68.7095 211.808 68.8727 211.759 69.0398 211.757C69.4124 211.715 69.7893 211.727 70.1584 211.793C70.9215 211.931 71.6694 212.143 72.3918 212.426C73.1068 212.729 73.7856 213.111 74.4153 213.566C75.074 214.009 75.7483 214.434 76.4297 214.848C77.1136 215.259 77.8047 215.66 78.5229 216.024C79.2491 216.423 80.0249 216.723 80.83 216.918C80.9046 216.933 80.9821 216.924 81.0513 216.893C81.1204 216.861 81.1777 216.808 81.2149 216.742C81.252 216.675 81.2671 216.599 81.2579 216.523C81.2487 216.447 81.2157 216.377 81.1637 216.321L81.1469 216.303C79.4795 214.567 77.9253 212.725 76.4937 210.79L76.5826 211.059L76.5828 211.05C76.584 210.957 76.5558 210.867 76.502 210.791L76.495 210.781C76.0512 210.157 75.6277 209.52 75.2553 208.868C74.8771 208.258 74.6056 207.589 74.4526 206.888C74.3584 206.206 74.5778 205.999 75.2701 205.902C75.9478 205.843 76.628 205.982 77.2289 206.301C77.5434 206.466 77.84 206.664 78.1139 206.89C78.4263 207.135 78.7434 207.365 79.0619 207.592C79.7018 208.044 80.3237 208.519 80.979 208.953C82.2808 209.831 83.611 210.664 84.9814 211.436C87.7227 213.018 90.6438 214.265 93.6821 215.152C95.2298 215.579 96.8168 215.848 98.4187 215.955C100.052 216.04 101.69 215.877 103.275 215.472C103.394 215.441 103.503 215.38 103.593 215.295C103.682 215.211 103.75 215.105 103.788 214.988C103.827 214.872 103.836 214.747 103.815 214.625C103.794 214.504 103.743 214.39 103.667 214.293L103.655 214.279L99.8579 209.523L97.9929 207.182C97.9123 207.068 97.8588 206.936 97.8365 206.798C97.8141 206.66 97.8234 206.518 97.8637 206.384C97.8994 206.258 97.9639 206.141 98.0524 206.044C98.1058 205.988 98.1641 205.938 98.2265 205.893C98.2781 205.854 98.334 205.822 98.3931 205.797C98.5399 205.737 98.6979 205.71 98.8561 205.718C99.053 205.71 99.3338 205.713 99.5636 205.718C100.047 205.729 100.528 205.764 101.007 205.82C101.969 205.929 102.916 206.137 103.834 206.443C104.293 206.603 104.744 206.742 105.21 206.918C105.655 207.094 106.092 207.295 106.521 207.515L109.199 208.958C109.309 209.017 109.432 209.049 109.557 209.05L109.579 209.05H109.589L109.214 208.96C114.256 211.479 119.344 213.702 124.142 216.476L125.948 217.528C127.844 218.635 129.913 219.416 132.069 219.836C133.498 220.124 134.953 220.265 136.411 220.258C137.89 220.247 139.27 220.072 140.659 219.97L157.359 218.572L174.054 217.107C185.184 216.144 196.315 215.163 207.451 214.311L211.626 214.037C212.324 213.989 213.012 213.967 213.698 213.947C214.112 213.955 214.521 213.859 214.889 213.67C215.238 213.469 215.539 213.194 215.77 212.864C216.536 211.625 217.036 210.239 217.237 208.796C217.484 207.408 217.652 206.006 217.741 204.598C218.025 199 217.926 193.388 217.445 187.803L217.226 188.124C221.071 186.942 224.912 185.728 228.646 184.219C232.396 182.749 236.069 181.09 239.65 179.247C243.229 177.402 246.717 175.382 250.177 173.355C253.639 171.348 257.132 169.338 260.925 168.304L260.267 167.805C260.259 178.869 260.025 189.932 259.565 200.995C259.325 206.521 259.018 212.043 258.566 217.549C258.468 218.927 258.33 220.3 258.201 221.674C258.08 223.049 257.937 224.42 257.771 225.788C257.613 227.16 257.491 228.539 257.237 229.833C256.992 231.142 256.628 232.427 256.151 233.671C254.172 238.671 250.583 242.87 245.952 245.603C243.656 246.986 241.175 248.035 238.584 248.719C237.288 249.064 235.971 249.323 234.641 249.496C233.303 249.661 231.906 249.771 230.542 249.911L226.425 250.305L222.299 250.572C219.55 250.787 216.793 250.846 214.039 250.958C211.285 251.084 208.527 251.033 205.771 251.08C203.015 251.012 200.257 251.022 197.504 250.874C186.481 250.425 175.503 249.187 164.656 247.173C159.242 246.168 153.796 245.021 148.317 244.11C142.839 243.182 137.349 242.404 131.856 241.66C120.872 240.156 109.868 238.879 98.8817 237.507C93.3936 236.804 87.8943 236.116 82.4681 235.142L80.4495 234.734C79.7749 234.601 79.1484 234.382 78.493 234.211C77.867 233.965 77.2465 233.693 76.6323 233.412C76.0299 233.107 75.4491 232.761 74.8939 232.377C73.7824 231.635 72.8693 230.633 72.2341 229.458C71.9298 228.893 71.7935 228.252 71.8414 227.612C71.8688 227.311 71.9743 227.022 72.1474 226.774C72.3206 226.525 72.5554 226.327 72.8287 226.197C72.8659 226.18 72.8983 226.154 72.9231 226.121C72.9479 226.089 72.9644 226.051 72.971 226.01C72.9777 225.97 72.9743 225.928 72.9613 225.89C72.9482 225.851 72.9259 225.816 72.8962 225.788L72.8803 225.773C72.2813 225.278 71.7096 224.751 71.1678 224.194C70.6415 223.628 70.2046 222.985 69.8722 222.287C69.7003 221.954 69.5961 221.59 69.5654 221.216C69.5347 220.843 69.5782 220.467 69.6934 220.11C69.9976 219.406 70.5297 218.825 71.2041 218.461C71.2187 218.452 71.2315 218.44 71.2416 218.427C71.2518 218.413 71.2591 218.397 71.2632 218.381C71.2674 218.364 71.2682 218.347 71.2657 218.33C71.2632 218.313 71.2573 218.297 71.2485 218.282L71.2377 218.267L69.8412 216.463L69.8362 216.456C69.8201 216.435 69.7965 216.422 69.7704 216.418C69.7444 216.415 69.7181 216.422 69.6971 216.438C69.6761 216.453 69.6623 216.477 69.6584 216.503C69.6546 216.529 69.6612 216.555 69.6767 216.576L71.0401 218.432L71.0736 218.239C70.3331 218.619 69.7425 219.238 69.3976 219.995C69.2573 220.391 69.1965 220.81 69.2186 221.229C69.2407 221.648 69.3452 222.058 69.5263 222.437C69.8572 223.181 70.2998 223.871 70.8388 224.481C71.3864 225.075 71.9669 225.637 72.5774 226.166L72.629 225.742C72.2708 225.902 71.9599 226.151 71.7266 226.466C71.4933 226.782 71.3455 227.152 71.2976 227.541C71.2179 228.287 71.3541 229.041 71.69 229.713C72.3407 231.003 73.2986 232.114 74.4795 232.947C75.0525 233.366 75.6535 233.745 76.2783 234.081C76.9127 234.393 77.5568 234.694 78.2101 234.969C78.8883 235.168 79.5691 235.42 80.2496 235.572L82.2922 236.036C87.7518 237.113 93.2372 237.895 98.7212 238.695L131.623 243.311C137.098 244.112 142.567 244.947 148.001 245.927C150.722 246.385 153.426 246.972 156.133 247.497C158.839 248.056 161.558 248.636 164.29 249.143C175.227 251.2 186.298 252.473 197.416 252.952C208.536 253.454 219.677 253.117 230.746 251.945C232.135 251.794 233.5 251.68 234.908 251.498C236.324 251.306 237.726 251.021 239.105 250.645C241.872 249.896 244.52 248.758 246.967 247.263C251.941 244.283 255.781 239.729 257.879 234.323C258.386 232.977 258.771 231.587 259.028 230.172C259.295 228.745 259.41 227.361 259.557 225.981C259.707 224.598 259.834 223.213 259.936 221.829C260.048 220.444 260.169 219.06 260.25 217.674C260.633 212.135 260.869 206.592 261.039 201.05C261.373 189.964 261.464 178.879 261.311 167.794L261.311 167.784C261.31 167.716 261.296 167.649 261.269 167.587C261.242 167.525 261.204 167.469 261.155 167.422C261.107 167.374 261.05 167.337 260.987 167.312C260.924 167.287 260.857 167.274 260.789 167.275C260.743 167.276 260.697 167.283 260.653 167.295C256.681 168.441 253.171 170.544 249.731 172.597C246.286 174.667 242.865 176.748 239.311 178.594C235.76 180.444 232.118 182.112 228.397 183.591C224.691 185.111 220.874 186.338 217.052 187.535C216.984 187.556 216.926 187.599 216.886 187.657C216.847 187.716 216.828 187.786 216.833 187.856C217.311 193.407 217.383 198.986 217.049 204.547C216.953 205.927 216.779 207.301 216.528 208.661C216.335 209.99 215.873 211.266 215.172 212.411C215.003 212.655 214.782 212.857 214.525 213.005C214.27 213.134 213.986 213.195 213.7 213.183C212.989 213.198 212.281 213.217 211.586 213.259L207.396 213.494C196.237 214.159 185.092 214.944 173.945 215.727L157.226 216.927L140.517 218.238C139.121 218.334 137.722 218.499 136.406 218.498C135.068 218.498 133.734 218.362 132.425 218.091C131.118 217.821 129.843 217.415 128.62 216.881C128.01 216.614 127.414 216.315 126.837 215.983L125.015 214.938C120.113 212.147 114.93 209.921 109.964 207.479L109.953 207.473C109.839 207.418 109.715 207.389 109.589 207.389H109.579L109.958 207.481L107.268 206.055C106.793 205.814 106.305 205.594 105.805 205.399C105.321 205.22 104.802 205.06 104.301 204.89C103.289 204.564 102.246 204.342 101.189 204.229C100.66 204.171 100.128 204.136 99.5968 204.127C99.3195 204.124 99.0927 204.12 98.7827 204.133C98.432 204.136 98.0853 204.209 97.7627 204.346C97.5889 204.422 97.4248 204.518 97.2737 204.633C97.1322 204.739 97.0008 204.858 96.8813 204.988C96.6289 205.269 96.4459 205.606 96.347 205.971C96.2489 206.327 96.2307 206.7 96.2936 207.064C96.3566 207.428 96.4992 207.773 96.7112 208.075L98.6523 210.485L102.483 215.22L102.863 214.027C101.434 214.4 99.9593 214.564 98.4836 214.516C96.9809 214.438 95.4899 214.208 94.0332 213.831C91.0845 213.019 88.2435 211.857 85.571 210.369C84.2209 209.637 82.9025 208.84 81.614 208C80.9662 207.587 80.3448 207.127 79.7085 206.692C79.3901 206.474 79.0753 206.252 78.7724 206.022C78.4409 205.761 78.084 205.533 77.707 205.342C76.9177 204.943 76.0297 204.78 75.1501 204.874C74.6267 204.91 74.137 205.146 73.7818 205.532C73.6239 205.745 73.5141 205.991 73.4597 206.251C73.4053 206.511 73.4076 206.78 73.4666 207.039C73.6474 207.859 73.9717 208.641 74.4243 209.349C74.8342 210.029 75.281 210.686 75.7626 211.318L75.675 211.05L75.6751 211.059L75.6753 211.073C75.6763 211.166 75.7075 211.256 75.7642 211.33C77.267 213.261 78.8925 215.093 80.6307 216.816L80.9475 216.201C79.4631 215.776 78.046 215.144 76.7382 214.323C76.0552 213.931 75.378 213.527 74.7107 213.102C74.0415 212.645 73.3235 212.265 72.5699 211.968C71.8081 211.691 71.0211 211.489 70.22 211.365C69.8061 211.305 69.3856 211.306 68.9722 211.369C68.7418 211.388 68.5211 211.47 68.3344 211.607C68.1477 211.743 68.0021 211.928 67.9137 212.142C67.7946 212.561 67.8101 213.006 67.9581 213.415C68.0739 213.804 68.227 214.182 68.4154 214.541C68.7868 215.249 69.2083 215.929 69.6767 216.576C69.6919 216.598 69.715 216.612 69.7408 216.617C69.7667 216.621 69.7932 216.615 69.8148 216.601C69.8365 216.586 69.8513 216.563 69.8563 216.537C69.8613 216.511 69.8559 216.485 69.8414 216.463V216.463Z" fill="black"/>
<path d="M80.5742 217.018C82.0828 217.902 83.6049 218.717 85.1705 219.466C86.7193 220.241 88.3413 220.86 90.0127 221.314C88.4135 220.689 86.8805 219.907 85.4365 218.978C83.9812 218.079 82.5591 217.106 81.1953 216.096L81.1876 216.09C81.0689 216.002 80.9202 215.965 80.7742 215.987C80.6283 216.009 80.4969 216.088 80.409 216.206C80.3211 216.325 80.2839 216.474 80.3055 216.62C80.3271 216.766 80.4058 216.897 80.5242 216.985C80.5403 216.997 80.557 217.008 80.5742 217.018Z" fill="black"/>
<path d="M70.8075 218.802C73.3925 220.56 76.0096 222.246 78.6931 223.837C80.0371 224.627 81.3907 225.403 82.7903 226.094C83.4849 226.45 84.1972 226.77 84.9245 227.054C85.2845 227.205 85.6555 227.329 86.0343 227.425C86.4086 227.534 86.7957 227.594 87.1855 227.603C86.7992 227.571 86.4186 227.489 86.0536 227.358C85.6847 227.241 85.3252 227.097 84.9782 226.925C84.2747 226.602 83.5882 226.242 82.9214 225.849C81.5757 225.081 80.2772 224.231 78.9902 223.367C76.4229 221.631 73.9144 219.794 71.4654 217.905L71.4602 217.901C71.3434 217.811 71.1955 217.771 71.0491 217.79C70.9028 217.809 70.7699 217.885 70.6798 218.002C70.5897 218.119 70.5497 218.267 70.5686 218.413C70.5875 218.559 70.6638 218.692 70.7807 218.782L70.8075 218.802Z" fill="black"/>
<path d="M72.3703 226.4C73.3788 227.137 74.4377 227.804 75.5392 228.393C76.623 228.986 77.7406 229.515 78.8861 229.977C81.1595 230.912 83.5382 231.566 85.9697 231.926C83.5937 231.389 81.2919 230.564 79.1152 229.471C78.0311 228.934 76.9793 228.335 75.9651 227.676C74.957 227.033 73.9944 226.322 73.0841 225.547L73.0666 225.532C73.0114 225.483 72.9472 225.447 72.8777 225.423C72.8082 225.4 72.7348 225.39 72.6617 225.395C72.5885 225.401 72.5171 225.42 72.4515 225.453C72.3859 225.486 72.3274 225.531 72.2794 225.586C72.2314 225.642 72.1948 225.706 72.1717 225.776C72.1486 225.845 72.1395 225.919 72.1449 225.992C72.1502 226.065 72.17 226.136 72.203 226.202C72.2361 226.267 72.2817 226.326 72.3373 226.373C72.3477 226.382 72.3594 226.392 72.3703 226.4Z" fill="black"/>
<path d="M99.4187 184.599C99.5012 184.599 99.5825 184.579 99.6552 184.54C99.728 184.501 99.79 184.444 99.8357 184.376L104.153 177.854C104.189 177.799 104.215 177.738 104.227 177.673C104.24 177.609 104.239 177.543 104.226 177.478C104.213 177.414 104.188 177.353 104.151 177.298C104.114 177.244 104.067 177.197 104.012 177.161C103.958 177.124 103.896 177.099 103.832 177.087C103.767 177.074 103.701 177.074 103.637 177.087C103.572 177.101 103.511 177.126 103.457 177.163C103.402 177.2 103.355 177.247 103.319 177.301L99.0017 183.823C98.9286 183.934 98.9024 184.069 98.9287 184.199C98.9551 184.329 99.0319 184.443 99.1423 184.516C99.2241 184.571 99.3203 184.6 99.4187 184.599Z" fill="black"/>
<path d="M77.1892 168.299C77.2718 168.299 77.353 168.279 77.4258 168.24C77.4985 168.201 77.5605 168.145 77.6062 168.076L81.9246 161.554C81.9609 161.5 81.986 161.438 81.9986 161.374C82.0111 161.309 82.0109 161.243 81.9978 161.179C81.9848 161.114 81.9592 161.053 81.9225 160.998C81.8857 160.944 81.8387 160.897 81.7839 160.861C81.7292 160.825 81.6678 160.8 81.6033 160.787C81.5388 160.774 81.4725 160.775 81.4081 160.788C81.3437 160.801 81.2825 160.826 81.2281 160.863C81.1736 160.9 81.1268 160.947 81.0905 161.002L76.7722 167.523C76.7222 167.598 76.6935 167.686 76.6893 167.776C76.6851 167.867 76.7055 167.956 76.7483 168.036C76.7911 168.116 76.8547 168.182 76.9323 168.229C77.01 168.275 77.0988 168.3 77.1892 168.299Z" fill="black"/>
</svg>
