<svg width="652" height="550" viewBox="0 0 652 550" fill="none" xmlns="http://www.w3.org/2000/svg">
<path d="M348.547 205.888C348.547 205.888 332.887 191.314 326.907 195.436C326.907 195.436 319.077 213.133 315.473 214.501C313.983 218.841 311.832 222.972 308.842 222.831C308.513 224.288 308.545 225.804 308.936 227.246C309.578 229.887 303.465 241.452 299.389 240.32C295.314 239.188 289.494 228.859 291.192 223.038C291.299 222.644 291.384 222.244 291.447 221.84C291.23 221.416 284.051 207.822 283.324 200.728C282.579 193.521 279.466 196.643 279.466 196.643C279.466 196.643 283.598 200.285 277.155 203.153C270.702 206.03 254.694 208.275 261.071 202.313C261.071 202.313 260.137 199.521 257.015 202.068C257.015 202.068 254.76 205.039 260.194 215.142C260.194 215.142 268.608 258.432 267.108 269.271C267.108 269.271 264.741 296.826 267.41 299.449C268.684 300.703 285.079 305.373 301.295 304.901C311.603 304.656 321.831 303.016 331.699 300.024L330.727 262.074C330.517 253.994 332.002 245.961 335.085 238.49L348.547 205.888ZM296.107 287.714C292.811 287.035 289.733 285.554 287.145 283.403C284.576 281.23 282.564 278.474 281.277 275.365C279.985 272.337 279.367 269.063 279.466 265.772C280.091 268.894 281.148 271.913 282.607 274.743C284.026 277.505 285.979 279.958 288.352 281.959C289.519 282.966 290.805 283.825 292.182 284.516C292.852 284.912 293.579 285.186 294.277 285.516C295.012 285.761 295.729 286.091 296.484 286.289C299.547 287.178 302.697 287.732 305.88 287.94C302.637 288.482 299.321 288.405 296.107 287.714Z" fill="black"/>
<path d="M317.87 205.341L317.822 205.36C318.143 199.436 315.134 186.654 315.134 186.654C315.134 186.654 299.088 187.437 296.909 186.871C296.909 186.871 292.126 186.776 292.588 201.209C292.588 201.209 287.569 196.408 288.711 202.436C288.918 203.53 289.135 204.483 289.362 205.304C279.787 199.172 291.333 173.852 291.381 176.06C291.457 176.746 291.771 177.383 292.267 177.862C294.248 180.088 297.333 177.654 300.097 176.692C300.654 176.494 301.191 176.324 301.72 176.173C303.793 175.589 305.973 175.484 308.093 175.869C310.214 176.253 312.218 177.115 313.955 178.39C315.692 179.665 317.116 181.319 318.118 183.227C319.12 185.134 319.674 187.245 319.737 189.399C319.934 194.777 319.304 200.154 317.87 205.341Z" fill="black"/>
<path d="M298.936 219.847C297.442 219.03 296.122 217.931 295.048 216.61C294.507 215.945 294.048 215.218 293.68 214.444C293.32 213.665 293.117 212.824 293.083 211.967C293.343 212.753 293.684 213.509 294.101 214.225C294.528 214.923 295.002 215.592 295.52 216.227C296.588 217.498 297.729 218.707 298.936 219.847Z" fill="black"/>
<path d="M303.606 221.708C304.022 221.855 304.458 221.939 304.899 221.955C305.333 221.998 305.766 222.057 306.204 222.113C306.638 222.187 307.078 222.257 307.517 222.369C307.975 222.473 308.419 222.628 308.842 222.831C307.946 223.123 306.993 223.197 306.063 223.045C305.595 222.977 305.137 222.848 304.703 222.662C304.465 222.586 304.245 222.462 304.056 222.298C303.868 222.134 303.715 221.933 303.606 221.708Z" fill="black"/>
<path d="M317.883 205.364C317.876 205.8 317.843 206.236 317.782 206.668C317.71 207.109 317.605 207.518 317.514 207.944L316.933 210.476C316.537 212.168 316.055 213.839 315.487 215.482C314.936 217.155 314.2 218.762 313.292 220.271C312.818 221.053 312.218 221.752 311.515 222.338C310.763 222.977 309.806 223.324 308.819 223.315L309.306 222.971C309.087 224.034 309.068 225.128 309.252 226.196C309.298 226.468 309.349 226.739 309.413 227.007C309.452 227.175 309.48 227.346 309.496 227.518C309.505 227.687 309.502 227.855 309.488 228.023C309.426 228.638 309.299 229.244 309.109 229.831C308.357 232.074 307.286 234.196 305.931 236.135C305.271 237.122 304.512 238.04 303.666 238.874C302.817 239.79 301.721 240.444 300.51 240.755C300.177 240.819 299.835 240.817 299.503 240.747C299.19 240.669 298.887 240.557 298.598 240.413C298.057 240.133 297.556 239.782 297.106 239.37C296.227 238.58 295.449 237.684 294.791 236.702C293.458 234.783 292.402 232.686 291.654 230.473C291.277 229.367 291.005 228.229 290.841 227.073C290.646 225.91 290.658 224.722 290.875 223.563C291.352 221.308 291.708 219.029 291.941 216.736C292.21 214.445 292.461 212.151 292.691 209.854L293.131 210.273C292.727 210.35 292.309 210.326 291.916 210.203C291.529 210.069 291.178 209.848 290.89 209.557C290.378 209.011 289.972 208.375 289.692 207.681C289.155 206.372 288.745 205.015 288.466 203.627C288.275 202.939 288.133 202.238 288.041 201.529C287.994 201.144 287.99 200.755 288.03 200.37C288.044 200.119 288.111 199.875 288.227 199.653C288.343 199.43 288.504 199.235 288.701 199.08C288.923 198.947 289.171 198.867 289.428 198.845C289.685 198.823 289.944 198.859 290.184 198.952C290.556 199.077 290.912 199.246 291.245 199.454C291.869 199.841 292.453 200.288 292.991 200.788L292.005 201.228C291.984 199.889 291.936 198.55 292.003 197.204C292.041 195.852 292.166 194.504 292.379 193.168C292.578 191.795 292.968 190.457 293.54 189.194C293.696 188.875 293.88 188.563 294.062 188.252C294.267 187.942 294.499 187.651 294.754 187.381C295.017 187.093 295.322 186.846 295.658 186.648C295.833 186.54 296.019 186.451 296.214 186.382C296.44 186.297 296.679 186.25 296.921 186.242L296.953 186.243L297.067 186.262L297.538 186.337L298.083 186.379C298.442 186.413 298.826 186.412 299.196 186.43C299.946 186.45 300.699 186.458 301.457 186.456L306.003 186.402C309.037 186.358 312.076 186.275 315.11 186.17L315.124 186.169C315.235 186.166 315.344 186.201 315.432 186.269C315.52 186.337 315.581 186.434 315.605 186.543C316.285 189.642 316.821 192.759 317.278 195.893C317.51 197.458 317.686 199.032 317.806 200.614C317.95 202.193 317.976 203.78 317.883 205.363C317.882 205.371 317.88 205.379 317.877 205.386C317.873 205.393 317.868 205.4 317.862 205.405C317.856 205.41 317.849 205.414 317.841 205.416C317.834 205.419 317.826 205.42 317.818 205.419C317.802 205.418 317.788 205.411 317.777 205.399C317.767 205.388 317.761 205.372 317.762 205.357C317.763 203.783 317.647 202.211 317.414 200.654C317.205 199.095 316.938 197.543 316.657 195.994C316.096 192.897 315.388 189.82 314.663 186.765L315.157 187.137C312.117 187.316 309.076 187.467 306.035 187.591C304.513 187.657 302.989 187.677 301.461 187.69C300.697 187.697 299.931 187.693 299.162 187.676C298.773 187.659 298.395 187.663 297.997 187.628L297.405 187.585L296.75 187.48L296.896 187.5C296.683 187.539 296.481 187.62 296.299 187.737C296.064 187.877 295.852 188.053 295.67 188.259C295.472 188.472 295.291 188.701 295.131 188.945C294.982 189.208 294.828 189.469 294.694 189.744C294.188 190.908 293.832 192.131 293.635 193.385C293.413 194.666 293.275 195.96 293.222 197.259C293.139 198.564 293.168 199.878 293.171 201.191V201.203C293.171 201.317 293.138 201.429 293.075 201.525C293.013 201.62 292.923 201.695 292.819 201.741C292.714 201.786 292.598 201.8 292.485 201.781C292.372 201.761 292.268 201.709 292.185 201.631C291.712 201.181 291.199 200.777 290.65 200.424C290.398 200.26 290.128 200.126 289.845 200.023C289.586 199.939 289.37 199.945 289.326 199.996C289.254 200.018 289.151 200.241 289.116 200.516C289.079 200.819 289.075 201.125 289.103 201.43C289.172 202.097 289.287 202.76 289.448 203.411C289.675 204.75 290.029 206.063 290.504 207.335C290.977 208.548 291.787 209.767 293.006 209.522C293.064 209.511 293.124 209.513 293.181 209.529C293.237 209.545 293.289 209.575 293.332 209.615C293.376 209.655 293.409 209.705 293.429 209.76C293.449 209.815 293.455 209.875 293.448 209.933L293.447 209.941C293.147 212.234 292.827 214.524 292.486 216.809C292.126 219.091 291.813 221.39 291.277 223.646C290.926 225.905 291.19 228.218 292.042 230.34C292.792 232.504 293.874 234.538 295.249 236.37C295.913 237.284 296.689 238.112 297.557 238.834C297.973 239.188 298.433 239.485 298.926 239.719C299.157 239.824 299.4 239.905 299.648 239.96C299.884 240.002 300.126 239.994 300.359 239.937C301.382 239.613 302.292 239.008 302.987 238.192C303.758 237.374 304.458 236.493 305.079 235.556C306.337 233.679 307.348 231.646 308.085 229.51C308.259 229.001 308.379 228.475 308.444 227.941C308.456 227.821 308.461 227.701 308.457 227.581C308.448 227.466 308.43 227.351 308.405 227.238C308.339 226.943 308.287 226.646 308.242 226.348C308.05 225.131 308.096 223.889 308.377 222.69C308.403 222.588 308.463 222.497 308.548 222.434C308.633 222.372 308.737 222.34 308.842 222.345L308.865 222.346C309.623 222.356 310.359 222.093 310.939 221.605C311.569 221.084 312.117 220.473 312.565 219.79C313.492 218.365 314.257 216.841 314.845 215.246C315.463 213.645 315.995 212.008 316.5 210.358L317.221 207.87C317.332 207.456 317.467 207.033 317.568 206.627C317.659 206.208 317.723 205.784 317.762 205.356C317.763 205.341 317.771 205.326 317.783 205.316C317.795 205.306 317.81 205.3 317.826 205.301C317.842 205.302 317.856 205.309 317.867 205.321C317.878 205.333 317.883 205.348 317.883 205.364L317.883 205.364Z" fill="black"/>
<path d="M317.34 196.773C316.78 196.493 316.259 196.22 315.739 195.983C315.25 195.745 314.73 195.574 314.195 195.475C313.7 195.386 313.19 195.437 312.722 195.623C312.204 195.867 311.724 196.187 311.3 196.574C311.453 195.934 311.828 195.371 312.359 194.983C312.939 194.582 313.653 194.424 314.348 194.545C314.996 194.666 315.605 194.944 316.12 195.356C316.626 195.734 317.042 196.217 317.34 196.773Z" fill="black"/>
<path d="M303.042 195.638C301.851 195.029 300.518 194.756 299.184 194.846C298.548 194.916 297.93 195.101 297.36 195.393C297.05 195.513 296.784 195.725 296.474 195.881C296.182 196.064 295.907 196.277 295.58 196.457C295.751 196.135 295.947 195.826 296.167 195.534C296.406 195.25 296.676 194.992 296.972 194.768C297.583 194.293 298.312 193.995 299.08 193.908C299.849 193.824 300.625 193.949 301.328 194.269C302.01 194.566 302.602 195.038 303.042 195.638Z" fill="black"/>
<path d="M311.496 205.411C311.421 205.884 311.217 206.328 310.907 206.693C310.597 207.059 310.192 207.332 309.737 207.482C309.283 207.644 308.795 207.691 308.318 207.619C307.854 207.557 307.415 207.372 307.047 207.083C307.514 206.989 307.924 206.959 308.316 206.883C308.691 206.82 309.06 206.724 309.417 206.595C309.775 206.472 310.118 206.311 310.443 206.117C310.806 205.9 311.157 205.664 311.496 205.411Z" fill="black"/>
<path d="M313.266 201.796C313.632 201.783 313.98 201.629 314.235 201.365C314.49 201.101 314.632 200.748 314.632 200.381C314.632 200.014 314.49 199.662 314.235 199.398C313.98 199.134 313.632 198.979 313.266 198.966C312.899 198.979 312.551 199.134 312.296 199.398C312.042 199.662 311.899 200.014 311.899 200.381C311.899 200.748 312.042 201.101 312.296 201.365C312.551 201.629 312.899 201.783 313.266 201.796Z" fill="black"/>
<path d="M300.818 201.646C301.185 201.633 301.532 201.478 301.787 201.214C302.042 200.95 302.184 200.598 302.184 200.231C302.184 199.864 302.042 199.511 301.787 199.247C301.532 198.983 301.185 198.828 300.818 198.816C300.451 198.828 300.104 198.983 299.849 199.247C299.594 199.511 299.451 199.864 299.451 200.231C299.451 200.598 299.594 200.95 299.849 201.214C300.104 201.478 300.451 201.633 300.818 201.646Z" fill="black"/>
<path d="M305.335 210.414C305.152 210.951 305.179 211.538 305.411 212.056C305.621 212.535 305.944 212.955 306.354 213.279C306.754 213.612 307.231 213.838 307.741 213.938C308.015 213.992 308.298 213.992 308.572 213.937C308.846 213.881 309.107 213.772 309.339 213.616C309.199 213.931 308.971 214.199 308.682 214.387C308.392 214.575 308.055 214.674 307.71 214.674C307.001 214.698 306.307 214.462 305.76 214.011C305.209 213.569 304.834 212.944 304.704 212.25C304.627 211.915 304.645 211.566 304.756 211.242C304.868 210.917 305.068 210.63 305.335 210.414Z" fill="black"/>
<path d="M279.413 196.67L273.985 185.985L268.496 175.339C266.652 171.8 264.774 168.278 262.803 164.815C261.828 163.079 260.841 161.35 259.791 159.667C259.265 158.827 258.725 157.997 258.152 157.2C257.637 156.419 257.014 155.714 256.301 155.107L256.284 155.096C256.233 155.059 256.189 155.012 256.156 154.958C256.123 154.905 256.1 154.845 256.09 154.782C256.08 154.72 256.082 154.656 256.096 154.594C256.111 154.532 256.137 154.474 256.174 154.423C256.215 154.367 256.267 154.32 256.326 154.286C256.58 154.102 256.778 153.853 256.901 153.565C257.04 153.23 257.119 152.873 257.133 152.51C257.144 151.727 257.02 150.948 256.767 150.206C256.505 149.437 256.183 148.69 255.803 147.972C255.435 147.24 254.993 146.545 254.562 145.842L254.551 145.824C254.532 145.793 254.519 145.759 254.513 145.723L253.783 141.407L253.606 140.325L253.519 139.782L253.48 139.51C253.466 139.438 253.446 139.368 253.419 139.3C253.307 138.995 253.126 138.72 252.889 138.496C252.653 138.272 252.368 138.107 252.056 138.012C251.46 137.909 250.917 138.525 250.878 139.169C250.861 139.853 250.881 140.614 250.885 141.332C250.896 142.06 250.902 142.789 250.943 143.512C250.985 143.72 250.974 143.934 250.91 144.136C250.846 144.338 250.733 144.52 250.58 144.667C250.25 144.921 249.838 145.045 249.422 145.015C248.655 144.958 247.916 144.698 247.282 144.262C246.964 144.062 246.669 143.807 246.393 143.608C246.105 143.403 245.799 143.215 245.487 143.036C244.219 142.334 242.909 141.709 241.565 141.165L239.543 140.351C238.894 140.069 238.224 139.839 237.539 139.664C237.249 139.584 236.942 139.59 236.655 139.681C236.368 139.771 236.113 139.942 235.92 140.173C235.708 140.775 235.734 141.436 235.993 142.02C236.014 142.086 236.015 142.156 235.997 142.222C235.98 142.289 235.943 142.349 235.892 142.395C235.841 142.442 235.778 142.472 235.711 142.484C235.643 142.496 235.573 142.488 235.51 142.461L235.504 142.458L233.753 141.715C233.233 141.439 232.664 141.27 232.078 141.217C231.556 141.175 231.038 141.332 230.628 141.656C230.332 141.929 230.382 142.434 230.607 142.959C230.64 143.036 230.651 143.121 230.638 143.204C230.625 143.287 230.589 143.365 230.534 143.429C230.479 143.492 230.407 143.539 230.326 143.563C230.246 143.588 230.16 143.589 230.079 143.568L230.063 143.563C229.404 143.384 228.735 143.244 228.059 143.143C227.435 143.024 226.795 143.018 226.169 143.127C225.92 143.204 225.692 143.339 225.505 143.522C225.319 143.705 225.178 143.929 225.096 144.177C224.981 144.604 225.274 145.077 225.733 145.484C225.833 145.573 225.898 145.696 225.913 145.829C225.929 145.963 225.895 146.097 225.819 146.207L225.811 146.219C225.648 146.42 225.529 146.653 225.461 146.903C225.393 147.152 225.377 147.413 225.414 147.669C225.508 147.993 226.064 148.238 226.685 148.309C227.051 148.339 227.414 148.391 227.773 148.464C228.138 148.551 228.497 148.661 228.848 148.793C229.527 149.052 230.187 149.356 230.825 149.703C232.073 150.388 233.279 151.145 234.437 151.972C235.596 152.79 236.713 153.638 237.814 154.548L237.747 154.498C239.682 155.729 241.615 156.973 243.568 158.172C244.542 158.767 245.527 159.372 246.506 159.901L246.864 160.082L247.4 160.319C247.504 160.413 247.592 160.523 247.66 160.646L247.783 160.86L247.991 161.265C248.253 161.797 248.49 162.325 248.725 162.855C250.585 167.091 252.207 171.398 253.796 175.723C255.382 180.047 256.878 184.406 258.213 188.817C258.88 191.022 259.524 193.236 260.054 195.482C260.652 197.714 261.014 200.003 261.132 202.311C261.132 202.319 261.131 202.327 261.128 202.335C261.125 202.342 261.12 202.349 261.115 202.354C261.109 202.36 261.103 202.365 261.095 202.368C261.088 202.371 261.08 202.373 261.072 202.373C261.056 202.372 261.041 202.366 261.03 202.355C261.018 202.343 261.011 202.328 261.01 202.312C260.786 200.031 260.323 197.779 259.627 195.594C258.983 193.392 258.291 191.204 257.55 189.03C256.063 184.686 254.463 180.379 252.813 176.093C251.146 171.816 249.423 167.549 247.593 163.358C247.36 162.838 247.123 162.318 246.875 161.82L246.687 161.458L246.596 161.299C246.587 161.269 246.492 161.17 246.601 161.28C246.654 161.311 246.595 161.3 246.793 161.382C246.849 161.399 246.907 161.407 246.966 161.406L246.923 161.403C246.866 161.398 246.81 161.389 246.754 161.377C246.694 161.362 246.636 161.343 246.578 161.32C246.473 161.283 246.417 161.251 246.334 161.216L245.922 161.009C244.875 160.449 243.897 159.852 242.906 159.253C240.938 158.048 238.986 156.83 237.052 155.575L236.991 155.53L236.984 155.524C234.892 153.731 232.641 152.132 230.257 150.749C229.67 150.421 229.062 150.132 228.437 149.885C228.135 149.767 227.826 149.668 227.511 149.589C227.186 149.521 226.857 149.471 226.526 149.442C226.118 149.392 225.721 149.276 225.35 149.1C224.896 148.894 224.541 148.518 224.361 148.052C224.216 147.602 224.221 147.117 224.376 146.67C224.5 146.277 224.686 145.906 224.925 145.569L225.003 146.304C224.687 146.023 224.426 145.687 224.23 145.313C224.016 144.882 223.961 144.39 224.075 143.923C224.2 143.487 224.445 143.095 224.783 142.793C225.099 142.492 225.485 142.275 225.905 142.161C226.668 142.027 227.449 142.041 228.206 142.203C228.919 142.326 229.625 142.492 230.318 142.699L229.774 143.303C229.628 142.956 229.55 142.584 229.542 142.207C229.54 141.991 229.582 141.777 229.666 141.578C229.749 141.379 229.872 141.198 230.026 141.047C230.316 140.807 230.65 140.627 231.01 140.517C231.369 140.407 231.747 140.37 232.122 140.407C232.802 140.479 233.461 140.686 234.06 141.014L235.794 141.798L235.305 142.237C235.151 141.853 235.076 141.443 235.082 141.03C235.089 140.617 235.179 140.209 235.345 139.831C235.466 139.641 235.624 139.476 235.809 139.347C235.995 139.219 236.205 139.129 236.426 139.083C236.825 138.992 237.238 138.983 237.641 139.058C238.365 139.257 239.071 139.516 239.752 139.833L241.765 140.704C243.097 141.31 244.426 141.925 245.704 142.662C246.023 142.85 246.337 143.046 246.641 143.267C246.953 143.498 247.208 143.725 247.507 143.917C248.076 144.318 248.741 144.562 249.434 144.624C249.753 144.653 250.071 144.566 250.33 144.378C250.442 144.271 250.523 144.136 250.565 143.987C250.608 143.838 250.61 143.681 250.573 143.531L250.502 141.339C250.489 140.6 250.458 139.902 250.469 139.129C250.501 138.716 250.669 138.325 250.947 138.017C251.093 137.856 251.275 137.732 251.478 137.656C251.681 137.579 251.899 137.553 252.114 137.577C252.524 137.648 252.899 137.851 253.183 138.155C253.467 138.432 253.694 138.762 253.852 139.126C253.893 139.228 253.924 139.333 253.944 139.441L253.986 139.709L254.078 140.245L254.279 141.318L255.142 145.604L255.094 145.485C255.557 146.189 256.03 146.886 256.436 147.632C256.859 148.375 257.221 149.15 257.519 149.952C257.83 150.781 257.993 151.659 258.002 152.545C258.023 153.043 257.922 153.538 257.706 153.988C257.491 154.437 257.169 154.827 256.767 155.122L256.793 154.3C257.643 154.941 258.379 155.719 258.971 156.604C259.571 157.424 260.13 158.264 260.671 159.112C261.749 160.81 262.77 162.536 263.753 164.281C265.694 167.786 267.534 171.338 269.34 174.906C271.159 178.467 272.861 182.085 274.575 185.696C276.282 189.31 277.931 192.951 279.523 196.618C279.529 196.633 279.53 196.649 279.524 196.664C279.519 196.679 279.507 196.691 279.493 196.698C279.479 196.704 279.462 196.705 279.447 196.7C279.432 196.695 279.42 196.684 279.413 196.67L279.413 196.67Z" fill="black"/>
<path d="M250.708 159.289C249.666 160.241 248.38 160.888 246.993 161.156C246.926 161.168 246.857 161.168 246.791 161.154C246.724 161.14 246.66 161.113 246.604 161.074C246.547 161.036 246.499 160.987 246.462 160.93C246.424 160.872 246.398 160.809 246.386 160.741C246.373 160.674 246.374 160.605 246.388 160.538C246.402 160.472 246.429 160.408 246.467 160.352C246.506 160.295 246.555 160.247 246.612 160.21C246.67 160.173 246.734 160.147 246.801 160.134C246.845 160.126 246.891 160.124 246.936 160.127C248.247 160.199 249.552 159.909 250.708 159.289Z" fill="black"/>
<path d="M249.757 147.048C250.084 148.042 250.32 149.014 250.653 149.948C250.806 150.414 250.992 150.869 251.211 151.309C251.433 151.757 251.715 152.174 252.049 152.546C251.55 152.343 251.12 152.001 250.809 151.561C250.493 151.13 250.247 150.653 250.078 150.146C249.731 149.153 249.621 148.091 249.757 147.048Z" fill="black"/>
<path d="M243.13 145.467L235.284 142.411C235.209 142.381 235.149 142.323 235.116 142.249C235.084 142.175 235.082 142.092 235.111 142.016C235.14 141.941 235.198 141.881 235.272 141.848C235.346 141.816 235.43 141.814 235.505 141.843L235.525 141.852L243.13 145.467Z" fill="black"/>
<path d="M239.337 146.972L230.077 143.492C230.039 143.478 230.005 143.457 229.975 143.43C229.946 143.402 229.922 143.37 229.905 143.333C229.889 143.297 229.879 143.257 229.878 143.217C229.877 143.177 229.883 143.137 229.897 143.1C229.912 143.062 229.933 143.028 229.96 142.999C229.988 142.969 230.021 142.946 230.057 142.929C230.094 142.913 230.133 142.904 230.173 142.903C230.213 142.901 230.253 142.908 230.291 142.922L230.308 142.929L239.337 146.972Z" fill="black"/>
<path d="M235.246 148.431C233.626 147.884 231.991 147.386 230.343 146.947C229.518 146.734 228.69 146.533 227.858 146.377C227.058 146.197 226.235 146.136 225.416 146.194L225.382 146.199C225.343 146.204 225.302 146.202 225.264 146.191C225.225 146.181 225.189 146.164 225.157 146.139C225.125 146.115 225.099 146.085 225.078 146.05C225.058 146.016 225.045 145.978 225.04 145.938C225.034 145.899 225.037 145.858 225.047 145.82C225.057 145.781 225.075 145.745 225.099 145.713C225.123 145.681 225.154 145.654 225.188 145.634C225.223 145.614 225.261 145.601 225.3 145.596L225.32 145.594C226.21 145.57 227.099 145.684 227.955 145.931C228.793 146.14 229.613 146.393 230.429 146.656C232.057 147.194 233.662 147.785 235.246 148.431Z" fill="black"/>
<path d="M344.243 202.272L347.727 189.319L349.442 182.84C349.715 181.759 349.992 180.675 350.229 179.594C350.452 178.513 350.617 177.42 350.725 176.321C351.224 171.891 351.634 167.435 352.099 162.986C352.327 160.76 352.578 158.535 352.851 156.309C352.989 155.197 353.145 154.084 353.319 152.97C353.426 152.412 353.518 151.857 353.641 151.296L353.849 150.45C353.946 150.141 354.06 149.838 354.191 149.541C354.222 149.463 354.281 149.399 354.356 149.361L354.427 149.326C355.426 148.811 356.375 148.207 357.263 147.52C358.169 146.835 359.02 146.081 359.81 145.266C361.395 143.635 362.737 141.785 363.794 139.771L363.801 139.758C363.821 139.719 363.847 139.684 363.879 139.653L369.661 133.949C369.839 133.738 369.954 133.482 369.992 133.209C370.045 132.908 370.053 132.602 370.016 132.299C369.997 132.045 369.88 131.809 369.689 131.641C369.475 131.501 369.217 131.448 368.965 131.49C368.688 131.537 368.43 131.661 368.221 131.85L367.503 132.552C367.012 133.028 366.514 133.496 366.003 133.952C365.002 134.915 363.874 135.738 362.651 136.397C362.472 136.476 362.281 136.526 362.086 136.547C361.961 136.563 361.834 136.545 361.718 136.495C361.602 136.444 361.502 136.363 361.429 136.261C361.339 136.077 361.288 135.876 361.28 135.671C361.272 135.467 361.307 135.263 361.382 135.072C361.626 134.41 361.972 133.789 362.407 133.233C363.238 132.142 364.15 131.115 365.134 130.16C366.148 129.29 366.948 128.199 367.47 126.97C367.703 126.364 367.624 125.677 367.029 125.448C366.74 125.334 366.426 125.298 366.119 125.343C365.812 125.388 365.522 125.513 365.278 125.705C364.153 126.435 363.143 127.327 362.279 128.353C361.834 128.859 361.399 129.376 360.986 129.911C360.557 130.434 360.204 131.007 359.71 131.529C359.465 131.786 359.194 132.017 358.902 132.219C358.754 132.326 358.596 132.42 358.432 132.5C358.328 132.566 358.209 132.605 358.086 132.614C357.963 132.623 357.84 132.602 357.727 132.552C357.654 132.506 357.596 132.441 357.557 132.365C357.533 132.302 357.515 132.238 357.502 132.173C357.491 132.069 357.492 131.964 357.507 131.86C357.53 131.677 357.57 131.497 357.627 131.322C357.729 130.987 357.852 130.659 357.993 130.338C358.272 129.702 358.605 129.09 358.99 128.511L360.146 126.83C360.903 125.722 361.567 124.553 362.13 123.335C362.408 122.768 362.571 122.153 362.61 121.523C362.608 121.398 362.58 121.275 362.527 121.162C362.474 121.048 362.398 120.948 362.304 120.866C362.221 120.782 362.12 120.721 362.008 120.687C361.895 120.653 361.777 120.647 361.662 120.671C361.086 120.847 360.576 121.191 360.198 121.66C359.759 122.145 359.372 122.675 359.043 123.241C358.694 123.81 358.413 124.388 358.109 125.016C357.798 125.639 357.46 126.238 357.106 126.829C356.406 128.026 355.612 129.166 354.733 130.238C354.616 130.373 354.493 130.507 354.357 130.639C354.287 130.709 354.214 130.774 354.137 130.836C354.086 130.884 354.029 130.925 353.967 130.957C353.918 130.983 353.868 131.006 353.817 131.026C353.728 131.048 353.637 131.053 353.546 131.041C353.386 131.014 353.242 130.926 353.144 130.796C353.09 130.724 353.048 130.644 353.018 130.56C352.979 130.447 352.95 130.332 352.933 130.214C352.908 130.025 352.894 129.835 352.892 129.645C352.891 128.944 352.931 128.243 353.012 127.547C353.224 126.185 353.51 124.836 353.868 123.505C354.011 122.884 354.078 122.248 354.069 121.61C354.075 121.004 353.97 120.402 353.758 119.834C353.655 119.594 353.489 119.428 353.464 119.447C353.45 119.464 353.453 119.442 353.428 119.448C353.402 119.466 353.372 119.477 353.34 119.48C353.243 119.541 353.153 119.611 353.07 119.689C352.652 120.149 352.297 120.663 352.016 121.218C351.384 122.37 350.896 123.595 350.562 124.866C350.393 125.504 350.253 126.151 350.134 126.808C350.004 127.478 349.942 128.106 349.757 128.867C349.403 130.237 348.882 131.559 348.207 132.802C347.837 133.538 347.241 134.136 346.507 134.51C346.266 134.607 346.006 134.647 345.747 134.63C345.615 134.623 345.484 134.606 345.356 134.579L345.02 134.434C344.638 134.245 344.301 133.978 344.028 133.651C342.98 132.414 342.752 130.939 342.089 130.009C341.952 129.797 341.769 129.618 341.554 129.485C341.339 129.352 341.098 129.269 340.847 129.241C340.568 129.206 340.285 129.209 340.007 129.251L339.576 129.327C339.469 129.374 339.328 129.405 339.243 129.452C339.062 129.571 339.104 129.539 339.088 129.668C339.129 129.908 339.219 130.136 339.352 130.34C339.658 130.867 340.073 131.405 340.468 131.981C340.679 132.277 340.872 132.586 341.045 132.906C341.233 133.252 341.374 133.621 341.465 134.003C341.63 134.72 341.714 135.399 341.806 136.084L342.279 140.131C342.37 140.795 342.467 141.458 342.602 142.095C342.664 142.404 342.746 142.708 342.845 143.007C342.908 143.225 343.007 143.43 343.138 143.615L343.278 143.834C343.319 143.897 343.346 143.969 343.356 144.044C343.367 144.119 343.361 144.195 343.34 144.268C342.072 148.521 340.73 152.752 339.429 156.995L335.497 169.716L331.565 182.436L327.538 195.128C327.533 195.143 327.522 195.156 327.508 195.164C327.494 195.171 327.478 195.173 327.462 195.168C327.447 195.164 327.434 195.153 327.426 195.139C327.419 195.125 327.417 195.109 327.421 195.093L331.03 182.276L334.735 169.488L338.44 156.699C339.684 152.439 340.889 148.167 342.166 143.916L342.368 144.569C342.183 144.397 342.031 144.192 341.918 143.966C341.821 143.789 341.743 143.603 341.685 143.411C341.568 143.065 341.472 142.712 341.398 142.355C341.249 141.662 341.148 140.979 341.052 140.296L340.565 136.242C340.476 135.58 340.387 134.908 340.244 134.3C340.079 133.718 339.802 133.174 339.429 132.698C339.055 132.153 338.631 131.617 338.25 130.969C338.015 130.599 337.867 130.18 337.819 129.744C337.797 129.601 337.808 129.455 337.85 129.316C337.873 129.161 337.933 129.015 338.024 128.888C338.176 128.651 338.388 128.458 338.638 128.329C338.838 128.235 339.044 128.155 339.255 128.091L339.827 127.985C340.222 127.926 340.623 127.921 341.018 127.971C341.443 128.024 341.852 128.167 342.218 128.39C342.584 128.613 342.898 128.911 343.139 129.265C344.018 130.584 344.229 131.962 344.988 132.813C345.148 133.012 345.346 133.175 345.572 133.295C345.616 133.314 345.658 133.337 345.699 133.362C345.74 133.372 345.776 133.36 345.813 133.369C345.885 133.406 345.965 133.343 346.047 133.339C346.516 133.062 346.895 132.656 347.139 132.169C347.767 131.023 348.255 129.805 348.592 128.542C348.734 127.983 348.828 127.256 348.96 126.591C349.088 125.911 349.241 125.23 349.426 124.555C349.795 123.196 350.329 121.887 351.017 120.657C351.357 120.001 351.79 119.396 352.301 118.861C352.465 118.708 352.649 118.575 352.847 118.468C352.976 118.418 353.108 118.375 353.242 118.34C353.399 118.321 353.557 118.326 353.712 118.353C353.957 118.431 354.18 118.564 354.365 118.742C354.549 118.921 354.69 119.14 354.776 119.382C355.046 120.089 355.179 120.841 355.167 121.597C355.169 122.321 355.082 123.042 354.907 123.744C354.537 125.033 354.235 126.341 354.002 127.662C353.915 128.315 353.866 128.973 353.854 129.632C353.853 129.781 353.861 129.931 353.877 130.079C353.884 130.13 353.894 130.18 353.908 130.229C353.915 130.26 353.912 130.232 353.896 130.22C353.843 130.162 353.773 130.123 353.697 130.108C353.648 130.098 353.598 130.102 353.552 130.12C353.539 130.12 353.526 130.123 353.515 130.129C353.475 130.162 353.53 130.119 353.55 130.101C353.607 130.058 353.66 130.011 353.712 129.961C353.822 129.858 353.931 129.744 354.039 129.623C354.9 128.605 355.681 127.521 356.374 126.382C356.728 125.812 357.069 125.232 357.375 124.643C357.674 124.052 357.999 123.411 358.372 122.827C358.738 122.223 359.166 121.659 359.649 121.143C360.145 120.558 360.812 120.144 361.556 119.96C361.778 119.924 362.004 119.942 362.218 120.011C362.431 120.08 362.626 120.198 362.785 120.356C362.94 120.501 363.065 120.675 363.153 120.868C363.244 121.067 363.291 121.282 363.293 121.501C363.25 122.232 363.055 122.945 362.723 123.597C362.122 124.839 361.42 126.028 360.621 127.152C359.787 128.208 359.06 129.343 358.449 130.542C358.311 130.841 358.19 131.149 358.087 131.462C358.036 131.609 357.999 131.761 357.976 131.915C357.959 131.996 357.959 132.08 357.974 132.161C358.067 132.159 358.158 132.134 358.239 132.088C358.381 132.02 358.517 131.939 358.645 131.848C358.914 131.665 359.163 131.455 359.389 131.221C359.837 130.758 360.211 130.171 360.647 129.645C361.068 129.106 361.512 128.585 361.969 128.074C362.867 127.023 363.917 126.11 365.083 125.366C365.392 125.176 365.73 125.038 366.083 124.958C366.459 124.886 366.849 124.939 367.192 125.109C367.374 125.187 367.536 125.306 367.663 125.459C367.791 125.611 367.88 125.791 367.924 125.985C367.987 126.355 367.951 126.734 367.819 127.085C367.29 128.376 366.469 129.527 365.42 130.446C364.46 131.394 363.572 132.412 362.764 133.492C362.363 134.012 362.045 134.59 361.821 135.206C361.721 135.459 361.718 135.74 361.814 135.995C361.864 136.129 362.185 136.083 362.467 135.956C363.628 135.303 364.692 134.49 365.628 133.541C366.121 133.08 366.604 132.606 367.078 132.124L367.802 131.384C368.097 131.108 368.464 130.923 368.861 130.85C369.285 130.77 369.724 130.859 370.085 131.098C370.426 131.366 370.648 131.757 370.701 132.188C370.758 132.56 370.758 132.938 370.703 133.31C370.652 133.715 370.49 134.098 370.235 134.417L364.53 140.3L364.615 140.182C364.088 141.244 363.484 142.266 362.807 143.239C362.127 144.211 361.37 145.127 360.544 145.978C359.725 146.836 358.84 147.629 357.899 148.352C356.956 149.092 355.946 149.743 354.882 150.296L355.117 150.08C355.047 150.308 354.951 150.489 354.885 150.745L354.699 151.528C354.586 152.059 354.498 152.609 354.399 153.149C354.221 154.244 354.055 155.342 353.908 156.448C353.615 158.657 353.346 160.872 353.102 163.094C352.589 167.534 352.174 171.983 351.59 176.43C351.455 177.553 351.262 178.669 351.01 179.772C350.744 180.871 350.445 181.948 350.148 183.028L348.295 189.479C347.011 193.764 345.689 198.036 344.359 202.306C344.354 202.321 344.344 202.334 344.33 202.342C344.316 202.349 344.299 202.351 344.284 202.347C344.269 202.342 344.256 202.332 344.248 202.318C344.24 202.304 344.238 202.288 344.242 202.272L344.243 202.272Z" fill="black"/>
<path d="M358.955 138.159C358.151 137.23 357.293 136.35 356.384 135.524C355.941 135.125 355.454 134.777 354.934 134.486C354.4 134.195 353.819 134.002 353.218 133.916C353.854 133.768 354.52 133.815 355.129 134.053C355.736 134.287 356.296 134.63 356.782 135.064C357.747 135.904 358.493 136.966 358.955 138.159Z" fill="black"/>
<path d="M351.085 135.623C351.244 136.604 351.246 137.604 351.09 138.586C351.017 139.079 350.903 139.564 350.748 140.038C350.606 140.526 350.356 140.976 350.018 141.356C350.14 140.886 350.229 140.408 350.286 139.926L350.489 138.496C350.617 137.525 350.817 136.565 351.085 135.623Z" fill="black"/>
<path d="M346.449 145.486C345.732 145.57 345.007 145.544 344.298 145.41C343.498 145.279 342.763 144.889 342.204 144.301L342.181 144.275C342.126 144.215 342.084 144.144 342.057 144.068C342.029 143.991 342.017 143.91 342.021 143.829C342.025 143.747 342.045 143.668 342.08 143.594C342.115 143.521 342.164 143.455 342.224 143.4C342.285 143.346 342.355 143.304 342.432 143.276C342.508 143.249 342.59 143.237 342.671 143.241C342.752 143.246 342.832 143.266 342.905 143.301C342.979 143.336 343.044 143.385 343.099 143.445C343.143 143.494 343.179 143.55 343.206 143.611C343.492 144.149 343.945 144.579 344.498 144.836C345.112 145.15 345.769 145.369 346.449 145.486Z" fill="black"/>
<path d="M266.417 300.461C266.437 306.3 266.439 312.139 266.366 317.976C266.304 323.813 266.264 329.65 266.131 335.486L265.784 352.993C265.643 358.828 265.447 364.661 265.196 370.494L264.966 370.003C267.502 371.962 270.235 373.65 273.122 375.04C276.006 376.469 279.07 377.501 282.231 378.106C285.392 378.715 288.645 378.67 291.787 377.972C294.915 377.24 297.83 375.794 300.305 373.747C300.339 373.718 300.378 373.697 300.421 373.685C300.463 373.672 300.508 373.668 300.552 373.674L300.569 373.676C304.016 374.084 307.485 374.281 310.956 374.264C314.417 374.258 317.874 374.018 321.302 373.545C324.703 373.098 328.036 372.231 331.223 370.962C334.368 369.769 337.139 367.762 339.254 365.146L339.084 365.75L337.173 349.329L335.359 332.896L333.531 316.465C332.906 310.989 332.294 305.512 331.617 300.04C331.614 300.018 331.62 299.996 331.633 299.978C331.647 299.96 331.666 299.949 331.688 299.945C331.709 299.942 331.732 299.947 331.75 299.959C331.768 299.972 331.78 299.991 331.784 300.013C332.842 305.428 333.729 310.875 334.562 316.328C335.423 321.777 336.155 327.244 336.897 332.709C337.651 338.172 338.315 343.647 338.977 349.121C339.613 354.599 340.208 360.081 340.763 365.568L340.764 365.582C340.785 365.794 340.724 366.005 340.594 366.173C338.27 368.992 335.238 371.141 331.808 372.4C328.485 373.663 325.012 374.492 321.477 374.868C317.98 375.266 314.459 375.4 310.942 375.271C307.435 375.171 303.937 374.864 300.467 374.35L300.731 374.279C298.143 376.329 295.128 377.772 291.908 378.503C288.69 379.178 285.374 379.232 282.136 378.664C278.906 378.105 275.759 377.149 272.764 375.819C269.749 374.506 266.882 372.875 264.212 370.955C264.14 370.903 264.082 370.835 264.042 370.756C264.002 370.677 263.981 370.59 263.982 370.502L263.982 370.464C264.03 364.626 264.125 358.79 264.266 352.955L264.79 335.452C264.949 329.618 265.199 323.785 265.427 317.952C265.644 312.119 265.937 306.288 266.248 300.457C266.249 300.435 266.259 300.414 266.275 300.399C266.291 300.384 266.312 300.376 266.334 300.377C266.356 300.377 266.377 300.386 266.393 300.402C266.408 300.418 266.417 300.439 266.417 300.461L266.417 300.461Z" fill="black"/>
<path d="M307.472 318.431C308.824 317.976 310.153 317.487 311.476 317.003C312.794 316.506 314.103 315.996 315.369 315.4C316.645 314.837 317.877 314.178 319.054 313.429C320.245 312.685 321.321 311.773 322.249 310.72C321.563 311.997 320.603 313.106 319.437 313.968C318.289 314.845 317.042 315.585 315.721 316.171C314.415 316.766 313.064 317.254 311.679 317.63C310.303 318.021 308.895 318.289 307.472 318.431Z" fill="black"/>
<path d="M300.518 374.013C300.79 369.204 301.265 364.411 301.812 359.626C302.357 354.841 303.064 350.075 303.835 345.318C304.664 340.573 305.563 335.833 306.742 331.156C307.831 326.456 309.336 321.862 311.239 317.428L310.074 320.843L309.083 324.308C308.466 326.628 307.862 328.952 307.376 331.305C306.854 333.649 306.385 336.005 305.912 338.36C305.488 340.725 305.042 343.085 304.669 345.459C303.83 350.192 303.138 354.95 302.456 359.71C302.107 362.089 301.778 364.471 301.469 366.857L300.518 374.013Z" fill="black"/>
<path d="M308.918 374.717L309.593 362.022C309.801 357.792 310.035 353.564 310.142 349.333C310.317 345.104 310.38 340.875 310.332 336.646C310.309 334.533 310.243 332.419 310.065 330.315C309.97 328.203 309.584 326.114 308.918 324.107C309.743 326.072 310.269 328.15 310.479 330.271C310.741 332.383 310.881 334.505 310.984 336.627C311.172 340.873 311.097 345.12 310.988 349.361C310.809 353.601 310.588 357.838 310.24 362.064C309.893 366.291 309.485 370.513 308.918 374.717Z" fill="black"/>
<path d="M265.344 330.246C268.074 329.912 270.821 329.721 273.571 329.673C273.654 329.671 273.737 329.686 273.815 329.716C273.892 329.746 273.963 329.791 274.023 329.848C274.084 329.905 274.132 329.974 274.166 330.05C274.199 330.126 274.218 330.208 274.22 330.291L274.22 330.294L274.22 330.322C274.247 331.714 274.279 333.106 274.218 334.498C274.16 335.89 274.044 337.283 273.954 338.675C273.752 341.455 273.751 344.246 273.95 347.027C274.022 348.419 274.137 349.811 274.196 351.203C274.256 352.595 274.282 353.987 274.316 355.379C274.412 358.164 274.398 360.947 274.306 363.732L274.304 363.794C274.299 363.959 274.234 364.116 274.122 364.238C274.01 364.359 273.859 364.437 273.695 364.456C272.873 364.558 272.046 364.606 271.218 364.6C270.392 364.601 269.567 364.535 268.751 364.401C267.92 364.276 267.112 364.026 266.356 363.659C265.968 363.483 265.619 363.23 265.332 362.916C265.044 362.602 264.823 362.232 264.682 361.83C264.679 361.82 264.679 361.81 264.68 361.8C264.681 361.79 264.684 361.781 264.689 361.772C264.694 361.763 264.701 361.756 264.709 361.75C264.717 361.743 264.726 361.739 264.736 361.736C264.752 361.732 264.769 361.733 264.785 361.74C264.801 361.746 264.814 361.758 264.822 361.772C265.228 362.418 265.868 362.883 266.608 363.068C267.336 363.287 268.091 363.404 268.851 363.415C269.623 363.425 270.395 363.396 271.164 363.327C271.929 363.25 272.717 363.152 273.448 363.007L272.836 363.732C272.745 360.948 272.731 358.164 272.826 355.379C272.86 353.987 272.887 352.595 272.946 351.203C273.005 349.811 273.12 348.419 273.193 347.027C273.392 344.246 273.39 341.455 273.188 338.675C273.099 337.283 272.983 335.89 272.925 334.499C272.863 333.107 272.896 331.714 272.922 330.322L273.571 330.971C270.82 330.923 268.074 330.732 265.344 330.398C265.325 330.396 265.308 330.387 265.296 330.373C265.284 330.359 265.277 330.341 265.277 330.322C265.277 330.304 265.284 330.286 265.296 330.272C265.308 330.258 265.325 330.249 265.344 330.246L265.344 330.246Z" fill="black"/>
<path d="M265.231 336.322C266.65 336.254 268.072 336.347 269.47 336.597C270.875 336.811 272.251 337.183 273.571 337.708C272.152 337.777 270.73 337.685 269.332 337.433C267.927 337.217 266.552 336.845 265.231 336.322Z" fill="black"/>
<path d="M268.026 372.228C267.027 373.323 266.082 374.463 265.183 375.63C264.337 376.862 263.409 378.036 262.406 379.144C261.875 379.684 261.312 380.182 260.734 380.665C260.132 381.147 259.51 381.563 258.893 381.981L255.198 384.438C250.305 387.698 245.699 391.369 241.428 395.41C239.298 397.427 237.274 399.553 235.324 401.746C233.393 403.97 231.58 406.235 229.757 408.601C227.912 410.947 225.938 413.189 223.845 415.317C221.767 417.472 219.416 419.278 217.206 421.264C218.09 420.067 219.089 418.953 220.058 417.834C221.02 416.702 222.037 415.629 223.016 414.536C224.989 412.355 226.825 410.056 228.586 407.705C232.017 402.817 235.937 398.291 240.285 394.199C242.457 392.145 244.745 390.219 247.14 388.431C249.52 386.634 251.993 384.962 254.548 383.423C255.814 382.645 257.111 381.914 258.382 381.168C259.017 380.795 259.644 380.414 260.232 380.015C260.822 379.589 261.401 379.141 261.943 378.66C262.999 377.639 263.986 376.549 264.897 375.397C265.879 374.282 266.923 373.224 268.026 372.228Z" fill="black"/>
<path d="M225.234 438.734C226.675 437.292 228.159 435.893 229.66 434.514C231.163 433.136 232.658 431.747 234.206 430.419C237.295 427.755 240.43 425.14 243.656 422.628C246.892 420.107 250.266 417.77 253.763 415.628C255.535 414.544 257.38 413.586 259.286 412.76C259.764 412.546 260.275 412.386 260.773 412.205C261.256 412.031 261.709 411.888 262.174 411.708C263.095 411.348 264.01 410.956 264.906 410.514C272.074 406.797 278.654 402.04 284.429 396.397C287.35 393.6 289.994 390.529 292.325 387.225C294.746 383.961 296.414 380.201 297.208 376.215C296.87 380.307 295.074 384.15 292.943 387.63C290.728 391.091 288.157 394.311 285.273 397.238C282.424 400.197 279.348 402.93 276.073 405.41C272.811 407.936 269.315 410.144 265.632 412.004C264.705 412.468 263.749 412.885 262.776 413.271C262.293 413.462 261.775 413.63 261.301 413.804C260.844 413.975 260.383 414.121 259.932 414.327C258.095 415.108 256.315 416.017 254.604 417.047C251.146 419.105 247.788 421.385 244.512 423.775C241.206 426.128 237.973 428.594 234.78 431.114C231.568 433.61 228.399 436.165 225.234 438.734Z" fill="black"/>
<path d="M270.5 388.662C269.664 390.048 268.789 391.34 268.09 392.708C267.727 393.37 267.446 394.075 267.252 394.805C267.045 395.543 267.053 396.326 267.275 397.06C267.004 396.736 266.804 396.358 266.687 395.952C266.571 395.546 266.541 395.12 266.599 394.701C266.686 393.867 266.937 393.058 267.336 392.32C268.09 390.87 269.173 389.617 270.5 388.662Z" fill="black"/>
<path d="M226.016 439.582C225.227 438.951 224.234 438.629 223.224 438.676C221.092 438.733 216.423 438.243 214.762 433.252C214.407 432.055 214.298 430.798 214.442 429.558C214.587 428.317 214.981 427.119 215.602 426.036C216.819 423.8 218.111 420.47 216.366 418.527C213.555 415.433 207.763 421.281 207.763 421.281C207.763 421.281 203.81 424.064 200.508 423.781C199.158 423.65 197.795 423.838 196.53 424.329C195.265 424.821 194.134 425.602 193.226 426.611C190.802 429.318 189.519 433.573 195.084 439.356C195.084 439.356 199.292 443.139 201.556 457.204C203.82 471.269 209.48 488.598 219.319 483.476C219.699 483.191 220.011 482.824 220.231 482.403C220.452 481.982 220.575 481.517 220.592 481.042C220.516 480.592 220.329 480.168 220.047 479.809C219.765 479.449 219.398 479.166 218.979 478.985C218.571 478.789 218.129 478.671 217.677 478.636C217.208 478.609 216.737 478.628 216.272 478.693C215.242 478.735 214.214 478.564 213.253 478.193C211.365 477.365 209.771 475.988 208.678 474.24C207.604 472.55 206.772 470.718 206.206 468.797L206.187 468.76V468.731C205.442 465.232 204.65 461.732 203.744 458.279C203.291 456.553 202.81 454.826 202.263 453.138C201.787 451.464 201.089 449.862 200.188 448.374C199.238 446.789 198.478 445.099 197.924 443.337C197.339 441.62 196.848 439.874 196.433 438.11C196.023 436.344 195.739 434.55 195.584 432.743C195.343 430.941 195.504 429.108 196.056 427.375C195.698 429.131 195.698 430.94 196.056 432.696C196.357 434.453 196.748 436.194 197.226 437.912C197.716 439.629 198.273 441.318 198.924 442.969C199.537 444.61 200.311 446.187 201.235 447.676C201.452 447.997 201.744 448.478 201.98 448.874C202.188 449.298 202.405 449.713 202.584 450.138C202.952 450.987 203.263 451.846 203.556 452.713C204.131 454.44 204.631 456.175 205.103 457.921C205.999 461.42 206.801 464.92 207.461 468.477C207.966 470.28 208.695 472.014 209.631 473.637C210.538 475.262 211.916 476.574 213.583 477.401C214.423 477.776 215.333 477.972 216.253 477.976C216.756 477.941 217.262 477.957 217.762 478.023C218.279 478.105 218.775 478.284 219.224 478.551C219.685 478.793 220.078 479.147 220.367 479.581C220.655 480.015 220.83 480.514 220.875 481.032C220.822 481.532 220.654 482.013 220.384 482.437C220.114 482.861 219.749 483.216 219.319 483.476C219.319 483.476 223.092 483.4 223.083 474.127C223.073 468.656 223.196 460.373 223.29 454.515C222.432 454.147 221.649 453.723 220.875 453.308L218.592 452.072C217.86 451.681 217.104 451.337 216.328 451.044C215.55 450.715 214.686 450.648 213.866 450.855C214.197 450.487 214.618 450.211 215.087 450.054C215.557 449.896 216.059 449.864 216.545 449.959C217.494 450.069 218.413 450.361 219.253 450.817C220.069 451.251 220.826 451.787 221.507 452.411C222.212 453.011 222.814 453.722 223.29 454.515C223.366 450.449 223.422 447.544 223.422 447.544C222.705 446.912 222.111 446.28 221.451 445.723C220.82 445.166 220.145 444.661 219.432 444.214C217.963 443.302 216.363 442.621 214.687 442.195C215.593 441.881 216.565 441.81 217.507 441.987C218.461 442.144 219.373 442.494 220.187 443.016C221.005 443.525 221.713 444.192 222.271 444.978C222.832 445.742 223.224 446.617 223.422 447.544C223.422 447.544 229.677 442.648 226.016 439.582ZM207.112 442.139C205.442 442.525 202.32 440.082 203.263 436.714C204.357 432.799 203.782 430.29 205.452 429.903C207.121 429.517 208.848 431.95 209.3 435.327C209.763 438.705 208.782 441.752 207.112 442.139ZM216.442 457.072C217.42 457.125 218.376 457.389 219.243 457.845C220.096 458.28 220.874 458.851 221.545 459.534C222.229 460.184 222.783 460.959 223.177 461.817C221.554 460.864 220.13 459.873 218.602 459.109C217.854 458.726 217.074 458.407 216.272 458.157C215.419 457.946 214.546 457.832 213.668 457.817C214.488 457.276 215.461 457.015 216.442 457.072Z" fill="black"/>
<path d="M311.161 374.243C310.332 375.472 309.562 376.737 308.842 378.022C308.184 379.364 307.436 380.66 306.604 381.901C306.157 382.512 305.672 383.087 305.17 383.649C304.645 384.213 304.089 384.715 303.54 385.217L300.239 388.185C295.871 392.12 291.846 396.419 288.206 401.036C286.391 403.341 284.697 405.738 283.085 408.19C281.497 410.671 280.031 413.175 278.571 415.781C277.085 418.369 275.457 420.874 273.694 423.283C271.951 425.716 269.887 427.844 267.988 430.129C268.689 428.817 269.516 427.57 270.313 426.322C271.1 425.063 271.951 423.854 272.761 422.63C274.397 420.186 275.881 417.645 277.282 415.063C279.968 409.73 283.191 404.684 286.9 400.004C288.75 397.657 290.736 395.42 292.845 393.303C294.94 391.18 297.144 389.168 299.449 387.274C300.589 386.32 301.766 385.409 302.916 384.487C303.49 384.026 304.055 383.558 304.579 383.078C305.101 382.571 305.609 382.043 306.075 381.489C306.972 380.326 307.791 379.105 308.525 377.833C309.335 376.587 310.215 375.389 311.161 374.243Z" fill="black"/>
<path d="M278.464 446.251C283.705 439.345 289.368 432.769 295.422 426.562C298.454 423.425 301.703 420.507 305.146 417.828C306.025 417.168 306.924 416.529 307.865 415.935C308.782 415.338 309.868 414.817 310.742 414.346C312.579 413.297 314.323 412.095 315.956 410.751C319.27 408.043 322.351 405.062 325.168 401.84C328.009 398.628 330.584 395.19 332.867 391.56C335.163 387.939 336.963 384.026 338.22 379.927C339.557 375.816 339.666 371.405 338.532 367.234C340.11 371.304 339.918 375.887 338.904 380.107C337.808 384.343 336.108 388.4 333.856 392.151C329.428 399.704 323.721 406.43 316.991 412.03C315.289 413.443 313.471 414.709 311.555 415.814C310.525 416.367 309.666 416.797 308.761 417.368C307.869 417.921 307 418.529 306.145 419.161C302.751 421.784 299.514 424.604 296.45 427.606C293.341 430.585 290.299 433.643 287.324 436.779C284.34 439.902 281.387 443.059 278.464 446.251Z" fill="black"/>
<path d="M315.993 390.146C315.366 391.637 314.688 393.043 314.194 394.498C313.932 395.206 313.755 395.943 313.67 396.694C313.572 397.455 313.693 398.228 314.019 398.922C313.704 398.641 313.451 398.296 313.277 397.911C313.103 397.526 313.011 397.108 313.008 396.686C312.974 395.848 313.104 395.011 313.392 394.224C313.928 392.679 314.818 391.282 315.993 390.146Z" fill="black"/>
<path d="M281.466 481.58C280.966 478.193 280.353 473.703 279.777 469.392C278.032 468.675 276.476 467.901 274.863 467.373C274.067 467.103 273.249 466.901 272.419 466.769C271.544 466.679 270.66 466.691 269.787 466.807C270.522 466.158 271.444 465.759 272.419 465.666C273.396 465.589 274.378 465.711 275.306 466.024C276.213 466.329 277.064 466.782 277.825 467.364C278.597 467.911 279.26 468.599 279.777 469.392C279.438 466.826 279.108 464.316 278.834 462.147C277.964 461.911 277.107 461.627 276.268 461.298L273.834 460.411C273.051 460.132 272.251 459.902 271.438 459.722C270.618 459.507 269.75 459.567 268.967 459.892C269.246 459.483 269.624 459.152 270.066 458.929C270.509 458.706 271 458.6 271.495 458.619C272.45 458.593 273.401 458.75 274.297 459.081C275.17 459.389 276.001 459.807 276.768 460.326C277.546 460.823 278.243 461.437 278.834 462.147C278.306 458.119 277.947 455.232 277.947 455.232C277.155 454.713 276.466 454.166 275.73 453.713C275.026 453.256 274.288 452.853 273.523 452.506C271.935 451.823 270.252 451.384 268.533 451.204C269.38 450.757 270.331 450.545 271.287 450.591C272.253 450.612 273.206 450.824 274.09 451.214C274.973 451.604 275.772 452.165 276.438 452.864C277.103 453.538 277.618 454.345 277.947 455.232C277.947 455.232 283.428 449.478 279.362 446.978C278.49 446.465 277.459 446.291 276.466 446.487C274.363 446.846 269.684 447.044 267.306 442.346C266.782 441.212 266.494 439.984 266.458 438.736C266.422 437.487 266.64 436.244 267.099 435.082C267.976 432.696 268.769 429.205 266.759 427.545C263.533 424.885 258.647 431.517 258.647 431.517C258.647 431.517 255.137 434.847 251.826 435.045C250.472 435.111 249.152 435.493 247.973 436.162C246.793 436.83 245.787 437.766 245.034 438.894C243.034 441.931 242.383 446.318 248.723 451.242C248.723 451.242 253.43 454.374 257.713 467.958C261.995 481.551 270.108 497.871 279.098 491.372C279.434 491.037 279.69 490.63 279.846 490.183C280.003 489.735 280.057 489.258 280.004 488.787C279.865 488.353 279.62 487.96 279.29 487.645C278.961 487.331 278.557 487.104 278.117 486.985C277.685 486.847 277.23 486.793 276.778 486.825C276.308 486.867 275.843 486.956 275.391 487.089C274.376 487.278 273.333 487.258 272.325 487.032C270.34 486.486 268.565 485.355 267.231 483.787C265.922 482.268 264.833 480.572 263.995 478.75L263.977 478.721L263.967 478.693C262.722 475.344 261.429 471.995 260.033 468.703C259.335 467.062 258.609 465.43 257.826 463.836C257.108 462.25 256.185 460.766 255.081 459.421C253.911 457.992 252.914 456.431 252.109 454.77C251.285 453.154 250.542 451.498 249.883 449.808C249.216 448.124 248.674 446.393 248.26 444.629C247.762 442.878 247.656 441.039 247.949 439.243C247.848 441.031 248.108 442.821 248.713 444.506C249.271 446.201 249.913 447.866 250.638 449.497C251.364 451.119 252.166 452.714 253.053 454.26C253.896 455.791 254.888 457.235 256.015 458.572C256.279 458.864 256.637 459.298 256.93 459.656C257.184 460.043 257.467 460.43 257.713 460.826C258.194 461.609 258.628 462.411 259.043 463.222C259.863 464.845 260.609 466.496 261.326 468.156C262.722 471.486 264.024 474.844 265.193 478.259C265.953 479.97 266.923 481.58 268.08 483.051C269.219 484.524 270.773 485.622 272.542 486.202C273.429 486.446 274.357 486.507 275.268 486.381C275.761 486.273 276.264 486.216 276.768 486.212C277.289 486.217 277.804 486.319 278.287 486.514C278.779 486.687 279.22 486.982 279.568 487.371C279.916 487.76 280.16 488.231 280.277 488.74C280.3 489.24 280.206 489.739 280.001 490.196C279.796 490.653 279.487 491.056 279.098 491.372C279.098 491.372 282.815 490.749 281.466 481.58ZM261.024 452.251C259.43 452.864 255.986 450.912 256.43 447.44C256.949 443.403 256.015 441.007 257.609 440.384C259.203 439.761 261.269 441.912 262.212 445.186C263.146 448.468 262.618 451.629 261.024 452.251Z" fill="black"/>
<path d="M204.351 172.708C204.87 177.183 205.642 181.625 206.662 186.013C207.65 190.365 209.023 194.621 210.764 198.731C211.615 200.776 212.622 202.753 213.773 204.646C214.897 206.547 216.192 208.343 217.641 210.009C219.107 211.67 220.74 213.174 222.516 214.497C224.35 215.791 226.311 216.896 228.368 217.793C226.144 217.248 224.005 216.4 222.011 215.273C220.026 214.085 218.197 212.654 216.565 211.014C213.359 207.67 210.805 203.758 209.032 199.478C207.25 195.252 205.971 190.83 205.225 186.305C204.427 181.819 204.134 177.259 204.351 172.708Z" fill="black"/>
<path d="M199.084 202.981C200.517 207.067 202.218 211.053 204.175 214.915C205.171 216.822 206.197 218.707 207.35 220.51C208.467 222.329 209.703 224.071 211.052 225.726C213.665 229.075 216.842 231.943 220.44 234.201C222.268 235.289 224.205 236.18 226.22 236.86C228.278 237.515 230.394 237.972 232.539 238.224C230.341 238.357 228.135 238.199 225.978 237.754C223.804 237.266 221.701 236.503 219.72 235.485C217.75 234.431 215.899 233.168 214.199 231.718C212.525 230.25 210.98 228.641 209.582 226.908C206.842 223.435 204.577 219.612 202.848 215.54C201.08 211.525 199.816 207.307 199.084 202.981Z" fill="black"/>
<path d="M161.794 391.748C160.432 396.042 159.313 400.409 158.443 404.829C157.558 409.204 157.063 413.648 156.965 418.11C156.902 420.325 157.008 422.541 157.282 424.739C157.527 426.935 157.971 429.103 158.609 431.217C159.263 433.333 160.136 435.374 161.213 437.31C162.354 439.243 163.689 441.054 165.198 442.717C163.393 441.307 161.789 439.656 160.433 437.811C159.111 435.912 158.03 433.857 157.215 431.692C155.664 427.327 154.939 422.711 155.079 418.081C155.188 413.495 155.836 408.939 157.012 404.505C158.125 400.088 159.729 395.809 161.794 391.748Z" fill="black"/>
<path d="M144.57 417.194C144.2 421.507 144.115 425.841 144.315 430.166C144.441 432.313 144.603 434.454 144.915 436.571C145.187 438.688 145.6 440.784 146.151 442.846C147.159 446.973 148.88 450.892 151.235 454.427C152.455 456.169 153.856 457.777 155.414 459.224C157.023 460.666 158.765 461.951 160.618 463.061C158.558 462.28 156.611 461.231 154.827 459.94C153.045 458.603 151.44 457.044 150.051 455.302C148.687 453.533 147.517 451.622 146.562 449.602C145.637 447.577 144.889 445.475 144.326 443.321C143.252 439.03 142.755 434.614 142.849 430.191C142.884 425.804 143.462 421.439 144.57 417.194Z" fill="black"/>
<path d="M384.652 274.36C384.843 278.911 384.523 283.47 383.698 287.951C382.925 292.472 381.621 296.886 379.814 301.101C378.016 305.371 375.439 309.268 372.213 312.593C370.572 314.223 368.734 315.643 366.743 316.82C364.742 317.935 362.598 318.77 360.37 319.302C362.434 318.417 364.401 317.324 366.242 316.041C368.026 314.728 369.668 313.234 371.143 311.582C372.602 309.924 373.907 308.136 375.042 306.241C376.205 304.356 377.223 302.384 378.087 300.344C379.851 296.245 381.249 291.997 382.263 287.651C383.309 283.269 384.106 278.831 384.652 274.36Z" fill="black"/>
<path d="M389.741 304.663C388.984 308.984 387.695 313.195 385.903 317.199C384.15 321.261 381.863 325.071 379.103 328.527C377.695 330.252 376.141 331.853 374.458 333.31C372.75 334.75 370.891 336.002 368.915 337.045C366.928 338.052 364.821 338.802 362.644 339.278C360.484 339.71 358.277 339.855 356.08 339.709C358.226 339.469 360.345 339.025 362.407 338.382C364.426 337.714 366.369 336.834 368.202 335.757C371.814 333.52 375.008 330.671 377.64 327.337C378.998 325.69 380.245 323.955 381.372 322.143C382.536 320.347 383.573 318.468 384.58 316.567C386.561 312.717 388.284 308.74 389.741 304.663Z" fill="black"/>
<path d="M204.845 95.9994C204.854 95.7944 204.82 95.5899 204.747 95.3982C204.674 95.2066 204.562 95.0318 204.42 94.8847L198.693 89.4997C198.254 89.1308 197.695 89.3112 197.41 89.8982C197.271 90.1935 197.219 90.5222 197.258 90.8462C197.298 91.1702 197.429 91.4763 197.636 91.7292L202.169 95.9994L197.636 100.27C197.361 100.576 197.21 100.973 197.21 101.384C197.21 101.796 197.361 102.193 197.636 102.499L202.169 106.77L197.636 111.04C197.361 111.346 197.21 111.743 197.21 112.155C197.21 112.566 197.361 112.963 197.636 113.269L203.362 118.654C203.801 119.064 204.391 118.897 204.681 118.285C204.827 117.984 204.88 117.647 204.833 117.315C204.787 116.984 204.643 116.674 204.42 116.425L199.886 112.154L204.42 107.884C204.694 107.578 204.845 107.181 204.845 106.77C204.845 106.358 204.694 105.961 204.42 105.655L199.886 101.384L204.42 97.1142C204.562 96.967 204.674 96.7923 204.747 96.6006C204.82 96.4089 204.854 96.2044 204.845 95.9994L204.845 95.9994Z" fill="black"/>
<path d="M170.722 329.328C170.707 329.717 170.828 330.1 171.064 330.41L174.708 334.557L171.064 338.703C170.89 338.964 170.782 339.263 170.749 339.574C170.715 339.885 170.758 340.2 170.872 340.492C171.1 341.072 171.561 341.247 171.914 340.868L176.517 335.639C176.74 335.322 176.859 334.944 176.859 334.557C176.859 334.169 176.74 333.791 176.517 333.474L172.873 329.328L176.517 325.181C176.74 324.864 176.859 324.486 176.859 324.099C176.859 323.711 176.74 323.333 176.517 323.016L172.873 318.87L176.517 314.723C176.691 314.463 176.799 314.164 176.833 313.853C176.866 313.541 176.824 313.226 176.709 312.935C176.482 312.354 176.02 312.179 175.667 312.558L171.064 317.787C170.842 318.104 170.722 318.482 170.722 318.87C170.722 319.257 170.842 319.635 171.064 319.952L174.708 324.099L171.064 328.245C170.825 328.554 170.704 328.938 170.722 329.328Z" fill="black"/>
<path d="M149.024 172.66C149.009 173.05 149.13 173.433 149.367 173.743L153.011 177.889L149.367 182.036C149.193 182.297 149.085 182.595 149.051 182.907C149.018 183.218 149.06 183.533 149.175 183.824C149.402 184.405 149.864 184.58 150.217 184.201L154.82 178.972C155.042 178.655 155.162 178.277 155.162 177.889C155.162 177.502 155.042 177.124 154.82 176.807L151.176 172.66L154.82 168.514C155.042 168.197 155.162 167.819 155.162 167.431C155.162 167.044 155.042 166.666 154.82 166.349L151.176 162.202L154.82 158.056C154.993 157.795 155.102 157.497 155.135 157.185C155.169 156.874 155.126 156.559 155.011 156.267C154.784 155.687 154.323 155.512 153.97 155.891L149.367 161.12C149.144 161.437 149.024 161.815 149.024 162.202C149.024 162.59 149.144 162.968 149.367 163.285L153.011 167.431L149.367 171.578C149.128 171.887 149.006 172.27 149.024 172.66Z" fill="black"/>
<path d="M410.954 378.907C410.939 379.318 411.085 379.717 411.36 380.022L415.686 384.292L411.36 388.563C411.156 388.819 411.027 389.126 410.986 389.451C410.946 389.776 410.997 390.106 411.132 390.404C411.402 391.002 411.95 391.183 412.369 390.792L417.834 385.407C418.096 385.095 418.24 384.7 418.24 384.292C418.24 383.885 418.096 383.49 417.834 383.178L413.508 378.907L417.834 374.637C418.096 374.325 418.24 373.93 418.24 373.522C418.24 373.115 418.096 372.72 417.834 372.408L413.508 368.137L417.834 363.867C418.038 363.611 418.167 363.303 418.207 362.978C418.247 362.653 418.197 362.323 418.062 362.025C417.792 361.428 417.244 361.247 416.825 361.638L411.36 367.023C411.097 367.335 410.954 367.729 410.954 368.137C410.954 368.545 411.097 368.94 411.36 369.252L415.686 373.522L411.36 377.793C411.222 377.943 411.116 378.118 411.046 378.31C410.976 378.501 410.945 378.704 410.954 378.907Z" fill="black"/>
<path d="M425.976 210.641L422.577 213.711C421.739 214.595 421.272 215.767 421.272 216.986C421.272 218.204 421.739 219.376 422.577 220.261L423.556 221.155C423.833 221.449 423.987 221.838 423.987 222.243C423.987 222.647 423.833 223.036 423.556 223.331L422.577 224.225C421.739 225.109 421.272 226.281 421.272 227.5C421.272 228.718 421.739 229.891 422.577 230.775L423.556 231.669C423.833 231.963 423.987 232.352 423.987 232.757C423.987 233.161 423.833 233.55 423.556 233.845L422.577 234.739C421.739 235.623 421.272 236.795 421.272 238.014C421.272 239.232 421.739 240.405 422.577 241.289L423.556 242.183C423.833 242.477 423.987 242.867 423.987 243.271C423.987 243.675 423.833 244.065 423.556 244.359L420.15 247.44C419.934 247.681 419.796 247.981 419.752 248.301C419.709 248.622 419.763 248.948 419.907 249.238C419.949 249.367 420.021 249.483 420.119 249.578C420.216 249.672 420.335 249.741 420.465 249.778C420.596 249.815 420.733 249.82 420.866 249.792C420.998 249.764 421.122 249.703 421.226 249.616L424.624 246.546C425.462 245.662 425.93 244.489 425.93 243.271C425.93 242.053 425.462 240.88 424.624 239.996L423.645 239.102C423.503 238.96 423.392 238.79 423.319 238.603C423.246 238.415 423.213 238.215 423.222 238.014C423.213 237.812 423.246 237.611 423.32 237.423C423.395 237.236 423.508 237.066 423.653 236.926L424.632 236.032C425.466 235.145 425.93 233.974 425.93 232.757C425.93 231.54 425.466 230.369 424.632 229.482L423.653 228.588C423.376 228.293 423.222 227.904 423.222 227.5C423.222 227.096 423.376 226.706 423.653 226.412L424.632 225.518C425.466 224.631 425.93 223.46 425.93 222.243C425.93 221.026 425.466 219.855 424.632 218.968L423.653 218.074C423.376 217.779 423.222 217.39 423.222 216.986C423.222 216.581 423.376 216.192 423.653 215.898L427.052 212.817C427.278 212.578 427.425 212.276 427.473 211.952C427.522 211.627 427.471 211.295 427.326 211.001C427.284 210.868 427.209 210.748 427.109 210.651C427.008 210.555 426.885 210.486 426.75 210.45C426.615 210.414 426.474 210.413 426.339 210.446C426.203 210.479 426.079 210.546 425.976 210.641V210.641Z" fill="black"/>
<path d="M385.919 95.0577L382.328 91.9021C382.037 91.6042 381.874 91.2041 381.874 90.7875C381.874 90.3708 382.037 89.9707 382.328 89.6728L383.36 88.7573C384.242 87.8631 384.736 86.658 384.736 85.4024C384.736 84.1468 384.242 82.9417 383.36 82.0475L382.328 81.1322C382.037 80.8342 381.874 80.4341 381.874 80.0175C381.874 79.6008 382.037 79.2007 382.328 78.9027L383.36 77.9872C384.242 77.0931 384.736 75.888 384.736 74.6324C384.736 73.3768 384.242 72.1717 383.36 71.2775L382.328 70.3621C382.037 70.0642 381.874 69.664 381.874 69.2473C381.874 68.8307 382.037 68.4305 382.328 68.1326L383.36 67.2172C384.242 66.3231 384.736 65.1179 384.736 63.8624C384.736 62.6068 384.242 61.4016 383.36 60.5075L379.778 57.3626C379.668 57.273 379.539 57.211 379.4 57.1819C379.262 57.1528 379.118 57.1575 378.982 57.1955C378.846 57.2335 378.72 57.3038 378.617 57.4003C378.514 57.4969 378.435 57.6169 378.388 57.7503C378.236 58.0464 378.179 58.382 378.225 58.7115C378.271 59.0409 378.417 59.3483 378.643 59.592L382.234 62.7477C382.526 63.0455 382.689 63.4457 382.689 63.8624C382.689 64.279 382.526 64.6792 382.234 64.9771L381.202 65.8924C380.321 66.7865 379.827 67.9917 379.827 69.2473C379.827 70.503 380.321 71.7081 381.202 72.6023L382.234 73.5177C382.526 73.8156 382.689 74.2157 382.689 74.6324C382.689 75.0491 382.526 75.4492 382.234 75.747L381.202 76.6626C380.321 77.5567 379.827 78.7618 379.827 80.0174C379.827 81.2731 380.321 82.4782 381.202 83.3723L382.234 84.2877C382.526 84.5856 382.689 84.9857 382.689 85.4024C382.689 85.8191 382.526 86.2193 382.234 86.5172L381.202 87.4326C380.321 88.3267 379.827 89.5319 379.827 90.7875C379.827 92.0431 380.321 93.2482 381.202 94.1423L384.785 97.2872C384.894 97.3819 385.024 97.4487 385.164 97.4817C385.304 97.5146 385.45 97.5129 385.59 97.4765C385.729 97.4402 385.858 97.3703 385.964 97.2731C386.07 97.1758 386.151 97.054 386.2 96.9184C386.355 96.6184 386.412 96.2767 386.362 95.9425C386.311 95.6082 386.157 95.2985 385.919 95.0577H385.919Z" fill="black"/>
<path d="M318.642 75.9153C318.715 76.9941 318.461 78.0699 317.915 79.0027C317.368 79.9356 316.553 80.6824 315.577 81.1461C314.6 81.6098 313.506 81.7689 312.438 81.6028C311.369 81.4367 310.376 80.9531 309.586 80.2147C308.796 79.4763 308.246 78.5174 308.009 77.4626C307.771 76.4078 307.856 75.3059 308.253 74.3002C308.65 73.2944 309.34 72.4313 310.234 71.823C311.128 71.2148 312.184 70.8895 313.266 70.8895C314.644 70.8458 315.984 71.3501 316.992 72.292C317.999 73.234 318.593 74.5368 318.642 75.9153Z" fill="black"/>
<path d="M381.179 415.163C381.252 416.246 380.998 417.325 380.45 418.261C379.901 419.196 379.084 419.946 378.104 420.411C377.124 420.876 376.027 421.036 374.955 420.869C373.884 420.702 372.887 420.217 372.094 419.476C371.302 418.736 370.751 417.774 370.512 416.716C370.274 415.657 370.359 414.552 370.757 413.543C371.156 412.534 371.848 411.668 372.745 411.058C373.642 410.448 374.701 410.122 375.786 410.122C377.169 410.078 378.513 410.584 379.524 411.529C380.535 412.474 381.13 413.78 381.179 415.163Z" fill="black"/>
<path d="M442.396 159.288C442.455 160.155 442.251 161.02 441.812 161.77C441.372 162.519 440.718 163.119 439.933 163.492C439.148 163.865 438.269 163.993 437.41 163.859C436.552 163.726 435.753 163.337 435.119 162.744C434.484 162.15 434.042 161.38 433.851 160.532C433.66 159.684 433.729 158.799 434.048 157.991C434.367 157.182 434.921 156.489 435.64 156C436.358 155.511 437.207 155.25 438.076 155.25C439.184 155.214 440.261 155.619 441.071 156.376C441.881 157.133 442.357 158.181 442.396 159.288Z" fill="black"/>
<path d="M246.486 339.41C246.545 340.277 246.341 341.141 245.902 341.891C245.462 342.64 244.808 343.24 244.023 343.613C243.238 343.986 242.359 344.114 241.5 343.98C240.642 343.847 239.843 343.458 239.209 342.865C238.574 342.271 238.132 341.501 237.941 340.653C237.75 339.805 237.819 338.92 238.138 338.112C238.457 337.303 239.011 336.61 239.73 336.121C240.448 335.632 241.297 335.371 242.166 335.371C243.274 335.335 244.351 335.74 245.161 336.497C245.971 337.254 246.447 338.302 246.486 339.41Z" fill="black"/>
<path d="M293.083 155.376C296.725 155.376 296.731 149.716 293.083 149.716C289.441 149.716 289.435 155.376 293.083 155.376Z" fill="black"/>
<path d="M191.155 252.648C194.797 252.648 194.803 246.988 191.155 246.988C187.513 246.988 187.507 252.648 191.155 252.648Z" fill="black"/>
<path d="M410.954 325.016C414.596 325.016 414.602 319.356 410.954 319.356C407.312 319.356 407.306 325.016 410.954 325.016Z" fill="black"/>
<path d="M366.31 232.962C369.952 232.962 369.958 227.302 366.31 227.302C362.668 227.302 362.662 232.962 366.31 232.962Z" fill="black"/>
</svg>
